<svg width="25" height="25" viewBox="0 0 25 25" fill="none" xmlns="http://www.w3.org/2000/svg">
<path d="M18.0256 19.9473H9.52555C8.22741 19.9469 6.95494 19.5856 5.85033 18.9037C4.74571 18.2218 3.85247 17.2462 3.27042 16.0859C2.68837 14.9255 2.44044 13.6262 2.55434 12.3331C2.66824 11.04 3.13948 9.80397 3.9154 8.76325C4.69132 7.72252 5.74135 6.91806 6.94815 6.43975C8.15496 5.96145 9.47099 5.82814 10.7492 6.05473C12.0274 6.28132 13.2174 6.85888 14.1863 7.72287C15.1551 8.58686 15.8647 9.70325 16.2356 10.9473H18.0256C19.219 10.9473 20.3636 11.4214 21.2075 12.2653C22.0514 13.1092 22.5256 14.2538 22.5256 15.4473C22.5256 16.6407 22.0514 17.7853 21.2075 18.6292C20.3636 19.4732 19.219 19.9473 18.0256 19.9473Z" stroke="#333333" stroke-width="2" stroke-linecap="round" stroke-linejoin="round"/>
</svg>
