<svg width="25" height="25" viewBox="0 0 25 25" fill="none" xmlns="http://www.w3.org/2000/svg">
<path d="M18.5273 4.94727H6.52734C5.42277 4.94727 4.52734 5.8427 4.52734 6.94727V18.9473C4.52734 20.0518 5.42277 20.9473 6.52734 20.9473H18.5273C19.6319 20.9473 20.5273 20.0518 20.5273 18.9473V6.94727C20.5273 5.8427 19.6319 4.94727 18.5273 4.94727Z" stroke="#333333" stroke-width="2" stroke-linecap="round" stroke-linejoin="round"/>
<path d="M14.5273 9.94727H10.5273C9.97506 9.94727 9.52734 10.395 9.52734 10.9473V14.9473C9.52734 15.4996 9.97506 15.9473 10.5273 15.9473H14.5273C15.0796 15.9473 15.5273 15.4996 15.5273 14.9473V10.9473C15.5273 10.395 15.0796 9.94727 14.5273 9.94727Z" stroke="#333333" stroke-width="2" stroke-linecap="round" stroke-linejoin="round"/>
<path d="M15.5273 2.94727V4.94727" stroke="#333333" stroke-width="2" stroke-linecap="round" stroke-linejoin="round"/>
<path d="M15.5273 20.9473V22.9473" stroke="#333333" stroke-width="2" stroke-linecap="round" stroke-linejoin="round"/>
<path d="M2.52734 15.9473H4.52734" stroke="#333333" stroke-width="2" stroke-linecap="round" stroke-linejoin="round"/>
<path d="M2.52734 9.94727H4.52734" stroke="#333333" stroke-width="2" stroke-linecap="round" stroke-linejoin="round"/>
<path d="M20.5273 15.9473H22.5273" stroke="#333333" stroke-width="2" stroke-linecap="round" stroke-linejoin="round"/>
<path d="M20.5273 9.94727H22.5273" stroke="#333333" stroke-width="2" stroke-linecap="round" stroke-linejoin="round"/>
<path d="M9.52734 2.94727V4.94727" stroke="#333333" stroke-width="2" stroke-linecap="round" stroke-linejoin="round"/>
<path d="M9.52734 20.9473V22.9473" stroke="#333333" stroke-width="2" stroke-linecap="round" stroke-linejoin="round"/>
</svg>
