<svg width="25" height="25" viewBox="0 0 25 25" fill="none" xmlns="http://www.w3.org/2000/svg">
<path d="M12.1953 8.94727C17.1659 8.94727 21.1953 7.60412 21.1953 5.94727C21.1953 4.29041 17.1659 2.94727 12.1953 2.94727C7.22475 2.94727 3.19531 4.29041 3.19531 5.94727C3.19531 7.60412 7.22475 8.94727 12.1953 8.94727Z" stroke="#333333" stroke-width="2" stroke-linecap="round" stroke-linejoin="round"/>
<path d="M3.19531 5.94727V19.9473C3.19531 20.7429 4.14352 21.506 5.83135 22.0686C7.51918 22.6312 9.80836 22.9473 12.1953 22.9473C14.5823 22.9473 16.8714 22.6312 18.5593 22.0686C20.2471 21.506 21.1953 20.7429 21.1953 19.9473V5.94727" stroke="#333333" stroke-width="2" stroke-linecap="round" stroke-linejoin="round"/>
<path d="M3.19531 12.9473C3.19531 13.7429 4.14352 14.506 5.83135 15.0686C7.51918 15.6312 9.80836 15.9473 12.1953 15.9473C14.5823 15.9473 16.8714 15.6312 18.5593 15.0686C20.2471 14.506 21.1953 13.7429 21.1953 12.9473" stroke="#333333" stroke-width="2" stroke-linecap="round" stroke-linejoin="round"/>
</svg>
