<svg width="25" height="25" viewBox="0 0 25 25" fill="none" xmlns="http://www.w3.org/2000/svg">
<path d="M16.1953 21.4473V19.4473C16.1953 18.3864 15.7739 17.369 15.0237 16.6188C14.2736 15.8687 13.2562 15.4473 12.1953 15.4473H6.19531C5.13445 15.4473 4.11703 15.8687 3.36689 16.6188C2.61674 17.369 2.19531 18.3864 2.19531 19.4473V21.4473" stroke="#111827" stroke-width="2" stroke-linecap="round" stroke-linejoin="round"/>
<path d="M9.19531 11.4473C11.4045 11.4473 13.1953 9.6564 13.1953 7.44727C13.1953 5.23813 11.4045 3.44727 9.19531 3.44727C6.98617 3.44727 5.19531 5.23813 5.19531 7.44727C5.19531 9.6564 6.98617 11.4473 9.19531 11.4473Z" stroke="#111827" stroke-width="2" stroke-linecap="round" stroke-linejoin="round"/>
<path d="M22.1953 21.4471V19.4471C22.1947 18.5609 21.8997 17.6999 21.3567 16.9995C20.8137 16.299 20.0534 15.7987 19.1953 15.5771" stroke="#111827" stroke-width="2" stroke-linecap="round" stroke-linejoin="round"/>
<path d="M16.1953 3.57715C17.0557 3.79745 17.8183 4.29785 18.363 4.99946C18.9076 5.70107 19.2032 6.56398 19.2032 7.45215C19.2032 8.34032 18.9076 9.20323 18.363 9.90484C17.8183 10.6064 17.0557 11.1068 16.1953 11.3271" stroke="#111827" stroke-width="2" stroke-linecap="round" stroke-linejoin="round"/>
</svg>
