<svg width="1440" height="733" viewBox="0 0 1440 733" fill="none" xmlns="http://www.w3.org/2000/svg">
<g opacity="0.4" clip-path="url(#clip0_29_1599)">
<rect width="1920" height="733" transform="translate(-236)" fill="white"/>
<mask id="mask0_29_1599" style="mask-type:alpha" maskUnits="userSpaceOnUse" x="-676" y="-317" width="2608" height="1919">
<path d="M774.881 405.104C774.881 601.45 645.061 760.62 484.921 760.62C324.78 760.62 -675.762 71.9572 -675.762 -124.389C-675.762 -320.736 761.822 -50.4284 921.963 -50.4284C1082.1 -50.4284 774.881 208.757 774.881 405.104Z" fill="url(#paint0_linear_29_1599)"/>
<path d="M887.5 1246.47C887.5 1442.82 757.681 1601.99 597.54 1601.99C437.399 1601.99 -454.723 1556.22 -454.723 1359.87C-454.723 1163.53 -388.778 698.428 -228.638 698.428C-68.4968 698.428 887.5 1050.12 887.5 1246.47Z" fill="url(#paint1_radial_29_1599)"/>
<path d="M1216.43 405.642C1648.52 795.893 1448.92 599.776 1820.04 589.896C1878.26 601.111 1977.1 601.644 1906.68 514.055C1818.66 404.569 1847.03 327.239 1737.03 207.953C1627.02 88.6679 1560.03 -32.5239 1393.96 -222.244C1227.88 -411.964 1215.11 -255.572 1027.88 -270.398C840.652 -285.223 926.046 -261.68 667.721 13.5961C409.396 288.872 784.341 15.3906 1216.43 405.642Z" fill="#D9D9D9"/>
<path d="M808.501 1019.48C230.261 1087.56 509.295 1066.55 272.284 1352.31C225.498 1388.73 159.998 1462.75 272.284 1467.45C412.642 1473.34 452.144 1545.62 614.353 1541.41C776.563 1537.21 911.878 1566.63 1164.02 1566.63C1416.16 1566.63 1306.9 1454 1441.37 1322.89C1575.85 1191.78 1501.88 1240.53 1464.9 864.839C1427.92 489.151 1386.74 951.407 808.501 1019.48Z" fill="#D9D9D9"/>
</mask>
<g mask="url(#mask0_29_1599)">
<line x1="-279.062" y1="382.413" x2="1736.37" y2="382.413" stroke="black" stroke-opacity="0.09" stroke-width="1.68093"/>
<line x1="-279.062" y1="597.57" x2="1736.37" y2="597.57" stroke="black" stroke-opacity="0.09" stroke-width="1.68093"/>
<line x1="-279.062" y1="167.253" x2="1736.37" y2="167.253" stroke="black" stroke-opacity="0.09" stroke-width="1.68093"/>
<line x1="-279.062" y1="705.15" x2="1736.37" y2="705.15" stroke="black" stroke-opacity="0.09" stroke-width="1.68093"/>
<line x1="-279.062" y1="274.833" x2="1736.37" y2="274.833" stroke="black" stroke-opacity="0.09" stroke-width="1.68093"/>
<line x1="-279.062" y1="489.99" x2="1736.37" y2="489.99" stroke="black" stroke-opacity="0.09" stroke-width="1.68093"/>
<line x1="-279.062" y1="59.6726" x2="1736.37" y2="59.6726" stroke="black" stroke-opacity="0.09" stroke-width="1.68093"/>
<line x1="396.365" y1="-148.766" x2="396.365" y2="1018.64" stroke="black" stroke-opacity="0.09" stroke-width="1.2607"/>
<line x1="73.6264" y1="-148.766" x2="73.6264" y2="1018.64" stroke="black" stroke-opacity="0.09" stroke-width="1.2607"/>
<line x1="719.099" y1="-148.766" x2="719.099" y2="1018.64" stroke="black" stroke-opacity="0.09" stroke-width="1.2607"/>
<line x1="1041.84" y1="-148.766" x2="1041.84" y2="1018.64" stroke="black" stroke-opacity="0.09" stroke-width="1.2607"/>
<line x1="557.732" y1="-148.766" x2="557.732" y2="1018.64" stroke="black" stroke-opacity="0.09" stroke-width="1.2607"/>
<line x1="234.994" y1="-148.766" x2="234.994" y2="1018.64" stroke="black" stroke-opacity="0.09" stroke-width="1.2607"/>
<line x1="880.47" y1="-148.766" x2="880.47" y2="1018.64" stroke="black" stroke-opacity="0.09" stroke-width="1.2607"/>
<line x1="1203.21" y1="-148.766" x2="1203.21" y2="1018.64" stroke="black" stroke-opacity="0.09" stroke-width="1.2607"/>
<line x1="477.048" y1="-148.766" x2="477.048" y2="1018.64" stroke="black" stroke-opacity="0.09" stroke-width="1.2607"/>
<line x1="154.306" y1="-148.766" x2="154.306" y2="1018.64" stroke="black" stroke-opacity="0.09" stroke-width="1.2607"/>
<line x1="799.787" y1="-148.766" x2="799.787" y2="1018.64" stroke="black" stroke-opacity="0.09" stroke-width="1.2607"/>
<line x1="1122.52" y1="-148.766" x2="1122.52" y2="1018.64" stroke="black" stroke-opacity="0.09" stroke-width="1.2607"/>
<line x1="638.419" y1="-148.766" x2="638.419" y2="1018.64" stroke="black" stroke-opacity="0.09" stroke-width="1.2607"/>
<line x1="315.677" y1="-148.766" x2="315.677" y2="1018.64" stroke="black" stroke-opacity="0.09" stroke-width="1.2607"/>
<line x1="961.154" y1="-148.766" x2="961.154" y2="1018.64" stroke="black" stroke-opacity="0.09" stroke-width="1.2607"/>
<line x1="1283.9" y1="-148.766" x2="1283.9" y2="1018.64" stroke="black" stroke-opacity="0.09" stroke-width="1.2607"/>
<g opacity="0.7">
<rect x="1290.77" y="275.977" width="106.968" height="105.44" fill="#2563EB" fill-opacity="0.11"/>
<rect x="428.918" y="169.009" width="106.968" height="105.44" fill="#2563EB" fill-opacity="0.15"/>
<rect x="1182.28" y="382.945" width="106.968" height="105.44" fill="#2563EB" fill-opacity="0.11"/>
<rect x="320.422" y="275.977" width="106.968" height="105.44" fill="#2563EB" fill-opacity="0.15"/>
<rect x="1182.28" y="275.977" width="106.968" height="105.44" fill="#2563EB" fill-opacity="0.11"/>
<rect x="320.422" y="169.009" width="106.968" height="105.44" fill="#2563EB" fill-opacity="0.15"/>
<rect x="1075.31" y="60.5118" width="106.968" height="106.968" fill="#2563EB" fill-opacity="0.15"/>
<rect x="968.344" y="-61.7373" width="106.968" height="106.968" fill="#2563EB" fill-opacity="0.15"/>
<rect x="967.176" y="58.9839" width="106.968" height="108.496" fill="#2563EB" fill-opacity="0.15"/>
<rect x="-0.484375" y="165.952" width="108.496" height="110.025" fill="#2563EB" fill-opacity="0.15"/>
<rect x="321.949" y="-47.9839" width="108.496" height="106.968" fill="#2563EB" fill-opacity="0.15"/>
<rect x="-0.484375" y="381.417" width="106.968" height="108.496" fill="#2563EB" fill-opacity="0.15"/>
</g>
<rect x="-236" y="670" width="1919" height="251" fill="url(#paint2_linear_29_1599)"/>
</g>
</g>
<defs>
<linearGradient id="paint0_linear_29_1599" x1="16.7815" y1="-26.0548" x2="622.757" y2="296.684" gradientUnits="userSpaceOnUse">
<stop stop-color="white"/>
<stop offset="1" stop-color="white" stop-opacity="0"/>
</linearGradient>
<radialGradient id="paint1_radial_29_1599" cx="0" cy="0" r="1" gradientUnits="userSpaceOnUse" gradientTransform="translate(-29.4474 1254.82) rotate(-29.3932) scale(1036.02 1780.63)">
<stop stop-color="white"/>
<stop offset="1" stop-color="white" stop-opacity="0"/>
</radialGradient>
<linearGradient id="paint2_linear_29_1599" x1="723.5" y1="670" x2="723.5" y2="921" gradientUnits="userSpaceOnUse">
<stop stop-color="white" stop-opacity="0"/>
<stop offset="1" stop-color="white"/>
</linearGradient>
<clipPath id="clip0_29_1599">
<rect width="1920" height="733" fill="white" transform="translate(-236)"/>
</clipPath>
</defs>
</svg>
