<svg width="1440" height="7220" viewBox="0 0 1440 7220" fill="none" xmlns="http://www.w3.org/2000/svg">
<g clip-path="url(#clip0_29_1321)">
<rect width="1440" height="7220" fill="white"/>
<g opacity="0.27" filter="url(#filter0_f_29_1321)">
<circle cx="23.9399" cy="7554.94" r="275.185" transform="rotate(-130.444 23.9399 7554.94)" fill="#22BDBD" fill-opacity="0.4"/>
</g>
<g opacity="0.6" filter="url(#filter1_f_29_1321)">
<circle cx="1646.09" cy="66.0944" r="435.607" transform="rotate(-130.444 1646.09 66.0944)" fill="#F287B7" fill-opacity="0.4"/>
</g>
<path d="M0 228.979C16.9128 228.979 145.45 374.429 315.544 374.429C551.839 374.429 679.065 -155.431 1011.87 -7.31637C1275.7 110.106 1391.68 122.67 1440 41.0059" stroke="url(#paint0_linear_29_1321)"/>
<path d="M0 103.341C14.9799 114.455 145.45 374.429 315.544 374.429C551.839 374.429 717.723 -97.4445 1050.52 50.6701C1314.36 168.093 1355.92 149.247 1440 89.3279" stroke="url(#paint1_linear_29_1321)"/>
<path d="M0 306.295C16.9128 306.295 145.45 378.295 315.544 378.295C551.839 378.295 681.825 -241.909 992.537 -51.7721C1219.17 86.9125 1353.02 142 1440 79.6643" stroke="url(#paint2_linear_29_1321)"/>
<g opacity="0.6" filter="url(#filter2_f_29_1321)">
<circle cx="-63.0601" cy="406.941" r="275.185" transform="rotate(-130.444 -63.0601 406.941)" fill="#22BDBD" fill-opacity="0.4"/>
</g>
<g opacity="0.4" clip-path="url(#clip1_29_1321)">
<rect width="1920" height="733" transform="translate(-236 115)" fill="white"/>
<mask id="mask0_29_1321" style="mask-type:alpha" maskUnits="userSpaceOnUse" x="-676" y="-202" width="2608" height="1919">
<path d="M774.881 520.104C774.881 716.45 645.061 875.62 484.921 875.62C324.78 875.62 -675.762 186.957 -675.762 -9.38929C-675.762 -205.736 761.822 64.5716 921.963 64.5716C1082.1 64.5716 774.881 323.757 774.881 520.104Z" fill="url(#paint3_linear_29_1321)"/>
<path d="M887.5 1361.47C887.5 1557.82 757.681 1716.99 597.54 1716.99C437.399 1716.99 -454.723 1671.22 -454.723 1474.87C-454.723 1278.53 -388.778 813.428 -228.638 813.428C-68.4968 813.428 887.5 1165.12 887.5 1361.47Z" fill="url(#paint4_radial_29_1321)"/>
<path d="M1216.43 520.642C1648.52 910.893 1448.92 714.776 1820.04 704.896C1878.26 716.111 1977.1 716.644 1906.68 629.055C1818.66 519.569 1847.03 442.239 1737.03 322.953C1627.02 203.668 1560.03 82.4761 1393.96 -107.244C1227.88 -296.964 1215.11 -140.572 1027.88 -155.398C840.652 -170.223 926.046 -146.68 667.721 128.596C409.396 403.872 784.341 130.391 1216.43 520.642Z" fill="#D9D9D9"/>
<path d="M808.501 1134.48C230.261 1202.56 509.295 1181.55 272.284 1467.31C225.498 1503.73 159.998 1577.75 272.284 1582.45C412.642 1588.34 452.144 1660.62 614.353 1656.41C776.563 1652.21 911.878 1681.63 1164.02 1681.63C1416.16 1681.63 1306.9 1569 1441.37 1437.89C1575.85 1306.78 1501.88 1355.53 1464.9 979.839C1427.92 604.151 1386.74 1066.41 808.501 1134.48Z" fill="#D9D9D9"/>
</mask>
<g mask="url(#mask0_29_1321)">
<line x1="-279.062" y1="497.413" x2="1736.37" y2="497.413" stroke="black" stroke-opacity="0.09" stroke-width="1.68093"/>
<line x1="-279.062" y1="712.57" x2="1736.37" y2="712.57" stroke="black" stroke-opacity="0.09" stroke-width="1.68093"/>
<line x1="-279.062" y1="282.253" x2="1736.37" y2="282.253" stroke="black" stroke-opacity="0.09" stroke-width="1.68093"/>
<line x1="-279.062" y1="820.15" x2="1736.37" y2="820.15" stroke="black" stroke-opacity="0.09" stroke-width="1.68093"/>
<line x1="-279.062" y1="389.833" x2="1736.37" y2="389.833" stroke="black" stroke-opacity="0.09" stroke-width="1.68093"/>
<line x1="-279.062" y1="604.99" x2="1736.37" y2="604.99" stroke="black" stroke-opacity="0.09" stroke-width="1.68093"/>
<line x1="-279.062" y1="174.673" x2="1736.37" y2="174.673" stroke="black" stroke-opacity="0.09" stroke-width="1.68093"/>
<line x1="396.365" y1="-33.7661" x2="396.365" y2="1133.64" stroke="black" stroke-opacity="0.09" stroke-width="1.2607"/>
<line x1="73.6264" y1="-33.7664" x2="73.6264" y2="1133.64" stroke="black" stroke-opacity="0.09" stroke-width="1.2607"/>
<line x1="719.099" y1="-33.7661" x2="719.099" y2="1133.64" stroke="black" stroke-opacity="0.09" stroke-width="1.2607"/>
<line x1="1041.84" y1="-33.7661" x2="1041.84" y2="1133.64" stroke="black" stroke-opacity="0.09" stroke-width="1.2607"/>
<line x1="557.732" y1="-33.7661" x2="557.732" y2="1133.64" stroke="black" stroke-opacity="0.09" stroke-width="1.2607"/>
<line x1="234.994" y1="-33.7661" x2="234.994" y2="1133.64" stroke="black" stroke-opacity="0.09" stroke-width="1.2607"/>
<line x1="880.47" y1="-33.7664" x2="880.47" y2="1133.64" stroke="black" stroke-opacity="0.09" stroke-width="1.2607"/>
<line x1="1203.21" y1="-33.7661" x2="1203.21" y2="1133.64" stroke="black" stroke-opacity="0.09" stroke-width="1.2607"/>
<line x1="477.048" y1="-33.7664" x2="477.048" y2="1133.64" stroke="black" stroke-opacity="0.09" stroke-width="1.2607"/>
<line x1="154.306" y1="-33.7661" x2="154.306" y2="1133.64" stroke="black" stroke-opacity="0.09" stroke-width="1.2607"/>
<line x1="799.787" y1="-33.7661" x2="799.787" y2="1133.64" stroke="black" stroke-opacity="0.09" stroke-width="1.2607"/>
<line x1="1122.52" y1="-33.7661" x2="1122.52" y2="1133.64" stroke="black" stroke-opacity="0.09" stroke-width="1.2607"/>
<line x1="638.419" y1="-33.7661" x2="638.419" y2="1133.64" stroke="black" stroke-opacity="0.09" stroke-width="1.2607"/>
<line x1="315.677" y1="-33.7661" x2="315.677" y2="1133.64" stroke="black" stroke-opacity="0.09" stroke-width="1.2607"/>
<line x1="961.154" y1="-33.7661" x2="961.154" y2="1133.64" stroke="black" stroke-opacity="0.09" stroke-width="1.2607"/>
<line x1="1283.9" y1="-33.7664" x2="1283.9" y2="1133.64" stroke="black" stroke-opacity="0.09" stroke-width="1.2607"/>
<g opacity="0.7">
<rect x="1290.77" y="390.977" width="106.968" height="105.44" fill="#2563EB" fill-opacity="0.11"/>
<rect x="428.918" y="284.009" width="106.968" height="105.44" fill="#2563EB" fill-opacity="0.15"/>
<rect x="1182.28" y="497.945" width="106.968" height="105.44" fill="#2563EB" fill-opacity="0.11"/>
<rect x="320.422" y="390.977" width="106.968" height="105.44" fill="#2563EB" fill-opacity="0.15"/>
<rect x="1182.28" y="390.977" width="106.968" height="105.44" fill="#2563EB" fill-opacity="0.11"/>
<rect x="320.422" y="284.009" width="106.968" height="105.44" fill="#2563EB" fill-opacity="0.15"/>
<rect x="1075.31" y="175.512" width="106.968" height="106.968" fill="#2563EB" fill-opacity="0.15"/>
<rect x="968.344" y="53.2627" width="106.968" height="106.968" fill="#2563EB" fill-opacity="0.15"/>
<rect x="967.176" y="173.984" width="106.968" height="108.496" fill="#2563EB" fill-opacity="0.15"/>
<rect x="-0.484375" y="280.952" width="108.496" height="110.025" fill="#2563EB" fill-opacity="0.15"/>
<rect x="321.949" y="67.0161" width="108.496" height="106.968" fill="#2563EB" fill-opacity="0.15"/>
<rect x="-0.484375" y="496.417" width="106.968" height="108.496" fill="#2563EB" fill-opacity="0.15"/>
</g>
<rect x="-236" y="785" width="1919" height="251" fill="url(#paint5_linear_29_1321)"/>
</g>
</g>
<g opacity="0.5" filter="url(#filter3_f_29_1321)">
<path d="M907 616.5C907 679.737 827.083 731 728.5 731C629.917 731 550 679.737 550 616.5C550 553.263 629.917 502 728.5 502C827.083 502 907 553.263 907 616.5Z" fill="#2563EB"/>
</g>
<mask id="mask1_29_1321" style="mask-type:alpha" maskUnits="userSpaceOnUse" x="-207" y="3799" width="2387" height="1437">
<path d="M1135.5 4880.47C1135.5 5076.82 1005.68 5235.99 845.54 5235.99C685.399 5235.99 -206.723 5190.22 -206.723 4993.87C-206.723 4797.53 -140.778 4332.43 19.3625 4332.43C179.503 4332.43 1135.5 4684.12 1135.5 4880.47Z" fill="url(#paint6_radial_29_1321)"/>
<path d="M1464.43 4550.64C1896.52 4940.89 1696.92 4744.78 2068.04 4734.9C2126.26 4746.11 2225.1 4746.64 2154.68 4659.06C2066.66 4549.57 2095.03 4472.24 1985.03 4352.95C1875.02 4233.67 1808.03 4112.48 1641.96 3922.76C1475.88 3733.04 1463.11 3889.43 1275.88 3874.6C1088.65 3859.78 1174.05 3883.32 915.721 4158.6C657.396 4433.87 1032.34 4160.39 1464.43 4550.64Z" fill="#D9D9D9"/>
</mask>
<g mask="url(#mask1_29_1321)">
<line x1="-31.0625" y1="4446.73" x2="1984.37" y2="4446.73" stroke="black" stroke-opacity="0.09" stroke-width="1.68093"/>
<line x1="-31.0625" y1="4877.05" x2="1984.37" y2="4877.05" stroke="black" stroke-opacity="0.09" stroke-width="1.68093"/>
<line x1="-31.0625" y1="4016.41" x2="1984.37" y2="4016.41" stroke="black" stroke-opacity="0.09" stroke-width="1.68093"/>
<line x1="-31.0625" y1="5092.21" x2="1984.37" y2="5092.21" stroke="black" stroke-opacity="0.09" stroke-width="1.68093"/>
<line x1="-31.0625" y1="4231.57" x2="1984.37" y2="4231.57" stroke="black" stroke-opacity="0.09" stroke-width="1.68093"/>
<line x1="-31.0625" y1="4661.89" x2="1984.37" y2="4661.89" stroke="black" stroke-opacity="0.09" stroke-width="1.68093"/>
<line x1="-31.0625" y1="3801.25" x2="1984.37" y2="3801.25" stroke="black" stroke-opacity="0.09" stroke-width="1.68093"/>
<line x1="-31.0625" y1="5199.79" x2="1984.37" y2="5199.79" stroke="black" stroke-opacity="0.09" stroke-width="1.68093"/>
<line x1="-31.0625" y1="4339.15" x2="1984.37" y2="4339.15" stroke="black" stroke-opacity="0.09" stroke-width="1.68093"/>
<line x1="-31.0625" y1="4769.47" x2="1984.37" y2="4769.47" stroke="black" stroke-opacity="0.09" stroke-width="1.68093"/>
<line x1="-31.0625" y1="4445.83" x2="1984.37" y2="4445.83" stroke="black" stroke-opacity="0.09" stroke-width="1.68093"/>
<line x1="-31.0625" y1="4984.63" x2="1984.37" y2="4984.63" stroke="black" stroke-opacity="0.09" stroke-width="1.68093"/>
<line x1="-31.0625" y1="4123.99" x2="1984.37" y2="4123.99" stroke="black" stroke-opacity="0.09" stroke-width="1.68093"/>
<line x1="-31.0625" y1="4554.31" x2="1984.37" y2="4554.31" stroke="black" stroke-opacity="0.09" stroke-width="1.68093"/>
<line x1="83.6303" y1="3563" x2="83.6303" y2="4730.41" stroke="black" stroke-opacity="0.09" stroke-width="1.2607"/>
<line x1="729.111" y1="3563" x2="729.111" y2="4730.41" stroke="black" stroke-opacity="0.09" stroke-width="1.2607"/>
<line x1="406.373" y1="3563" x2="406.372" y2="4730.41" stroke="black" stroke-opacity="0.09" stroke-width="1.2607"/>
<line x1="1051.85" y1="3563" x2="1051.85" y2="4730.41" stroke="black" stroke-opacity="0.09" stroke-width="1.2607"/>
<line x1="1374.59" y1="3563" x2="1374.59" y2="4730.41" stroke="black" stroke-opacity="0.09" stroke-width="1.2607"/>
<line x1="245.001" y1="3563" x2="245.001" y2="4730.41" stroke="black" stroke-opacity="0.09" stroke-width="1.2607"/>
<line x1="890.478" y1="3563" x2="890.478" y2="4730.41" stroke="black" stroke-opacity="0.09" stroke-width="1.2607"/>
<line x1="567.74" y1="3563" x2="567.74" y2="4730.41" stroke="black" stroke-opacity="0.09" stroke-width="1.2607"/>
<line x1="1213.22" y1="3563" x2="1213.22" y2="4730.41" stroke="black" stroke-opacity="0.09" stroke-width="1.2607"/>
<line x1="164.318" y1="3563" x2="164.318" y2="4730.41" stroke="black" stroke-opacity="0.09" stroke-width="1.2607"/>
<line x1="809.794" y1="3563" x2="809.794" y2="4730.41" stroke="black" stroke-opacity="0.09" stroke-width="1.2607"/>
<line x1="487.052" y1="3563" x2="487.052" y2="4730.41" stroke="black" stroke-opacity="0.09" stroke-width="1.2607"/>
<line x1="1132.53" y1="3563" x2="1132.53" y2="4730.41" stroke="black" stroke-opacity="0.09" stroke-width="1.2607"/>
<line x1="325.689" y1="3563" x2="325.689" y2="4730.41" stroke="black" stroke-opacity="0.09" stroke-width="1.2607"/>
<line x1="971.166" y1="3563" x2="971.165" y2="4730.41" stroke="black" stroke-opacity="0.09" stroke-width="1.2607"/>
<line x1="648.423" y1="3563" x2="648.423" y2="4730.41" stroke="black" stroke-opacity="0.09" stroke-width="1.2607"/>
<line x1="1293.9" y1="3563" x2="1293.9" y2="4730.41" stroke="black" stroke-opacity="0.09" stroke-width="1.2607"/>
<g opacity="0.7">
<rect x="1430.14" y="4017.26" width="106.968" height="105.44" fill="#2563EB" fill-opacity="0.11"/>
<rect x="1430.14" y="3910.29" width="106.968" height="105.44" fill="#2563EB" fill-opacity="0.11"/>
<rect x="138.883" y="3693.3" width="108.496" height="106.968" fill="#5C64B4" fill-opacity="0.15"/>
<rect x="23.9141" y="3694.83" width="108.496" height="106.968" fill="#5C64B4" fill-opacity="0.15"/>
</g>
</g>
<g opacity="0.33" filter="url(#filter4_f_29_1321)">
<circle cx="1446.94" cy="1209.94" r="275.185" transform="rotate(-130.444 1446.94 1209.94)" fill="#5C64B4" fill-opacity="0.6"/>
</g>
<g opacity="0.27" filter="url(#filter5_f_29_1321)">
<circle cx="53.9399" cy="1692.94" r="275.185" transform="rotate(-130.444 53.9399 1692.94)" fill="#22BDBD" fill-opacity="0.4"/>
</g>
<g opacity="0.27" filter="url(#filter6_f_29_1321)">
<circle cx="1096.94" cy="3143.94" r="275.185" transform="rotate(-130.444 1096.94 3143.94)" fill="#22BDBD" fill-opacity="0.4"/>
</g>
</g>
<defs>
<filter id="filter0_f_29_1321" x="-851.25" y="6679.75" width="1750.38" height="1750.38" filterUnits="userSpaceOnUse" color-interpolation-filters="sRGB">
<feFlood flood-opacity="0" result="BackgroundImageFix"/>
<feBlend mode="normal" in="SourceGraphic" in2="BackgroundImageFix" result="shape"/>
<feGaussianBlur stdDeviation="300" result="effect1_foregroundBlur_29_1321"/>
</filter>
<filter id="filter1_f_29_1321" x="610.477" y="-969.521" width="2071.23" height="2071.23" filterUnits="userSpaceOnUse" color-interpolation-filters="sRGB">
<feFlood flood-opacity="0" result="BackgroundImageFix"/>
<feBlend mode="normal" in="SourceGraphic" in2="BackgroundImageFix" result="shape"/>
<feGaussianBlur stdDeviation="300" result="effect1_foregroundBlur_29_1321"/>
</filter>
<filter id="filter2_f_29_1321" x="-938.25" y="-468.25" width="1750.38" height="1750.38" filterUnits="userSpaceOnUse" color-interpolation-filters="sRGB">
<feFlood flood-opacity="0" result="BackgroundImageFix"/>
<feBlend mode="normal" in="SourceGraphic" in2="BackgroundImageFix" result="shape"/>
<feGaussianBlur stdDeviation="300" result="effect1_foregroundBlur_29_1321"/>
</filter>
<filter id="filter3_f_29_1321" x="240" y="192" width="977" height="849" filterUnits="userSpaceOnUse" color-interpolation-filters="sRGB">
<feFlood flood-opacity="0" result="BackgroundImageFix"/>
<feBlend mode="normal" in="SourceGraphic" in2="BackgroundImageFix" result="shape"/>
<feGaussianBlur stdDeviation="155" result="effect1_foregroundBlur_29_1321"/>
</filter>
<filter id="filter4_f_29_1321" x="571.75" y="334.75" width="1750.38" height="1750.38" filterUnits="userSpaceOnUse" color-interpolation-filters="sRGB">
<feFlood flood-opacity="0" result="BackgroundImageFix"/>
<feBlend mode="normal" in="SourceGraphic" in2="BackgroundImageFix" result="shape"/>
<feGaussianBlur stdDeviation="300" result="effect1_foregroundBlur_29_1321"/>
</filter>
<filter id="filter5_f_29_1321" x="-821.25" y="817.75" width="1750.38" height="1750.38" filterUnits="userSpaceOnUse" color-interpolation-filters="sRGB">
<feFlood flood-opacity="0" result="BackgroundImageFix"/>
<feBlend mode="normal" in="SourceGraphic" in2="BackgroundImageFix" result="shape"/>
<feGaussianBlur stdDeviation="300" result="effect1_foregroundBlur_29_1321"/>
</filter>
<filter id="filter6_f_29_1321" x="221.75" y="2268.75" width="1750.38" height="1750.38" filterUnits="userSpaceOnUse" color-interpolation-filters="sRGB">
<feFlood flood-opacity="0" result="BackgroundImageFix"/>
<feBlend mode="normal" in="SourceGraphic" in2="BackgroundImageFix" result="shape"/>
<feGaussianBlur stdDeviation="300" result="effect1_foregroundBlur_29_1321"/>
</filter>
<linearGradient id="paint0_linear_29_1321" x1="720" y1="-33.4473" x2="720" y2="374.429" gradientUnits="userSpaceOnUse">
<stop stop-color="#C1DEEF"/>
<stop offset="1" stop-color="#C1DEEF" stop-opacity="0"/>
</linearGradient>
<linearGradient id="paint1_linear_29_1321" x1="720" y1="21.8945" x2="720" y2="374.428" gradientUnits="userSpaceOnUse">
<stop stop-color="#C1DEEF"/>
<stop offset="1" stop-color="#C1DEEF" stop-opacity="0"/>
</linearGradient>
<linearGradient id="paint2_linear_29_1321" x1="720" y1="-88" x2="720" y2="378.295" gradientUnits="userSpaceOnUse">
<stop stop-color="#C1DEEF"/>
<stop offset="1" stop-color="#C1DEEF" stop-opacity="0"/>
</linearGradient>
<linearGradient id="paint3_linear_29_1321" x1="16.7815" y1="88.9452" x2="622.757" y2="411.684" gradientUnits="userSpaceOnUse">
<stop stop-color="white"/>
<stop offset="1" stop-color="white" stop-opacity="0"/>
</linearGradient>
<radialGradient id="paint4_radial_29_1321" cx="0" cy="0" r="1" gradientUnits="userSpaceOnUse" gradientTransform="translate(-29.4474 1369.82) rotate(-29.3932) scale(1036.02 1780.63)">
<stop stop-color="white"/>
<stop offset="1" stop-color="white" stop-opacity="0"/>
</radialGradient>
<linearGradient id="paint5_linear_29_1321" x1="723.5" y1="785" x2="723.5" y2="1036" gradientUnits="userSpaceOnUse">
<stop stop-color="white" stop-opacity="0"/>
<stop offset="1" stop-color="white"/>
</linearGradient>
<radialGradient id="paint6_radial_29_1321" cx="0" cy="0" r="1" gradientUnits="userSpaceOnUse" gradientTransform="translate(218.553 4888.82) rotate(-29.3932) scale(1036.02 1780.63)">
<stop stop-color="white"/>
<stop offset="1" stop-color="white" stop-opacity="0"/>
</radialGradient>
<clipPath id="clip0_29_1321">
<rect width="1440" height="7220" fill="white"/>
</clipPath>
<clipPath id="clip1_29_1321">
<rect width="1920" height="733" fill="white" transform="translate(-236 115)"/>
</clipPath>
</defs>
</svg>
