<svg width="40" height="40" viewBox="0 0 40 40" fill="none" xmlns="http://www.w3.org/2000/svg">
<g filter="url(#filter0_ii_59_1154)">
<path d="M0 8C0 3.58172 3.58172 0 8 0H32C36.4183 0 40 3.58172 40 8V32C40 36.4183 36.4183 40 32 40H8C3.58172 40 0 36.4183 0 32V8Z" fill="#F6EBFF" fill-opacity="0.44"/>
<path d="M26.0009 12.4799C24.4096 10.8886 22.2513 9.99463 20.0009 9.99463C17.7505 9.99463 15.5922 10.8886 14.0009 12.4799C12.4096 14.0712 11.5156 16.2295 11.5156 18.4799C11.5156 20.7303 12.4096 22.8886 14.0009 24.4799L19.2709 29.7599C19.3639 29.8536 19.4745 29.928 19.5963 29.9788C19.7182 30.0296 19.8489 30.0557 19.9809 30.0557C20.1129 30.0557 20.2436 30.0296 20.3655 29.9788C20.4873 29.928 20.5979 29.8536 20.6909 29.7599L26.0009 24.4299C27.5856 22.8452 28.4758 20.696 28.4758 18.4549C28.4758 16.2139 27.5856 14.0646 26.0009 12.4799ZM24.5709 22.9999L20.0009 27.5899L15.4309 22.9999C14.5281 22.0962 13.9134 20.9452 13.6646 19.6922C13.4158 18.4392 13.5441 17.1407 14.0332 15.9606C14.5223 14.7805 15.3503 13.772 16.4125 13.0624C17.4748 12.3528 18.7235 11.9741 20.0009 11.9741C21.2783 11.9741 22.5271 12.3528 23.5893 13.0624C24.6515 13.772 25.4795 14.7805 25.9686 15.9606C26.4577 17.1407 26.586 18.4392 26.3372 19.6922C26.0884 20.9452 25.4738 22.0962 24.5709 22.9999ZM17.0009 15.4099C16.1936 16.2197 15.7403 17.3165 15.7403 18.4599C15.7403 19.6033 16.1936 20.7001 17.0009 21.5099C17.6007 22.1107 18.3645 22.521 19.1966 22.6893C20.0286 22.8576 20.8919 22.7765 21.678 22.4561C22.4641 22.1356 23.1381 21.5902 23.6154 20.8882C24.0927 20.1861 24.352 19.3588 24.3609 18.5099C24.3654 17.9431 24.2562 17.3812 24.0398 16.8573C23.8234 16.3334 23.5041 15.8583 23.1009 15.4599C22.7046 15.0545 22.232 14.7314 21.7103 14.5094C21.1887 14.2873 20.6282 14.1706 20.0613 14.1659C19.4944 14.1613 18.9321 14.2688 18.4069 14.4823C17.8816 14.6958 17.4038 15.011 17.0009 15.4099ZM21.6909 20.0899C21.3119 20.4747 20.8111 20.7158 20.274 20.7722C19.7369 20.8285 19.197 20.6966 18.7464 20.3988C18.2959 20.1011 17.9627 19.6562 17.8039 19.14C17.6451 18.6238 17.6706 18.0685 17.8759 17.5691C18.0812 17.0696 18.4536 16.6569 18.9295 16.4016C19.4054 16.1464 19.9552 16.0643 20.4848 16.1695C21.0145 16.2747 21.4912 16.5607 21.8334 16.9784C22.1756 17.3962 22.3621 17.9199 22.3609 18.4599C22.3464 19.0772 22.0874 19.6634 21.6409 20.0899H21.6909Z" fill="#5B35AE"/>
</g>
<defs>
<filter id="filter0_ii_59_1154" x="0" y="-2" width="40" height="54" filterUnits="userSpaceOnUse" color-interpolation-filters="sRGB">
<feFlood flood-opacity="0" result="BackgroundImageFix"/>
<feBlend mode="normal" in="SourceGraphic" in2="BackgroundImageFix" result="shape"/>
<feColorMatrix in="SourceAlpha" type="matrix" values="0 0 0 0 0 0 0 0 0 0 0 0 0 0 0 0 0 0 127 0" result="hardAlpha"/>
<feOffset dy="-2"/>
<feGaussianBlur stdDeviation="1"/>
<feComposite in2="hardAlpha" operator="arithmetic" k2="-1" k3="1"/>
<feColorMatrix type="matrix" values="0 0 0 0 0.189981 0 0 0 0 0.189981 0 0 0 0 0.189981 0 0 0 0.1 0"/>
<feBlend mode="normal" in2="shape" result="effect1_innerShadow_59_1154"/>
<feColorMatrix in="SourceAlpha" type="matrix" values="0 0 0 0 0 0 0 0 0 0 0 0 0 0 0 0 0 0 127 0" result="hardAlpha"/>
<feOffset dy="12"/>
<feGaussianBlur stdDeviation="6"/>
<feComposite in2="hardAlpha" operator="arithmetic" k2="-1" k3="1"/>
<feColorMatrix type="matrix" values="0 0 0 0 1 0 0 0 0 1 0 0 0 0 1 0 0 0 0.12 0"/>
<feBlend mode="normal" in2="effect1_innerShadow_59_1154" result="effect2_innerShadow_59_1154"/>
</filter>
</defs>
</svg>
