<svg width="40" height="40" viewBox="0 0 40 40" fill="none" xmlns="http://www.w3.org/2000/svg">
<g filter="url(#filter0_ii_59_1159)">
<path d="M0 8C0 3.58172 3.58172 0 8 0H32C36.4183 0 40 3.58172 40 8V32C40 36.4183 36.4183 40 32 40H8C3.58172 40 0 36.4183 0 32V8Z" fill="#F6EBFF" fill-opacity="0.44"/>
<path d="M28.4809 23.4868L26.8309 21.8368C26.3391 21.3489 25.6752 21.0738 24.9824 21.0709C24.2896 21.0679 23.6234 21.3374 23.1274 21.8211C22.8628 22.0872 22.5136 22.2528 22.1401 22.2894C21.7665 22.3259 21.3919 22.2311 21.0807 22.0213C19.8523 21.2015 18.7971 20.1483 17.9749 18.9216C17.7688 18.6069 17.6774 18.2308 17.7162 17.8566C17.755 17.4824 17.9216 17.133 18.1879 16.8673C18.6672 16.3709 18.9332 15.7065 18.9288 15.0165C18.9245 14.3264 18.6502 13.6654 18.1647 13.1751L16.5147 11.5251C16.0207 11.0328 15.3517 10.7563 14.6543 10.7563C13.9569 10.7563 13.2879 11.0328 12.7939 11.5251L12.3192 12.0006C9.84416 14.4756 10.0294 19.6791 15.1789 24.8256C18.2839 27.9313 21.4092 29.2318 23.9434 29.2318C24.6894 29.2567 25.4329 29.1328 26.1305 28.8674C26.8282 28.602 27.466 28.2004 28.0069 27.6861L28.4824 27.2106C28.9756 26.7164 29.2525 26.0466 29.2522 25.3484C29.2519 24.6502 28.9745 23.9806 28.4809 23.4868ZM27.4204 26.1501L26.9449 26.6256C24.9949 28.5756 20.6907 28.2193 16.2379 23.7658C11.7852 19.3123 11.4282 15.0051 13.3782 13.0551L13.8499 12.5803C14.0623 12.3687 14.3499 12.2498 14.6498 12.2498C14.9496 12.2498 15.2373 12.3687 15.4497 12.5803L17.0997 14.2303C17.3082 14.4399 17.4266 14.7227 17.4295 15.0184C17.4325 15.314 17.3197 15.5991 17.1154 15.8128C16.6086 16.3228 16.2925 16.9915 16.22 17.7069C16.1475 18.4222 16.323 19.1407 16.7172 19.7421C17.6513 21.14 18.8526 22.3395 20.2519 23.2716C20.8514 23.6658 21.5681 23.8423 22.2821 23.7718C22.9962 23.7012 23.6644 23.3878 24.1752 22.8838C24.3885 22.6771 24.6744 22.5623 24.9714 22.5641C25.2685 22.5659 25.5529 22.6842 25.7637 22.8936L27.4137 24.5436C27.52 24.6484 27.6046 24.7732 27.6625 24.9108C27.7204 25.0484 27.7506 25.1961 27.7512 25.3454C27.7518 25.4947 27.7229 25.6427 27.6662 25.7808C27.6094 25.9189 27.5259 26.0444 27.4204 26.1501Z" fill="#5B35AE"/>
</g>
<defs>
<filter id="filter0_ii_59_1159" x="0" y="-2" width="40" height="54" filterUnits="userSpaceOnUse" color-interpolation-filters="sRGB">
<feFlood flood-opacity="0" result="BackgroundImageFix"/>
<feBlend mode="normal" in="SourceGraphic" in2="BackgroundImageFix" result="shape"/>
<feColorMatrix in="SourceAlpha" type="matrix" values="0 0 0 0 0 0 0 0 0 0 0 0 0 0 0 0 0 0 127 0" result="hardAlpha"/>
<feOffset dy="-2"/>
<feGaussianBlur stdDeviation="1"/>
<feComposite in2="hardAlpha" operator="arithmetic" k2="-1" k3="1"/>
<feColorMatrix type="matrix" values="0 0 0 0 0.189981 0 0 0 0 0.189981 0 0 0 0 0.189981 0 0 0 0.1 0"/>
<feBlend mode="normal" in2="shape" result="effect1_innerShadow_59_1159"/>
<feColorMatrix in="SourceAlpha" type="matrix" values="0 0 0 0 0 0 0 0 0 0 0 0 0 0 0 0 0 0 127 0" result="hardAlpha"/>
<feOffset dy="12"/>
<feGaussianBlur stdDeviation="6"/>
<feComposite in2="hardAlpha" operator="arithmetic" k2="-1" k3="1"/>
<feColorMatrix type="matrix" values="0 0 0 0 1 0 0 0 0 1 0 0 0 0 1 0 0 0 0.12 0"/>
<feBlend mode="normal" in2="effect1_innerShadow_59_1159" result="effect2_innerShadow_59_1159"/>
</filter>
</defs>
</svg>
