<svg width="218" height="46" viewBox="0 0 218 46" fill="none" xmlns="http://www.w3.org/2000/svg">
<path d="M13.3454 28.1133H0.609375V40.8536H13.3454V28.1133Z" fill="#2FB6BC"/>
<path d="M38.818 15.373H26.082V28.1134H38.818V15.373Z" fill="#EA5289"/>
<path d="M26.0798 15.373H13.3438V28.1134H26.0798V15.373Z" fill="#F088B6"/>
<path d="M64.2907 2.63623H51.5547V15.3766H64.2907V2.63623Z" fill="#6B6BAF"/>
<path d="M64.2907 15.373H51.5547V28.1134H64.2907V15.373Z" fill="#5E58A2"/>
<path d="M64.2907 28.1133H51.5547V40.8536H64.2907V28.1133Z" fill="#473391"/>
<path d="M51.5524 2.63623H38.8164V15.3766H51.5524V2.63623Z" fill="#8A87C0"/>
<path d="M38.818 28.1133H26.082V40.8536H38.818V28.1133Z" fill="#E60064"/>
<path d="M85.7841 31.1533H83.8828V32.8292H85.7841V31.1533Z" fill="#5B35AE"/>
<path d="M97.0653 43.0439H95.1641V44.7198H97.0653V43.0439Z" fill="#5B35AE"/>
<path d="M136.893 31.1533H134.992V32.8292H136.893V31.1533Z" fill="#5B35AE"/>
<path d="M99.7528 43.0439H97.8516V44.7198H99.7528V43.0439Z" fill="#5B35AE"/>
<path d="M88.4637 31.1533H86.5625V32.8292H88.4637V31.1533Z" fill="#5B35AE"/>
<path d="M134.214 31.1533H132.312V32.8292H134.214V31.1533Z" fill="#5B35AE"/>
<path d="M191.474 34.6064C190.87 34.3258 190.161 34.1855 189.355 34.1855C188.93 34.1855 188.501 34.2205 188.065 34.2907C187.633 34.3569 187.196 34.4427 186.779 34.5401L186.97 36.103C187.434 36.0367 187.862 35.986 188.252 35.951C188.646 35.912 188.957 35.9003 189.179 35.9003C189.974 35.9003 190.555 36.0523 190.921 36.3563C191.295 36.6603 191.474 37.1046 191.474 37.6931V39.8756H169.524V31.165H167.549V41.7151C167.549 42.062 167.471 42.3738 167.319 42.6427C167.167 42.9194 166.925 43.1337 166.59 43.2896C166.259 43.4455 165.819 43.5274 165.281 43.5274C164.744 43.5274 164.319 43.4455 163.949 43.2857C163.583 43.122 163.302 42.8999 163.1 42.6154C162.905 42.3309 162.803 41.9918 162.803 41.6021C162.803 41.4267 162.827 41.1461 162.866 40.7603C162.905 40.3783 162.959 39.9184 163.033 39.3689C163.111 38.8272 163.201 38.2192 163.31 37.5645L161.362 37.3033C161.303 37.6931 161.241 38.0984 161.179 38.5193C161.113 38.9324 161.054 39.3416 161.003 39.7469C160.945 40.1523 160.902 40.5147 160.875 40.8382C160.848 41.1617 160.832 41.4267 160.832 41.6216C160.832 42.3153 161.023 42.9428 161.409 43.4962C161.79 44.0418 162.316 44.4744 162.99 44.7823C163.661 45.0941 164.428 45.25 165.281 45.25C166.134 45.25 166.824 45.1019 167.463 44.8096C168.102 44.5251 168.608 44.1081 168.975 43.5819C169.341 43.0519 169.528 42.4322 169.528 41.7229V41.5943H193.438V37.7008C193.438 36.9604 193.262 36.3329 192.912 35.8145C192.565 35.2962 192.082 34.8948 191.474 34.6142V34.6064Z" fill="#5B35AE"/>
<path d="M197.604 31.165H195.648V41.5865H197.604V31.165Z" fill="#5B35AE"/>
<path d="M216.204 35.721C215.912 35.1676 215.475 34.774 214.895 34.5246C214.306 34.2829 213.574 34.1582 212.69 34.1582C212.086 34.1582 211.529 34.2011 211.026 34.2907C210.527 34.3765 210.153 34.4661 209.919 34.5518C209.865 34.7818 209.803 35.078 209.732 35.4443C209.67 35.8146 209.616 36.2277 209.565 36.6837C209.51 37.1397 209.487 37.619 209.487 38.1101C209.487 38.6012 209.51 39.0494 209.553 39.4781C209.569 39.6145 209.581 39.7548 209.596 39.8795H202.696V34.1894H200.725V41.8087C200.725 42.3582 200.612 42.7869 200.378 43.0909C200.148 43.3949 199.841 43.5508 199.459 43.5508C199.389 43.5508 199.283 43.5469 199.139 43.5352C198.995 43.5235 198.847 43.5157 198.691 43.5079L198.621 45.1837C198.777 45.2032 198.933 45.2149 199.073 45.2305C199.221 45.2422 199.357 45.2461 199.486 45.2461C200.125 45.2461 200.686 45.098 201.165 44.8096C201.648 44.5251 202.022 44.1198 202.291 43.5936C202.564 43.0753 202.696 42.479 202.696 41.8126V41.5943H216.632V37.9542C216.632 37.0188 216.488 36.2783 216.2 35.7288L216.204 35.721ZM214.68 39.8756H211.579C211.556 39.6651 211.529 39.4313 211.501 39.1819C211.466 38.8077 211.455 38.4531 211.455 38.1101C211.455 37.7321 211.474 37.354 211.513 36.9682C211.552 36.6057 211.595 36.2589 211.642 35.9354C211.984 35.8925 212.335 35.873 212.69 35.873C213.204 35.873 213.605 35.9276 213.89 36.0523C214.182 36.177 214.384 36.3836 214.505 36.6876C214.626 36.9877 214.68 37.4047 214.68 37.9347V39.8795V39.8756Z" fill="#5B35AE"/>
<path d="M132.326 34.6064C131.788 34.887 131.387 35.304 131.126 35.8496C130.865 36.4031 130.736 37.0812 130.736 37.884C130.736 38.6869 130.853 39.365 131.102 39.8756H124.226V37.9464C124.226 37.011 124.078 36.2706 123.793 35.721C123.501 35.1676 123.065 34.774 122.481 34.5246C121.9 34.2829 121.164 34.1582 120.279 34.1582C119.672 34.1582 119.118 34.2011 118.612 34.2907C118.113 34.3765 117.743 34.4661 117.505 34.5518C117.447 34.7818 117.388 35.078 117.326 35.4443C117.26 35.8146 117.201 36.2277 117.155 36.6837C117.108 37.1397 117.085 37.619 117.085 38.1101C117.085 38.6012 117.104 39.0494 117.151 39.4781C117.166 39.6145 117.178 39.7548 117.194 39.8795H98.9448V34.1894H96.989V39.8795H89.4152V34.1894H86.0841C85.2504 34.1894 84.5608 34.3258 84.0193 34.6064C83.4816 34.887 83.0803 35.304 82.8193 35.8613C82.5583 36.4148 82.4297 37.1046 82.4297 37.9347C82.4297 38.7648 82.5583 39.4391 82.8193 39.9769C83.0803 40.5186 83.4816 40.9201 84.0193 41.189C84.5569 41.454 85.2504 41.5904 86.0841 41.5904H137.722V34.1894H134.391C133.557 34.1894 132.867 34.3258 132.33 34.6064H132.326ZM87.436 39.8756H86.0802C85.6556 39.8756 85.3244 39.8327 85.079 39.7431C84.8296 39.6534 84.6582 39.4703 84.553 39.1897C84.4478 38.909 84.3972 38.4881 84.3972 37.9308C84.3972 37.3384 84.4556 36.9019 84.5686 36.6096C84.6816 36.3173 84.8608 36.1302 85.1062 36.0328C85.3478 35.9432 85.6712 35.8964 86.0763 35.8964H87.4321V39.8756H87.436ZM122.258 39.8756H119.165C119.138 39.6651 119.11 39.4313 119.087 39.1819C119.056 38.8077 119.036 38.4531 119.036 38.1101C119.036 37.7321 119.056 37.354 119.095 36.9682C119.134 36.6057 119.181 36.2589 119.227 35.9354C119.57 35.8925 119.917 35.873 120.275 35.873C120.786 35.873 121.187 35.9276 121.475 36.0523C121.768 36.177 121.97 36.3836 122.083 36.6876C122.204 36.9877 122.258 37.4047 122.258 37.9347V39.8795V39.8756ZM135.746 39.8756H134.387C133.954 39.8756 133.615 39.8288 133.374 39.7314C133.124 39.6417 132.953 39.4547 132.856 39.1741C132.762 38.8935 132.708 38.4647 132.708 37.884C132.708 37.354 132.762 36.9448 132.856 36.6525C132.957 36.3602 133.128 36.1614 133.374 36.0562C133.615 35.9471 133.954 35.8925 134.387 35.8925H135.746V39.8717V39.8756Z" fill="#5B35AE"/>
<path d="M149.413 39.8756H142.517V34.1855H140.545V41.8047C140.545 42.3504 140.432 42.783 140.198 43.087C139.969 43.3909 139.661 43.5429 139.279 43.5429C139.209 43.5429 139.104 43.539 138.96 43.5274C138.823 43.5157 138.667 43.5079 138.512 43.5001L138.441 45.1759C138.597 45.1954 138.749 45.2071 138.897 45.2227C139.041 45.2305 139.178 45.2383 139.306 45.2383C139.945 45.2383 140.506 45.0902 140.985 44.8018C141.465 44.5173 141.843 44.112 142.108 43.5858C142.38 43.0675 142.513 42.4712 142.513 41.8047V41.5865H151.384V31.165H149.413V39.8756Z" fill="#5B35AE"/>
<path d="M155.71 31.165H153.746V41.5865H155.71V31.165Z" fill="#5B35AE"/>
<path d="M94.3295 15.139L89.0543 2.48047H81.5039V25.5916H86.8492V9.10203L91.7815 21.1759H96.8463L101.814 9.10203V25.5916H107.159V2.48047H99.6086L94.3295 15.139Z" fill="#5B35AE"/>
<path d="M124.81 9.86176C124.144 8.96537 123.322 8.27555 122.344 7.79228C121.366 7.30901 120.279 7.06738 119.087 7.06738C117.825 7.06738 116.66 7.29342 115.604 7.74161C114.548 8.1898 113.644 8.82897 112.896 9.6552C112.148 10.4814 111.568 11.4792 111.155 12.6406C110.742 13.802 110.535 15.0842 110.535 16.4872C110.535 17.8902 110.749 19.1335 111.174 20.2832C111.599 21.4329 112.191 22.4228 112.951 23.2491C113.71 24.0753 114.61 24.7262 115.658 25.1977C116.703 25.6693 117.848 25.9071 119.091 25.9071C120.334 25.9071 121.463 25.6576 122.488 25.1666C123.509 24.6716 124.284 24.0013 124.814 23.1477V25.5953H129.988V7.38307H124.814V9.86566L124.81 9.86176ZM124.483 18.3462C124.265 18.8997 123.953 19.3751 123.552 19.7766C123.15 20.178 122.679 20.4937 122.137 20.7236C121.596 20.9535 120.992 21.0666 120.326 21.0666C119.66 21.0666 119.083 20.9535 118.534 20.7236C117.984 20.4937 117.509 20.178 117.119 19.7766C116.73 19.3751 116.418 18.8919 116.188 18.3267C115.958 17.7616 115.845 17.1615 115.845 16.5145C115.845 15.8675 115.954 15.2323 116.173 14.6672C116.391 14.106 116.703 13.6227 117.104 13.2174C117.505 12.8159 117.984 12.5002 118.534 12.2703C119.087 12.0404 119.683 11.9273 120.326 11.9273C121.658 11.9273 122.737 12.3522 123.567 13.2018C124.393 14.0553 124.806 15.1582 124.806 16.5145C124.806 17.1809 124.697 17.7928 124.479 18.3423L124.483 18.3462Z" fill="#5B35AE"/>
<path d="M139.018 10.6572V7.37957H133.848V25.5918H139.018V17.2437C139.018 16.3707 139.185 15.6107 139.516 14.9677C139.847 14.3246 140.307 13.7907 140.896 13.362C141.484 12.9372 142.177 12.6215 142.98 12.4149C143.786 12.2084 144.671 12.1148 145.637 12.1382V7.03271C144.305 7.03271 143.058 7.3328 141.897 7.92909C140.736 8.52928 139.777 9.43736 139.018 10.6533V10.6572Z" fill="#5B35AE"/>
<path d="M161.501 9.86176C160.835 8.96537 160.013 8.27555 159.035 7.79228C158.057 7.30901 156.974 7.06738 155.778 7.06738C154.512 7.06738 153.351 7.29342 152.295 7.74161C151.239 8.1898 150.336 8.82897 149.588 9.6552C148.84 10.4814 148.259 11.4792 147.846 12.6406C147.433 13.802 147.227 15.0842 147.227 16.4872C147.227 17.8902 147.441 19.1335 147.866 20.2832C148.29 21.4329 148.882 22.4228 149.642 23.2491C150.402 24.0753 151.302 24.7262 152.35 25.1977C153.398 25.6693 154.539 25.9071 155.782 25.9071C157.025 25.9071 158.155 25.6576 159.179 25.1666C160.2 24.6716 160.976 24.0013 161.505 23.1477V25.5953H166.679V7.38307H161.505V9.86566L161.501 9.86176ZM161.174 18.3462C160.956 18.8997 160.644 19.3751 160.243 19.7766C159.842 20.178 159.37 20.4937 158.829 20.7236C158.287 20.9535 157.683 21.0666 157.017 21.0666C156.351 21.0666 155.778 20.9535 155.225 20.7236C154.672 20.4937 154.2 20.178 153.811 19.7766C153.421 19.3751 153.11 18.8919 152.88 18.3267C152.65 17.7616 152.537 17.1615 152.537 16.5145C152.537 15.8675 152.646 15.2323 152.864 14.6672C153.082 14.106 153.394 13.6227 153.795 13.2174C154.196 12.8159 154.676 12.5002 155.225 12.2703C155.778 12.0404 156.374 11.9273 157.017 11.9273C158.35 11.9273 159.433 12.3522 160.259 13.2018C161.085 14.0553 161.498 15.1582 161.498 16.5145C161.498 17.1809 161.388 17.7928 161.17 18.3423L161.174 18.3462Z" fill="#5B35AE"/>
<path d="M186.03 9.00065C185.468 8.38097 184.791 7.8977 183.996 7.55084C183.205 7.20398 182.324 7.0325 181.358 7.0325C180.326 7.0325 179.305 7.27413 178.308 7.7574C177.306 8.24067 176.441 8.9188 175.705 9.79181V0.753906H170.535V25.5877H175.705V16.0665C175.729 15.4468 175.841 14.87 176.052 14.34C176.258 13.81 176.535 13.354 176.878 12.9603C177.225 12.5706 177.626 12.2666 178.086 12.0445C178.545 11.8262 179.04 11.7171 179.566 11.7171C180.509 11.7171 181.261 12.0289 181.826 12.6485C182.391 13.2682 182.671 14.0867 182.671 15.0961V25.5838H187.845V13.9931C187.845 12.9798 187.685 12.0522 187.362 11.1987C187.039 10.3491 186.598 9.61253 186.033 8.99286L186.03 9.00065Z" fill="#5B35AE"/>
<path d="M209.22 14.9677C209.127 13.7946 208.831 12.7189 208.324 11.7446C207.818 10.7664 207.159 9.93622 206.341 9.24249C205.523 8.55267 204.573 8.01094 203.478 7.6212C202.387 7.23147 201.206 7.03271 199.944 7.03271C198.565 7.03271 197.303 7.27045 196.153 7.73813C195.004 8.20971 194.014 8.86056 193.188 9.68679C192.362 10.513 191.716 11.5107 191.256 12.6682C190.796 13.8296 190.566 15.1002 190.566 16.4798C190.566 17.8595 190.8 19.13 191.272 20.2914C191.743 21.4528 192.398 22.4466 193.239 23.2768C194.077 24.103 195.09 24.7499 196.274 25.2059C197.458 25.6658 198.752 25.8958 200.151 25.8958C202.379 25.8958 204.265 25.354 205.808 24.2745C207.346 23.1949 208.383 21.6282 208.913 19.5821H203.774C203.544 20.2018 203.123 20.685 202.515 21.0319C201.908 21.3749 201.187 21.5503 200.361 21.5503C199.188 21.5503 198.214 21.2229 197.447 20.5681C196.675 19.9134 196.188 19.0092 195.982 17.8595H209.291C209.314 17.5633 209.326 17.2515 209.326 16.928C209.326 16.7682 209.322 16.5305 209.31 16.2226C209.298 15.9108 209.271 15.4938 209.224 14.9638L209.22 14.9677ZM196.052 14.7962C196.305 13.7595 196.788 12.9527 197.501 12.3643C198.214 11.7758 199.075 11.4874 200.088 11.4874C201.191 11.4874 202.106 11.7797 202.827 12.3643C203.552 12.9527 203.973 13.7595 204.086 14.7962H196.052Z" fill="#5B35AE"/>
<path d="M217.393 0.757812H212.219V25.5916H217.393V0.757812Z" fill="#5B35AE"/>
</svg>
