<svg width="1277" height="362" viewBox="0 0 1277 362" fill="none" xmlns="http://www.w3.org/2000/svg">
<path d="M1247 0.499997L30 0.499891C13.7076 0.499918 0.499999 13.7075 0.499997 29.9999L0.499971 332C0.499994 348.292 13.7076 361.5 30 361.5L1247 361.5C1263.29 361.5 1276.5 348.292 1276.5 332L1276.5 30C1276.5 13.7076 1263.29 0.499999 1247 0.499997Z" fill="#5B35AE" stroke="#5B35AE"/>
<mask id="mask0_29_2261" style="mask-type:alpha" maskUnits="userSpaceOnUse" x="0" y="0" width="1277" height="362">
<path d="M1247 0.499997L30 0.499891C13.7076 0.499918 0.499999 13.7075 0.499997 29.9999L0.499971 332C0.499994 348.292 13.7076 361.5 30 361.5L1247 361.5C1263.29 361.5 1276.5 348.292 1276.5 332L1276.5 30C1276.5 13.7076 1263.29 0.499999 1247 0.499997Z" fill="#2563EB" stroke="#2563EB"/>
</mask>
<g mask="url(#mask0_29_2261)">
<path d="M1298.99 -65.8158C1279.02 -71.6913 1258.44 -58.6843 1253.07 -36.6589C1247.7 -14.6334 1259.6 7.93688 1279.56 13.8128C1299.52 19.6885 1320.11 6.68179 1325.48 -15.3438C1330.85 -37.3693 1318.95 -59.94 1298.99 -65.8158Z" fill="#3F3F3F" fill-opacity="0.5" stroke="#5B35AE" stroke-width="0.967163"/>
<rect x="-0.578491" y="0.333254" width="270.433" height="104.769" rx="5.3194" transform="matrix(-0.959302 -0.282381 -0.23696 0.971519 1242.68 -89.2125)" fill="white" fill-opacity="0.2" stroke="#5B35AE" stroke-width="0.967163"/>
<rect x="-0.578491" y="0.333254" width="358.351" height="110.989" rx="5.3194" transform="matrix(-0.959302 -0.282381 -0.23696 0.971519 1212.22 35.6679)" fill="white" fill-opacity="0.2" stroke="#5B35AE" stroke-width="0.967163"/>
<path d="M1169.11 63.8403L908.751 -12.798M1161.24 96.0677L963.229 37.7794" stroke="#5B35AE" stroke-width="7.7373" stroke-linecap="round"/>
<path d="M863.926 88.2604C883.887 94.1363 895.793 116.707 890.421 138.732C885.049 160.758 864.465 173.765 844.504 167.889C824.543 162.013 812.637 139.443 818.009 117.417C823.382 95.3916 843.965 82.3847 863.926 88.2604Z" fill="white" fill-opacity="0.2" stroke="#5B35AE" stroke-width="0.967163"/>
<rect x="0.349311" y="0.606363" width="270.433" height="104.769" rx="5.3194" transform="matrix(0.959302 0.282381 -0.23696 0.971519 922.506 98.3962)" fill="white" fill-opacity="0.2" stroke="#5B35AE" stroke-width="0.967163"/>
<rect x="0.349311" y="0.606363" width="358.351" height="110.989" rx="5.3194" transform="matrix(0.959302 0.282381 -0.23696 0.971519 892.049 223.278)" fill="white" fill-opacity="0.2" stroke="#5B35AE" stroke-width="0.967163"/>
<path d="M948.344 144.987L1129.86 198.418M940.483 177.215L1045.13 208.019" stroke="#5B35AE" stroke-width="7.7373" stroke-linecap="round"/>
<path d="M917.391 271.884L1177.75 348.523M909.53 304.112L1107.55 362.4" stroke="#5B35AE" stroke-width="7.7373" stroke-linecap="round"/>
</g>
</svg>
