<svg width="387" height="242" viewBox="0 0 387 242" fill="none" xmlns="http://www.w3.org/2000/svg">
<g filter="url(#filter0_dd_2019_258)">
<g opacity="0.8" filter="url(#filter1_dd_2019_258)">
<rect x="6" y="2" width="263.954" height="147.426" rx="8" fill="white"/>
<rect x="6.4261" y="2.4261" width="263.102" height="146.573" rx="7.5739" stroke="#EAECF0" stroke-width="0.852207"/>
<path d="M23.7531 37.675C23.7531 37.159 23.8731 36.703 24.1131 36.307C24.3411 35.899 24.6591 35.581 25.0671 35.353C25.4631 35.113 25.9191 34.993 26.4351 34.993H36.5871C37.1031 34.993 37.5591 35.113 37.9551 35.353C38.3631 35.581 38.6811 35.899 38.9091 36.307C39.1491 36.703 39.2691 37.159 39.2691 37.675V37.711C39.2691 38.227 39.1491 38.689 38.9091 39.097C38.6811 39.493 38.3631 39.811 37.9551 40.051C37.5591 40.279 37.1031 40.393 36.5871 40.393H26.4351C25.9191 40.393 25.4631 40.279 25.0671 40.051C24.6591 39.811 24.3411 39.493 24.1131 39.097C23.8731 38.689 23.7531 38.227 23.7531 37.711V37.675ZM33.8605 37.675C33.8605 37.159 33.9805 36.703 34.2205 36.307C34.4485 35.899 34.7665 35.581 35.1745 35.353C35.5705 35.113 36.0265 34.993 36.5425 34.993H46.6945C47.2105 34.993 47.6665 35.113 48.0625 35.353C48.4705 35.581 48.7885 35.899 49.0165 36.307C49.2565 36.703 49.3765 37.159 49.3765 37.675V37.711C49.3765 38.227 49.2565 38.689 49.0165 39.097C48.7885 39.493 48.4705 39.811 48.0625 40.051C47.6665 40.279 47.2105 40.393 46.6945 40.393H36.5425C36.0265 40.393 35.5705 40.279 35.1745 40.051C34.7665 39.811 34.4485 39.493 34.2205 39.097C33.9805 38.689 33.8605 38.227 33.8605 37.711V37.675ZM43.968 37.675C43.968 37.159 44.088 36.703 44.328 36.307C44.556 35.899 44.874 35.581 45.282 35.353C45.678 35.113 46.134 34.993 46.65 34.993H56.802C57.318 34.993 57.774 35.113 58.17 35.353C58.578 35.581 58.896 35.899 59.124 36.307C59.364 36.703 59.484 37.159 59.484 37.675V37.711C59.484 38.227 59.364 38.689 59.124 39.097C58.896 39.493 58.578 39.811 58.17 40.051C57.774 40.279 57.318 40.393 56.802 40.393H46.65C46.134 40.393 45.678 40.279 45.282 40.051C44.874 39.811 44.556 39.493 44.328 39.097C44.088 38.689 43.968 38.227 43.968 37.711V37.675ZM64.8684 37.675C64.8684 37.159 64.9884 36.703 65.2284 36.307C65.4564 35.899 65.7744 35.581 66.1824 35.353C66.5784 35.113 67.0344 34.993 67.5504 34.993H77.7024C78.2184 34.993 78.6744 35.113 79.0704 35.353C79.4784 35.581 79.7964 35.899 80.0244 36.307C80.2644 36.703 80.3844 37.159 80.3844 37.675V37.711C80.3844 38.227 80.2644 38.689 80.0244 39.097C79.7964 39.493 79.4784 39.811 79.0704 40.051C78.6744 40.279 78.2184 40.393 77.7024 40.393H67.5504C67.0344 40.393 66.5784 40.279 66.1824 40.051C65.7744 39.811 65.4564 39.493 65.2284 39.097C64.9884 38.689 64.8684 38.227 64.8684 37.711V37.675ZM74.9758 37.675C74.9758 37.159 75.0958 36.703 75.3358 36.307C75.5638 35.899 75.8818 35.581 76.2898 35.353C76.6858 35.113 77.1418 34.993 77.6578 34.993H87.8098C88.3258 34.993 88.7818 35.113 89.1778 35.353C89.5858 35.581 89.9038 35.899 90.1318 36.307C90.3718 36.703 90.4918 37.159 90.4918 37.675V37.711C90.4918 38.227 90.3718 38.689 90.1318 39.097C89.9038 39.493 89.5858 39.811 89.1778 40.051C88.7818 40.279 88.3258 40.393 87.8098 40.393H77.6578C77.1418 40.393 76.6858 40.279 76.2898 40.051C75.8818 39.811 75.5638 39.493 75.3358 39.097C75.0958 38.689 74.9758 38.227 74.9758 37.711V37.675ZM85.0832 37.675C85.0832 37.159 85.2032 36.703 85.4432 36.307C85.6712 35.899 85.9892 35.581 86.3972 35.353C86.7932 35.113 87.2492 34.993 87.7652 34.993H97.9172C98.4332 34.993 98.8892 35.113 99.2852 35.353C99.6932 35.581 100.011 35.899 100.239 36.307C100.479 36.703 100.599 37.159 100.599 37.675V37.711C100.599 38.227 100.479 38.689 100.239 39.097C100.011 39.493 99.6932 39.811 99.2852 40.051C98.8892 40.279 98.4332 40.393 97.9172 40.393H87.7652C87.2492 40.393 86.7932 40.279 86.3972 40.051C85.9892 39.811 85.6712 39.493 85.4432 39.097C85.2032 38.689 85.0832 38.227 85.0832 37.711V37.675ZM95.1906 37.675C95.1906 37.159 95.3106 36.703 95.5506 36.307C95.7786 35.899 96.0966 35.581 96.5046 35.353C96.9006 35.113 97.3566 34.993 97.8726 34.993H103.057C103.573 34.993 104.029 35.113 104.425 35.353C104.833 35.581 105.151 35.899 105.379 36.307C105.619 36.703 105.739 37.159 105.739 37.675V37.711C105.739 38.227 105.619 38.689 105.379 39.097C105.151 39.493 104.833 39.811 104.425 40.051C104.029 40.279 103.573 40.393 103.057 40.393H97.8726C97.3566 40.393 96.9006 40.279 96.5046 40.051C96.0966 39.811 95.7786 39.493 95.5506 39.097C95.3106 38.689 95.1906 38.227 95.1906 37.711V37.675ZM100.341 37.675C100.341 37.159 100.461 36.703 100.701 36.307C100.929 35.899 101.247 35.581 101.655 35.353C102.051 35.113 102.507 34.993 103.023 34.993H113.175C113.691 34.993 114.147 35.113 114.543 35.353C114.951 35.581 115.269 35.899 115.497 36.307C115.737 36.703 115.857 37.159 115.857 37.675V37.711C115.857 38.227 115.737 38.689 115.497 39.097C115.269 39.493 114.951 39.811 114.543 40.051C114.147 40.279 113.691 40.393 113.175 40.393H103.023C102.507 40.393 102.051 40.279 101.655 40.051C101.247 39.811 100.929 39.493 100.701 39.097C100.461 38.689 100.341 38.227 100.341 37.711V37.675ZM110.448 37.675C110.448 37.159 110.568 36.703 110.808 36.307C111.036 35.899 111.354 35.581 111.762 35.353C112.158 35.113 112.614 34.993 113.13 34.993H123.282C123.798 34.993 124.254 35.113 124.65 35.353C125.058 35.581 125.376 35.899 125.604 36.307C125.844 36.703 125.964 37.159 125.964 37.675V37.711C125.964 38.227 125.844 38.689 125.604 39.097C125.376 39.493 125.058 39.811 124.65 40.051C124.254 40.279 123.798 40.393 123.282 40.393H113.13C112.614 40.393 112.158 40.279 111.762 40.051C111.354 39.811 111.036 39.493 110.808 39.097C110.568 38.689 110.448 38.227 110.448 37.711V37.675ZM120.556 37.675C120.556 37.159 120.676 36.703 120.916 36.307C121.144 35.899 121.462 35.581 121.87 35.353C122.266 35.113 122.722 34.993 123.238 34.993H133.39C133.906 34.993 134.362 35.113 134.758 35.353C135.166 35.581 135.484 35.899 135.712 36.307C135.952 36.703 136.072 37.159 136.072 37.675V37.711C136.072 38.227 135.952 38.689 135.712 39.097C135.484 39.493 135.166 39.811 134.758 40.051C134.362 40.279 133.906 40.393 133.39 40.393H123.238C122.722 40.393 122.266 40.279 121.87 40.051C121.462 39.811 121.144 39.493 120.916 39.097C120.676 38.689 120.556 38.227 120.556 37.711V37.675ZM130.663 37.675C130.663 37.159 130.783 36.703 131.023 36.307C131.251 35.899 131.569 35.581 131.977 35.353C132.373 35.113 132.829 34.993 133.345 34.993H138.529C139.045 34.993 139.501 35.113 139.897 35.353C140.305 35.581 140.623 35.899 140.851 36.307C141.091 36.703 141.211 37.159 141.211 37.675V37.711C141.211 38.227 141.091 38.689 140.851 39.097C140.623 39.493 140.305 39.811 139.897 40.051C139.501 40.279 139.045 40.393 138.529 40.393H133.345C132.829 40.393 132.373 40.279 131.977 40.051C131.569 39.811 131.251 39.493 131.023 39.097C130.783 38.689 130.663 38.227 130.663 37.711V37.675ZM135.814 37.675C135.814 37.159 135.934 36.703 136.174 36.307C136.402 35.899 136.72 35.581 137.128 35.353C137.524 35.113 137.98 34.993 138.496 34.993H148.648C149.164 34.993 149.62 35.113 150.016 35.353C150.424 35.581 150.742 35.899 150.97 36.307C151.21 36.703 151.33 37.159 151.33 37.675V37.711C151.33 38.227 151.21 38.689 150.97 39.097C150.742 39.493 150.424 39.811 150.016 40.051C149.62 40.279 149.164 40.393 148.648 40.393H138.496C137.98 40.393 137.524 40.279 137.128 40.051C136.72 39.811 136.402 39.493 136.174 39.097C135.934 38.689 135.814 38.227 135.814 37.711V37.675Z" fill="#141A18"/>
<rect x="149.453" y="28.953" width="83" height="14" rx="7" fill="white"/>
<path d="M240.976 36.6648C241.368 36.6648 241.686 36.3468 241.686 35.9544C241.686 35.5621 241.368 35.2441 240.976 35.2441C240.584 35.2441 240.266 35.5621 240.266 35.9544C240.266 36.3468 240.584 36.6648 240.976 36.6648Z" stroke="#05605B" stroke-width="1.42068" stroke-linecap="round" stroke-linejoin="round"/>
<path d="M240.976 31.6924C241.368 31.6924 241.686 31.3744 241.686 30.9821C241.686 30.5898 241.368 30.2717 240.976 30.2717C240.584 30.2717 240.266 30.5898 240.266 30.9821C240.266 31.3744 240.584 31.6924 240.976 31.6924Z" stroke="#05605B" stroke-width="1.42068" stroke-linecap="round" stroke-linejoin="round"/>
<path d="M240.976 41.6372C241.368 41.6372 241.686 41.3191 241.686 40.9268C241.686 40.5345 241.368 40.2165 240.976 40.2165C240.584 40.2165 240.266 40.5345 240.266 40.9268C240.266 41.3191 240.584 41.6372 240.976 41.6372Z" stroke="#05605B" stroke-width="1.42068" stroke-linecap="round" stroke-linejoin="round"/>
<path d="M32.7331 91.006C31.9198 91.006 31.0665 90.9727 30.1731 90.906C29.2798 90.8393 28.4331 90.766 27.6331 90.686V88.346H32.8531C33.3331 88.346 33.7065 88.266 33.9731 88.106C34.2531 87.946 34.4465 87.7393 34.5531 87.486C34.6731 87.2193 34.7331 86.946 34.7331 86.666V85.646C34.7331 85.1793 34.6131 84.8127 34.3731 84.546C34.1465 84.266 33.7598 84.126 33.2131 84.126H32.0531C31.6131 84.126 31.2798 84.2193 31.0531 84.406C30.8398 84.5793 30.6998 84.8527 30.6331 85.226H27.8331L28.2531 76.106H37.1331V78.766H30.7931L30.6331 82.286C30.8331 82.0727 31.1065 81.9127 31.4531 81.806C31.8131 81.686 32.2131 81.626 32.6531 81.626H34.2731C35.0465 81.626 35.6865 81.7793 36.1931 82.086C36.6998 82.3927 37.0798 82.8127 37.3331 83.346C37.5865 83.866 37.7131 84.4527 37.7131 85.106V87.286C37.7131 88.1527 37.5198 88.8593 37.1331 89.406C36.7465 89.9527 36.1865 90.3593 35.4531 90.626C34.7198 90.8793 33.8131 91.006 32.7331 91.006ZM43.5816 90.986C42.7549 90.986 42.0482 90.846 41.4616 90.566C40.8882 90.2727 40.4482 89.8393 40.1416 89.266C39.8482 88.6927 39.7016 87.9927 39.7016 87.166V79.966C39.7016 79.0993 39.8549 78.3727 40.1616 77.786C40.4682 77.186 40.9149 76.7393 41.5016 76.446C42.1016 76.1393 42.8016 75.986 43.6016 75.986H46.6816C47.5216 75.986 48.2149 76.146 48.7616 76.466C49.3216 76.7727 49.7416 77.226 50.0216 77.826C50.3016 78.4127 50.4416 79.126 50.4416 79.966V87.166C50.4416 88.406 50.1082 89.3527 49.4416 90.006C48.7882 90.6593 47.8682 90.986 46.6816 90.986H43.5816ZM44.2816 88.326H45.8816C46.4282 88.326 46.8282 88.1927 47.0816 87.926C47.3482 87.6593 47.4816 87.2593 47.4816 86.726V80.246C47.4816 79.6593 47.3482 79.246 47.0816 79.006C46.8149 78.766 46.4549 78.646 46.0016 78.646H44.1816C43.6882 78.646 43.3082 78.7793 43.0416 79.046C42.7882 79.3127 42.6616 79.7127 42.6616 80.246V86.706C42.6616 87.266 42.8016 87.6793 43.0816 87.946C43.3616 88.1993 43.7616 88.326 44.2816 88.326ZM52.4708 90.906V88.526L57.4108 83.626C57.8108 83.2393 58.1374 82.8793 58.3908 82.546C58.6441 82.2127 58.8308 81.886 58.9508 81.566C59.0841 81.2327 59.1508 80.8793 59.1508 80.506C59.1508 80.146 59.0774 79.8393 58.9308 79.586C58.7974 79.3193 58.5708 79.1193 58.2508 78.986C57.9441 78.8527 57.5174 78.786 56.9708 78.786H52.8108V76.466C53.4508 76.346 54.1574 76.2393 54.9308 76.146C55.7174 76.0393 56.5908 75.986 57.5508 75.986C58.7108 75.986 59.6174 76.146 60.2708 76.466C60.9374 76.786 61.4108 77.246 61.6908 77.846C61.9708 78.446 62.1108 79.1727 62.1108 80.026C62.1108 80.6927 62.0174 81.2993 61.8308 81.846C61.6574 82.3927 61.3974 82.9193 61.0508 83.426C60.7041 83.9193 60.2641 84.4193 59.7308 84.926L56.4108 88.226H62.5708V90.906H52.4708ZM68.2495 90.986C67.4229 90.986 66.7162 90.846 66.1295 90.566C65.5562 90.2727 65.1162 89.8393 64.8095 89.266C64.5162 88.6927 64.3695 87.9927 64.3695 87.166V79.966C64.3695 79.0993 64.5229 78.3727 64.8295 77.786C65.1362 77.186 65.5829 76.7393 66.1695 76.446C66.7695 76.1393 67.4695 75.986 68.2695 75.986H71.3495C72.1895 75.986 72.8829 76.146 73.4295 76.466C73.9895 76.7727 74.4095 77.226 74.6895 77.826C74.9695 78.4127 75.1095 79.126 75.1095 79.966V87.166C75.1095 88.406 74.7762 89.3527 74.1095 90.006C73.4562 90.6593 72.5362 90.986 71.3495 90.986H68.2495ZM68.9495 88.326H70.5495C71.0962 88.326 71.4962 88.1927 71.7495 87.926C72.0162 87.6593 72.1495 87.2593 72.1495 86.726V80.246C72.1495 79.6593 72.0162 79.246 71.7495 79.006C71.4829 78.766 71.1229 78.646 70.6695 78.646H68.8495C68.3562 78.646 67.9762 78.7793 67.7095 79.046C67.4562 79.3127 67.3295 79.7127 67.3295 80.246V86.706C67.3295 87.266 67.4695 87.6793 67.7495 87.946C68.0295 88.1993 68.4295 88.326 68.9495 88.326Z" fill="#141A18"/>
<path d="M31.2017 138.111C30.5671 138.111 29.9371 138.097 29.3117 138.069C28.6864 138.041 28.1264 138.004 27.6317 137.957V137.103H31.2157C31.6357 137.103 31.9997 137.038 32.3077 136.907C32.6157 136.767 32.8537 136.571 33.0217 136.319C33.1991 136.058 33.2877 135.755 33.2877 135.409V134.289C33.2877 133.804 33.1477 133.426 32.8677 133.155C32.5877 132.875 32.1584 132.735 31.5797 132.735H30.4737C30.0537 132.735 29.7177 132.829 29.4657 133.015C29.2137 133.202 29.0504 133.501 28.9757 133.911H27.9257L28.2197 127.737H34.0577V128.745H29.1857L29.0037 132.525C29.1157 132.339 29.3117 132.171 29.5917 132.021C29.8811 131.863 30.2451 131.783 30.6837 131.783H31.9157C32.4571 131.783 32.9097 131.886 33.2737 132.091C33.6377 132.287 33.9177 132.563 34.1137 132.917C34.3097 133.263 34.4077 133.655 34.4077 134.093V135.619C34.4077 136.179 34.2724 136.646 34.0017 137.019C33.7311 137.383 33.3577 137.659 32.8817 137.845C32.4057 138.023 31.8457 138.111 31.2017 138.111ZM39.1241 138.083C38.6948 138.083 38.3028 138.009 37.9481 137.859C37.5934 137.701 37.2948 137.43 37.0521 137.047C36.8094 136.665 36.6181 136.137 36.4781 135.465C36.3474 134.793 36.2821 133.935 36.2821 132.889C36.2821 131.965 36.3614 131.172 36.5201 130.509C36.6881 129.847 36.9308 129.305 37.2481 128.885C37.5654 128.465 37.9481 128.157 38.3961 127.961C38.8441 127.756 39.3574 127.653 39.9361 127.653C40.3281 127.653 40.7621 127.672 41.2381 127.709C41.7141 127.737 42.1341 127.77 42.4981 127.807V128.661H39.9501C39.1568 128.661 38.5314 128.969 38.0741 129.585C37.6261 130.192 37.4021 131.121 37.4021 132.371C37.6821 132.334 37.9901 132.306 38.3261 132.287C38.6714 132.259 39.0121 132.245 39.3481 132.245C39.6841 132.236 39.9828 132.231 40.2441 132.231C40.8601 132.231 41.3828 132.301 41.8121 132.441C42.2414 132.581 42.5634 132.81 42.7781 133.127C43.0021 133.445 43.1141 133.865 43.1141 134.387V135.829C43.1141 136.38 43.0068 136.819 42.7921 137.145C42.5774 137.472 42.2881 137.71 41.9241 137.859C41.5601 138.009 41.1588 138.083 40.7201 138.083H39.1241ZM39.3061 137.075H40.5101C40.7901 137.075 41.0421 137.038 41.2661 136.963C41.4901 136.879 41.6674 136.739 41.7981 136.543C41.9381 136.338 42.0081 136.044 42.0081 135.661V134.569C42.0081 134.177 41.9288 133.883 41.7701 133.687C41.6114 133.491 41.3828 133.361 41.0841 133.295C40.7854 133.221 40.4214 133.183 39.9921 133.183H37.4021C37.4021 133.958 37.4441 134.602 37.5281 135.115C37.6121 135.619 37.7334 136.016 37.8921 136.305C38.0601 136.585 38.2608 136.786 38.4941 136.907C38.7368 137.019 39.0074 137.075 39.3061 137.075ZM47.1747 138.041L53.3767 127.793H54.1327L47.9727 138.041H47.1747ZM46.4887 133.155C45.8074 133.155 45.3314 133.006 45.0607 132.707C44.7901 132.409 44.6547 131.961 44.6547 131.363V129.585C44.6547 128.988 44.7854 128.54 45.0467 128.241C45.3174 127.943 45.8074 127.793 46.5167 127.793H47.9307C48.6214 127.793 49.0974 127.943 49.3587 128.241C49.6201 128.54 49.7507 128.988 49.7507 129.585V131.363C49.7507 131.961 49.6201 132.409 49.3587 132.707C49.0974 133.006 48.6121 133.155 47.9027 133.155H46.4887ZM46.6007 132.441H47.7767C48.2247 132.441 48.5421 132.357 48.7287 132.189C48.9247 132.012 49.0227 131.69 49.0227 131.223V129.725C49.0227 129.277 48.9341 128.965 48.7567 128.787C48.5887 128.601 48.2714 128.507 47.8047 128.507H46.6287C46.2087 128.507 45.8961 128.587 45.6907 128.745C45.4854 128.895 45.3827 129.221 45.3827 129.725V131.223C45.3827 131.671 45.4714 131.989 45.6487 132.175C45.8354 132.353 46.1527 132.441 46.6007 132.441ZM53.5307 137.999C52.8494 137.999 52.3734 137.85 52.1027 137.551C51.8414 137.253 51.7107 136.805 51.7107 136.207V134.429C51.7107 133.832 51.8414 133.384 52.1027 133.085C52.3641 132.787 52.8494 132.637 53.5587 132.637H54.9727C55.6634 132.637 56.1394 132.787 56.4007 133.085C56.6621 133.384 56.7927 133.832 56.7927 134.429V136.207C56.7927 136.805 56.6621 137.253 56.4007 137.551C56.1394 137.85 55.6541 137.999 54.9447 137.999H53.5307ZM53.6427 137.285H54.8327C55.2714 137.285 55.5887 137.201 55.7847 137.033C55.9807 136.856 56.0787 136.534 56.0787 136.067V134.569C56.0787 134.121 55.9901 133.809 55.8127 133.631C55.6447 133.445 55.3274 133.351 54.8607 133.351H53.6707C53.2507 133.351 52.9381 133.431 52.7327 133.589C52.5274 133.739 52.4247 134.065 52.4247 134.569V136.067C52.4247 136.515 52.5181 136.833 52.7047 137.019C52.8914 137.197 53.2041 137.285 53.6427 137.285Z" fill="#373C3B"/>
<path d="M63.3984 133.543L64.2925 132.648L67.8371 136.187V128.47H69.1052V136.187L72.6434 132.642L73.5438 133.543L68.4711 138.615L63.3984 133.543Z" fill="#05DFAD"/>
<path d="M85.9784 127.541L83.1644 120.065H84.2984L86.6224 126.505L89.0164 120.065H90.1364L87.2384 127.541H85.9784ZM93.8392 127.625C93.6526 127.625 93.4239 127.621 93.1532 127.611C92.8826 127.602 92.5979 127.588 92.2992 127.569C92.0099 127.551 91.7439 127.532 91.5012 127.513C91.2679 127.485 91.0859 127.457 90.9552 127.429V126.757H94.0212C94.3292 126.757 94.5952 126.734 94.8192 126.687C95.0432 126.641 95.2159 126.538 95.3372 126.379C95.4679 126.221 95.5332 125.983 95.5332 125.665V125.329C95.5332 125.003 95.4259 124.751 95.2112 124.573C94.9966 124.387 94.6512 124.293 94.1752 124.293H93.1252C92.6866 124.293 92.2946 124.237 91.9492 124.125C91.6132 124.013 91.3519 123.822 91.1652 123.551C90.9786 123.281 90.8852 122.907 90.8852 122.431V122.039C90.8852 121.573 90.9739 121.19 91.1512 120.891C91.3379 120.593 91.6226 120.369 92.0052 120.219C92.3972 120.07 92.9012 119.995 93.5172 119.995C93.7786 119.995 94.0772 120.005 94.4132 120.023C94.7586 120.042 95.0946 120.07 95.4212 120.107C95.7479 120.135 96.0139 120.168 96.2192 120.205V120.877H93.3352C92.8592 120.877 92.4906 120.957 92.2292 121.115C91.9772 121.274 91.8512 121.582 91.8512 122.039V122.347C91.8512 122.637 91.9119 122.856 92.0332 123.005C92.1546 123.145 92.3226 123.239 92.5372 123.285C92.7612 123.332 93.0179 123.355 93.3072 123.355H94.3712C95.0526 123.355 95.5799 123.514 95.9532 123.831C96.3266 124.149 96.5132 124.606 96.5132 125.203V125.721C96.5132 126.225 96.3966 126.617 96.1632 126.897C95.9392 127.168 95.6266 127.359 95.2252 127.471C94.8332 127.574 94.3712 127.625 93.8392 127.625ZM102.051 127.541V119.309C102.051 118.908 102.107 118.577 102.219 118.315C102.34 118.045 102.499 117.835 102.695 117.685C102.891 117.527 103.11 117.415 103.353 117.349C103.595 117.275 103.838 117.237 104.081 117.237C104.491 117.247 104.935 117.256 105.411 117.265C105.896 117.275 106.391 117.289 106.895 117.307C107.408 117.317 107.907 117.34 108.393 117.377V118.259H104.347C103.973 118.259 103.684 118.362 103.479 118.567C103.273 118.773 103.171 119.076 103.171 119.477V122.151L107.777 122.221V123.075L103.171 123.145V127.541H102.051ZM111.012 127.625C110.462 127.625 110.009 127.462 109.654 127.135C109.3 126.809 109.122 126.347 109.122 125.749V125.217C109.122 124.629 109.314 124.153 109.696 123.789C110.088 123.425 110.676 123.243 111.46 123.243H113.994V122.319C113.994 122.011 113.938 121.75 113.826 121.535C113.724 121.311 113.532 121.139 113.252 121.017C112.982 120.896 112.585 120.835 112.062 120.835H109.738V120.177C110.065 120.121 110.443 120.07 110.872 120.023C111.311 119.977 111.824 119.953 112.412 119.953C113.019 119.944 113.523 120.019 113.924 120.177C114.326 120.336 114.62 120.588 114.806 120.933C115.002 121.269 115.1 121.713 115.1 122.263V127.541H114.246L114.036 126.687C113.999 126.725 113.882 126.79 113.686 126.883C113.5 126.977 113.257 127.084 112.958 127.205C112.669 127.317 112.352 127.415 112.006 127.499C111.67 127.583 111.339 127.625 111.012 127.625ZM111.474 126.799C111.642 126.809 111.834 126.79 112.048 126.743C112.263 126.697 112.482 126.645 112.706 126.589C112.93 126.524 113.136 126.459 113.322 126.393C113.518 126.328 113.677 126.272 113.798 126.225C113.92 126.179 113.985 126.155 113.994 126.155V123.803L111.712 123.901C111.18 123.92 110.798 124.051 110.564 124.293C110.34 124.536 110.228 124.849 110.228 125.231V125.567C110.228 125.866 110.289 126.109 110.41 126.295C110.541 126.473 110.7 126.599 110.886 126.673C111.082 126.748 111.278 126.79 111.474 126.799ZM119.761 127.625C119.574 127.625 119.346 127.621 119.075 127.611C118.804 127.602 118.52 127.588 118.221 127.569C117.932 127.551 117.666 127.532 117.423 127.513C117.19 127.485 117.008 127.457 116.877 127.429V126.757H119.943C120.251 126.757 120.517 126.734 120.741 126.687C120.965 126.641 121.138 126.538 121.259 126.379C121.39 126.221 121.455 125.983 121.455 125.665V125.329C121.455 125.003 121.348 124.751 121.133 124.573C120.918 124.387 120.573 124.293 120.097 124.293H119.047C118.608 124.293 118.216 124.237 117.871 124.125C117.535 124.013 117.274 123.822 117.087 123.551C116.9 123.281 116.807 122.907 116.807 122.431V122.039C116.807 121.573 116.896 121.19 117.073 120.891C117.26 120.593 117.544 120.369 117.927 120.219C118.319 120.07 118.823 119.995 119.439 119.995C119.7 119.995 119.999 120.005 120.335 120.023C120.68 120.042 121.016 120.07 121.343 120.107C121.67 120.135 121.936 120.168 122.141 120.205V120.877H119.257C118.781 120.877 118.412 120.957 118.151 121.115C117.899 121.274 117.773 121.582 117.773 122.039V122.347C117.773 122.637 117.834 122.856 117.955 123.005C118.076 123.145 118.244 123.239 118.459 123.285C118.683 123.332 118.94 123.355 119.229 123.355H120.293C120.974 123.355 121.502 123.514 121.875 123.831C122.248 124.149 122.435 124.606 122.435 125.203V125.721C122.435 126.225 122.318 126.617 122.085 126.897C121.861 127.168 121.548 127.359 121.147 127.471C120.755 127.574 120.293 127.625 119.761 127.625ZM126.663 127.541C126.178 127.541 125.776 127.462 125.459 127.303C125.142 127.145 124.908 126.888 124.759 126.533C124.61 126.179 124.54 125.707 124.549 125.119L124.591 120.975H123.401V120.261L124.605 120.065L124.787 117.979H125.641V120.065H127.797V120.975H125.641V125.119C125.641 125.446 125.674 125.707 125.739 125.903C125.814 126.099 125.907 126.249 126.019 126.351C126.14 126.454 126.266 126.529 126.397 126.575C126.528 126.613 126.654 126.636 126.775 126.645L127.685 126.729V127.541H126.663ZM83.9624 149.541V142.065H84.8304L85.0684 142.891C85.4418 142.63 85.8571 142.406 86.3144 142.219C86.7811 142.033 87.2991 141.939 87.8684 141.939C88.3351 141.939 88.7318 142.047 89.0584 142.261C89.3944 142.467 89.6464 142.728 89.8144 143.045C90.0478 142.877 90.3278 142.709 90.6544 142.541C90.9904 142.373 91.3451 142.233 91.7184 142.121C92.1011 142 92.4698 141.939 92.8244 141.939C93.3658 141.939 93.8091 142.056 94.1544 142.289C94.4998 142.513 94.7518 142.821 94.9104 143.213C95.0784 143.596 95.1624 144.025 95.1624 144.501V149.541H94.0564V144.585C94.0564 144.268 93.9911 143.988 93.8604 143.745C93.7391 143.493 93.5618 143.297 93.3284 143.157C93.0951 143.017 92.8104 142.947 92.4744 142.947C92.0544 142.947 91.6251 143.027 91.1864 143.185C90.7478 143.344 90.3418 143.535 89.9684 143.759C90.0151 143.899 90.0478 144.039 90.0664 144.179C90.0944 144.31 90.1084 144.45 90.1084 144.599V149.541H89.0024V144.585C89.0024 144.268 88.9371 143.988 88.8064 143.745C88.6851 143.493 88.5078 143.297 88.2744 143.157C88.0504 143.017 87.7704 142.947 87.4344 142.947C87.1264 142.947 86.8371 142.98 86.5664 143.045C86.3051 143.101 86.0531 143.185 85.8104 143.297C85.5771 143.4 85.3298 143.526 85.0684 143.675V149.541H83.9624ZM100.206 149.625C99.6645 149.625 99.1885 149.569 98.7778 149.457C98.3765 149.345 98.0405 149.149 97.7698 148.869C97.4992 148.589 97.2985 148.202 97.1678 147.707C97.0372 147.203 96.9718 146.564 96.9718 145.789C96.9718 145.005 97.0372 144.366 97.1678 143.871C97.2985 143.367 97.4992 142.98 97.7698 142.709C98.0405 142.429 98.3765 142.238 98.7778 142.135C99.1885 142.023 99.6645 141.967 100.206 141.967C100.747 141.967 101.218 142.023 101.62 142.135C102.03 142.247 102.371 142.443 102.642 142.723C102.912 142.994 103.113 143.381 103.244 143.885C103.384 144.38 103.454 145.015 103.454 145.789C103.454 146.573 103.384 147.217 103.244 147.721C103.113 148.216 102.912 148.603 102.642 148.883C102.38 149.154 102.044 149.345 101.634 149.457C101.223 149.569 100.747 149.625 100.206 149.625ZM100.206 148.715C100.551 148.715 100.854 148.683 101.116 148.617C101.386 148.552 101.61 148.421 101.788 148.225C101.965 148.029 102.1 147.735 102.194 147.343C102.287 146.951 102.334 146.433 102.334 145.789C102.334 145.136 102.287 144.618 102.194 144.235C102.1 143.853 101.965 143.563 101.788 143.367C101.61 143.171 101.386 143.041 101.116 142.975C100.854 142.91 100.551 142.877 100.206 142.877C99.8512 142.877 99.5432 142.91 99.2818 142.975C99.0205 143.041 98.8012 143.171 98.6238 143.367C98.4465 143.563 98.3112 143.853 98.2178 144.235C98.1245 144.618 98.0778 145.136 98.0778 145.789C98.0778 146.433 98.1245 146.951 98.2178 147.343C98.3112 147.735 98.4465 148.029 98.6238 148.225C98.8012 148.421 99.0205 148.552 99.2818 148.617C99.5432 148.683 99.8512 148.715 100.206 148.715ZM105.318 149.541V142.065H106.186L106.424 142.891C106.779 142.639 107.194 142.42 107.67 142.233C108.146 142.037 108.641 141.939 109.154 141.939C109.705 141.939 110.148 142.056 110.484 142.289C110.82 142.523 111.067 142.831 111.226 143.213C111.385 143.596 111.464 144.011 111.464 144.459V149.541H110.358V144.585C110.358 144.268 110.293 143.988 110.162 143.745C110.041 143.493 109.863 143.297 109.63 143.157C109.406 143.017 109.126 142.947 108.79 142.947C108.482 142.947 108.193 142.98 107.922 143.045C107.661 143.101 107.409 143.185 107.166 143.297C106.933 143.4 106.685 143.526 106.424 143.675V149.541H105.318ZM116.026 149.541C115.541 149.541 115.14 149.462 114.822 149.303C114.505 149.145 114.272 148.888 114.122 148.533C113.973 148.179 113.903 147.707 113.912 147.119L113.954 142.975H112.764V142.261L113.968 142.065L114.15 139.979H115.004V142.065H117.16V142.975H115.004V147.119C115.004 147.446 115.037 147.707 115.102 147.903C115.177 148.099 115.27 148.249 115.382 148.351C115.504 148.454 115.63 148.529 115.76 148.575C115.891 148.613 116.017 148.636 116.138 148.645L117.048 148.729V149.541H116.026ZM118.689 149.541V138.859H119.795V142.891C120.14 142.639 120.551 142.42 121.027 142.233C121.512 142.037 122.016 141.939 122.539 141.939C123.062 141.939 123.491 142.051 123.827 142.275C124.172 142.499 124.424 142.803 124.583 143.185C124.751 143.568 124.835 143.993 124.835 144.459V149.541H123.729V144.571C123.729 144.254 123.664 143.974 123.533 143.731C123.412 143.489 123.234 143.297 123.001 143.157C122.768 143.017 122.488 142.947 122.161 142.947C121.853 142.947 121.568 142.98 121.307 143.045C121.046 143.101 120.794 143.185 120.551 143.297C120.308 143.4 120.056 143.526 119.795 143.675V149.541H118.689Z" fill="#373C3B"/>
<path d="M157.625 140.439L158.569 138.327L159.513 135.906L160.458 137.248L161.402 136.865L162.346 137.091L163.29 135.948L164.235 136.61L165.179 135.421L166.123 135.325L167.067 134.4L168.012 135.558L168.956 134.668L169.9 132.485L170.844 131.931L171.789 133.493L172.733 134.464L173.677 137.297L174.621 136.532L175.566 139.617L176.51 140.951L177.454 139.666L178.398 141.358L179.343 141.417L180.287 144.196L181.231 145.457L182.175 144.395L183.12 144.505L184.064 141.481L185.008 143.134L185.952 141.245L186.897 140.36L187.841 140.576L188.785 136.365L189.729 134.95L190.674 134.351L191.618 132.774L192.562 132.404L193.506 133.674L194.451 131.516L195.395 133.667L196.339 132.374L197.283 132.237L198.228 129.056L199.172 126.488L200.116 127.7L201.06 127.781L202.005 127.459L202.949 127.003L203.893 125.421L204.837 123.16L205.782 123.697L206.726 125.053L207.67 126.751L208.614 126.032L209.559 128.217L210.503 128.838L211.447 126.736L212.391 127.3L213.336 127.516L214.28 127.369L215.224 123.381L216.168 124.465L217.112 125.362L218.057 127.229L219.001 128.428L219.945 130.145L220.889 131.106L221.834 132.269L222.778 132.085L223.722 132.988L224.666 131.425L225.611 132.269L226.555 133.385L227.499 131.16L228.443 129.824L229.388 129.62L230.332 129.517L231.276 129.802L232.22 126.893L233.165 126.868L234.109 126.878L235.053 129.024L235.997 128.951L236.942 130.77L237.886 129.169L238.83 130.945L239.774 129.132L240.719 130.39L241.663 131.509L242.607 129.277L243.551 127.474L244.496 126.417L245.44 124.995L246.384 125.235L247.328 128.759L248.273 127.746L249.217 126.069L250.161 125.142L251.105 123.43L252.05 120.931" stroke="#FC6B21" stroke-width="1.34779" stroke-linecap="round" stroke-linejoin="round"/>
</g>
<g filter="url(#filter2_dd_2019_258)">
<rect x="69" y="49" width="297.704" height="147.426" rx="8" fill="white"/>
<rect x="69.4261" y="49.4261" width="296.852" height="146.573" rx="7.5739" stroke="#EAECF0" stroke-width="0.852207"/>
<path d="M86.7531 84.675C86.7531 84.159 86.8731 83.703 87.1131 83.307C87.3411 82.899 87.6591 82.581 88.0671 82.353C88.4631 82.113 88.9191 81.993 89.4351 81.993H99.5871C100.103 81.993 100.559 82.113 100.955 82.353C101.363 82.581 101.681 82.899 101.909 83.307C102.149 83.703 102.269 84.159 102.269 84.675V84.711C102.269 85.227 102.149 85.689 101.909 86.097C101.681 86.493 101.363 86.811 100.955 87.051C100.559 87.279 100.103 87.393 99.5871 87.393H89.4351C88.9191 87.393 88.4631 87.279 88.0671 87.051C87.6591 86.811 87.3411 86.493 87.1131 86.097C86.8731 85.689 86.7531 85.227 86.7531 84.711V84.675ZM96.8605 84.675C96.8605 84.159 96.9805 83.703 97.2205 83.307C97.4485 82.899 97.7665 82.581 98.1745 82.353C98.5705 82.113 99.0265 81.993 99.5425 81.993H109.695C110.211 81.993 110.667 82.113 111.063 82.353C111.471 82.581 111.789 82.899 112.017 83.307C112.257 83.703 112.377 84.159 112.377 84.675V84.711C112.377 85.227 112.257 85.689 112.017 86.097C111.789 86.493 111.471 86.811 111.063 87.051C110.667 87.279 110.211 87.393 109.695 87.393H99.5425C99.0265 87.393 98.5705 87.279 98.1745 87.051C97.7665 86.811 97.4485 86.493 97.2205 86.097C96.9805 85.689 96.8605 85.227 96.8605 84.711V84.675ZM106.968 84.675C106.968 84.159 107.088 83.703 107.328 83.307C107.556 82.899 107.874 82.581 108.282 82.353C108.678 82.113 109.134 81.993 109.65 81.993H119.802C120.318 81.993 120.774 82.113 121.17 82.353C121.578 82.581 121.896 82.899 122.124 83.307C122.364 83.703 122.484 84.159 122.484 84.675V84.711C122.484 85.227 122.364 85.689 122.124 86.097C121.896 86.493 121.578 86.811 121.17 87.051C120.774 87.279 120.318 87.393 119.802 87.393H109.65C109.134 87.393 108.678 87.279 108.282 87.051C107.874 86.811 107.556 86.493 107.328 86.097C107.088 85.689 106.968 85.227 106.968 84.711V84.675ZM117.075 84.675C117.075 84.159 117.195 83.703 117.435 83.307C117.663 82.899 117.981 82.581 118.389 82.353C118.785 82.113 119.241 81.993 119.757 81.993H129.909C130.425 81.993 130.881 82.113 131.277 82.353C131.685 82.581 132.003 82.899 132.231 83.307C132.471 83.703 132.591 84.159 132.591 84.675V84.711C132.591 85.227 132.471 85.689 132.231 86.097C132.003 86.493 131.685 86.811 131.277 87.051C130.881 87.279 130.425 87.393 129.909 87.393H119.757C119.241 87.393 118.785 87.279 118.389 87.051C117.981 86.811 117.663 86.493 117.435 86.097C117.195 85.689 117.075 85.227 117.075 84.711V84.675ZM127.183 84.675C127.183 84.159 127.303 83.703 127.543 83.307C127.771 82.899 128.089 82.581 128.497 82.353C128.893 82.113 129.349 81.993 129.865 81.993H140.017C140.533 81.993 140.989 82.113 141.385 82.353C141.793 82.581 142.111 82.899 142.339 83.307C142.579 83.703 142.699 84.159 142.699 84.675V84.711C142.699 85.227 142.579 85.689 142.339 86.097C142.111 86.493 141.793 86.811 141.385 87.051C140.989 87.279 140.533 87.393 140.017 87.393H129.865C129.349 87.393 128.893 87.279 128.497 87.051C128.089 86.811 127.771 86.493 127.543 86.097C127.303 85.689 127.183 85.227 127.183 84.711V84.675ZM137.29 84.675C137.29 84.159 137.41 83.703 137.65 83.307C137.878 82.899 138.196 82.581 138.604 82.353C139 82.113 139.456 81.993 139.972 81.993H150.124C150.64 81.993 151.096 82.113 151.492 82.353C151.9 82.581 152.218 82.899 152.446 83.307C152.686 83.703 152.806 84.159 152.806 84.675V84.711C152.806 85.227 152.686 85.689 152.446 86.097C152.218 86.493 151.9 86.811 151.492 87.051C151.096 87.279 150.64 87.393 150.124 87.393H139.972C139.456 87.393 139 87.279 138.604 87.051C138.196 86.811 137.878 86.493 137.65 86.097C137.41 85.689 137.29 85.227 137.29 84.711V84.675ZM147.398 84.675C147.398 84.159 147.518 83.703 147.758 83.307C147.986 82.899 148.304 82.581 148.712 82.353C149.108 82.113 149.564 81.993 150.08 81.993H160.232C160.748 81.993 161.204 82.113 161.6 82.353C162.008 82.581 162.326 82.899 162.554 83.307C162.794 83.703 162.914 84.159 162.914 84.675V84.711C162.914 85.227 162.794 85.689 162.554 86.097C162.326 86.493 162.008 86.811 161.6 87.051C161.204 87.279 160.748 87.393 160.232 87.393H150.08C149.564 87.393 149.108 87.279 148.712 87.051C148.304 86.811 147.986 86.493 147.758 86.097C147.518 85.689 147.398 85.227 147.398 84.711V84.675ZM168.298 84.675C168.298 84.159 168.418 83.703 168.658 83.307C168.886 82.899 169.204 82.581 169.612 82.353C170.008 82.113 170.464 81.993 170.98 81.993H176.164C176.68 81.993 177.136 82.113 177.532 82.353C177.94 82.581 178.258 82.899 178.486 83.307C178.726 83.703 178.846 84.159 178.846 84.675V84.711C178.846 85.227 178.726 85.689 178.486 86.097C178.258 86.493 177.94 86.811 177.532 87.051C177.136 87.279 176.68 87.393 176.164 87.393H170.98C170.464 87.393 170.008 87.279 169.612 87.051C169.204 86.811 168.886 86.493 168.658 86.097C168.418 85.689 168.298 85.227 168.298 84.711V84.675ZM173.448 84.675C173.448 84.159 173.568 83.703 173.808 83.307C174.036 82.899 174.354 82.581 174.762 82.353C175.158 82.113 175.614 81.993 176.13 81.993H181.314C181.83 81.993 182.286 82.113 182.682 82.353C183.09 82.581 183.408 82.899 183.636 83.307C183.876 83.703 183.996 84.159 183.996 84.675V84.711C183.996 85.227 183.876 85.689 183.636 86.097C183.408 86.493 183.09 86.811 182.682 87.051C182.286 87.279 181.83 87.393 181.314 87.393H176.13C175.614 87.393 175.158 87.279 174.762 87.051C174.354 86.811 174.036 86.493 173.808 86.097C173.568 85.689 173.448 85.227 173.448 84.711V84.675ZM178.599 84.675C178.599 84.159 178.719 83.703 178.959 83.307C179.187 82.899 179.505 82.581 179.913 82.353C180.309 82.113 180.765 81.993 181.281 81.993H191.433C191.949 81.993 192.405 82.113 192.801 82.353C193.209 82.581 193.527 82.899 193.755 83.307C193.995 83.703 194.115 84.159 194.115 84.675V84.711C194.115 85.227 193.995 85.689 193.755 86.097C193.527 86.493 193.209 86.811 192.801 87.051C192.405 87.279 191.949 87.393 191.433 87.393H181.281C180.765 87.393 180.309 87.279 179.913 87.051C179.505 86.811 179.187 86.493 178.959 86.097C178.719 85.689 178.599 85.227 178.599 84.711V84.675ZM188.706 84.675C188.706 84.159 188.826 83.703 189.066 83.307C189.294 82.899 189.612 82.581 190.02 82.353C190.416 82.113 190.872 81.993 191.388 81.993H201.54C202.056 81.993 202.512 82.113 202.908 82.353C203.316 82.581 203.634 82.899 203.862 83.307C204.102 83.703 204.222 84.159 204.222 84.675V84.711C204.222 85.227 204.102 85.689 203.862 86.097C203.634 86.493 203.316 86.811 202.908 87.051C202.512 87.279 202.056 87.393 201.54 87.393H191.388C190.872 87.393 190.416 87.279 190.02 87.051C189.612 86.811 189.294 86.493 189.066 86.097C188.826 85.689 188.706 85.227 188.706 84.711V84.675Z" fill="#141A18"/>
<rect x="198.359" y="75.925" width="134.937" height="14.056" rx="7.02799" fill="white"/>
<path d="M337.726 83.6648C338.118 83.6648 338.436 83.3468 338.436 82.9544C338.436 82.5621 338.118 82.2441 337.726 82.2441C337.334 82.2441 337.016 82.5621 337.016 82.9544C337.016 83.3468 337.334 83.6648 337.726 83.6648Z" stroke="#05605B" stroke-width="1.42068" stroke-linecap="round" stroke-linejoin="round"/>
<path d="M337.726 78.6924C338.118 78.6924 338.436 78.3744 338.436 77.9821C338.436 77.5898 338.118 77.2717 337.726 77.2717C337.334 77.2717 337.016 77.5898 337.016 77.9821C337.016 78.3744 337.334 78.6924 337.726 78.6924Z" stroke="#05605B" stroke-width="1.42068" stroke-linecap="round" stroke-linejoin="round"/>
<path d="M337.726 88.6372C338.118 88.6372 338.436 88.3191 338.436 87.9268C338.436 87.5345 338.118 87.2165 337.726 87.2165C337.334 87.2165 337.016 87.5345 337.016 87.9268C337.016 88.3191 337.334 88.6372 337.726 88.6372Z" stroke="#05605B" stroke-width="1.42068" stroke-linecap="round" stroke-linejoin="round"/>
<path d="M96.9531 137.886V134.766H90.4731L89.9131 133.366L94.7131 123.106H97.7331L93.4331 132.246H96.9531V129.366L97.5331 127.666H99.9131V132.246H101.433V134.286L99.9131 134.766V137.886H96.9531ZM106.816 137.986C105.989 137.986 105.283 137.846 104.696 137.566C104.123 137.273 103.683 136.839 103.376 136.266C103.083 135.693 102.936 134.993 102.936 134.166V126.966C102.936 126.099 103.089 125.373 103.396 124.786C103.703 124.186 104.149 123.739 104.736 123.446C105.336 123.139 106.036 122.986 106.836 122.986H109.916C110.756 122.986 111.449 123.146 111.996 123.466C112.556 123.773 112.976 124.226 113.256 124.826C113.536 125.413 113.676 126.126 113.676 126.966V134.166C113.676 135.406 113.343 136.353 112.676 137.006C112.023 137.659 111.103 137.986 109.916 137.986H106.816ZM107.516 135.326H109.116C109.663 135.326 110.063 135.193 110.316 134.926C110.583 134.659 110.716 134.259 110.716 133.726V127.246C110.716 126.659 110.583 126.246 110.316 126.006C110.049 125.766 109.689 125.646 109.236 125.646H107.416C106.923 125.646 106.543 125.779 106.276 126.046C106.023 126.313 105.896 126.713 105.896 127.246V133.706C105.896 134.266 106.036 134.679 106.316 134.946C106.596 135.199 106.996 135.326 107.516 135.326ZM116.885 139.686C116.632 139.686 116.412 139.666 116.225 139.626C116.038 139.586 115.945 139.566 115.945 139.566V138.626C116.132 138.626 116.265 138.599 116.345 138.546C116.438 138.493 116.485 138.386 116.485 138.226V137.706H116.285C116.165 137.706 116.065 137.673 115.985 137.606C115.905 137.526 115.865 137.413 115.865 137.266V135.526C115.865 135.219 116.005 135.066 116.285 135.066H117.965C118.125 135.066 118.232 135.113 118.285 135.206C118.352 135.286 118.385 135.393 118.385 135.526V138.266C118.385 138.653 118.305 138.953 118.145 139.166C117.985 139.379 117.792 139.519 117.565 139.586C117.338 139.653 117.112 139.686 116.885 139.686ZM126.777 137.886V134.766H120.297L119.737 133.366L124.537 123.106H127.557L123.257 132.246H126.777V129.366L127.357 127.666H129.737V132.246H131.257V134.286L129.737 134.766V137.886H126.777ZM132.58 137.906V135.526L137.52 130.626C137.92 130.239 138.247 129.879 138.5 129.546C138.753 129.213 138.94 128.886 139.06 128.566C139.193 128.233 139.26 127.879 139.26 127.506C139.26 127.146 139.187 126.839 139.04 126.586C138.907 126.319 138.68 126.119 138.36 125.986C138.053 125.853 137.627 125.786 137.08 125.786H132.92V123.466C133.56 123.346 134.267 123.239 135.04 123.146C135.827 123.039 136.7 122.986 137.66 122.986C138.82 122.986 139.727 123.146 140.38 123.466C141.047 123.786 141.52 124.246 141.8 124.846C142.08 125.446 142.22 126.173 142.22 127.026C142.22 127.693 142.127 128.299 141.94 128.846C141.767 129.393 141.507 129.919 141.16 130.426C140.813 130.919 140.373 131.419 139.84 131.926L136.52 135.226H142.68V137.906H132.58ZM148.359 137.986C147.532 137.986 146.826 137.846 146.239 137.566C145.666 137.273 145.226 136.839 144.919 136.266C144.626 135.693 144.479 134.993 144.479 134.166V126.966C144.479 126.099 144.632 125.373 144.939 124.786C145.246 124.186 145.692 123.739 146.279 123.446C146.879 123.139 147.579 122.986 148.379 122.986H151.459C152.299 122.986 152.992 123.146 153.539 123.466C154.099 123.773 154.519 124.226 154.799 124.826C155.079 125.413 155.219 126.126 155.219 126.966V134.166C155.219 135.406 154.886 136.353 154.219 137.006C153.566 137.659 152.646 137.986 151.459 137.986H148.359ZM149.059 135.326H150.659C151.206 135.326 151.606 135.193 151.859 134.926C152.126 134.659 152.259 134.259 152.259 133.726V127.246C152.259 126.659 152.126 126.246 151.859 126.006C151.592 125.766 151.232 125.646 150.779 125.646H148.959C148.466 125.646 148.086 125.779 147.819 126.046C147.566 126.313 147.439 126.713 147.439 127.246V133.706C147.439 134.266 147.579 134.679 147.859 134.946C148.139 135.199 148.539 135.326 149.059 135.326Z" fill="#141A18"/>
<path d="M90.2599 173.541V172.631L94.0679 168.977C94.4599 168.613 94.7679 168.273 94.9919 167.955C95.2252 167.638 95.3932 167.321 95.4959 167.003C95.5986 166.677 95.6499 166.322 95.6499 165.939C95.6499 165.603 95.5846 165.305 95.4539 165.043C95.3326 164.782 95.1132 164.577 94.7959 164.427C94.4786 164.278 94.0212 164.203 93.4239 164.203H90.6239V163.349C91.0532 163.303 91.5246 163.261 92.0379 163.223C92.5606 163.177 93.1019 163.153 93.6619 163.153C94.4459 163.153 95.0619 163.265 95.5099 163.489C95.9672 163.713 96.2892 164.026 96.4759 164.427C96.6626 164.819 96.7559 165.281 96.7559 165.813C96.7559 166.289 96.6906 166.728 96.5599 167.129C96.4386 167.531 96.2426 167.923 95.9719 168.305C95.7012 168.688 95.3512 169.085 94.9219 169.495L91.7719 172.519H97.1339V173.541H90.2599ZM101.429 173.569C100.934 173.569 100.491 173.485 100.099 173.317C99.7161 173.14 99.4127 172.874 99.1887 172.519C98.9741 172.155 98.8667 171.689 98.8667 171.119V165.659C98.8667 165.109 98.9741 164.651 99.1887 164.287C99.4127 163.914 99.7161 163.634 100.099 163.447C100.491 163.251 100.934 163.153 101.429 163.153H103.431C104.009 163.153 104.481 163.261 104.845 163.475C105.209 163.681 105.475 163.97 105.643 164.343C105.82 164.717 105.909 165.155 105.909 165.659V171.119C105.909 171.969 105.68 172.589 105.223 172.981C104.775 173.373 104.177 173.569 103.431 173.569H101.429ZM101.639 172.575H103.179C103.748 172.575 104.159 172.435 104.411 172.155C104.663 171.866 104.789 171.474 104.789 170.979V165.743C104.789 165.211 104.653 164.815 104.383 164.553C104.121 164.292 103.734 164.161 103.221 164.161H101.611C101.107 164.161 100.71 164.301 100.421 164.581C100.131 164.852 99.9867 165.239 99.9867 165.743V170.979C99.9867 171.511 100.131 171.913 100.421 172.183C100.719 172.445 101.125 172.575 101.639 172.575ZM110.141 173.541L116.343 163.293H117.099L110.939 173.541H110.141ZM109.455 168.655C108.773 168.655 108.297 168.506 108.027 168.207C107.756 167.909 107.621 167.461 107.621 166.863V165.085C107.621 164.488 107.751 164.04 108.013 163.741C108.283 163.443 108.773 163.293 109.483 163.293H110.897C111.587 163.293 112.063 163.443 112.325 163.741C112.586 164.04 112.717 164.488 112.717 165.085V166.863C112.717 167.461 112.586 167.909 112.325 168.207C112.063 168.506 111.578 168.655 110.869 168.655H109.455ZM109.567 167.941H110.743C111.191 167.941 111.508 167.857 111.695 167.689C111.891 167.512 111.989 167.19 111.989 166.723V165.225C111.989 164.777 111.9 164.465 111.723 164.287C111.555 164.101 111.237 164.007 110.771 164.007H109.595C109.175 164.007 108.862 164.087 108.657 164.245C108.451 164.395 108.349 164.721 108.349 165.225V166.723C108.349 167.171 108.437 167.489 108.615 167.675C108.801 167.853 109.119 167.941 109.567 167.941ZM116.497 173.499C115.815 173.499 115.339 173.35 115.069 173.051C114.807 172.753 114.677 172.305 114.677 171.707V169.929C114.677 169.332 114.807 168.884 115.069 168.585C115.33 168.287 115.815 168.137 116.525 168.137H117.939C118.629 168.137 119.105 168.287 119.367 168.585C119.628 168.884 119.759 169.332 119.759 169.929V171.707C119.759 172.305 119.628 172.753 119.367 173.051C119.105 173.35 118.62 173.499 117.911 173.499H116.497ZM116.609 172.785H117.799C118.237 172.785 118.555 172.701 118.751 172.533C118.947 172.356 119.045 172.034 119.045 171.567V170.069C119.045 169.621 118.956 169.309 118.779 169.131C118.611 168.945 118.293 168.851 117.827 168.851H116.637C116.217 168.851 115.904 168.931 115.699 169.089C115.493 169.239 115.391 169.565 115.391 170.069V171.567C115.391 172.015 115.484 172.333 115.671 172.519C115.857 172.697 116.17 172.785 116.609 172.785Z" fill="#373C3B"/>
<path d="M126.395 169.042L127.289 169.936L130.833 166.397V174.114H132.101V166.397L135.64 169.942L136.54 169.042L131.467 163.969L126.395 169.042Z" fill="#20B9FC"/>
<path d="M143.798 170.047C143.798 169.646 143.892 169.291 144.078 168.983C144.256 168.666 144.503 168.419 144.82 168.241C145.128 168.055 145.483 167.961 145.884 167.961H153.78C154.182 167.961 154.536 168.055 154.844 168.241C155.162 168.419 155.409 168.666 155.586 168.983C155.773 169.291 155.866 169.646 155.866 170.047V170.075C155.866 170.477 155.773 170.836 155.586 171.153C155.409 171.461 155.162 171.709 154.844 171.895C154.536 172.073 154.182 172.161 153.78 172.161H145.884C145.483 172.161 145.128 172.073 144.82 171.895C144.503 171.709 144.256 171.461 144.078 171.153C143.892 170.836 143.798 170.477 143.798 170.075V170.047ZM151.66 170.047C151.66 169.646 151.753 169.291 151.94 168.983C152.117 168.666 152.364 168.419 152.682 168.241C152.99 168.055 153.344 167.961 153.746 167.961H161.642C162.043 167.961 162.398 168.055 162.706 168.241C163.023 168.419 163.27 168.666 163.448 168.983C163.634 169.291 163.728 169.646 163.728 170.047V170.075C163.728 170.477 163.634 170.836 163.448 171.153C163.27 171.461 163.023 171.709 162.706 171.895C162.398 172.073 162.043 172.161 161.642 172.161H153.746C153.344 172.161 152.99 172.073 152.682 171.895C152.364 171.709 152.117 171.461 151.94 171.153C151.753 170.836 151.66 170.477 151.66 170.075V170.047ZM167.916 170.047C167.916 169.646 168.009 169.291 168.196 168.983C168.373 168.666 168.62 168.419 168.938 168.241C169.246 168.055 169.6 167.961 170.002 167.961H174.034C174.435 167.961 174.79 168.055 175.098 168.241C175.415 168.419 175.662 168.666 175.84 168.983C176.026 169.291 176.12 169.646 176.12 170.047V170.075C176.12 170.477 176.026 170.836 175.84 171.153C175.662 171.461 175.415 171.709 175.098 171.895C174.79 172.073 174.435 172.161 174.034 172.161H170.002C169.6 172.161 169.246 172.073 168.938 171.895C168.62 171.709 168.373 171.461 168.196 171.153C168.009 170.836 167.916 170.477 167.916 170.075V170.047ZM171.921 170.047C171.921 169.646 172.015 169.291 172.201 168.983C172.379 168.666 172.626 168.419 172.943 168.241C173.251 168.055 173.606 167.961 174.007 167.961H181.903C182.305 167.961 182.659 168.055 182.967 168.241C183.285 168.419 183.532 168.666 183.709 168.983C183.896 169.291 183.989 169.646 183.989 170.047V170.075C183.989 170.477 183.896 170.836 183.709 171.153C183.532 171.461 183.285 171.709 182.967 171.895C182.659 172.073 182.305 172.161 181.903 172.161H174.007C173.606 172.161 173.251 172.073 172.943 171.895C172.626 171.709 172.379 171.461 172.201 171.153C172.015 170.836 171.921 170.477 171.921 170.075V170.047ZM179.783 170.047C179.783 169.646 179.876 169.291 180.063 168.983C180.24 168.666 180.487 168.419 180.805 168.241C181.113 168.055 181.467 167.961 181.869 167.961H189.765C190.166 167.961 190.521 168.055 190.829 168.241C191.146 168.419 191.393 168.666 191.571 168.983C191.757 169.291 191.851 169.646 191.851 170.047V170.075C191.851 170.477 191.757 170.836 191.571 171.153C191.393 171.461 191.146 171.709 190.829 171.895C190.521 172.073 190.166 172.161 189.765 172.161H181.869C181.467 172.161 181.113 172.073 180.805 171.895C180.487 171.709 180.24 171.461 180.063 171.153C179.876 170.836 179.783 170.477 179.783 170.075V170.047ZM187.644 170.047C187.644 169.646 187.737 169.291 187.924 168.983C188.101 168.666 188.349 168.419 188.666 168.241C188.974 168.055 189.329 167.961 189.73 167.961H193.762C194.163 167.961 194.518 168.055 194.826 168.241C195.143 168.419 195.391 168.666 195.568 168.983C195.755 169.291 195.848 169.646 195.848 170.047V170.075C195.848 170.477 195.755 170.836 195.568 171.153C195.391 171.461 195.143 171.709 194.826 171.895C194.518 172.073 194.163 172.161 193.762 172.161H189.73C189.329 172.161 188.974 172.073 188.666 171.895C188.349 171.709 188.101 171.461 187.924 171.153C187.737 170.836 187.644 170.477 187.644 170.075V170.047ZM200.045 170.047C200.045 169.646 200.138 169.291 200.325 168.983C200.502 168.666 200.749 168.419 201.067 168.241C201.375 168.055 201.729 167.961 202.131 167.961H210.027C210.428 167.961 210.783 168.055 211.091 168.241C211.408 168.419 211.655 168.666 211.833 168.983C212.019 169.291 212.113 169.646 212.113 170.047V170.075C212.113 170.477 212.019 170.836 211.833 171.153C211.655 171.461 211.408 171.709 211.091 171.895C210.783 172.073 210.428 172.161 210.027 172.161H202.131C201.729 172.161 201.375 172.073 201.067 171.895C200.749 171.709 200.502 171.461 200.325 171.153C200.138 170.836 200.045 170.477 200.045 170.075V170.047ZM207.906 170.047C207.906 169.646 207.999 169.291 208.186 168.983C208.363 168.666 208.611 168.419 208.928 168.241C209.236 168.055 209.591 167.961 209.992 167.961H217.888C218.289 167.961 218.644 168.055 218.952 168.241C219.269 168.419 219.517 168.666 219.694 168.983C219.881 169.291 219.974 169.646 219.974 170.047V170.075C219.974 170.477 219.881 170.836 219.694 171.153C219.517 171.461 219.269 171.709 218.952 171.895C218.644 172.073 218.289 172.161 217.888 172.161H209.992C209.591 172.161 209.236 172.073 208.928 171.895C208.611 171.709 208.363 171.461 208.186 171.153C207.999 170.836 207.906 170.477 207.906 170.075V170.047ZM215.767 170.047C215.767 169.646 215.861 169.291 216.047 168.983C216.225 168.666 216.472 168.419 216.789 168.241C217.097 168.055 217.452 167.961 217.853 167.961H225.749C226.151 167.961 226.505 168.055 226.813 168.241C227.131 168.419 227.378 168.666 227.555 168.983C227.742 169.291 227.835 169.646 227.835 170.047V170.075C227.835 170.477 227.742 170.836 227.555 171.153C227.378 171.461 227.131 171.709 226.813 171.895C226.505 172.073 226.151 172.161 225.749 172.161H217.853C217.452 172.161 217.097 172.073 216.789 171.895C216.472 171.709 216.225 171.461 216.047 171.153C215.861 170.836 215.767 170.477 215.767 170.075V170.047ZM223.629 170.047C223.629 169.646 223.722 169.291 223.909 168.983C224.086 168.666 224.333 168.419 224.651 168.241C224.959 168.055 225.313 167.961 225.715 167.961H229.747C230.148 167.961 230.503 168.055 230.811 168.241C231.128 168.419 231.375 168.666 231.553 168.983C231.739 169.291 231.833 169.646 231.833 170.047V170.075C231.833 170.477 231.739 170.836 231.553 171.153C231.375 171.461 231.128 171.709 230.811 171.895C230.503 172.073 230.148 172.161 229.747 172.161H225.715C225.313 172.161 224.959 172.073 224.651 171.895C224.333 171.709 224.086 171.461 223.909 171.153C223.722 170.836 223.629 170.477 223.629 170.075V170.047ZM227.634 170.047C227.634 169.646 227.728 169.291 227.914 168.983C228.092 168.666 228.339 168.419 228.656 168.241C228.964 168.055 229.319 167.961 229.72 167.961H237.616C238.018 167.961 238.372 168.055 238.68 168.241C238.998 168.419 239.245 168.666 239.422 168.983C239.609 169.291 239.702 169.646 239.702 170.047V170.075C239.702 170.477 239.609 170.836 239.422 171.153C239.245 171.461 238.998 171.709 238.68 171.895C238.372 172.073 238.018 172.161 237.616 172.161H229.72C229.319 172.161 228.964 172.073 228.656 171.895C228.339 171.709 228.092 171.461 227.914 171.153C227.728 170.836 227.634 170.477 227.634 170.075V170.047Z" fill="#373C3B"/>
<path d="M254.379 164.439L255.323 162.327L256.267 159.906L257.212 161.248L258.156 160.865L259.1 161.091L260.044 159.948L260.989 160.61L261.933 159.421L262.877 159.325L263.821 158.4L264.766 159.558L265.71 158.668L266.654 156.485L267.598 155.931L268.543 157.493L269.487 158.464L270.431 161.297L271.375 160.532L272.32 163.617L273.264 164.951L274.208 163.666L275.152 165.358L276.097 165.417L277.041 168.196L277.985 169.457L278.929 168.395L279.874 168.505L280.818 165.481L281.762 167.134L282.706 165.245L283.651 164.36L284.595 164.576L285.539 160.365L286.483 158.95L287.428 158.351L288.372 156.774L289.316 156.404L290.26 157.674L291.204 155.516L292.149 157.667L293.093 156.374L294.037 156.237L294.981 153.056L295.926 150.488L296.87 151.7L297.814 151.781L298.758 151.459L299.703 151.003L300.647 149.421L301.591 147.16L302.535 147.697L303.48 149.053L304.424 150.751L305.368 150.032L306.312 152.217L307.257 152.838L308.201 150.736L309.145 151.3L310.089 151.516L311.034 151.369L311.978 147.381L312.922 148.465L313.866 149.362L314.811 151.229L315.755 152.428L316.699 154.145L317.643 155.106L318.588 156.269L319.532 156.085L320.476 156.988L321.42 155.425L322.365 156.269L323.309 157.385L324.253 155.16L325.197 153.824L326.142 153.62L327.086 153.517L328.03 153.802L328.974 150.893L329.919 150.868L330.863 150.878L331.807 153.024L332.751 152.951L333.696 154.77L334.64 153.169L335.584 154.945L336.528 153.132L337.473 154.39L338.417 155.509L339.361 153.277L340.305 151.474L341.25 150.417L342.194 148.995L343.138 149.235L344.082 152.759L345.027 151.746L345.971 150.069L346.915 149.142L347.859 147.43L348.803 144.931" stroke="#1486FF" stroke-width="1.34779" stroke-linecap="round" stroke-linejoin="round"/>
</g>
</g>
<defs>
<filter id="filter0_dd_2019_258" x="3" y="0" width="387" height="246" filterUnits="userSpaceOnUse" color-interpolation-filters="sRGB">
<feFlood flood-opacity="0" result="BackgroundImageFix"/>
<feColorMatrix in="SourceAlpha" type="matrix" values="0 0 0 0 0 0 0 0 0 0 0 0 0 0 0 0 0 0 127 0" result="hardAlpha"/>
<feOffset dy="1"/>
<feGaussianBlur stdDeviation="1"/>
<feColorMatrix type="matrix" values="0 0 0 0 0.0627451 0 0 0 0 0.0941176 0 0 0 0 0.156863 0 0 0 0.06 0"/>
<feBlend mode="normal" in2="BackgroundImageFix" result="effect1_dropShadow_2019_258"/>
<feColorMatrix in="SourceAlpha" type="matrix" values="0 0 0 0 0 0 0 0 0 0 0 0 0 0 0 0 0 0 127 0" result="hardAlpha"/>
<feOffset dy="1"/>
<feGaussianBlur stdDeviation="1.5"/>
<feColorMatrix type="matrix" values="0 0 0 0 0.0627451 0 0 0 0 0.0941176 0 0 0 0 0.156863 0 0 0 0.1 0"/>
<feBlend mode="normal" in2="effect1_dropShadow_2019_258" result="effect2_dropShadow_2019_258"/>
<feBlend mode="normal" in="SourceGraphic" in2="effect2_dropShadow_2019_258" result="shape"/>
</filter>
<filter id="filter1_dd_2019_258" x="0" y="0" width="275.953" height="165.541" filterUnits="userSpaceOnUse" color-interpolation-filters="sRGB">
<feFlood flood-opacity="0" result="BackgroundImageFix"/>
<feColorMatrix in="SourceAlpha" type="matrix" values="0 0 0 0 0 0 0 0 0 0 0 0 0 0 0 0 0 0 127 0" result="hardAlpha"/>
<feMorphology radius="2" operator="erode" in="SourceAlpha" result="effect1_dropShadow_2019_258"/>
<feOffset dy="2"/>
<feGaussianBlur stdDeviation="2"/>
<feColorMatrix type="matrix" values="0 0 0 0 0.0627451 0 0 0 0 0.0941176 0 0 0 0 0.156863 0 0 0 0.06 0"/>
<feBlend mode="normal" in2="BackgroundImageFix" result="effect1_dropShadow_2019_258"/>
<feColorMatrix in="SourceAlpha" type="matrix" values="0 0 0 0 0 0 0 0 0 0 0 0 0 0 0 0 0 0 127 0" result="hardAlpha"/>
<feMorphology radius="2" operator="erode" in="SourceAlpha" result="effect2_dropShadow_2019_258"/>
<feOffset dy="4"/>
<feGaussianBlur stdDeviation="4"/>
<feColorMatrix type="matrix" values="0 0 0 0 0.0627451 0 0 0 0 0.0941176 0 0 0 0 0.156863 0 0 0 0.1 0"/>
<feBlend mode="normal" in2="effect1_dropShadow_2019_258" result="effect2_dropShadow_2019_258"/>
<feBlend mode="normal" in="SourceGraphic" in2="effect2_dropShadow_2019_258" result="shape"/>
</filter>
<filter id="filter2_dd_2019_258" x="63" y="47" width="309.703" height="159.426" filterUnits="userSpaceOnUse" color-interpolation-filters="sRGB">
<feFlood flood-opacity="0" result="BackgroundImageFix"/>
<feColorMatrix in="SourceAlpha" type="matrix" values="0 0 0 0 0 0 0 0 0 0 0 0 0 0 0 0 0 0 127 0" result="hardAlpha"/>
<feMorphology radius="2" operator="erode" in="SourceAlpha" result="effect1_dropShadow_2019_258"/>
<feOffset dy="2"/>
<feGaussianBlur stdDeviation="2"/>
<feColorMatrix type="matrix" values="0 0 0 0 0.0627451 0 0 0 0 0.0941176 0 0 0 0 0.156863 0 0 0 0.06 0"/>
<feBlend mode="normal" in2="BackgroundImageFix" result="effect1_dropShadow_2019_258"/>
<feColorMatrix in="SourceAlpha" type="matrix" values="0 0 0 0 0 0 0 0 0 0 0 0 0 0 0 0 0 0 127 0" result="hardAlpha"/>
<feMorphology radius="2" operator="erode" in="SourceAlpha" result="effect2_dropShadow_2019_258"/>
<feOffset dy="4"/>
<feGaussianBlur stdDeviation="4"/>
<feColorMatrix type="matrix" values="0 0 0 0 0.0627451 0 0 0 0 0.0941176 0 0 0 0 0.156863 0 0 0 0.1 0"/>
<feBlend mode="normal" in2="effect1_dropShadow_2019_258" result="effect2_dropShadow_2019_258"/>
<feBlend mode="normal" in="SourceGraphic" in2="effect2_dropShadow_2019_258" result="shape"/>
</filter>
</defs>
</svg>
