<svg width="389" height="248" viewBox="0 0 389 248" fill="none" xmlns="http://www.w3.org/2000/svg">
<g filter="url(#filter0_dd_2019_91)">
<g clip-path="url(#clip0_2019_91)">
<rect x="4" y="3" width="381" height="240" rx="16" fill="white"/>
<path d="M13.9565 28.5117C13.9565 28.145 14.0417 27.821 14.2123 27.5396C14.3743 27.2497 14.6003 27.0238 14.8902 26.8618C15.1715 26.6912 15.4956 26.606 15.8622 26.606H19.5458C19.9124 26.606 20.2364 26.6912 20.5178 26.8618C20.8077 27.0238 21.0337 27.2497 21.1957 27.5396C21.3662 27.821 21.4515 28.145 21.4515 28.5117V28.5373C21.4515 28.9039 21.3662 29.2322 21.1957 29.5221C21.0337 29.8035 20.8077 30.0294 20.5178 30.2C20.2364 30.362 19.9124 30.443 19.5458 30.443H15.8622C15.4956 30.443 15.1715 30.362 14.8902 30.2C14.6003 30.0294 14.3743 29.8035 14.2123 29.5221C14.0417 29.2322 13.9565 28.9039 13.9565 28.5373V28.5117ZM17.6162 28.5117C17.6162 28.145 17.7014 27.821 17.872 27.5396C18.034 27.2497 18.2599 27.0238 18.5498 26.8618C18.8312 26.6912 19.1552 26.606 19.5219 26.606H26.7355C27.1022 26.606 27.4262 26.6912 27.7076 26.8618C27.9975 27.0238 28.2234 27.2497 28.3854 27.5396C28.556 27.821 28.6412 28.145 28.6412 28.5117V28.5373C28.6412 28.9039 28.556 29.2322 28.3854 29.5221C28.2234 29.8035 27.9975 30.0294 27.7076 30.2C27.4262 30.362 27.1022 30.443 26.7355 30.443H19.5219C19.1552 30.443 18.8312 30.362 18.5498 30.2C18.2599 30.0294 18.034 29.8035 17.872 29.5221C17.7014 29.2322 17.6162 28.9039 17.6162 28.5373V28.5117ZM24.7981 28.5117C24.7981 28.145 24.8834 27.821 25.0539 27.5396C25.2159 27.2497 25.4419 27.0238 25.7318 26.8618C26.0132 26.6912 26.3372 26.606 26.7038 26.606H33.9175C34.2841 26.606 34.6081 26.6912 34.8895 26.8618C35.1794 27.0238 35.4054 27.2497 35.5674 27.5396C35.7379 27.821 35.8232 28.145 35.8232 28.5117V28.5373C35.8232 28.9039 35.7379 29.2322 35.5674 29.5221C35.4054 29.8035 35.1794 30.0294 34.8895 30.2C34.6081 30.362 34.2841 30.443 33.9175 30.443H26.7038C26.3372 30.443 26.0132 30.362 25.7318 30.2C25.4419 30.0294 25.2159 29.8035 25.0539 29.5221C24.8834 29.2322 24.7981 28.9039 24.7981 28.5373V28.5117ZM31.9801 28.5117C31.9801 28.145 32.0653 27.821 32.2359 27.5396C32.3979 27.2497 32.6238 27.0238 32.9137 26.8618C33.1951 26.6912 33.5191 26.606 33.8858 26.606H41.0994C41.4661 26.606 41.7901 26.6912 42.0715 26.8618C42.3614 27.0238 42.5873 27.2497 42.7493 27.5396C42.9199 27.821 43.0052 28.145 43.0052 28.5117V28.5373C43.0052 28.9039 42.9199 29.2322 42.7493 29.5221C42.5873 29.8035 42.3614 30.0294 42.0715 30.2C41.7901 30.362 41.4661 30.443 41.0994 30.443H33.8858C33.5191 30.443 33.1951 30.362 32.9137 30.2C32.6238 30.0294 32.3979 29.8035 32.2359 29.5221C32.0653 29.2322 31.9801 28.9039 31.9801 28.5373V28.5117ZM39.162 28.5117C39.162 28.145 39.2473 27.821 39.4178 27.5396C39.5798 27.2497 39.8058 27.0238 40.0957 26.8618C40.3771 26.6912 40.7011 26.606 41.0677 26.606H48.2814C48.648 26.606 48.972 26.6912 49.2534 26.8618C49.5433 27.0238 49.7693 27.2497 49.9313 27.5396C50.1018 27.821 50.1871 28.145 50.1871 28.5117V28.5373C50.1871 28.9039 50.1018 29.2322 49.9313 29.5221C49.7693 29.8035 49.5433 30.0294 49.2534 30.2C48.972 30.362 48.648 30.443 48.2814 30.443H41.0677C40.7011 30.443 40.3771 30.362 40.0957 30.2C39.8058 30.0294 39.5798 29.8035 39.4178 29.5221C39.2473 29.2322 39.162 28.9039 39.162 28.5373V28.5117ZM46.344 28.5117C46.344 28.145 46.4292 27.821 46.5998 27.5396C46.7618 27.2497 46.9877 27.0238 47.2776 26.8618C47.559 26.6912 47.883 26.606 48.2497 26.606H55.4633C55.83 26.606 56.154 26.6912 56.4354 26.8618C56.7253 27.0238 56.9512 27.2497 57.1133 27.5396C57.2838 27.821 57.3691 28.145 57.3691 28.5117V28.5373C57.3691 28.9039 57.2838 29.2322 57.1133 29.5221C56.9512 29.8035 56.7253 30.0294 56.4354 30.2C56.154 30.362 55.83 30.443 55.4633 30.443H48.2497C47.883 30.443 47.559 30.362 47.2776 30.2C46.9877 30.0294 46.7618 29.8035 46.5998 29.5221C46.4292 29.2322 46.344 28.9039 46.344 28.5373V28.5117ZM61.195 28.5117C61.195 28.145 61.2803 27.821 61.4508 27.5396C61.6128 27.2497 61.8388 27.0238 62.1287 26.8618C62.4101 26.6912 62.7341 26.606 63.1007 26.606H70.3144C70.681 26.606 71.005 26.6912 71.2864 26.8618C71.5763 27.0238 71.8023 27.2497 71.9643 27.5396C72.1348 27.821 72.2201 28.145 72.2201 28.5117V28.5373C72.2201 28.9039 72.1348 29.2322 71.9643 29.5221C71.8023 29.8035 71.5763 30.0294 71.2864 30.2C71.005 30.362 70.681 30.443 70.3144 30.443H63.1007C62.7341 30.443 62.4101 30.362 62.1287 30.2C61.8388 30.0294 61.6128 29.8035 61.4508 29.5221C61.2803 29.2322 61.195 28.9039 61.195 28.5373V28.5117ZM68.377 28.5117C68.377 28.145 68.4622 27.821 68.6328 27.5396C68.7948 27.2497 69.0207 27.0238 69.3106 26.8618C69.592 26.6912 69.916 26.606 70.2827 26.606H77.4963C77.863 26.606 78.187 26.6912 78.4684 26.8618C78.7583 27.0238 78.9842 27.2497 79.1462 27.5396C79.3168 27.821 79.402 28.145 79.402 28.5117V28.5373C79.402 28.9039 79.3168 29.2322 79.1462 29.5221C78.9842 29.8035 78.7583 30.0294 78.4684 30.2C78.187 30.362 77.863 30.443 77.4963 30.443H70.2827C69.916 30.443 69.592 30.362 69.3106 30.2C69.0207 30.0294 68.7948 29.8035 68.6328 29.5221C68.4622 29.2322 68.377 28.9039 68.377 28.5373V28.5117ZM75.5589 28.5117C75.5589 28.145 75.6442 27.821 75.8147 27.5396C75.9767 27.2497 76.2027 27.0238 76.4926 26.8618C76.774 26.6912 77.098 26.606 77.4646 26.606H84.6783C85.0449 26.606 85.3689 26.6912 85.6503 26.8618C85.9402 27.0238 86.1662 27.2497 86.3282 27.5396C86.4987 27.821 86.584 28.145 86.584 28.5117V28.5373C86.584 28.9039 86.4987 29.2322 86.3282 29.5221C86.1662 29.8035 85.9402 30.0294 85.6503 30.2C85.3689 30.362 85.0449 30.443 84.6783 30.443H77.4646C77.098 30.443 76.774 30.362 76.4926 30.2C76.2027 30.0294 75.9767 29.8035 75.8147 29.5221C75.6442 29.2322 75.5589 28.9039 75.5589 28.5373V28.5117ZM82.7409 28.5117C82.7409 28.145 82.8261 27.821 82.9967 27.5396C83.1587 27.2497 83.3846 27.0238 83.6745 26.8618C83.9559 26.6912 84.2799 26.606 84.6466 26.606H88.3302C88.6968 26.606 89.0208 26.6912 89.3022 26.8618C89.5921 27.0238 89.8181 27.2497 89.9801 27.5396C90.1506 27.821 90.2359 28.145 90.2359 28.5117V28.5373C90.2359 28.9039 90.1506 29.2322 89.9801 29.5221C89.8181 29.8035 89.5921 30.0294 89.3022 30.2C89.0208 30.362 88.6968 30.443 88.3302 30.443H84.6466C84.2799 30.443 83.9559 30.362 83.6745 30.2C83.3846 30.0294 83.1587 29.8035 82.9967 29.5221C82.8261 29.2322 82.7409 28.9039 82.7409 28.5373V28.5117ZM86.4005 28.5117C86.4005 28.145 86.4858 27.821 86.6563 27.5396C86.8183 27.2497 87.0443 27.0238 87.3342 26.8618C87.6156 26.6912 87.9396 26.606 88.3063 26.606H95.5199C95.8865 26.606 96.2106 26.6912 96.4919 26.8618C96.7819 27.0238 97.0078 27.2497 97.1698 27.5396C97.3404 27.821 97.4256 28.145 97.4256 28.5117V28.5373C97.4256 28.9039 97.3404 29.2322 97.1698 29.5221C97.0078 29.8035 96.7819 30.0294 96.4919 30.2C96.2106 30.362 95.8865 30.443 95.5199 30.443H88.3063C87.9396 30.443 87.6156 30.362 87.3342 30.2C87.0443 30.0294 86.8183 29.8035 86.6563 29.5221C86.4858 29.2322 86.4005 28.9039 86.4005 28.5373V28.5117ZM93.5825 28.5117C93.5825 28.145 93.6678 27.821 93.8383 27.5396C94.0003 27.2497 94.2263 27.0238 94.5162 26.8618C94.7976 26.6912 95.1216 26.606 95.4882 26.606H102.702C103.068 26.606 103.393 26.6912 103.674 26.8618C103.964 27.0238 104.19 27.2497 104.352 27.5396C104.522 27.821 104.608 28.145 104.608 28.5117V28.5373C104.608 28.9039 104.522 29.2322 104.352 29.5221C104.19 29.8035 103.964 30.0294 103.674 30.2C103.393 30.362 103.068 30.443 102.702 30.443H95.4882C95.1216 30.443 94.7976 30.362 94.5162 30.2C94.2263 30.0294 94.0003 29.8035 93.8383 29.5221C93.6678 29.2322 93.5825 28.9039 93.5825 28.5373V28.5117ZM100.764 28.5117C100.764 28.145 100.85 27.821 101.02 27.5396C101.182 27.2497 101.408 27.0238 101.698 26.8618C101.98 26.6912 102.304 26.606 102.67 26.606H106.354C106.72 26.606 107.044 26.6912 107.326 26.8618C107.616 27.0238 107.842 27.2497 108.004 27.5396C108.174 27.821 108.259 28.145 108.259 28.5117V28.5373C108.259 28.9039 108.174 29.2322 108.004 29.5221C107.842 29.8035 107.616 30.0294 107.326 30.2C107.044 30.362 106.72 30.443 106.354 30.443H102.67C102.304 30.443 101.98 30.362 101.698 30.2C101.408 30.0294 101.182 29.8035 101.02 29.5221C100.85 29.2322 100.764 28.9039 100.764 28.5373V28.5117ZM104.424 28.5117C104.424 28.145 104.509 27.821 104.68 27.5396C104.842 27.2497 105.068 27.0238 105.358 26.8618C105.639 26.6912 105.963 26.606 106.33 26.606H113.543C113.91 26.606 114.234 26.6912 114.516 26.8618C114.805 27.0238 115.031 27.2497 115.193 27.5396C115.364 27.821 115.449 28.145 115.449 28.5117V28.5373C115.449 28.9039 115.364 29.2322 115.193 29.5221C115.031 29.8035 114.805 30.0294 114.516 30.2C114.234 30.362 113.91 30.443 113.543 30.443H106.33C105.963 30.443 105.639 30.362 105.358 30.2C105.068 30.0294 104.842 29.8035 104.68 29.5221C104.509 29.2322 104.424 28.9039 104.424 28.5373V28.5117Z" fill="#7C7A81"/>
<path d="M21.3784 51.0954L21.2688 49.3852L23.0009 48.8589L23.1106 50.5692L21.3784 51.0954ZM21.2688 68.8773V66.7066L23.1106 66.7286V68.8773H21.2688ZM22.1677 67.0575C21.7438 67.0575 21.3053 67.0428 20.8522 67.0136C20.4137 66.999 19.9605 66.9698 19.4928 66.9259C19.0396 66.8674 18.6084 66.809 18.1991 66.7505C17.7899 66.6774 17.4171 66.597 17.0809 66.5093V63.944C17.5194 63.9878 18.0164 64.0244 18.5719 64.0536C19.1273 64.0828 19.7047 64.1048 20.304 64.1194C20.9033 64.134 21.4734 64.1413 22.0143 64.1413C22.5697 64.1413 23.0448 64.0975 23.4394 64.0098C23.8487 63.9074 24.163 63.7393 24.3823 63.5055C24.6015 63.257 24.7111 62.9208 24.7111 62.4969V61.9049C24.7111 61.4225 24.565 61.0571 24.2726 60.8086C23.9949 60.5455 23.5929 60.4139 23.0667 60.4139H21.6854C20.1359 60.4139 18.9446 60.0777 18.1114 59.4053C17.2929 58.7183 16.8836 57.5562 16.8836 55.9191V55.1298C16.8836 53.5511 17.3367 52.3963 18.243 51.6655C19.1493 50.9346 20.4429 50.5692 22.1239 50.5692C22.7232 50.5692 23.3152 50.5984 23.8999 50.6569C24.4992 50.7153 25.0693 50.7884 25.6101 50.8761C26.1656 50.9492 26.6406 51.0296 27.0353 51.1173V53.6826C26.3629 53.6388 25.6101 53.5949 24.7769 53.5511C23.9584 53.5072 23.1983 53.4853 22.4966 53.4853C21.9996 53.4853 21.5538 53.5365 21.1591 53.6388C20.7791 53.7265 20.4868 53.9019 20.2821 54.165C20.0775 54.4281 19.9751 54.8009 19.9751 55.2832V55.7218C19.9751 56.2918 20.1359 56.7011 20.4575 56.9496C20.7791 57.1981 21.2542 57.3223 21.8827 57.3223H23.4833C24.4627 57.3223 25.2666 57.5051 25.8951 57.8705C26.5383 58.2213 27.0134 58.711 27.3203 59.3395C27.6419 59.9681 27.8027 60.6843 27.8027 61.4883V62.4092C27.8027 63.6809 27.5615 64.6529 27.0791 65.3253C26.6114 65.9977 25.9536 66.4582 25.1058 66.7066C24.2726 66.9405 23.2933 67.0575 22.1677 67.0575ZM32.7881 66.9259V53.6607L29.9158 54.0335V51.9505L33.1389 50.5472H36.0331V66.9259H32.7881ZM42.8537 67.0136C41.9474 67.0136 41.1727 66.8601 40.5295 66.5532C39.901 66.2316 39.4186 65.7565 39.0824 65.128C38.7608 64.4994 38.6 63.732 38.6 62.8258V54.9324C38.6 53.9823 38.7681 53.1857 39.1043 52.5425C39.4405 51.8847 39.9302 51.395 40.5734 51.0735C41.2311 50.7373 41.9985 50.5692 42.8756 50.5692H46.2522C47.1731 50.5692 47.9332 50.7446 48.5325 51.0954C49.1464 51.4316 49.6068 51.9286 49.9138 52.5863C50.2208 53.2295 50.3742 54.0115 50.3742 54.9324V62.8258C50.3742 64.1852 50.0088 65.223 49.278 65.9392C48.5617 66.6555 47.5531 67.0136 46.2522 67.0136H42.8537ZM43.6211 64.0975H45.3751C45.9744 64.0975 46.413 63.9513 46.6907 63.6589C46.983 63.3666 47.1292 62.9281 47.1292 62.3434V55.2394C47.1292 54.5962 46.983 54.1431 46.6907 53.88C46.3983 53.6169 46.0037 53.4853 45.5067 53.4853H43.5114C42.9706 53.4853 42.554 53.6315 42.2617 53.9238C41.9839 54.2162 41.8451 54.6547 41.8451 55.2394V62.3215C41.8451 62.9354 41.9985 63.3885 42.3055 63.6809C42.6125 63.9586 43.051 64.0975 43.6211 64.0975ZM53.8925 68.8773C53.6148 68.8773 53.3736 68.8554 53.1689 68.8115C52.9643 68.7677 52.862 68.7458 52.862 68.7458V67.7152C53.0666 67.7152 53.2128 67.686 53.3005 67.6275C53.4028 67.5691 53.454 67.4521 53.454 67.2767V66.7066H53.2347C53.1032 66.7066 52.9935 66.6701 52.9058 66.597C52.8181 66.5093 52.7743 66.3851 52.7743 66.2243V64.3167C52.7743 63.9805 52.9278 63.8124 53.2347 63.8124H55.0765C55.2519 63.8124 55.3688 63.8636 55.4273 63.9659C55.5004 64.0536 55.5369 64.1705 55.5369 64.3167V67.3206C55.5369 67.7445 55.4492 68.0734 55.2738 68.3072C55.0984 68.5411 54.8865 68.6946 54.638 68.7677C54.3895 68.8408 54.141 68.8773 53.8925 68.8773ZM62.2764 67.0136C61.721 67.0136 61.1801 66.9624 60.6539 66.8601C60.1423 66.7578 59.6819 66.5824 59.2726 66.3339C58.8779 66.0708 58.5636 65.7127 58.3298 65.2595C58.1105 64.7918 58.0009 64.1998 58.0009 63.4835V61.269C58.0009 60.8451 58.074 60.4578 58.2201 60.1069C58.3663 59.7415 58.5709 59.4272 58.8341 59.1641C59.1118 58.901 59.4334 58.7329 59.7988 58.6598C59.3457 58.4406 59.0095 58.1848 58.7902 57.8924C58.5856 57.5855 58.454 57.2566 58.3955 56.9058C58.3517 56.5549 58.3298 56.1895 58.3298 55.8095V53.9677C58.3298 53.1345 58.4979 52.4694 58.8341 51.9724C59.1849 51.4754 59.6526 51.1173 60.2373 50.8981C60.822 50.6788 61.4506 50.5692 62.1229 50.5692H65.1926C65.8942 50.5692 66.5227 50.6788 67.0782 50.8981C67.6337 51.1173 68.0795 51.4754 68.4157 51.9724C68.7519 52.4694 68.92 53.1345 68.92 53.9677V55.8095C68.92 55.9995 68.8981 56.2261 68.8542 56.4892C68.8104 56.7523 68.73 57.0227 68.613 57.3004C68.5107 57.5781 68.3645 57.812 68.1745 58.0021C67.9845 58.1921 67.7506 58.3236 67.4729 58.3967C67.9699 58.499 68.3426 58.7183 68.5911 59.0545C68.8396 59.3761 69.0077 59.7342 69.0954 60.1289C69.1831 60.5235 69.2269 60.8817 69.2269 61.2032V63.4835C69.2269 64.4483 69.0442 65.1864 68.6788 65.6981C68.328 66.195 67.8529 66.5385 67.2536 66.7286C66.6543 66.9186 65.9819 67.0136 65.2364 67.0136H62.2764ZM62.8465 64.2729H64.469C65.0683 64.2729 65.4703 64.1559 65.6749 63.9221C65.8796 63.6736 65.9819 63.3301 65.9819 62.8915V61.4444C65.9819 60.9767 65.8577 60.6259 65.6092 60.392C65.3753 60.1435 64.9952 60.0192 64.469 60.0192H62.8246C62.6346 60.0192 62.4445 60.0485 62.2545 60.1069C62.0645 60.1654 61.8964 60.2531 61.7502 60.3701C61.604 60.487 61.4798 60.6405 61.3775 60.8305C61.2898 61.0059 61.2459 61.2105 61.2459 61.4444V62.8915C61.2459 63.3885 61.3848 63.7466 61.6625 63.9659C61.9402 64.1705 62.3349 64.2729 62.8465 64.2729ZM62.8246 57.2566H64.4252C64.7906 57.2566 65.061 57.1908 65.2364 57.0592C65.4265 56.9277 65.558 56.7523 65.6311 56.533C65.7042 56.2991 65.7407 56.0433 65.7407 55.7656V54.7351C65.7407 54.1504 65.6238 53.7703 65.3899 53.5949C65.156 53.4195 64.8491 53.3318 64.469 53.3318H62.8465C62.3787 53.3318 62.0352 53.4268 61.816 53.6169C61.5967 53.8069 61.4871 54.1796 61.4871 54.7351V55.7656C61.4871 56.3211 61.5894 56.7084 61.7941 56.9277C62.0133 57.1469 62.3568 57.2566 62.8246 57.2566ZM76.6144 67.0355C75.8982 67.0355 75.1746 67.0063 74.4438 66.9478C73.7275 66.8894 73.0771 66.8017 72.4924 66.6847V64.1194H76.3075C77.4038 64.1194 78.2077 63.7832 78.7193 63.1108C79.2309 62.4238 79.4867 61.4152 79.4867 60.085C79.1652 60.1873 78.807 60.2677 78.4124 60.3262C78.0323 60.3847 77.6303 60.4212 77.2064 60.4358C76.7825 60.4504 76.3221 60.4578 75.8251 60.4578C74.758 60.4578 73.9102 60.3116 73.2817 60.0192C72.6532 59.7123 72.2 59.2811 71.9223 58.7256C71.6592 58.1701 71.5276 57.5051 71.5276 56.7303V54.4062C71.5276 53.4999 71.6957 52.7691 72.0319 52.2136C72.3681 51.6435 72.8359 51.2342 73.4352 50.9858C74.0491 50.7226 74.7507 50.5911 75.5401 50.5911H77.8861C78.6755 50.5911 79.3698 50.7153 79.9691 50.9638C80.583 51.1977 81.0946 51.607 81.5039 52.1917C81.9132 52.7764 82.2202 53.5949 82.4248 54.6474C82.6441 55.6852 82.7537 57.0008 82.7537 58.5941C82.7537 60.1727 82.6148 61.5102 82.3371 62.6065C82.0594 63.6882 81.6574 64.5579 81.1312 65.2157C80.605 65.8588 79.9618 66.3266 79.2017 66.6189C78.4416 66.8967 77.5792 67.0355 76.6144 67.0355ZM76.746 57.6951H79.4867C79.4867 56.8619 79.4429 56.1749 79.3552 55.6341C79.2675 55.0932 79.1286 54.6693 78.9386 54.3623C78.7632 54.0408 78.5366 53.8215 78.2589 53.7046C77.9812 53.573 77.645 53.5072 77.2503 53.5072H76.2636C75.9567 53.5072 75.6862 53.5584 75.4524 53.6607C75.2331 53.763 75.065 53.9238 74.9481 54.1431C74.8311 54.3623 74.7727 54.6693 74.7727 55.064V56.1164C74.7727 56.5403 74.8384 56.8692 74.97 57.1031C75.1162 57.3223 75.3354 57.4758 75.6278 57.5635C75.9201 57.6512 76.2929 57.6951 76.746 57.6951ZM89.2749 67.0136C88.3687 67.0136 87.594 66.8601 86.9508 66.5532C86.3223 66.2316 85.8399 65.7565 85.5037 65.128C85.1821 64.4994 85.0213 63.732 85.0213 62.8258V54.9324C85.0213 53.9823 85.1894 53.1857 85.5256 52.5425C85.8618 51.8847 86.3515 51.395 86.9947 51.0735C87.6524 50.7373 88.4198 50.5692 89.2969 50.5692H92.6735C93.5944 50.5692 94.3545 50.7446 94.9538 51.0954C95.5677 51.4316 96.0281 51.9286 96.3351 52.5863C96.6421 53.2295 96.7955 54.0115 96.7955 54.9324V62.8258C96.7955 64.1852 96.4301 65.223 95.6992 65.9392C94.983 66.6555 93.9744 67.0136 92.6735 67.0136H89.2749ZM90.0424 64.0975H91.7964C92.3957 64.0975 92.8343 63.9513 93.112 63.6589C93.4043 63.3666 93.5505 62.9281 93.5505 62.3434V55.2394C93.5505 54.5962 93.4043 54.1431 93.112 53.88C92.8196 53.6169 92.425 53.4853 91.928 53.4853H89.9327C89.3919 53.4853 88.9753 53.6315 88.6829 53.9238C88.4052 54.2162 88.2664 54.6547 88.2664 55.2394V62.3215C88.2664 62.9354 88.4198 63.3885 88.7268 63.6809C89.0338 63.9586 89.4723 64.0975 90.0424 64.0975ZM103.471 67.0136C102.565 67.0136 101.79 66.8601 101.147 66.5532C100.518 66.2316 100.036 65.7565 99.6999 65.128C99.3783 64.4994 99.2175 63.732 99.2175 62.8258V54.9324C99.2175 53.9823 99.3856 53.1857 99.7218 52.5425C100.058 51.8847 100.548 51.395 101.191 51.0735C101.849 50.7373 102.616 50.5692 103.493 50.5692H106.87C107.791 50.5692 108.551 50.7446 109.15 51.0954C109.764 51.4316 110.224 51.9286 110.531 52.5863C110.838 53.2295 110.992 54.0115 110.992 54.9324V62.8258C110.992 64.1852 110.626 65.223 109.895 65.9392C109.179 66.6555 108.171 67.0136 106.87 67.0136H103.471ZM104.239 64.0975H105.993C106.592 64.0975 107.03 63.9513 107.308 63.6589C107.601 63.3666 107.747 62.9281 107.747 62.3434V55.2394C107.747 54.5962 107.601 54.1431 107.308 53.88C107.016 53.6169 106.621 53.4853 106.124 53.4853H104.129C103.588 53.4853 103.171 53.6315 102.879 53.9238C102.601 54.2162 102.463 54.6547 102.463 55.2394V62.3215C102.463 62.9354 102.616 63.3885 102.923 63.6809C103.23 63.9586 103.668 64.0975 104.239 64.0975Z" fill="#0C0815"/>
<rect x="229.812" y="59.3854" width="48.9387" height="15.5405" rx="2.3023" fill="#F0FDFA"/>
<path d="M238.051 64.6704V65.4989H241.609L237.637 69.4715L238.221 70.0555L242.193 66.083V69.6413H243.022V64.6704H238.051Z" fill="#00B4B0"/>
<path d="M249.792 70.6556V64.5315L248.401 64.9091V64.4394L249.856 63.8132H250.529V70.6556H249.792ZM253.736 70.6741C253.491 70.6741 253.267 70.6495 253.064 70.6004C252.868 70.5513 252.696 70.4745 252.548 70.3702C252.401 70.2658 252.287 70.1276 252.208 69.9557C252.128 69.7838 252.088 69.5751 252.088 69.3295V68.3533C252.088 68.1323 252.131 67.9451 252.217 67.7916C252.309 67.6319 252.422 67.5061 252.557 67.414C252.693 67.3158 252.825 67.2513 252.953 67.2206C252.763 67.1347 252.613 67.0303 252.502 66.9075C252.398 66.7847 252.324 66.6466 252.281 66.4931C252.238 66.3396 252.217 66.183 252.217 66.0234V65.2498C252.217 64.906 252.281 64.6328 252.41 64.4302C252.545 64.2215 252.726 64.0711 252.953 63.979C253.181 63.8807 253.432 63.8316 253.709 63.8316H254.979C255.262 63.8316 255.507 63.8807 255.716 63.979C255.925 64.0711 256.088 64.2215 256.204 64.4302C256.321 64.6328 256.379 64.906 256.379 65.2498V66.0234C256.379 66.1278 256.364 66.2383 256.333 66.3549C256.309 66.4716 256.266 66.5821 256.204 66.6865C256.149 66.7908 256.078 66.8829 255.992 66.9627C255.907 67.0426 255.805 67.0978 255.689 67.1285C255.885 67.1653 256.042 67.2452 256.158 67.368C256.275 67.4907 256.361 67.635 256.416 67.8008C256.478 67.9604 256.508 68.1262 256.508 68.2981V69.3295C256.508 69.6549 256.444 69.9158 256.315 70.1123C256.186 70.3088 256.005 70.453 255.771 70.5451C255.544 70.6311 255.28 70.6741 254.979 70.6741H253.736ZM253.838 70.0478H254.832C255.158 70.0478 255.397 69.9803 255.55 69.8452C255.704 69.704 255.781 69.4983 255.781 69.2282V68.3718C255.781 68.0648 255.704 67.8468 255.55 67.7179C255.403 67.5828 255.151 67.5153 254.795 67.5153H253.838C253.739 67.5153 253.632 67.5306 253.515 67.5613C253.399 67.592 253.285 67.6412 253.174 67.7087C253.07 67.7701 252.984 67.856 252.917 67.9665C252.849 68.0771 252.815 68.2121 252.815 68.3718V69.2282C252.815 69.529 252.91 69.7409 253.101 69.8636C253.297 69.9864 253.543 70.0478 253.838 70.0478ZM253.838 66.8891H254.786C255.007 66.8891 255.179 66.8461 255.302 66.7601C255.431 66.6742 255.523 66.5667 255.578 66.4378C255.633 66.3089 255.661 66.1769 255.661 66.0418V65.4064C255.661 65.0503 255.59 64.8047 255.449 64.6697C255.314 64.5284 255.111 64.4578 254.841 64.4578H253.838C253.518 64.4578 253.288 64.5315 253.147 64.6789C253.006 64.8262 252.935 65.0687 252.935 65.4064V66.0418C252.935 66.2935 253.006 66.4992 253.147 66.6588C253.294 66.8123 253.524 66.8891 253.838 66.8891ZM257.969 70.6648C257.87 70.6648 257.821 70.6157 257.821 70.5175V69.7808C257.821 69.6825 257.87 69.6334 257.969 69.6334H258.374C258.472 69.6334 258.521 69.6825 258.521 69.7808V70.5175C258.521 70.5666 258.506 70.6035 258.475 70.628C258.451 70.6526 258.417 70.6648 258.374 70.6648H257.969ZM260.438 70.6556L262.805 64.6144H259.398V63.8777H263.496L263.735 64.2552L261.258 70.6556H260.438ZM266.176 70.6556L270.255 63.9145H270.752L266.7 70.6556H266.176ZM265.724 67.4416C265.276 67.4416 264.963 67.3434 264.785 67.1469C264.607 66.9505 264.518 66.6558 264.518 66.2628V65.0933C264.518 64.7003 264.604 64.4057 264.776 64.2092C264.954 64.0127 265.276 63.9145 265.743 63.9145H266.673C267.127 63.9145 267.44 64.0127 267.612 64.2092C267.784 64.4057 267.87 64.7003 267.87 65.0933V66.2628C267.87 66.6558 267.784 66.9505 267.612 67.1469C267.44 67.3434 267.121 67.4416 266.654 67.4416H265.724ZM265.798 66.972H266.572C266.866 66.972 267.075 66.9167 267.198 66.8062C267.327 66.6895 267.391 66.4777 267.391 66.1708V65.1854C267.391 64.8907 267.333 64.685 267.216 64.5684C267.106 64.4456 266.897 64.3842 266.59 64.3842H265.816C265.54 64.3842 265.334 64.4364 265.199 64.5407C265.064 64.639 264.997 64.8538 264.997 65.1854V66.1708C264.997 66.4654 265.055 66.6742 265.172 66.797C265.294 66.9136 265.503 66.972 265.798 66.972ZM270.356 70.628C269.908 70.628 269.595 70.5298 269.417 70.3333C269.245 70.1369 269.159 69.8422 269.159 69.4492V68.2797C269.159 67.8867 269.245 67.592 269.417 67.3956C269.589 67.1991 269.908 67.1009 270.375 67.1009H271.305C271.759 67.1009 272.072 67.1991 272.244 67.3956C272.416 67.592 272.502 67.8867 272.502 68.2797V69.4492C272.502 69.8422 272.416 70.1369 272.244 70.3333C272.072 70.5298 271.753 70.628 271.287 70.628H270.356ZM270.43 70.1583H271.213C271.502 70.1583 271.71 70.1031 271.839 69.9926C271.968 69.8759 272.033 69.6641 272.033 69.3571V68.3718C272.033 68.0771 271.974 67.8714 271.858 67.7547C271.747 67.6319 271.538 67.5706 271.231 67.5706H270.449C270.172 67.5706 269.967 67.6227 269.832 67.7271C269.696 67.8253 269.629 68.0402 269.629 68.3718V69.3571C269.629 69.6518 269.69 69.8606 269.813 69.9834C269.936 70.1 270.142 70.1583 270.43 70.1583Z" fill="#00B4B0"/>
<path d="M282.853 67.6995C282.853 67.4355 282.914 67.2022 283.037 66.9996C283.154 66.7908 283.317 66.6281 283.525 66.5115C283.728 66.3887 283.961 66.3273 284.225 66.3273H289.419C289.683 66.3273 289.916 66.3887 290.119 66.5115C290.328 66.6281 290.49 66.7908 290.607 66.9996C290.73 67.2022 290.791 67.4355 290.791 67.6995V67.7179C290.791 67.9819 290.73 68.2183 290.607 68.427C290.49 68.6296 290.328 68.7923 290.119 68.9151C289.916 69.0317 289.683 69.0901 289.419 69.0901H284.225C283.961 69.0901 283.728 69.0317 283.525 68.9151C283.317 68.7923 283.154 68.6296 283.037 68.427C282.914 68.2183 282.853 67.9819 282.853 67.7179V67.6995ZM288.024 67.6995C288.024 67.4355 288.086 67.2022 288.208 66.9996C288.325 66.7908 288.488 66.6281 288.696 66.5115C288.899 66.3887 289.132 66.3273 289.396 66.3273H294.59C294.854 66.3273 295.088 66.3887 295.29 66.5115C295.499 66.6281 295.662 66.7908 295.778 66.9996C295.901 67.2022 295.963 67.4355 295.963 67.6995V67.7179C295.963 67.9819 295.901 68.2183 295.778 68.427C295.662 68.6296 295.499 68.7923 295.29 68.9151C295.088 69.0317 294.854 69.0901 294.59 69.0901H289.396C289.132 69.0901 288.899 69.0317 288.696 68.9151C288.488 68.7923 288.325 68.6296 288.208 68.427C288.086 68.2183 288.024 67.9819 288.024 67.7179V67.6995ZM298.717 67.6995C298.717 67.4355 298.779 67.2022 298.901 66.9996C299.018 66.7908 299.181 66.6281 299.39 66.5115C299.592 66.3887 299.825 66.3273 300.089 66.3273H302.742C303.006 66.3273 303.239 66.3887 303.442 66.5115C303.65 66.6281 303.813 66.7908 303.93 66.9996C304.053 67.2022 304.114 67.4355 304.114 67.6995V67.7179C304.114 67.9819 304.053 68.2183 303.93 68.427C303.813 68.6296 303.65 68.7923 303.442 68.9151C303.239 69.0317 303.006 69.0901 302.742 69.0901H300.089C299.825 69.0901 299.592 69.0317 299.39 68.9151C299.181 68.7923 299.018 68.6296 298.901 68.427C298.779 68.2183 298.717 67.9819 298.717 67.7179V67.6995ZM301.352 67.6995C301.352 67.4355 301.414 67.2022 301.537 66.9996C301.653 66.7908 301.816 66.6281 302.025 66.5115C302.227 66.3887 302.461 66.3273 302.725 66.3273H307.919C308.183 66.3273 308.416 66.3887 308.618 66.5115C308.827 66.6281 308.99 66.7908 309.107 66.9996C309.229 67.2022 309.291 67.4355 309.291 67.6995V67.7179C309.291 67.9819 309.229 68.2183 309.107 68.427C308.99 68.6296 308.827 68.7923 308.618 68.9151C308.416 69.0317 308.183 69.0901 307.919 69.0901H302.725C302.461 69.0901 302.227 69.0317 302.025 68.9151C301.816 68.7923 301.653 68.6296 301.537 68.427C301.414 68.2183 301.352 67.9819 301.352 67.7179V67.6995ZM306.524 67.6995C306.524 67.4355 306.585 67.2022 306.708 66.9996C306.824 66.7908 306.987 66.6281 307.196 66.5115C307.398 66.3887 307.632 66.3273 307.896 66.3273H310.548C310.812 66.3273 311.045 66.3887 311.248 66.5115C311.457 66.6281 311.619 66.7908 311.736 66.9996C311.859 67.2022 311.92 67.4355 311.92 67.6995V67.7179C311.92 67.9819 311.859 68.2183 311.736 68.427C311.619 68.6296 311.457 68.7923 311.248 68.9151C311.045 69.0317 310.812 69.0901 310.548 69.0901H307.896C307.632 69.0901 307.398 69.0317 307.196 68.9151C306.987 68.7923 306.824 68.6296 306.708 68.427C306.585 68.2183 306.524 67.9819 306.524 67.7179V67.6995ZM309.159 67.6995C309.159 67.4355 309.22 67.2022 309.343 66.9996C309.459 66.7908 309.622 66.6281 309.831 66.5115C310.033 66.3887 310.267 66.3273 310.531 66.3273H315.725C315.989 66.3273 316.222 66.3887 316.425 66.5115C316.633 66.6281 316.796 66.7908 316.913 66.9996C317.036 67.2022 317.097 67.4355 317.097 67.6995V67.7179C317.097 67.9819 317.036 68.2183 316.913 68.427C316.796 68.6296 316.633 68.7923 316.425 68.9151C316.222 69.0317 315.989 69.0901 315.725 69.0901H310.531C310.267 69.0901 310.033 69.0317 309.831 68.9151C309.622 68.7923 309.459 68.6296 309.343 68.427C309.22 68.2183 309.159 67.9819 309.159 67.7179V67.6995ZM319.852 67.6995C319.852 67.4355 319.913 67.2022 320.036 66.9996C320.153 66.7908 320.315 66.6281 320.524 66.5115C320.727 66.3887 320.96 66.3273 321.224 66.3273H326.418C326.682 66.3273 326.915 66.3887 327.118 66.5115C327.327 66.6281 327.489 66.7908 327.606 66.9996C327.729 67.2022 327.79 67.4355 327.79 67.6995V67.7179C327.79 67.9819 327.729 68.2183 327.606 68.427C327.489 68.6296 327.327 68.7923 327.118 68.9151C326.915 69.0317 326.682 69.0901 326.418 69.0901H321.224C320.96 69.0901 320.727 69.0317 320.524 68.9151C320.315 68.7923 320.153 68.6296 320.036 68.427C319.913 68.2183 319.852 67.9819 319.852 67.7179V67.6995ZM325.023 67.6995C325.023 67.4355 325.084 67.2022 325.207 66.9996C325.324 66.7908 325.486 66.6281 325.695 66.5115C325.898 66.3887 326.131 66.3273 326.395 66.3273H331.589C331.853 66.3273 332.086 66.3887 332.289 66.5115C332.498 66.6281 332.66 66.7908 332.777 66.9996C332.9 67.2022 332.961 67.4355 332.961 67.6995V67.7179C332.961 67.9819 332.9 68.2183 332.777 68.427C332.66 68.6296 332.498 68.7923 332.289 68.9151C332.086 69.0317 331.853 69.0901 331.589 69.0901H326.395C326.131 69.0901 325.898 69.0317 325.695 68.9151C325.486 68.7923 325.324 68.6296 325.207 68.427C325.084 68.2183 325.023 67.9819 325.023 67.7179V67.6995ZM330.194 67.6995C330.194 67.4355 330.255 67.2022 330.378 66.9996C330.495 66.7908 330.658 66.6281 330.866 66.5115C331.069 66.3887 331.302 66.3273 331.566 66.3273H336.76C337.024 66.3273 337.258 66.3887 337.46 66.5115C337.669 66.6281 337.832 66.7908 337.948 66.9996C338.071 67.2022 338.132 67.4355 338.132 67.6995V67.7179C338.132 67.9819 338.071 68.2183 337.948 68.427C337.832 68.6296 337.669 68.7923 337.46 68.9151C337.258 69.0317 337.024 69.0901 336.76 69.0901H331.566C331.302 69.0901 331.069 69.0317 330.866 68.9151C330.658 68.7923 330.495 68.6296 330.378 68.427C330.255 68.2183 330.194 67.9819 330.194 67.7179V67.6995ZM335.365 67.6995C335.365 67.4355 335.427 67.2022 335.549 66.9996C335.666 66.7908 335.829 66.6281 336.038 66.5115C336.24 66.3887 336.473 66.3273 336.737 66.3273H339.39C339.654 66.3273 339.887 66.3887 340.09 66.5115C340.298 66.6281 340.461 66.7908 340.578 66.9996C340.7 67.2022 340.762 67.4355 340.762 67.6995V67.7179C340.762 67.9819 340.7 68.2183 340.578 68.427C340.461 68.6296 340.298 68.7923 340.09 68.9151C339.887 69.0317 339.654 69.0901 339.39 69.0901H336.737C336.473 69.0901 336.24 69.0317 336.038 68.9151C335.829 68.7923 335.666 68.6296 335.549 68.427C335.427 68.2183 335.365 67.9819 335.365 67.7179V67.6995ZM338 67.6995C338 67.4355 338.062 67.2022 338.185 66.9996C338.301 66.7908 338.464 66.6281 338.673 66.5115C338.875 66.3887 339.109 66.3273 339.373 66.3273H344.567C344.831 66.3273 345.064 66.3887 345.266 66.5115C345.475 66.6281 345.638 66.7908 345.754 66.9996C345.877 67.2022 345.939 67.4355 345.939 67.6995V67.7179C345.939 67.9819 345.877 68.2183 345.754 68.427C345.638 68.6296 345.475 68.7923 345.266 68.9151C345.064 69.0317 344.831 69.0901 344.567 69.0901H339.373C339.109 69.0901 338.875 69.0317 338.673 68.9151C338.464 68.7923 338.301 68.6296 338.185 68.427C338.062 68.2183 338 67.9819 338 67.7179V67.6995Z" fill="black"/>
<path d="M18.3608 230.792V227.147L17.5331 227.372V227.092L18.3992 226.719H18.7994V230.792H18.3608ZM19.6945 230.792V226.61H20.1276V229.033H20.5441L21.4376 227.865H21.8981L20.8676 229.23L21.9638 230.792H21.5034L20.5277 229.422H20.1276V230.792H19.6945Z" fill="#615E83"/>
<path d="M16.6137 212.707V212.351L18.1047 210.92C18.2582 210.778 18.3787 210.644 18.4664 210.52C18.5578 210.396 18.6236 210.271 18.6638 210.147C18.704 210.019 18.7241 209.88 18.7241 209.731C18.7241 209.599 18.6985 209.482 18.6473 209.38C18.5998 209.277 18.514 209.197 18.3897 209.139C18.2655 209.08 18.0864 209.051 17.8525 209.051H16.7562V208.717C16.9243 208.698 17.1089 208.682 17.3099 208.667C17.5145 208.649 17.7264 208.64 17.9457 208.64C18.2527 208.64 18.4939 208.684 18.6693 208.771C18.8483 208.859 18.9744 208.981 19.0475 209.139C19.1206 209.292 19.1571 209.473 19.1571 209.681C19.1571 209.868 19.1315 210.039 19.0804 210.197C19.0329 210.354 18.9561 210.507 18.8502 210.657C18.7442 210.807 18.6071 210.962 18.439 211.123L17.2057 212.307H19.3051V212.707H16.6137ZM19.9836 212.707V208.525H20.4166V210.947H20.8332L21.7267 209.78H22.1871L21.1566 211.145L22.2529 212.707H21.7925L20.8168 211.337H20.4166V212.707H19.9836Z" fill="#615E83"/>
<path d="M18.0598 195.134C17.7711 195.134 17.5007 195.126 17.2485 195.112C17 195.101 16.7826 195.084 16.5962 195.062V194.728H17.9173C18.0744 194.728 18.2151 194.712 18.3393 194.679C18.4636 194.646 18.5604 194.586 18.6299 194.498C18.703 194.407 18.7395 194.279 18.7395 194.114V193.846C18.7395 193.703 18.703 193.59 18.6299 193.506C18.5604 193.422 18.4727 193.361 18.3668 193.325C18.2608 193.288 18.1511 193.268 18.0379 193.265L17.0019 193.226V192.908L18.0214 192.864C18.2188 192.857 18.3777 192.815 18.4983 192.738C18.6226 192.658 18.6847 192.525 18.6847 192.338V192.07C18.6847 191.869 18.6171 191.715 18.4819 191.609C18.3503 191.499 18.1511 191.445 17.8844 191.445H16.7333V191.11C16.9014 191.088 17.0932 191.07 17.3088 191.055C17.5281 191.041 17.7729 191.034 18.0433 191.034C18.2845 191.037 18.4837 191.079 18.6408 191.16C18.8016 191.236 18.9204 191.346 18.9971 191.489C19.0739 191.627 19.1122 191.792 19.1122 191.982V192.327C19.1122 192.451 19.0921 192.559 19.0519 192.651C19.0154 192.738 18.9661 192.811 18.9039 192.87C18.8455 192.928 18.7815 192.974 18.7121 193.007C18.6463 193.036 18.586 193.056 18.5312 193.067C18.5933 193.082 18.6609 193.109 18.734 193.149C18.8071 193.186 18.8765 193.237 18.9423 193.303C19.0117 193.369 19.0684 193.451 19.1122 193.55C19.1561 193.648 19.178 193.765 19.178 193.9V194.18C19.178 194.491 19.0793 194.728 18.882 194.893C18.6883 195.053 18.4143 195.134 18.0598 195.134ZM19.9836 195.101V190.918H20.4166V193.341H20.8332L21.7267 192.174H22.1871L21.1566 193.539L22.2529 195.101H21.7925L20.8168 193.73H20.4166V195.101H19.9836Z" fill="#615E83"/>
<path d="M19.4503 177.01V175.985H17.5482L17.4495 175.75L18.9679 172.981H19.4174L17.9538 175.612H19.4503V174.538L19.5434 174.165H19.8833V175.612H20.4369V175.914L19.8833 175.985V177.01H19.4503ZM20.9836 177.016V172.833H21.4166V175.256H21.8332L22.7267 174.089H23.1871L22.1566 175.454L23.2529 177.016H22.7925L21.8168 175.645H21.4166V177.016H20.9836Z" fill="#615E83"/>
<path d="M17.967 160.615C17.7185 160.615 17.4719 160.609 17.227 160.598C16.9822 160.587 16.7629 160.573 16.5693 160.555V160.22H17.9725C18.137 160.22 18.2795 160.195 18.4001 160.143C18.5207 160.089 18.6138 160.012 18.6796 159.913C18.7491 159.811 18.7838 159.692 18.7838 159.557V159.118C18.7838 158.928 18.729 158.78 18.6193 158.674C18.5097 158.565 18.3416 158.51 18.115 158.51H17.682C17.5176 158.51 17.386 158.546 17.2873 158.62C17.1887 158.693 17.1247 158.81 17.0955 158.97H16.6844L16.7995 156.553H19.0853V156.948H17.1777L17.1064 158.428C17.1503 158.355 17.227 158.289 17.3367 158.23C17.4499 158.168 17.5925 158.137 17.7642 158.137H18.2466C18.4585 158.137 18.6358 158.177 18.7783 158.258C18.9208 158.335 19.0304 158.442 19.1072 158.581C19.1839 158.716 19.2223 158.87 19.2223 159.042V159.639C19.2223 159.858 19.1693 160.041 19.0633 160.187C18.9574 160.33 18.8112 160.438 18.6248 160.511C18.4384 160.58 18.2192 160.615 17.967 160.615ZM19.9836 160.587V156.405H20.4166V158.828H20.8332L21.7267 157.66H22.1871L21.1566 159.025L22.2529 160.587H21.7925L20.8168 159.217H20.4166V160.587H19.9836Z" fill="#615E83"/>
<path d="M17.6537 144.176C17.4856 144.176 17.3321 144.146 17.1932 144.088C17.0544 144.026 16.9374 143.92 16.8424 143.77C16.7474 143.62 16.6725 143.414 16.6177 143.15C16.5665 142.887 16.541 142.551 16.541 142.142C16.541 141.78 16.572 141.469 16.6341 141.21C16.6999 140.951 16.7949 140.739 16.9192 140.574C17.0434 140.41 17.1932 140.289 17.3687 140.212C17.5441 140.132 17.745 140.092 17.9716 140.092C18.1251 140.092 18.295 140.099 18.4814 140.114C18.6678 140.125 18.8322 140.137 18.9747 140.152V140.486H17.9771C17.6665 140.486 17.4216 140.607 17.2426 140.848C17.0672 141.086 16.9795 141.449 16.9795 141.939C17.0891 141.924 17.2097 141.913 17.3412 141.906C17.4765 141.895 17.6098 141.89 17.7414 141.89C17.873 141.886 17.9899 141.884 18.0922 141.884C18.3334 141.884 18.538 141.912 18.7061 141.966C18.8742 142.021 19.0003 142.111 19.0844 142.235C19.1721 142.359 19.2159 142.524 19.2159 142.728V143.293C19.2159 143.509 19.1739 143.68 19.0898 143.808C19.0058 143.936 18.8925 144.029 18.75 144.088C18.6075 144.146 18.4503 144.176 18.2786 144.176H17.6537ZM17.725 143.781H18.1964C18.306 143.781 18.4047 143.766 18.4924 143.737C18.5801 143.704 18.6495 143.649 18.7007 143.573C18.7555 143.492 18.7829 143.377 18.7829 143.227V142.8C18.7829 142.646 18.7518 142.531 18.6897 142.454C18.6276 142.378 18.538 142.326 18.4211 142.301C18.3042 142.272 18.1616 142.257 17.9935 142.257H16.9795C16.9795 142.56 16.9959 142.812 17.0288 143.013C17.0617 143.211 17.1092 143.366 17.1713 143.479C17.2371 143.589 17.3157 143.668 17.407 143.715C17.502 143.759 17.608 143.781 17.725 143.781ZM19.9836 144.159V139.977H20.4166V142.4H20.8332L21.7267 141.232H22.1871L21.1566 142.597L22.2529 144.159H21.7925L20.8168 142.789H20.4166V144.159H19.9836Z" fill="#615E83"/>
<rect x="347.508" y="138.21" width="3.65432" height="83.1358" fill="#D9EBFF"/>
<rect x="347.508" y="193.938" width="3.65432" height="52.9877" fill="#5B35AE"/>
<rect x="318.273" y="138.21" width="3.65432" height="80.3951" fill="#D9EBFF"/>
<rect x="318.285" y="213.207" width="3.53599" height="33.3938" fill="#5B35AE"/>
<rect x="289.039" y="138.21" width="3.65432" height="103.235" fill="#D9EBFF"/>
<rect x="289.039" y="235.808" width="3.53599" height="10.7937" fill="#5B35AE"/>
<rect x="259.805" y="138.21" width="3.65432" height="82.2222" fill="#D9EBFF"/>
<rect x="259.805" y="213.207" width="3.53599" height="33.3938" fill="#5B35AE"/>
<rect x="230.57" y="138.21" width="3.65432" height="100.494" fill="#D9EBFF"/>
<rect x="230.57" y="233.14" width="3.53599" height="13.4616" fill="#5B35AE"/>
<rect x="202.246" y="138.21" width="2.74074" height="95.0123" fill="#D9EBFF"/>
<rect x="201.859" y="222.461" width="3.53599" height="24.1408" fill="#5B35AE"/>
<rect x="173.012" y="138.21" width="3.65432" height="63.037" fill="#D9EBFF"/>
<rect x="173.012" y="187.544" width="3.65432" height="59.3827" fill="#5B35AE"/>
<rect x="143.781" y="138.21" width="3.65432" height="93.1852" fill="#D9EBFF"/>
<rect x="143.648" y="215.113" width="3.53599" height="31.4887" fill="#5B35AE"/>
<rect x="114.543" y="138.159" width="3.53599" height="95.5836" fill="#D9EBFF"/>
<rect x="114.547" y="207.642" width="3.65432" height="39.284" fill="#5B35AE"/>
<rect x="85.3086" y="138.21" width="3.65432" height="74" fill="#D9EBFF"/>
<rect x="85.3086" y="186.63" width="3.65432" height="60.2963" fill="#5B35AE"/>
<rect x="56.0742" y="138.21" width="3.65432" height="81.3086" fill="#D9EBFF"/>
<rect x="56.3281" y="213.207" width="3.53599" height="33.3938" fill="#5B35AE"/>
<rect x="27.8281" y="138.159" width="3.53599" height="95.5836" fill="#D9EBFF"/>
<rect x="27.7539" y="225.914" width="3.65432" height="21.0123" fill="#5B35AE"/>
<path d="M13.6954 118.092C13.6954 117.778 13.7685 117.5 13.9147 117.259C14.0535 117.011 14.2472 116.817 14.4957 116.678C14.7369 116.532 15.0146 116.459 15.3289 116.459H21.512C21.8263 116.459 22.104 116.532 22.3452 116.678C22.5937 116.817 22.7874 117.011 22.9262 117.259C23.0724 117.5 23.1455 117.778 23.1455 118.092V118.114C23.1455 118.429 23.0724 118.71 22.9262 118.958C22.7874 119.2 22.5937 119.393 22.3452 119.539C22.104 119.678 21.8263 119.748 21.512 119.748H15.3289C15.0146 119.748 14.7369 119.678 14.4957 119.539C14.2472 119.393 14.0535 119.2 13.9147 118.958C13.7685 118.71 13.6954 118.429 13.6954 118.114V118.092ZM19.8514 118.092C19.8514 117.778 19.9244 117.5 20.0706 117.259C20.2095 117.011 20.4032 116.817 20.6517 116.678C20.8928 116.532 21.1706 116.459 21.4848 116.459H27.668C27.9822 116.459 28.26 116.532 28.5011 116.678C28.7496 116.817 28.9433 117.011 29.0822 117.259C29.2283 117.5 29.3014 117.778 29.3014 118.092V118.114C29.3014 118.429 29.2283 118.71 29.0822 118.958C28.9433 119.2 28.7496 119.393 28.5011 119.539C28.26 119.678 27.9822 119.748 27.668 119.748H21.4848C21.1706 119.748 20.8928 119.678 20.6517 119.539C20.4032 119.393 20.2095 119.2 20.0706 118.958C19.9244 118.71 19.8514 118.429 19.8514 118.114V118.092ZM26.0073 118.092C26.0073 117.778 26.0804 117.5 26.2266 117.259C26.3654 117.011 26.5591 116.817 26.8076 116.678C27.0488 116.532 27.3265 116.459 27.6408 116.459H30.7981C31.1124 116.459 31.3901 116.532 31.6313 116.678C31.8798 116.817 32.0735 117.011 32.2124 117.259C32.3585 117.5 32.4316 117.778 32.4316 118.092V118.114C32.4316 118.429 32.3585 118.71 32.2124 118.958C32.0735 119.2 31.8798 119.393 31.6313 119.539C31.3901 119.678 31.1124 119.748 30.7981 119.748H27.6408C27.3265 119.748 27.0488 119.678 26.8076 119.539C26.5591 119.393 26.3654 119.2 26.2266 118.958C26.0804 118.71 26.0073 118.429 26.0073 118.114V118.092ZM29.1442 118.092C29.1442 117.778 29.2173 117.5 29.3634 117.259C29.5023 117.011 29.696 116.817 29.9445 116.678C30.1857 116.532 30.4634 116.459 30.7777 116.459H33.935C34.2493 116.459 34.527 116.532 34.7682 116.678C35.0167 116.817 35.2104 117.011 35.3492 117.259C35.4954 117.5 35.5685 117.778 35.5685 118.092V118.114C35.5685 118.429 35.4954 118.71 35.3492 118.958C35.2104 119.2 35.0167 119.393 34.7682 119.539C34.527 119.678 34.2493 119.748 33.935 119.748H30.7777C30.4634 119.748 30.1857 119.678 29.9445 119.539C29.696 119.393 29.5023 119.2 29.3634 118.958C29.2173 118.71 29.1442 118.429 29.1442 118.114V118.092ZM32.281 118.092C32.281 117.778 32.3541 117.5 32.5003 117.259C32.6392 117.011 32.8328 116.817 33.0813 116.678C33.3225 116.532 33.6003 116.459 33.9145 116.459H40.0976C40.4119 116.459 40.6896 116.532 40.9308 116.678C41.1793 116.817 41.373 117.011 41.5119 117.259C41.658 117.5 41.7311 117.778 41.7311 118.092V118.114C41.7311 118.429 41.658 118.71 41.5119 118.958C41.373 119.2 41.1793 119.393 40.9308 119.539C40.6896 119.678 40.4119 119.748 40.0976 119.748H33.9145C33.6003 119.748 33.3225 119.678 33.0813 119.539C32.8328 119.393 32.6392 119.2 32.5003 118.958C32.3541 118.71 32.281 118.429 32.281 118.114V118.092ZM38.437 118.092C38.437 117.778 38.5101 117.5 38.6563 117.259C38.7951 117.011 38.9888 116.817 39.2373 116.678C39.4785 116.532 39.7562 116.459 40.0705 116.459H46.2536C46.5679 116.459 46.8456 116.532 47.0868 116.678C47.3353 116.817 47.529 117.011 47.6678 117.259C47.814 117.5 47.8871 117.778 47.8871 118.092V118.114C47.8871 118.429 47.814 118.71 47.6678 118.958C47.529 119.2 47.3353 119.393 47.0868 119.539C46.8456 119.678 46.5679 119.748 46.2536 119.748H40.0705C39.7562 119.748 39.4785 119.678 39.2373 119.539C38.9888 119.393 38.7951 119.2 38.6563 118.958C38.5101 118.71 38.437 118.429 38.437 118.114V118.092ZM51.1665 118.092C51.1665 117.778 51.2396 117.5 51.3857 117.259C51.5246 117.011 51.7183 116.817 51.9668 116.678C52.2079 116.532 52.4857 116.459 52.7999 116.459H58.9831C59.2973 116.459 59.5751 116.532 59.8162 116.678C60.0647 116.817 60.2584 117.011 60.3973 117.259C60.5435 117.5 60.6165 117.778 60.6165 118.092V118.114C60.6165 118.429 60.5435 118.71 60.3973 118.958C60.2584 119.2 60.0647 119.393 59.8162 119.539C59.5751 119.678 59.2973 119.748 58.9831 119.748H52.7999C52.4857 119.748 52.2079 119.678 51.9668 119.539C51.7183 119.393 51.5246 119.2 51.3857 118.958C51.2396 118.71 51.1665 118.429 51.1665 118.114V118.092ZM57.3224 118.092C57.3224 117.778 57.3955 117.5 57.5417 117.259C57.6805 117.011 57.8742 116.817 58.1227 116.678C58.3639 116.532 58.6416 116.459 58.9559 116.459H65.139C65.4533 116.459 65.731 116.532 65.9722 116.678C66.2207 116.817 66.4144 117.011 66.5532 117.259C66.6994 117.5 66.7725 117.778 66.7725 118.092V118.114C66.7725 118.429 66.6994 118.71 66.5532 118.958C66.4144 119.2 66.2207 119.393 65.9722 119.539C65.731 119.678 65.4533 119.748 65.139 119.748H58.9559C58.6416 119.748 58.3639 119.678 58.1227 119.539C57.8742 119.393 57.6805 119.2 57.5417 118.958C57.3955 118.71 57.3224 118.429 57.3224 118.114V118.092ZM63.4784 118.092C63.4784 117.778 63.5515 117.5 63.6976 117.259C63.8365 117.011 64.0302 116.817 64.2787 116.678C64.5199 116.532 64.7976 116.459 65.1119 116.459H71.295C71.6092 116.459 71.887 116.532 72.1282 116.678C72.3767 116.817 72.5703 117.011 72.7092 117.259C72.8554 117.5 72.9285 117.778 72.9285 118.092V118.114C72.9285 118.429 72.8554 118.71 72.7092 118.958C72.5703 119.2 72.3767 119.393 72.1282 119.539C71.887 119.678 71.6092 119.748 71.295 119.748H65.1119C64.7976 119.748 64.5199 119.678 64.2787 119.539C64.0302 119.393 63.8365 119.2 63.6976 118.958C63.5515 118.71 63.4784 118.429 63.4784 118.114V118.092ZM69.6343 118.092C69.6343 117.778 69.7074 117.5 69.8536 117.259C69.9925 117.011 70.1861 116.817 70.4346 116.678C70.6758 116.532 70.9536 116.459 71.2678 116.459H74.4252C74.7394 116.459 75.0172 116.532 75.2583 116.678C75.5068 116.817 75.7005 117.011 75.8394 117.259C75.9856 117.5 76.0586 117.778 76.0586 118.092V118.114C76.0586 118.429 75.9856 118.71 75.8394 118.958C75.7005 119.2 75.5068 119.393 75.2583 119.539C75.0172 119.678 74.7394 119.748 74.4252 119.748H71.2678C70.9536 119.748 70.6758 119.678 70.4346 119.539C70.1861 119.393 69.9925 119.2 69.8536 118.958C69.7074 118.71 69.6343 118.429 69.6343 118.114V118.092ZM72.7712 118.092C72.7712 117.778 72.8443 117.5 72.9905 117.259C73.1293 117.011 73.323 116.817 73.5715 116.678C73.8127 116.532 74.0904 116.459 74.4047 116.459H80.5878C80.9021 116.459 81.1798 116.532 81.421 116.678C81.6695 116.817 81.8632 117.011 82.002 117.259C82.1482 117.5 82.2213 117.778 82.2213 118.092V118.114C82.2213 118.429 82.1482 118.71 82.002 118.958C81.8632 119.2 81.6695 119.393 81.421 119.539C81.1798 119.678 80.9021 119.748 80.5878 119.748H74.4047C74.0904 119.748 73.8127 119.678 73.5715 119.539C73.323 119.393 73.1293 119.2 72.9905 118.958C72.8443 118.71 72.7712 118.429 72.7712 118.114V118.092Z" fill="#1E1B39"/>
<path d="M14.2435 106.76C14.2435 106.551 14.2923 106.365 14.3897 106.205C14.4823 106.039 14.6114 105.91 14.7771 105.817C14.9379 105.72 15.123 105.671 15.3325 105.671H19.4546C19.6641 105.671 19.8493 105.72 20.0101 105.817C20.1757 105.91 20.3048 106.039 20.3974 106.205C20.4949 106.365 20.5436 106.551 20.5436 106.76V106.775C20.5436 106.984 20.4949 107.172 20.3974 107.338C20.3048 107.498 20.1757 107.627 20.0101 107.725C19.8493 107.817 19.6641 107.864 19.4546 107.864H15.3325C15.123 107.864 14.9379 107.817 14.7771 107.725C14.6114 107.627 14.4823 107.498 14.3897 107.338C14.2923 107.172 14.2435 106.984 14.2435 106.775V106.76ZM18.3475 106.76C18.3475 106.551 18.3962 106.365 18.4937 106.205C18.5863 106.039 18.7154 105.91 18.8811 105.817C19.0418 105.72 19.227 105.671 19.4365 105.671H23.5586C23.7681 105.671 23.9532 105.72 24.114 105.817C24.2797 105.91 24.4088 106.039 24.5014 106.205C24.5988 106.365 24.6476 106.551 24.6476 106.76V106.775C24.6476 106.984 24.5988 107.172 24.5014 107.338C24.4088 107.498 24.2797 107.627 24.114 107.725C23.9532 107.817 23.7681 107.864 23.5586 107.864H19.4365C19.227 107.864 19.0418 107.817 18.8811 107.725C18.7154 107.627 18.5863 107.498 18.4937 107.338C18.3962 107.172 18.3475 106.984 18.3475 106.775V106.76ZM22.4515 106.76C22.4515 106.551 22.5002 106.365 22.5977 106.205C22.6902 106.039 22.8194 105.91 22.985 105.817C23.1458 105.72 23.331 105.671 23.5405 105.671H25.6454C25.8549 105.671 26.04 105.72 26.2008 105.817C26.3665 105.91 26.4956 106.039 26.5882 106.205C26.6856 106.365 26.7344 106.551 26.7344 106.76V106.775C26.7344 106.984 26.6856 107.172 26.5882 107.338C26.4956 107.498 26.3665 107.627 26.2008 107.725C26.04 107.817 25.8549 107.864 25.6454 107.864H23.5405C23.331 107.864 23.1458 107.817 22.985 107.725C22.8194 107.627 22.6902 107.498 22.5977 107.338C22.5002 107.172 22.4515 106.984 22.4515 106.775V106.76ZM24.5427 106.76C24.5427 106.551 24.5915 106.365 24.6889 106.205C24.7815 106.039 24.9106 105.91 25.0763 105.817C25.2371 105.72 25.4222 105.671 25.6317 105.671H27.7366C27.9461 105.671 28.1313 105.72 28.2921 105.817C28.4577 105.91 28.5869 106.039 28.6794 106.205C28.7769 106.365 28.8256 106.551 28.8256 106.76V106.775C28.8256 106.984 28.7769 107.172 28.6794 107.338C28.5869 107.498 28.4577 107.627 28.2921 107.725C28.1313 107.817 27.9461 107.864 27.7366 107.864H25.6317C25.4222 107.864 25.2371 107.817 25.0763 107.725C24.9106 107.627 24.7815 107.498 24.6889 107.338C24.5915 107.172 24.5427 106.984 24.5427 106.775V106.76ZM26.634 106.76C26.634 106.551 26.6827 106.365 26.7802 106.205C26.8727 106.039 27.0018 105.91 27.1675 105.817C27.3283 105.72 27.5135 105.671 27.723 105.671H31.845C32.0546 105.671 32.2397 105.72 32.4005 105.817C32.5662 105.91 32.6953 106.039 32.7879 106.205C32.8853 106.365 32.934 106.551 32.934 106.76V106.775C32.934 106.984 32.8853 107.172 32.7879 107.338C32.6953 107.498 32.5662 107.627 32.4005 107.725C32.2397 107.817 32.0546 107.864 31.845 107.864H27.723C27.5135 107.864 27.3283 107.817 27.1675 107.725C27.0018 107.627 26.8727 107.498 26.7802 107.338C26.6827 107.172 26.634 106.984 26.634 106.775V106.76ZM30.738 106.76C30.738 106.551 30.7867 106.365 30.8841 106.205C30.9767 106.039 31.1058 105.91 31.2715 105.817C31.4323 105.72 31.6174 105.671 31.8269 105.671H33.9318C34.1413 105.671 34.3265 105.72 34.4873 105.817C34.6529 105.91 34.7821 106.039 34.8746 106.205C34.9721 106.365 35.0208 106.551 35.0208 106.76V106.775C35.0208 106.984 34.9721 107.172 34.8746 107.338C34.7821 107.498 34.6529 107.627 34.4873 107.725C34.3265 107.817 34.1413 107.864 33.9318 107.864H31.8269C31.6174 107.864 31.4323 107.817 31.2715 107.725C31.1058 107.627 30.9767 107.498 30.8841 107.338C30.7867 107.172 30.738 106.984 30.738 106.775V106.76ZM32.8292 106.76C32.8292 106.551 32.8779 106.365 32.9754 106.205C33.0679 106.039 33.1971 105.91 33.3627 105.817C33.5235 105.72 33.7087 105.671 33.9182 105.671H36.0231C36.2326 105.671 36.4177 105.72 36.5785 105.817C36.7442 105.91 36.8733 106.039 36.9659 106.205C37.0633 106.365 37.1121 106.551 37.1121 106.76V106.775C37.1121 106.984 37.0633 107.172 36.9659 107.338C36.8733 107.498 36.7442 107.627 36.5785 107.725C36.4177 107.817 36.2326 107.864 36.0231 107.864H33.9182C33.7087 107.864 33.5235 107.817 33.3627 107.725C33.1971 107.627 33.0679 107.498 32.9754 107.338C32.8779 107.172 32.8292 106.984 32.8292 106.775V106.76ZM34.9204 106.76C34.9204 106.551 34.9692 106.365 35.0666 106.205C35.1592 106.039 35.2883 105.91 35.454 105.817C35.6148 105.72 35.7999 105.671 36.0094 105.671H40.1315C40.341 105.671 40.5262 105.72 40.687 105.817C40.8526 105.91 40.9817 106.039 41.0743 106.205C41.1718 106.365 41.2205 106.551 41.2205 106.76V106.775C41.2205 106.984 41.1718 107.172 41.0743 107.338C40.9817 107.498 40.8526 107.627 40.687 107.725C40.5262 107.817 40.341 107.864 40.1315 107.864H36.0094C35.7999 107.864 35.6148 107.817 35.454 107.725C35.2883 107.627 35.1592 107.498 35.0666 107.338C34.9692 107.172 34.9204 106.984 34.9204 106.775V106.76Z" fill="#9291A5"/>
<rect x="265.285" y="99.8395" width="97.7531" height="15.5309" fill="#F5FAFF"/>
<rect width="27.6322" height="15.4425" transform="translate(332.18 99.8392)" fill="#5B35AE"/>
<path d="M336.695 107.624C336.695 107.467 336.731 107.328 336.804 107.207C336.874 107.083 336.971 106.986 337.095 106.917C337.215 106.844 337.354 106.807 337.511 106.807H340.603C340.76 106.807 340.899 106.844 341.02 106.917C341.144 106.986 341.241 107.083 341.31 107.207C341.383 107.328 341.42 107.467 341.42 107.624V107.635C341.42 107.792 341.383 107.933 341.31 108.057C341.241 108.177 341.144 108.274 341.02 108.347C340.899 108.417 340.76 108.451 340.603 108.451H337.511C337.354 108.451 337.215 108.417 337.095 108.347C336.971 108.274 336.874 108.177 336.804 108.057C336.731 107.933 336.695 107.792 336.695 107.635V107.624ZM339.773 107.624C339.773 107.467 339.809 107.328 339.882 107.207C339.952 107.083 340.049 106.986 340.173 106.917C340.293 106.844 340.432 106.807 340.589 106.807H343.681C343.838 106.807 343.977 106.844 344.098 106.917C344.222 106.986 344.319 107.083 344.388 107.207C344.461 107.328 344.498 107.467 344.498 107.624V107.635C344.498 107.792 344.461 107.933 344.388 108.057C344.319 108.177 344.222 108.274 344.098 108.347C343.977 108.417 343.838 108.451 343.681 108.451H340.589C340.432 108.451 340.293 108.417 340.173 108.347C340.049 108.274 339.952 108.177 339.882 108.057C339.809 107.933 339.773 107.792 339.773 107.635V107.624ZM342.851 107.624C342.851 107.467 342.887 107.328 342.96 107.207C343.03 107.083 343.127 106.986 343.251 106.917C343.371 106.844 343.51 106.807 343.667 106.807H346.759C346.916 106.807 347.055 106.844 347.176 106.917C347.3 106.986 347.397 107.083 347.466 107.207C347.539 107.328 347.576 107.467 347.576 107.624V107.635C347.576 107.792 347.539 107.933 347.466 108.057C347.397 108.177 347.3 108.274 347.176 108.347C347.055 108.417 346.916 108.451 346.759 108.451H343.667C343.51 108.451 343.371 108.417 343.251 108.347C343.127 108.274 343.03 108.177 342.96 108.057C342.887 107.933 342.851 107.792 342.851 107.635V107.624ZM345.929 107.624C345.929 107.467 345.965 107.328 346.038 107.207C346.108 107.083 346.205 106.986 346.329 106.917C346.449 106.844 346.588 106.807 346.745 106.807H349.837C349.994 106.807 350.133 106.844 350.254 106.917C350.378 106.986 350.475 107.083 350.544 107.207C350.617 107.328 350.654 107.467 350.654 107.624V107.635C350.654 107.792 350.617 107.933 350.544 108.057C350.475 108.177 350.378 108.274 350.254 108.347C350.133 108.417 349.994 108.451 349.837 108.451H346.745C346.588 108.451 346.449 108.417 346.329 108.347C346.205 108.274 346.108 108.177 346.038 108.057C345.965 107.933 345.929 107.792 345.929 107.635V107.624ZM349.007 107.624C349.007 107.467 349.043 107.328 349.116 107.207C349.186 107.083 349.283 106.986 349.407 106.917C349.527 106.844 349.666 106.807 349.823 106.807H352.915C353.072 106.807 353.211 106.844 353.332 106.917C353.456 106.986 353.553 107.083 353.622 107.207C353.695 107.328 353.732 107.467 353.732 107.624V107.635C353.732 107.792 353.695 107.933 353.622 108.057C353.553 108.177 353.456 108.274 353.332 108.347C353.211 108.417 353.072 108.451 352.915 108.451H349.823C349.666 108.451 349.527 108.417 349.407 108.347C349.283 108.274 349.186 108.177 349.116 108.057C349.043 107.933 349.007 107.792 349.007 107.635V107.624ZM352.085 107.624C352.085 107.467 352.121 107.328 352.194 107.207C352.264 107.083 352.361 106.986 352.485 106.917C352.605 106.844 352.744 106.807 352.901 106.807H354.48C354.637 106.807 354.776 106.844 354.897 106.917C355.021 106.986 355.118 107.083 355.187 107.207C355.26 107.328 355.297 107.467 355.297 107.624V107.635C355.297 107.792 355.26 107.933 355.187 108.057C355.118 108.177 355.021 108.274 354.897 108.347C354.776 108.417 354.637 108.451 354.48 108.451H352.901C352.744 108.451 352.605 108.417 352.485 108.347C352.361 108.274 352.264 108.177 352.194 108.057C352.121 107.933 352.085 107.792 352.085 107.635V107.624Z" fill="white"/>
<path d="M303.11 108.648C303.11 108.491 303.146 108.352 303.219 108.231C303.289 108.107 303.386 108.01 303.51 107.941C303.631 107.868 303.769 107.831 303.927 107.831H307.018C307.175 107.831 307.314 107.868 307.435 107.941C307.559 108.01 307.656 108.107 307.725 108.231C307.798 108.352 307.835 108.491 307.835 108.648V108.659C307.835 108.816 307.798 108.957 307.725 109.081C307.656 109.201 307.559 109.298 307.435 109.371C307.314 109.441 307.175 109.475 307.018 109.475H303.927C303.769 109.475 303.631 109.441 303.51 109.371C303.386 109.298 303.289 109.201 303.219 109.081C303.146 108.957 303.11 108.816 303.11 108.659V108.648ZM306.188 108.648C306.188 108.491 306.224 108.352 306.297 108.231C306.367 108.107 306.464 108.01 306.588 107.941C306.709 107.868 306.847 107.831 307.005 107.831H310.096C310.253 107.831 310.392 107.868 310.513 107.941C310.637 108.01 310.734 108.107 310.803 108.231C310.876 108.352 310.913 108.491 310.913 108.648V108.659C310.913 108.816 310.876 108.957 310.803 109.081C310.734 109.201 310.637 109.298 310.513 109.371C310.392 109.441 310.253 109.475 310.096 109.475H307.005C306.847 109.475 306.709 109.441 306.588 109.371C306.464 109.298 306.367 109.201 306.297 109.081C306.224 108.957 306.188 108.816 306.188 108.659V108.648ZM309.266 108.648C309.266 108.491 309.302 108.352 309.375 108.231C309.445 108.107 309.542 108.01 309.666 107.941C309.786 107.868 309.925 107.831 310.082 107.831H313.174C313.331 107.831 313.47 107.868 313.591 107.941C313.715 108.01 313.812 108.107 313.881 108.231C313.954 108.352 313.991 108.491 313.991 108.648V108.659C313.991 108.816 313.954 108.957 313.881 109.081C313.812 109.201 313.715 109.298 313.591 109.371C313.47 109.441 313.331 109.475 313.174 109.475H310.082C309.925 109.475 309.786 109.441 309.666 109.371C309.542 109.298 309.445 109.201 309.375 109.081C309.302 108.957 309.266 108.816 309.266 108.659V108.648ZM312.344 108.648C312.344 108.491 312.38 108.352 312.453 108.231C312.523 108.107 312.62 108.01 312.744 107.941C312.864 107.868 313.003 107.831 313.16 107.831H316.252C316.409 107.831 316.548 107.868 316.669 107.941C316.793 108.01 316.89 108.107 316.959 108.231C317.032 108.352 317.069 108.491 317.069 108.648V108.659C317.069 108.816 317.032 108.957 316.959 109.081C316.89 109.201 316.793 109.298 316.669 109.371C316.548 109.441 316.409 109.475 316.252 109.475H313.16C313.003 109.475 312.864 109.441 312.744 109.371C312.62 109.298 312.523 109.201 312.453 109.081C312.38 108.957 312.344 108.816 312.344 108.659V108.648ZM315.422 108.648C315.422 108.491 315.458 108.352 315.531 108.231C315.601 108.107 315.698 108.01 315.822 107.941C315.942 107.868 316.081 107.831 316.238 107.831H319.33C319.487 107.831 319.626 107.868 319.747 107.941C319.871 108.01 319.968 108.107 320.037 108.231C320.11 108.352 320.147 108.491 320.147 108.648V108.659C320.147 108.816 320.11 108.957 320.037 109.081C319.968 109.201 319.871 109.298 319.747 109.371C319.626 109.441 319.487 109.475 319.33 109.475H316.238C316.081 109.475 315.942 109.441 315.822 109.371C315.698 109.298 315.601 109.201 315.531 109.081C315.458 108.957 315.422 108.816 315.422 108.659V108.648ZM318.5 108.648C318.5 108.491 318.536 108.352 318.609 108.231C318.679 108.107 318.776 108.01 318.9 107.941C319.02 107.868 319.159 107.831 319.316 107.831H320.895C321.052 107.831 321.191 107.868 321.312 107.941C321.436 108.01 321.533 108.107 321.602 108.231C321.675 108.352 321.712 108.491 321.712 108.648V108.659C321.712 108.816 321.675 108.957 321.602 109.081C321.533 109.201 321.436 109.298 321.312 109.371C321.191 109.441 321.052 109.475 320.895 109.475H319.316C319.159 109.475 319.02 109.441 318.9 109.371C318.776 109.298 318.679 109.201 318.609 109.081C318.536 108.957 318.5 108.816 318.5 108.659V108.648ZM320.068 108.648C320.068 108.491 320.105 108.352 320.178 108.231C320.247 108.107 320.344 108.01 320.468 107.941C320.589 107.868 320.728 107.831 320.885 107.831H323.976C324.134 107.831 324.272 107.868 324.393 107.941C324.517 108.01 324.614 108.107 324.684 108.231C324.757 108.352 324.793 108.491 324.793 108.648V108.659C324.793 108.816 324.757 108.957 324.684 109.081C324.614 109.201 324.517 109.298 324.393 109.371C324.272 109.441 324.134 109.475 323.976 109.475H320.885C320.728 109.475 320.589 109.441 320.468 109.371C320.344 109.298 320.247 109.201 320.178 109.081C320.105 108.957 320.068 108.816 320.068 108.659V108.648ZM323.146 108.648C323.146 108.491 323.183 108.352 323.256 108.231C323.325 108.107 323.422 108.01 323.546 107.941C323.667 107.868 323.806 107.831 323.963 107.831H325.542C325.699 107.831 325.838 107.868 325.958 107.941C326.082 108.01 326.179 108.107 326.249 108.231C326.322 108.352 326.358 108.491 326.358 108.648V108.659C326.358 108.816 326.322 108.957 326.249 109.081C326.179 109.201 326.082 109.298 325.958 109.371C325.838 109.441 325.699 109.475 325.542 109.475H323.963C323.806 109.475 323.667 109.441 323.546 109.371C323.422 109.298 323.325 109.201 323.256 109.081C323.183 108.957 323.146 108.816 323.146 108.659V108.648Z" fill="#9291A5"/>
<path d="M273.9 108.648C273.9 108.491 273.936 108.352 274.009 108.231C274.079 108.107 274.176 108.01 274.3 107.941C274.42 107.868 274.559 107.831 274.716 107.831H277.808C277.965 107.831 278.104 107.868 278.225 107.941C278.349 108.01 278.446 108.107 278.515 108.231C278.588 108.352 278.625 108.491 278.625 108.648V108.659C278.625 108.816 278.588 108.957 278.515 109.081C278.446 109.201 278.349 109.298 278.225 109.371C278.104 109.441 277.965 109.475 277.808 109.475H274.716C274.559 109.475 274.42 109.441 274.3 109.371C274.176 109.298 274.079 109.201 274.009 109.081C273.936 108.957 273.9 108.816 273.9 108.659V108.648ZM276.978 108.648C276.978 108.491 277.014 108.352 277.087 108.231C277.157 108.107 277.254 108.01 277.378 107.941C277.498 107.868 277.637 107.831 277.794 107.831H280.886C281.043 107.831 281.182 107.868 281.303 107.941C281.427 108.01 281.524 108.107 281.593 108.231C281.666 108.352 281.703 108.491 281.703 108.648V108.659C281.703 108.816 281.666 108.957 281.593 109.081C281.524 109.201 281.427 109.298 281.303 109.371C281.182 109.441 281.043 109.475 280.886 109.475H277.794C277.637 109.475 277.498 109.441 277.378 109.371C277.254 109.298 277.157 109.201 277.087 109.081C277.014 108.957 276.978 108.816 276.978 108.659V108.648ZM280.056 108.648C280.056 108.491 280.092 108.352 280.165 108.231C280.235 108.107 280.332 108.01 280.456 107.941C280.576 107.868 280.715 107.831 280.872 107.831H283.964C284.121 107.831 284.26 107.868 284.38 107.941C284.505 108.01 284.602 108.107 284.671 108.231C284.744 108.352 284.781 108.491 284.781 108.648V108.659C284.781 108.816 284.744 108.957 284.671 109.081C284.602 109.201 284.505 109.298 284.38 109.371C284.26 109.441 284.121 109.475 283.964 109.475H280.872C280.715 109.475 280.576 109.441 280.456 109.371C280.332 109.298 280.235 109.201 280.165 109.081C280.092 108.957 280.056 108.816 280.056 108.659V108.648ZM283.134 108.648C283.134 108.491 283.17 108.352 283.243 108.231C283.313 108.107 283.409 108.01 283.534 107.941C283.654 107.868 283.793 107.831 283.95 107.831H285.529C285.686 107.831 285.825 107.868 285.946 107.941C286.07 108.01 286.167 108.107 286.236 108.231C286.309 108.352 286.346 108.491 286.346 108.648V108.659C286.346 108.816 286.309 108.957 286.236 109.081C286.167 109.201 286.07 109.298 285.946 109.371C285.825 109.441 285.686 109.475 285.529 109.475H283.95C283.793 109.475 283.654 109.441 283.534 109.371C283.409 109.298 283.313 109.201 283.243 109.081C283.17 108.957 283.134 108.816 283.134 108.659V108.648ZM284.702 108.648C284.702 108.491 284.739 108.352 284.812 108.231C284.881 108.107 284.978 108.01 285.102 107.941C285.223 107.868 285.362 107.831 285.519 107.831H287.097C287.255 107.831 287.393 107.868 287.514 107.941C287.638 108.01 287.735 108.107 287.805 108.231C287.878 108.352 287.914 108.491 287.914 108.648V108.659C287.914 108.816 287.878 108.957 287.805 109.081C287.735 109.201 287.638 109.298 287.514 109.371C287.393 109.441 287.255 109.475 287.097 109.475H285.519C285.362 109.475 285.223 109.441 285.102 109.371C284.978 109.298 284.881 109.201 284.812 109.081C284.739 108.957 284.702 108.816 284.702 108.659V108.648ZM286.27 108.648C286.27 108.491 286.307 108.352 286.38 108.231C286.45 108.107 286.546 108.01 286.671 107.941C286.791 107.868 286.93 107.831 287.087 107.831H290.179C290.336 107.831 290.475 107.868 290.595 107.941C290.72 108.01 290.816 108.107 290.886 108.231C290.959 108.352 290.995 108.491 290.995 108.648V108.659C290.995 108.816 290.959 108.957 290.886 109.081C290.816 109.201 290.72 109.298 290.595 109.371C290.475 109.441 290.336 109.475 290.179 109.475H287.087C286.93 109.475 286.791 109.441 286.671 109.371C286.546 109.298 286.45 109.201 286.38 109.081C286.307 108.957 286.27 108.816 286.27 108.659V108.648ZM289.348 108.648C289.348 108.491 289.385 108.352 289.458 108.231C289.527 108.107 289.624 108.01 289.749 107.941C289.869 107.868 290.008 107.831 290.165 107.831H291.744C291.901 107.831 292.04 107.868 292.16 107.941C292.285 108.01 292.382 108.107 292.451 108.231C292.524 108.352 292.561 108.491 292.561 108.648V108.659C292.561 108.816 292.524 108.957 292.451 109.081C292.382 109.201 292.285 109.298 292.16 109.371C292.04 109.441 291.901 109.475 291.744 109.475H290.165C290.008 109.475 289.869 109.441 289.749 109.371C289.624 109.298 289.527 109.201 289.458 109.081C289.385 108.957 289.348 108.816 289.348 108.659V108.648Z" fill="#9291A5"/>
</g>
<rect x="3.54321" y="2.54321" width="381.914" height="240.914" rx="16.4568" stroke="#F5FAFF" stroke-width="0.91358"/>
</g>
<defs>
<filter id="filter0_dd_2019_91" x="0.0859375" y="0.0864258" width="388.828" height="247.827" filterUnits="userSpaceOnUse" color-interpolation-filters="sRGB">
<feFlood flood-opacity="0" result="BackgroundImageFix"/>
<feColorMatrix in="SourceAlpha" type="matrix" values="0 0 0 0 0 0 0 0 0 0 0 0 0 0 0 0 0 0 127 0" result="hardAlpha"/>
<feOffset dy="1"/>
<feGaussianBlur stdDeviation="1"/>
<feColorMatrix type="matrix" values="0 0 0 0 0.0627451 0 0 0 0 0.0941176 0 0 0 0 0.156863 0 0 0 0.06 0"/>
<feBlend mode="normal" in2="BackgroundImageFix" result="effect1_dropShadow_2019_91"/>
<feColorMatrix in="SourceAlpha" type="matrix" values="0 0 0 0 0 0 0 0 0 0 0 0 0 0 0 0 0 0 127 0" result="hardAlpha"/>
<feOffset dy="1"/>
<feGaussianBlur stdDeviation="1.5"/>
<feColorMatrix type="matrix" values="0 0 0 0 0.0627451 0 0 0 0 0.0941176 0 0 0 0 0.156863 0 0 0 0.1 0"/>
<feBlend mode="normal" in2="effect1_dropShadow_2019_91" result="effect2_dropShadow_2019_91"/>
<feBlend mode="normal" in="SourceGraphic" in2="effect2_dropShadow_2019_91" result="shape"/>
</filter>
<clipPath id="clip0_2019_91">
<rect x="4" y="3" width="381" height="240" rx="16" fill="white"/>
</clipPath>
</defs>
</svg>
