<svg width="391" height="249" viewBox="0 0 391 249" fill="none" xmlns="http://www.w3.org/2000/svg">
<g filter="url(#filter0_dd_2019_1718)">
<g filter="url(#filter1_d_2019_1718)">
<rect x="5" y="3.00024" width="381" height="240" rx="16" fill="white"/>
</g>
<path d="M51.7146 216.411H52.7368V222.446C52.7368 222.984 52.6379 223.442 52.4401 223.818C52.2422 224.195 51.9633 224.481 51.6033 224.676C51.2433 224.871 50.8187 224.968 50.3295 224.968C49.8679 224.968 49.457 224.885 49.097 224.717C48.737 224.547 48.454 224.305 48.2479 223.992C48.0418 223.678 47.9387 223.306 47.9387 222.874H48.9445C48.9445 223.113 49.0036 223.322 49.1218 223.501C49.2427 223.677 49.4076 223.814 49.6164 223.913C49.8253 224.012 50.063 224.062 50.3295 224.062C50.6236 224.062 50.8737 224 51.0798 223.876C51.2859 223.752 51.4425 223.571 51.5497 223.332C51.6596 223.09 51.7146 222.795 51.7146 222.446V216.411ZM56.5168 225.001C56.1156 225.001 55.7515 224.926 55.4245 224.775C55.0974 224.621 54.8377 224.4 54.6454 224.111C54.453 223.82 54.3568 223.468 54.3568 223.056C54.3568 222.693 54.4283 222.399 54.5712 222.174C54.7141 221.946 54.9051 221.767 55.1442 221.638C55.3832 221.509 55.6471 221.412 55.9356 221.349C56.2269 221.283 56.5196 221.231 56.8136 221.193C57.1983 221.143 57.5102 221.106 57.7493 221.081C57.9912 221.054 58.167 221.008 58.277 220.945C58.3896 220.882 58.446 220.772 58.446 220.616V220.583C58.446 220.176 58.3347 219.86 58.1121 219.634C57.8922 219.409 57.5583 219.296 57.1104 219.296C56.646 219.296 56.2819 219.398 56.018 219.601C55.7542 219.805 55.5687 220.022 55.4616 220.253L54.5382 219.923C54.7031 219.538 54.9229 219.239 55.1977 219.024C55.4753 218.807 55.7776 218.656 56.1046 218.571C56.4344 218.483 56.7586 218.439 57.0774 218.439C57.2808 218.439 57.5144 218.464 57.7782 218.513C58.0447 218.56 58.3017 218.658 58.549 218.806C58.7991 218.954 59.0066 219.178 59.1715 219.478C59.3363 219.777 59.4188 220.179 59.4188 220.681V224.853H58.446V223.996H58.3965C58.3305 224.133 58.2206 224.28 58.0667 224.437C57.9128 224.593 57.7081 224.727 57.4525 224.837C57.197 224.946 56.8851 225.001 56.5168 225.001ZM56.6652 224.128C57.0499 224.128 57.3742 224.052 57.638 223.901C57.9046 223.75 58.1052 223.555 58.2399 223.315C58.3773 223.076 58.446 222.825 58.446 222.561V221.671C58.4047 221.72 58.3141 221.766 58.1739 221.807C58.0365 221.845 57.8771 221.88 57.6957 221.91C57.5171 221.937 57.3426 221.962 57.1722 221.984C57.0046 222.003 56.8686 222.02 56.7641 222.034C56.5113 222.066 56.275 222.12 56.0551 222.194C55.838 222.266 55.6622 222.374 55.5275 222.52C55.3956 222.663 55.3297 222.858 55.3297 223.105C55.3297 223.443 55.4547 223.699 55.7048 223.872C55.9576 224.042 56.2777 224.128 56.6652 224.128ZM62.1672 221.044V224.853H61.1944V218.521H62.1342V219.511H62.2167C62.365 219.189 62.5904 218.931 62.8927 218.736C63.195 218.538 63.5852 218.439 64.0634 218.439C64.4921 218.439 64.8672 218.527 65.1887 218.703C65.5102 218.876 65.7603 219.14 65.9389 219.494C66.1175 219.846 66.2068 220.291 66.2068 220.83V224.853H65.234V220.896C65.234 220.398 65.1049 220.011 64.8466 219.733C64.5882 219.453 64.2337 219.313 63.7831 219.313C63.4725 219.313 63.195 219.38 62.9504 219.515C62.7086 219.65 62.5176 219.846 62.3774 220.104C62.2373 220.363 62.1672 220.676 62.1672 221.044Z" fill="#615E83"/>
<rect x="161.34" y="205.572" width="64.0196" height="25.6078" rx="12.8039" fill="#5C64B4"/>
<path d="M177.206 213.934H178.426L181.295 220.941H181.394L184.263 213.934H185.483V222.376H184.527V215.962H184.444L181.806 222.376H180.883L178.245 215.962H178.162V222.376H177.206V213.934ZM189.264 222.524C188.863 222.524 188.499 222.449 188.172 222.297C187.845 222.144 187.585 221.922 187.393 221.634C187.2 221.342 187.104 220.991 187.104 220.578C187.104 220.216 187.175 219.922 187.318 219.696C187.461 219.468 187.652 219.29 187.891 219.16C188.13 219.031 188.394 218.935 188.683 218.872C188.974 218.806 189.267 218.754 189.561 218.715C189.946 218.666 190.257 218.629 190.496 218.604C190.738 218.577 190.914 218.531 191.024 218.468C191.137 218.405 191.193 218.295 191.193 218.138V218.105C191.193 217.699 191.082 217.382 190.859 217.157C190.639 216.932 190.305 216.819 189.858 216.819C189.393 216.819 189.029 216.921 188.765 217.124C188.501 217.328 188.316 217.545 188.209 217.775L187.285 217.446C187.45 217.061 187.67 216.761 187.945 216.547C188.222 216.33 188.525 216.179 188.852 216.094C189.182 216.006 189.506 215.962 189.825 215.962C190.028 215.962 190.262 215.986 190.525 216.036C190.792 216.083 191.049 216.18 191.296 216.329C191.546 216.477 191.754 216.701 191.919 217.001C192.083 217.3 192.166 217.701 192.166 218.204V222.376H191.193V221.518H191.144C191.078 221.656 190.968 221.803 190.814 221.959C190.66 222.116 190.455 222.249 190.2 222.359C189.944 222.469 189.632 222.524 189.264 222.524ZM189.412 221.65C189.797 221.65 190.121 221.575 190.385 221.424C190.652 221.272 190.852 221.077 190.987 220.838C191.124 220.599 191.193 220.348 191.193 220.084V219.193C191.152 219.243 191.061 219.288 190.921 219.329C190.784 219.368 190.624 219.402 190.443 219.433C190.264 219.46 190.09 219.485 189.919 219.507C189.752 219.526 189.616 219.542 189.511 219.556C189.258 219.589 189.022 219.643 188.802 219.717C188.585 219.788 188.409 219.897 188.275 220.043C188.143 220.186 188.077 220.381 188.077 220.628C188.077 220.966 188.202 221.222 188.452 221.395C188.705 221.565 189.025 221.65 189.412 221.65ZM193.942 222.376V216.044H194.881V217.001H194.947C195.063 216.687 195.272 216.433 195.574 216.238C195.876 216.043 196.217 215.945 196.596 215.945C196.668 215.945 196.757 215.947 196.864 215.949C196.971 215.952 197.052 215.956 197.107 215.962V216.951C197.074 216.943 196.999 216.93 196.881 216.914C196.765 216.895 196.643 216.885 196.514 216.885C196.206 216.885 195.931 216.95 195.689 217.079C195.45 217.205 195.261 217.381 195.12 217.606C194.983 217.829 194.914 218.083 194.914 218.369V222.376H193.942ZM200.64 222.508C200.046 222.508 199.535 222.367 199.107 222.087C198.678 221.807 198.348 221.421 198.117 220.929C197.886 220.437 197.771 219.875 197.771 219.243C197.771 218.6 197.889 218.032 198.125 217.541C198.365 217.046 198.697 216.66 199.123 216.382C199.552 216.102 200.052 215.962 200.623 215.962C201.069 215.962 201.47 216.044 201.827 216.209C202.184 216.374 202.477 216.605 202.705 216.902C202.933 217.198 203.075 217.545 203.13 217.94H202.157C202.083 217.652 201.918 217.396 201.662 217.174C201.409 216.948 201.069 216.836 200.64 216.836C200.261 216.836 199.928 216.935 199.642 217.132C199.359 217.328 199.138 217.604 198.979 217.961C198.822 218.315 198.744 218.732 198.744 219.21C198.744 219.699 198.821 220.125 198.975 220.488C199.131 220.851 199.351 221.132 199.634 221.333C199.92 221.533 200.255 221.634 200.64 221.634C200.893 221.634 201.122 221.59 201.328 221.502C201.534 221.414 201.709 221.287 201.852 221.123C201.995 220.958 202.096 220.76 202.157 220.529H203.13C203.075 220.903 202.939 221.239 202.722 221.539C202.507 221.836 202.223 222.072 201.868 222.248C201.517 222.421 201.107 222.508 200.64 222.508ZM205.525 218.567V222.376H204.552V213.934H205.525V217.033H205.607C205.755 216.706 205.978 216.447 206.275 216.254C206.574 216.059 206.973 215.962 207.47 215.962C207.902 215.962 208.28 216.048 208.604 216.221C208.928 216.392 209.18 216.654 209.358 217.009C209.54 217.361 209.63 217.808 209.63 218.353V222.376H208.657V218.419C208.657 217.916 208.527 217.527 208.266 217.252C208.008 216.974 207.649 216.836 207.19 216.836C206.871 216.836 206.585 216.903 206.333 217.038C206.083 217.172 205.885 217.369 205.739 217.627C205.596 217.885 205.525 218.199 205.525 218.567Z" fill="white"/>
<path d="M112.541 224.853V216.411H117.603V217.318H113.563V220.17H117.224V221.077H113.563V224.853H112.541ZM121.412 224.985C120.802 224.985 120.276 224.85 119.833 224.581C119.394 224.309 119.054 223.93 118.815 223.443C118.579 222.954 118.461 222.385 118.461 221.737C118.461 221.088 118.579 220.517 118.815 220.022C119.054 219.525 119.387 219.137 119.813 218.859C120.241 218.579 120.741 218.439 121.313 218.439C121.643 218.439 121.968 218.494 122.29 218.604C122.611 218.714 122.904 218.892 123.168 219.14C123.432 219.384 123.642 219.709 123.799 220.113C123.955 220.517 124.034 221.014 124.034 221.605V222.017H119.153V221.176H123.044C123.044 220.819 122.973 220.5 122.83 220.22C122.69 219.939 122.489 219.718 122.228 219.556C121.97 219.394 121.665 219.313 121.313 219.313C120.926 219.313 120.59 219.409 120.307 219.601C120.027 219.791 119.811 220.038 119.66 220.343C119.509 220.648 119.433 220.976 119.433 221.325V221.885C119.433 222.363 119.516 222.769 119.681 223.101C119.848 223.431 120.081 223.682 120.377 223.855C120.674 224.026 121.019 224.111 121.412 224.111C121.668 224.111 121.898 224.075 122.104 224.004C122.313 223.93 122.493 223.82 122.644 223.674C122.796 223.526 122.912 223.342 122.995 223.122L123.935 223.386C123.836 223.704 123.67 223.985 123.436 224.226C123.202 224.466 122.914 224.652 122.57 224.787C122.227 224.919 121.841 224.985 121.412 224.985ZM125.645 224.853V216.411H126.618V219.527H126.701C126.772 219.417 126.871 219.277 126.997 219.107C127.127 218.934 127.311 218.78 127.55 218.645C127.792 218.508 128.119 218.439 128.531 218.439C129.064 218.439 129.534 218.572 129.941 218.839C130.347 219.105 130.665 219.483 130.893 219.972C131.121 220.462 131.235 221.039 131.235 221.704C131.235 222.374 131.121 222.955 130.893 223.447C130.665 223.937 130.349 224.316 129.945 224.585C129.541 224.852 129.075 224.985 128.547 224.985C128.141 224.985 127.815 224.918 127.57 224.783C127.326 224.646 127.138 224.49 127.006 224.317C126.874 224.141 126.772 223.996 126.701 223.88H126.585V224.853H125.645ZM126.602 221.687C126.602 222.165 126.672 222.587 126.812 222.953C126.952 223.315 127.157 223.6 127.426 223.806C127.695 224.009 128.025 224.111 128.415 224.111C128.822 224.111 129.162 224.004 129.434 223.79C129.708 223.572 129.914 223.281 130.052 222.916C130.192 222.547 130.262 222.138 130.262 221.687C130.262 221.242 130.193 220.841 130.056 220.484C129.921 220.124 129.717 219.839 129.442 219.63C129.17 219.419 128.828 219.313 128.415 219.313C128.02 219.313 127.687 219.413 127.418 219.614C127.149 219.812 126.945 220.089 126.808 220.446C126.67 220.801 126.602 221.215 126.602 221.687Z" fill="#615E83"/>
<path d="M256.637 224.853H255.565L258.665 216.411H259.72L262.82 224.853H261.748L259.226 217.747H259.16L256.637 224.853ZM257.033 221.555H261.353V222.462H257.033V221.555ZM264.003 227.227V218.521H264.943V219.527H265.058C265.13 219.417 265.229 219.277 265.355 219.107C265.484 218.934 265.668 218.78 265.907 218.645C266.149 218.508 266.476 218.439 266.889 218.439C267.422 218.439 267.892 218.572 268.298 218.839C268.705 219.105 269.022 219.483 269.25 219.972C269.479 220.462 269.593 221.039 269.593 221.704C269.593 222.374 269.479 222.955 269.25 223.447C269.022 223.937 268.706 224.316 268.302 224.585C267.898 224.852 267.433 224.985 266.905 224.985C266.498 224.985 266.173 224.918 265.928 224.783C265.683 224.646 265.495 224.49 265.363 224.317C265.231 224.141 265.13 223.996 265.058 223.88H264.976V227.227H264.003ZM264.959 221.687C264.959 222.165 265.029 222.587 265.17 222.953C265.31 223.315 265.514 223.6 265.784 223.806C266.053 224.009 266.383 224.111 266.773 224.111C267.18 224.111 267.519 224.004 267.791 223.79C268.066 223.572 268.272 223.281 268.41 222.916C268.55 222.547 268.62 222.138 268.62 221.687C268.62 221.242 268.551 220.841 268.414 220.484C268.279 220.124 268.074 219.839 267.8 219.63C267.527 219.419 267.185 219.313 266.773 219.313C266.377 219.313 266.045 219.413 265.776 219.614C265.506 219.812 265.303 220.089 265.165 220.446C265.028 220.801 264.959 221.215 264.959 221.687ZM271.077 224.853V218.521H272.016V219.478H272.082C272.198 219.165 272.407 218.91 272.709 218.715C273.011 218.52 273.352 218.423 273.731 218.423C273.803 218.423 273.892 218.424 273.999 218.427C274.106 218.429 274.187 218.434 274.242 218.439V219.428C274.209 219.42 274.134 219.408 274.016 219.391C273.9 219.372 273.778 219.362 273.649 219.362C273.341 219.362 273.066 219.427 272.824 219.556C272.585 219.683 272.396 219.858 272.255 220.084C272.118 220.306 272.049 220.561 272.049 220.846V224.853H271.077Z" fill="#615E83"/>
<path d="M321.291 216.411H322.512L325.381 223.419H325.479L328.348 216.411H329.569V224.853H328.612V218.439H328.53L325.892 224.853H324.968L322.33 218.439H322.248V224.853H321.291V216.411ZM333.35 225.001C332.948 225.001 332.584 224.926 332.257 224.775C331.93 224.621 331.671 224.4 331.478 224.111C331.286 223.82 331.19 223.468 331.19 223.056C331.19 222.693 331.261 222.399 331.404 222.174C331.547 221.946 331.738 221.767 331.977 221.638C332.216 221.509 332.48 221.412 332.768 221.349C333.06 221.283 333.352 221.231 333.646 221.193C334.031 221.143 334.343 221.106 334.582 221.081C334.824 221.054 335 221.008 335.11 220.945C335.222 220.882 335.279 220.772 335.279 220.616V220.583C335.279 220.176 335.167 219.86 334.945 219.634C334.725 219.409 334.391 219.296 333.943 219.296C333.479 219.296 333.115 219.398 332.851 219.601C332.587 219.805 332.402 220.022 332.294 220.253L331.371 219.923C331.536 219.538 331.756 219.239 332.031 219.024C332.308 218.807 332.61 218.656 332.937 218.571C333.267 218.483 333.591 218.439 333.91 218.439C334.114 218.439 334.347 218.464 334.611 218.513C334.878 218.56 335.134 218.658 335.382 218.806C335.632 218.954 335.839 219.178 336.004 219.478C336.169 219.777 336.252 220.179 336.252 220.681V224.853H335.279V223.996H335.229C335.163 224.133 335.053 224.28 334.9 224.437C334.746 224.593 334.541 224.727 334.285 224.837C334.03 224.946 333.718 225.001 333.35 225.001ZM333.498 224.128C333.883 224.128 334.207 224.052 334.471 223.901C334.737 223.75 334.938 223.555 335.073 223.315C335.21 223.076 335.279 222.825 335.279 222.561V221.671C335.238 221.72 335.147 221.766 335.007 221.807C334.869 221.845 334.71 221.88 334.529 221.91C334.35 221.937 334.175 221.962 334.005 221.984C333.837 222.003 333.701 222.02 333.597 222.034C333.344 222.066 333.108 222.12 332.888 222.194C332.671 222.266 332.495 222.374 332.36 222.52C332.228 222.663 332.162 222.858 332.162 223.105C332.162 223.443 332.287 223.699 332.538 223.872C332.79 224.042 333.111 224.128 333.498 224.128ZM338.427 227.227C338.262 227.227 338.115 227.214 337.986 227.186C337.857 227.161 337.767 227.137 337.718 227.112L337.965 226.255C338.202 226.315 338.411 226.337 338.592 226.32C338.773 226.304 338.934 226.223 339.074 226.077C339.217 225.934 339.348 225.702 339.466 225.381L339.647 224.886L337.306 218.521H338.361L340.109 223.567H340.175L341.923 218.521H342.978L340.29 225.776C340.169 226.103 340.02 226.374 339.841 226.588C339.662 226.806 339.455 226.966 339.218 227.071C338.985 227.175 338.721 227.227 338.427 227.227Z" fill="#615E83"/>
<g style="mix-blend-mode:multiply" opacity="0.33">
<path d="M62.4321 132.089L29.7188 154.917V201.792H361.077V158.618C354.359 154.177 339.708 144.337 334.843 140.503C328.762 135.712 317.47 137.932 309.652 137.815C301.834 137.699 298.359 133.258 298.707 126.246C299.054 119.233 297.143 119.467 291.584 116.662C287.136 114.418 279.423 118.688 276.122 121.103C264.713 128.817 240.333 145.318 234.079 149.619C227.824 153.92 221.512 151.411 219.138 149.619C209.409 143.269 187.901 129.19 179.701 123.674C171.501 118.158 163.891 121.376 161.111 123.674C158.1 125.622 151.139 130.032 147.387 132.089C142.696 134.66 131.23 132.907 124.801 132.089C118.373 131.271 115.42 130.569 108.297 135.127C101.174 139.685 96.3963 140.094 84.4957 132.089C74.9752 125.684 65.8197 129.42 62.4321 132.089Z" fill="url(#paint0_linear_2019_1718)"/>
</g>
<path d="M31.168 154.917L63.5957 132.089C66.9538 129.42 76.0293 125.684 85.4667 132.089C97.2635 140.094 101.999 139.685 109.06 135.127C116.121 130.569 119.049 131.271 125.421 132.089C131.793 132.907 143.159 134.66 147.809 132.089C151.528 130.032 158.429 125.622 161.414 123.674C164.169 121.376 171.712 118.158 179.841 123.674C187.969 129.19 209.289 143.269 218.933 149.619C221.287 151.411 227.544 153.92 233.744 149.619C239.944 145.318 264.111 128.817 275.42 121.103C278.692 118.688 286.338 114.418 290.747 116.662C296.258 119.467 298.152 119.233 297.808 126.246C297.463 133.258 300.908 137.699 308.657 137.815C316.407 137.932 327.601 135.712 333.629 140.503C338.451 144.337 352.974 154.177 359.633 158.618" stroke="#5B35AE" stroke-width="2.90196" stroke-linecap="round" stroke-linejoin="round"/>
<line x1="194.44" y1="133.647" x2="194.44" y2="196.683" stroke="#5B35AE" stroke-width="2.17647" stroke-linecap="round"/>
<g filter="url(#filter2_d_2019_1718)">
<ellipse cx="194.242" cy="132.559" rx="8.10092" ry="5.44942" fill="#5B35AE"/>
<path d="M194.241 128.198C196.291 128.198 198.099 128.759 199.362 129.609C200.632 130.463 201.254 131.527 201.254 132.559C201.254 133.591 200.632 134.655 199.362 135.509C198.099 136.359 196.291 136.92 194.241 136.92C192.191 136.92 190.384 136.359 189.121 135.509C187.851 134.655 187.229 133.591 187.229 132.559C187.229 131.527 187.851 130.463 189.121 129.609C190.384 128.759 192.191 128.198 194.241 128.198Z" stroke="white" stroke-width="2.17647"/>
</g>
<line x1="29.7188" y1="55.9065" x2="361.077" y2="55.9065" stroke="#E5E5EF" stroke-width="0.72549"/>
<path d="M33.3607 35.6659L33.2882 34.5341L34.4344 34.1859L34.507 35.3177L33.3607 35.6659ZM33.2882 47.4333V45.9969L34.507 46.0114V47.4333H33.2882ZM33.8831 46.229C33.6025 46.229 33.3123 46.2194 33.0125 46.2C32.7223 46.1903 32.4224 46.171 32.1129 46.142C31.813 46.1033 31.5276 46.0646 31.2568 46.0259C30.9859 45.9775 30.7393 45.9243 30.5168 45.8663V44.1686C30.807 44.1977 31.1359 44.2218 31.5035 44.2412C31.871 44.2605 32.2531 44.275 32.6497 44.2847C33.0463 44.2944 33.4236 44.2992 33.7815 44.2992C34.1491 44.2992 34.4635 44.2702 34.7246 44.2122C34.9955 44.1445 35.2035 44.0332 35.3486 43.8784C35.4937 43.714 35.5662 43.4915 35.5662 43.211V42.8192C35.5662 42.5 35.4695 42.2582 35.276 42.0937C35.0922 41.9196 34.8262 41.8326 34.478 41.8326H33.5638C32.5385 41.8326 31.7501 41.6101 31.1987 41.1651C30.6571 40.7105 30.3862 39.9414 30.3862 38.858V38.3357C30.3862 37.291 30.6861 36.5268 31.2858 36.0431C31.8855 35.5595 32.7416 35.3177 33.854 35.3177C34.2506 35.3177 34.6424 35.337 35.0293 35.3757C35.4259 35.4144 35.8032 35.4628 36.1611 35.5208C36.5287 35.5692 36.8431 35.6224 37.1042 35.6804V37.378C36.6593 37.349 36.1611 37.32 35.6097 37.291C35.068 37.262 34.565 37.2475 34.1007 37.2475C33.7718 37.2475 33.4768 37.2813 33.2156 37.349C32.9641 37.4071 32.7706 37.5231 32.6352 37.6973C32.4998 37.8714 32.4321 38.118 32.4321 38.4373V38.7275C32.4321 39.1047 32.5385 39.3756 32.7513 39.54C32.9641 39.7045 33.2785 39.7867 33.6944 39.7867H34.7537C35.4018 39.7867 35.9338 39.9076 36.3497 40.1494C36.7754 40.3816 37.0897 40.7056 37.2929 41.1216C37.5057 41.5375 37.6121 42.0115 37.6121 42.5435V43.1529C37.6121 43.9945 37.4525 44.6378 37.1333 45.0828C36.8237 45.5277 36.3884 45.8324 35.8274 45.9969C35.276 46.1516 34.6279 46.229 33.8831 46.229ZM40.2728 46.142L43.465 37.5522H38.8944V35.4047H45.6705L46.2363 36.3188L42.6814 46.142H40.2728ZM51.2525 46.229C50.4787 46.229 49.7387 46.2 49.0325 46.142C48.3361 46.0936 47.7073 46.0211 47.1463 45.9243V44.1977H50.44C50.8366 44.1977 51.1606 44.1686 51.4122 44.1106C51.6637 44.0526 51.8474 43.951 51.9635 43.8059C52.0893 43.6608 52.1522 43.4577 52.1522 43.1965V42.7467C52.1522 42.4855 52.0893 42.2824 51.9635 42.1373C51.8378 41.9825 51.6685 41.8712 51.4557 41.8035C51.2525 41.7262 51.0155 41.6826 50.7447 41.6729L48.1039 41.5714V39.9173L50.6576 39.7722C51.0929 39.7528 51.4315 39.6754 51.6733 39.54C51.9152 39.4046 52.0361 39.1724 52.0361 38.8435V38.4808C52.0361 38.0939 51.9055 37.8085 51.6443 37.6247C51.3928 37.4409 50.9672 37.349 50.3674 37.349H47.3784V35.6369C47.9298 35.5498 48.5295 35.4724 49.1776 35.4047C49.8257 35.3273 50.5077 35.2983 51.2235 35.3177C51.8523 35.3273 52.3843 35.4337 52.8196 35.6369C53.2549 35.8303 53.5838 36.1254 53.8063 36.522C54.0384 36.9089 54.1545 37.3926 54.1545 37.9729V38.771C54.1545 39.0418 54.1206 39.2885 54.0529 39.511C53.9949 39.7335 53.903 39.9269 53.7772 40.0914C53.6515 40.2462 53.5064 40.3816 53.342 40.4977C53.1775 40.6041 53.0034 40.6863 52.8196 40.7443C53.0227 40.7927 53.2114 40.8846 53.3855 41.02C53.5693 41.1554 53.7289 41.3199 53.8643 41.5133C53.9997 41.6971 54.1061 41.9196 54.1835 42.1808C54.2706 42.442 54.3141 42.7273 54.3141 43.0369V43.5882C54.3141 44.4492 54.0433 45.1069 53.5016 45.5616C52.9599 46.0065 52.2102 46.229 51.2525 46.229ZM56.5211 47.4333C56.3373 47.4333 56.1777 47.4188 56.0423 47.3898C55.9068 47.3608 55.8391 47.3463 55.8391 47.3463V46.6643C55.9745 46.6643 56.0713 46.645 56.1293 46.6063C56.197 46.5676 56.2309 46.4902 56.2309 46.3741V45.9969H56.0858C55.9987 45.9969 55.9262 45.9727 55.8681 45.9243C55.8101 45.8663 55.7811 45.7841 55.7811 45.6777V44.4153C55.7811 44.1928 55.8826 44.0816 56.0858 44.0816H57.3046C57.4207 44.0816 57.4981 44.1154 57.5368 44.1831C57.5851 44.2412 57.6093 44.3186 57.6093 44.4153V46.4031C57.6093 46.6837 57.5513 46.9013 57.4352 47.0561C57.3191 47.2109 57.1789 47.3124 57.0144 47.3608C56.85 47.4092 56.6855 47.4333 56.5211 47.4333ZM62.0112 46.2C61.4115 46.2 60.8988 46.0984 60.4732 45.8953C60.0572 45.6825 59.738 45.3681 59.5155 44.9522C59.3027 44.5362 59.1963 44.0284 59.1963 43.4286V38.2051C59.1963 37.5763 59.3076 37.0492 59.53 36.6235C59.7525 36.1882 60.0766 35.8642 60.5022 35.6514C60.9375 35.4289 61.4453 35.3177 62.0257 35.3177H64.2602C64.8697 35.3177 65.3727 35.4337 65.7693 35.6659C66.1755 35.8884 66.4802 36.2173 66.6834 36.6526C66.8865 37.0782 66.9881 37.5957 66.9881 38.2051V43.4286C66.9881 44.3282 66.7463 45.015 66.2626 45.489C65.7886 45.963 65.1212 46.2 64.2602 46.2H62.0112ZM62.5191 44.2702H63.6798C64.0765 44.2702 64.3666 44.1735 64.5504 43.98C64.7439 43.7865 64.8406 43.4963 64.8406 43.1094V38.4082C64.8406 37.9826 64.7439 37.6828 64.5504 37.5086C64.357 37.3345 64.0958 37.2475 63.7669 37.2475H62.4465C62.0886 37.2475 61.8129 37.3442 61.6195 37.5377C61.4357 37.7311 61.3438 38.0213 61.3438 38.4082V43.0949C61.3438 43.5012 61.4453 43.8011 61.6485 43.9945C61.8516 44.1783 62.1418 44.2702 62.5191 44.2702ZM71.841 46.2145C71.3671 46.2145 70.8882 46.1952 70.4046 46.1565C69.9306 46.1178 69.5001 46.0597 69.1132 45.9824V44.2847H71.6379C72.3634 44.2847 72.8954 44.0622 73.234 43.6173C73.5725 43.1626 73.7418 42.4952 73.7418 41.6149C73.529 41.6826 73.292 41.7358 73.0308 41.7745C72.7793 41.8132 72.5133 41.8374 72.2328 41.8471C71.9523 41.8567 71.6476 41.8616 71.3187 41.8616C70.6125 41.8616 70.0515 41.7648 69.6356 41.5714C69.2196 41.3682 68.9197 41.0829 68.7359 40.7153C68.5618 40.3477 68.4748 39.9076 68.4748 39.3949V37.8569C68.4748 37.2571 68.586 36.7735 68.8085 36.4059C69.031 36.0286 69.3405 35.7578 69.7371 35.5933C70.1434 35.4192 70.6077 35.3322 71.1301 35.3322H72.6826C73.205 35.3322 73.6644 35.4144 74.061 35.5788C74.4673 35.7336 74.8059 36.0045 75.0767 36.3914C75.3476 36.7783 75.5507 37.32 75.6861 38.0165C75.8312 38.7033 75.9038 39.5739 75.9038 40.6282C75.9038 41.6729 75.8119 42.558 75.6281 43.2835C75.4443 43.9994 75.1783 44.5749 74.8301 45.0102C74.4818 45.4358 74.0562 45.7454 73.5532 45.9388C73.0502 46.1226 72.4795 46.2145 71.841 46.2145ZM71.9281 40.0333H73.7418C73.7418 39.482 73.7128 39.0273 73.6548 38.6694C73.5967 38.3115 73.5048 38.031 73.3791 37.8279C73.263 37.615 73.1131 37.4699 72.9293 37.3926C72.7455 37.3055 72.523 37.262 72.2618 37.262H71.6089C71.4057 37.262 71.2268 37.2958 71.072 37.3635C70.9269 37.4312 70.8157 37.5377 70.7383 37.6828C70.6609 37.8279 70.6222 38.031 70.6222 38.2922V38.9886C70.6222 39.2692 70.6657 39.4868 70.7528 39.6416C70.8495 39.7867 70.9946 39.8882 71.1881 39.9463C71.3816 40.0043 71.6282 40.0333 71.9281 40.0333ZM82.0476 46.1275V43.8639H77.3464L76.9401 42.8482L80.4225 35.4047H82.6134L79.4938 42.0357H82.0476V39.9463L82.4683 38.7129H84.195V42.0357H85.2978V43.5157L84.195 43.8639V46.1275H82.0476ZM86.6637 46.1565C86.4703 46.1565 86.3735 46.0597 86.3735 45.8663V44.3863C86.3735 44.1831 86.4703 44.0816 86.6637 44.0816H87.9116C88.1244 44.0816 88.2308 44.1831 88.2308 44.3863V45.8663C88.2308 45.9824 88.1969 46.0597 88.1292 46.0984C88.0712 46.1371 87.9986 46.1565 87.9116 46.1565H86.6637ZM89.6582 46.142V44.4153L93.2421 40.8604C93.5323 40.5799 93.7693 40.3187 93.9531 40.0769C94.1369 39.835 94.2723 39.598 94.3593 39.3659C94.4561 39.1241 94.5044 38.8677 94.5044 38.5969C94.5044 38.3357 94.4512 38.1132 94.3448 37.9294C94.2481 37.736 94.0837 37.5909 93.8515 37.4941C93.629 37.3974 93.3195 37.349 92.9229 37.349H89.9048V35.6659C90.3692 35.5788 90.8818 35.5014 91.4429 35.4337C92.0136 35.3563 92.6472 35.3177 93.3437 35.3177C94.1852 35.3177 94.843 35.4337 95.317 35.6659C95.8007 35.898 96.1441 36.2318 96.3472 36.6671C96.5503 37.1024 96.6519 37.6296 96.6519 38.2486C96.6519 38.7323 96.5842 39.1724 96.4488 39.569C96.323 39.9656 96.1344 40.3477 95.8829 40.7153C95.6314 41.0732 95.3122 41.436 94.9252 41.8035L92.5166 44.1977H96.9856V46.142H89.6582ZM102.15 46.229C101.376 46.229 100.636 46.2 99.9302 46.142C99.2337 46.0936 98.605 46.0211 98.0439 45.9243V44.1977H101.338C101.734 44.1977 102.058 44.1686 102.31 44.1106C102.561 44.0526 102.745 43.951 102.861 43.8059C102.987 43.6608 103.05 43.4577 103.05 43.1965V42.7467C103.05 42.4855 102.987 42.2824 102.861 42.1373C102.735 41.9825 102.566 41.8712 102.353 41.8035C102.15 41.7262 101.913 41.6826 101.642 41.6729L99.0016 41.5714V39.9173L101.555 39.7722C101.991 39.7528 102.329 39.6754 102.571 39.54C102.813 39.4046 102.934 39.1724 102.934 38.8435V38.4808C102.934 38.0939 102.803 37.8085 102.542 37.6247C102.29 37.4409 101.865 37.349 101.265 37.349H98.2761V35.6369C98.8275 35.5498 99.4272 35.4724 100.075 35.4047C100.723 35.3273 101.405 35.2983 102.121 35.3177C102.75 35.3273 103.282 35.4337 103.717 35.6369C104.153 35.8303 104.481 36.1254 104.704 36.522C104.936 36.9089 105.052 37.3926 105.052 37.9729V38.771C105.052 39.0418 105.018 39.2885 104.951 39.511C104.893 39.7335 104.801 39.9269 104.675 40.0914C104.549 40.2462 104.404 40.3816 104.24 40.4977C104.075 40.6041 103.901 40.6863 103.717 40.7443C103.92 40.7927 104.109 40.8846 104.283 41.02C104.467 41.1554 104.627 41.3199 104.762 41.5133C104.897 41.6971 105.004 41.9196 105.081 42.1808C105.168 42.442 105.212 42.7273 105.212 43.0369V43.5882C105.212 44.4492 104.941 45.1069 104.399 45.5616C103.858 46.0065 103.108 46.229 102.15 46.229Z" fill="#1E1B39"/>
<path d="M27.9776 28.3552C27.9776 28.0224 28.055 27.7284 28.2097 27.473C28.3568 27.2099 28.5618 27.0048 28.8249 26.8578C29.0803 26.703 29.3744 26.6256 29.7071 26.6256H36.254C36.5867 26.6256 36.8808 26.703 37.1362 26.8578C37.3993 27.0048 37.6043 27.2099 37.7514 27.473C37.9061 27.7284 37.9835 28.0224 37.9835 28.3552V28.3784C37.9835 28.7112 37.9061 29.0091 37.7514 29.2722C37.6043 29.5276 37.3993 29.7326 37.1362 29.8874C36.8808 30.0344 36.5867 30.108 36.254 30.108H29.7071C29.3744 30.108 29.0803 30.0344 28.8249 29.8874C28.5618 29.7326 28.3568 29.5276 28.2097 29.2722C28.055 29.0091 27.9776 28.7112 27.9776 28.3784V28.3552ZM34.4956 28.3552C34.4956 28.0224 34.573 27.7284 34.7278 27.473C34.8748 27.2099 35.0799 27.0048 35.343 26.8578C35.5984 26.703 35.8925 26.6256 36.2252 26.6256H42.772C43.1048 26.6256 43.3989 26.703 43.6542 26.8578C43.9173 27.0048 44.1224 27.2099 44.2695 27.473C44.4242 27.7284 44.5016 28.0224 44.5016 28.3552V28.3784C44.5016 28.7112 44.4242 29.0091 44.2695 29.2722C44.1224 29.5276 43.9173 29.7326 43.6542 29.8874C43.3989 30.0344 43.1048 30.108 42.772 30.108H36.2252C35.8925 30.108 35.5984 30.0344 35.343 29.8874C35.0799 29.7326 34.8748 29.5276 34.7278 29.2722C34.573 29.0091 34.4956 28.7112 34.4956 28.3784V28.3552ZM41.0137 28.3552C41.0137 28.0224 41.0911 27.7284 41.2459 27.473C41.3929 27.2099 41.598 27.0048 41.8611 26.8578C42.1165 26.703 42.4105 26.6256 42.7433 26.6256H49.2901C49.6229 26.6256 49.9169 26.703 50.1723 26.8578C50.4354 27.0048 50.6405 27.2099 50.7875 27.473C50.9423 27.7284 51.0197 28.0224 51.0197 28.3552V28.3784C51.0197 28.7112 50.9423 29.0091 50.7875 29.2722C50.6405 29.5276 50.4354 29.7326 50.1723 29.8874C49.9169 30.0344 49.6229 30.108 49.2901 30.108H42.7433C42.4105 30.108 42.1165 30.0344 41.8611 29.8874C41.598 29.7326 41.3929 29.5276 41.2459 29.2722C41.0911 29.0091 41.0137 28.7112 41.0137 28.3784V28.3552ZM47.5318 28.3552C47.5318 28.0224 47.6092 27.7284 47.764 27.473C47.911 27.2099 48.1161 27.0048 48.3792 26.8578C48.6345 26.703 48.9286 26.6256 49.2614 26.6256H52.6044C52.9372 26.6256 53.2313 26.703 53.4866 26.8578C53.7497 27.0048 53.9548 27.2099 54.1018 27.473C54.2566 27.7284 54.334 28.0224 54.334 28.3552V28.3784C54.334 28.7112 54.2566 29.0091 54.1018 29.2722C53.9548 29.5276 53.7497 29.7326 53.4866 29.8874C53.2313 30.0344 52.9372 30.108 52.6044 30.108H49.2614C48.9286 30.108 48.6345 30.0344 48.3792 29.8874C48.1161 29.7326 47.911 29.5276 47.764 29.2722C47.6092 29.0091 47.5318 28.7112 47.5318 28.3784V28.3552ZM57.8134 28.3552C57.8134 28.0224 57.8907 27.7284 58.0455 27.473C58.1925 27.2099 58.3976 27.0048 58.6607 26.8578C58.9161 26.703 59.2102 26.6256 59.5429 26.6256H62.886C63.2187 26.6256 63.5128 26.703 63.7682 26.8578C64.0313 27.0048 64.2364 27.2099 64.3834 27.473C64.5382 27.7284 64.6156 28.0224 64.6156 28.3552V28.3784C64.6156 28.7112 64.5382 29.0091 64.3834 29.2722C64.2364 29.5276 64.0313 29.7326 63.7682 29.8874C63.5128 30.0344 63.2187 30.108 62.886 30.108H59.5429C59.2102 30.108 58.9161 30.0344 58.6607 29.8874C58.3976 29.7326 58.1925 29.5276 58.0455 29.2722C57.8907 29.0091 57.8134 28.7112 57.8134 28.3784V28.3552ZM61.1347 28.3552C61.1347 28.0224 61.2121 27.7284 61.3669 27.473C61.5139 27.2099 61.719 27.0048 61.9821 26.8578C62.2375 26.703 62.5315 26.6256 62.8643 26.6256H66.2074C66.5401 26.6256 66.8342 26.703 67.0896 26.8578C67.3527 27.0048 67.5577 27.2099 67.7048 27.473C67.8595 27.7284 67.9369 28.0224 67.9369 28.3552V28.3784C67.9369 28.7112 67.8595 29.0091 67.7048 29.2722C67.5577 29.5276 67.3527 29.7326 67.0896 29.8874C66.8342 30.0344 66.5401 30.108 66.2074 30.108H62.8643C62.5315 30.108 62.2375 30.0344 61.9821 29.8874C61.719 29.7326 61.5139 29.5276 61.3669 29.2722C61.2121 29.0091 61.1347 28.7112 61.1347 28.3784V28.3552ZM64.4561 28.3552C64.4561 28.0224 64.5335 27.7284 64.6883 27.473C64.8353 27.2099 65.0404 27.0048 65.3035 26.8578C65.5589 26.703 65.8529 26.6256 66.1857 26.6256H72.7325C73.0653 26.6256 73.3593 26.703 73.6147 26.8578C73.8778 27.0048 74.0829 27.2099 74.2299 27.473C74.3847 27.7284 74.4621 28.0224 74.4621 28.3552V28.3784C74.4621 28.7112 74.3847 29.0091 74.2299 29.2722C74.0829 29.5276 73.8778 29.7326 73.6147 29.8874C73.3593 30.0344 73.0653 30.108 72.7325 30.108H66.1857C65.8529 30.108 65.5589 30.0344 65.3035 29.8874C65.0404 29.7326 64.8353 29.5276 64.6883 29.2722C64.5335 29.0091 64.4561 28.7112 64.4561 28.3784V28.3552ZM70.9742 28.3552C70.9742 28.0224 71.0516 27.7284 71.2064 27.473C71.3534 27.2099 71.5585 27.0048 71.8216 26.8578C72.0769 26.703 72.371 26.6256 72.7038 26.6256H79.2506C79.5834 26.6256 79.8774 26.703 80.1328 26.8578C80.3959 27.0048 80.601 27.2099 80.748 27.473C80.9028 27.7284 80.9802 28.0224 80.9802 28.3552V28.3784C80.9802 28.7112 80.9028 29.0091 80.748 29.2722C80.601 29.5276 80.3959 29.7326 80.1328 29.8874C79.8774 30.0344 79.5834 30.108 79.2506 30.108H72.7038C72.371 30.108 72.0769 30.0344 71.8216 29.8874C71.5585 29.7326 71.3534 29.5276 71.2064 29.2722C71.0516 29.0091 70.9742 28.7112 70.9742 28.3784V28.3552Z" fill="#9291A5"/>
</g>
<defs>
<filter id="filter0_dd_2019_1718" x="2" y="1" width="387" height="246" filterUnits="userSpaceOnUse" color-interpolation-filters="sRGB">
<feFlood flood-opacity="0" result="BackgroundImageFix"/>
<feColorMatrix in="SourceAlpha" type="matrix" values="0 0 0 0 0 0 0 0 0 0 0 0 0 0 0 0 0 0 127 0" result="hardAlpha"/>
<feOffset dy="1"/>
<feGaussianBlur stdDeviation="1"/>
<feColorMatrix type="matrix" values="0 0 0 0 0.0627451 0 0 0 0 0.0941176 0 0 0 0 0.156863 0 0 0 0.06 0"/>
<feBlend mode="normal" in2="BackgroundImageFix" result="effect1_dropShadow_2019_1718"/>
<feColorMatrix in="SourceAlpha" type="matrix" values="0 0 0 0 0 0 0 0 0 0 0 0 0 0 0 0 0 0 127 0" result="hardAlpha"/>
<feOffset dy="1"/>
<feGaussianBlur stdDeviation="1.5"/>
<feColorMatrix type="matrix" values="0 0 0 0 0.0627451 0 0 0 0 0.0941176 0 0 0 0 0.156863 0 0 0 0.1 0"/>
<feBlend mode="normal" in2="effect1_dropShadow_2019_1718" result="effect2_dropShadow_2019_1718"/>
<feBlend mode="normal" in="SourceGraphic" in2="effect2_dropShadow_2019_1718" result="shape"/>
</filter>
<filter id="filter1_d_2019_1718" x="0.647059" y="0.0982839" width="389.706" height="248.706" filterUnits="userSpaceOnUse" color-interpolation-filters="sRGB">
<feFlood flood-opacity="0" result="BackgroundImageFix"/>
<feColorMatrix in="SourceAlpha" type="matrix" values="0 0 0 0 0 0 0 0 0 0 0 0 0 0 0 0 0 0 127 0" result="hardAlpha"/>
<feOffset dy="1.45098"/>
<feGaussianBlur stdDeviation="2.17647"/>
<feComposite in2="hardAlpha" operator="out"/>
<feColorMatrix type="matrix" values="0 0 0 0 0.0509804 0 0 0 0 0.0392157 0 0 0 0 0.172549 0 0 0 0.08 0"/>
<feBlend mode="normal" in2="BackgroundImageFix" result="effect1_dropShadow_2019_1718"/>
<feBlend mode="normal" in="SourceGraphic" in2="effect1_dropShadow_2019_1718" result="shape"/>
</filter>
<filter id="filter2_d_2019_1718" x="180.337" y="126.384" width="27.811" height="22.5066" filterUnits="userSpaceOnUse" color-interpolation-filters="sRGB">
<feFlood flood-opacity="0" result="BackgroundImageFix"/>
<feColorMatrix in="SourceAlpha" type="matrix" values="0 0 0 0 0 0 0 0 0 0 0 0 0 0 0 0 0 0 127 0" result="hardAlpha"/>
<feOffset dy="5.07843"/>
<feGaussianBlur stdDeviation="2.90196"/>
<feComposite in2="hardAlpha" operator="out"/>
<feColorMatrix type="matrix" values="0 0 0 0 0.290196 0 0 0 0 0.227451 0 0 0 0 1 0 0 0 0.13 0"/>
<feBlend mode="normal" in2="BackgroundImageFix" result="effect1_dropShadow_2019_1718"/>
<feBlend mode="normal" in="SourceGraphic" in2="effect1_dropShadow_2019_1718" result="shape"/>
</filter>
<linearGradient id="paint0_linear_2019_1718" x1="195.398" y1="154.049" x2="195.398" y2="201.792" gradientUnits="userSpaceOnUse">
<stop stop-color="#5B35AE" stop-opacity="0.4"/>
<stop offset="0.46679" stop-color="#5C64B4"/>
<stop offset="1" stop-color="white" stop-opacity="0.31"/>
</linearGradient>
</defs>
</svg>
