<svg width="1160" height="283" viewBox="0 0 1160 283" fill="none" xmlns="http://www.w3.org/2000/svg">
<g clip-path="url(#clip0_36_4552)">
<g filter="url(#filter0_iii_36_4552)">
<g clip-path="url(#clip1_36_4552)">
<path d="M0 32C0 14.3269 14.3269 0 32 0H1128C1145.67 0 1160 14.3269 1160 32V251C1160 268.673 1145.67 283 1128 283H32C14.3269 283 0 268.673 0 251V32Z" fill="#070312" fill-opacity="0.04"/>
<path d="M61.6192 206.33V207.601H56.5594V206.33H61.6192ZM58.0341 203.991H59.5342V213.297C59.5342 213.721 59.5957 214.038 59.7186 214.25C59.8457 214.458 60.0067 214.598 60.2017 214.67C60.4008 214.738 60.6106 214.772 60.831 214.772C60.9962 214.772 61.1318 214.763 61.2378 214.746C61.3437 214.725 61.4285 214.708 61.492 214.695L61.7972 216.043C61.6955 216.081 61.5535 216.119 61.3713 216.157C61.1891 216.2 60.9581 216.221 60.6784 216.221C60.2546 216.221 59.8393 216.13 59.4325 215.948C59.0299 215.765 58.6952 215.488 58.4282 215.115C58.1655 214.742 58.0341 214.272 58.0341 213.704V203.991ZM67.5873 216.297C66.7059 216.297 65.9325 216.087 65.2672 215.668C64.6061 215.248 64.0891 214.661 63.7162 213.907C63.3475 213.153 63.1632 212.271 63.1632 211.263C63.1632 210.246 63.3475 209.358 63.7162 208.599C64.0891 207.841 64.6061 207.252 65.2672 206.832C65.9325 206.413 66.7059 206.203 67.5873 206.203C68.4688 206.203 69.24 206.413 69.9011 206.832C70.5664 207.252 71.0834 207.841 71.4521 208.599C71.825 209.358 72.0115 210.246 72.0115 211.263C72.0115 212.271 71.825 213.153 71.4521 213.907C71.0834 214.661 70.5664 215.248 69.9011 215.668C69.24 216.087 68.4688 216.297 67.5873 216.297ZM67.5873 214.95C68.2569 214.95 68.8078 214.778 69.24 214.435C69.6723 214.091 69.9922 213.64 70.1999 213.081C70.4075 212.521 70.5113 211.915 70.5113 211.263C70.5113 210.61 70.4075 210.002 70.1999 209.438C69.9922 208.875 69.6723 208.419 69.24 208.072C68.8078 207.724 68.2569 207.551 67.5873 207.551C66.9178 207.551 66.3669 207.724 65.9346 208.072C65.5024 208.419 65.1825 208.875 64.9748 209.438C64.7672 210.002 64.6633 210.61 64.6633 211.263C64.6633 211.915 64.7672 212.521 64.9748 213.081C65.1825 213.64 65.5024 214.091 65.9346 214.435C66.3669 214.778 66.9178 214.95 67.5873 214.95ZM80.3046 212.102V206.33H81.8047V216.094H80.3046V214.441H80.2028C79.974 214.937 79.618 215.359 79.135 215.706C78.6519 216.049 78.0416 216.221 77.3043 216.221C76.694 216.221 76.1516 216.087 75.677 215.82C75.2024 215.549 74.8295 215.142 74.5582 214.6C74.287 214.053 74.1514 213.365 74.1514 212.534V206.33H75.6516V212.432C75.6516 213.144 75.8507 213.712 76.2491 214.136C76.6517 214.56 77.1644 214.772 77.7874 214.772C78.1603 214.772 78.5396 214.676 78.9252 214.486C79.3151 214.295 79.6414 214.002 79.9041 213.608C80.1711 213.214 80.3046 212.712 80.3046 212.102ZM84.4023 216.094V206.33H85.8516V207.805H85.9533C86.1313 207.322 86.4533 206.93 86.9195 206.629C87.3856 206.328 87.9111 206.178 88.4959 206.178C88.6061 206.178 88.7438 206.18 88.9091 206.184C89.0744 206.188 89.1994 206.195 89.2841 206.203V207.729C89.2333 207.716 89.1167 207.697 88.9345 207.671C88.7565 207.642 88.568 207.627 88.3688 207.627C87.8942 207.627 87.4704 207.726 87.0975 207.926C86.7288 208.121 86.4364 208.392 86.2203 208.739C86.0084 209.082 85.9025 209.474 85.9025 209.915V216.094H84.4023ZM97.8283 208.517L96.4807 208.898C96.3959 208.674 96.2709 208.455 96.1057 208.243C95.9446 208.027 95.7243 207.849 95.4446 207.709C95.1649 207.57 94.8068 207.5 94.3703 207.5C93.7728 207.5 93.2749 207.637 92.8765 207.913C92.4824 208.184 92.2854 208.529 92.2854 208.949C92.2854 209.322 92.421 209.616 92.6922 209.833C92.9634 210.049 93.3872 210.229 93.9635 210.373L95.4128 210.729C96.2858 210.941 96.9362 211.265 97.3642 211.701C97.7923 212.134 98.0063 212.691 98.0063 213.373C98.0063 213.933 97.8452 214.433 97.5232 214.873C97.2053 215.314 96.7604 215.662 96.1883 215.916C95.6162 216.17 94.9509 216.297 94.1923 216.297C93.1965 216.297 92.3723 216.081 91.7196 215.649C91.067 215.217 90.6539 214.585 90.4801 213.755L91.904 213.399C92.0396 213.924 92.296 214.318 92.6731 214.581C93.0545 214.844 93.5524 214.975 94.1669 214.975C94.8661 214.975 95.4213 214.827 95.8323 214.53C96.2476 214.229 96.4553 213.869 96.4553 213.449C96.4553 213.11 96.3366 212.826 96.0993 212.598C95.862 212.365 95.4975 212.191 95.006 212.076L93.3787 211.695C92.4846 211.483 91.8277 211.155 91.4082 210.71C90.9929 210.261 90.7852 209.699 90.7852 209.025C90.7852 208.474 90.9399 207.987 91.2493 207.563C91.5629 207.14 91.9887 206.807 92.5269 206.565C93.0694 206.324 93.6838 206.203 94.3703 206.203C95.3365 206.203 96.0951 206.415 96.646 206.839C97.2011 207.262 97.5952 207.822 97.8283 208.517Z" fill="white" fill-opacity="0.72"/>
</g>
</g>
</g>
<defs>
<filter id="filter0_iii_36_4552" x="0" y="0" width="1160.5" height="315" filterUnits="userSpaceOnUse" color-interpolation-filters="sRGB">
<feFlood flood-opacity="0" result="BackgroundImageFix"/>
<feBlend mode="normal" in="SourceGraphic" in2="BackgroundImageFix" result="shape"/>
<feColorMatrix in="SourceAlpha" type="matrix" values="0 0 0 0 0 0 0 0 0 0 0 0 0 0 0 0 0 0 127 0" result="hardAlpha"/>
<feOffset dy="32"/>
<feGaussianBlur stdDeviation="32"/>
<feComposite in2="hardAlpha" operator="arithmetic" k2="-1" k3="1"/>
<feColorMatrix type="matrix" values="0 0 0 0 0.360784 0 0 0 0 0.227451 0 0 0 0 0.894118 0 0 0 0.08 0"/>
<feBlend mode="normal" in2="shape" result="effect1_innerShadow_36_4552"/>
<feColorMatrix in="SourceAlpha" type="matrix" values="0 0 0 0 0 0 0 0 0 0 0 0 0 0 0 0 0 0 127 0" result="hardAlpha"/>
<feMorphology radius="0.5" operator="dilate" in="SourceAlpha" result="effect2_innerShadow_36_4552"/>
<feOffset dx="1" dy="1"/>
<feGaussianBlur stdDeviation="0.5"/>
<feComposite in2="hardAlpha" operator="arithmetic" k2="-1" k3="1"/>
<feColorMatrix type="matrix" values="0 0 0 0 0.360784 0 0 0 0 0.227451 0 0 0 0 0.894118 0 0 0 0.5 0"/>
<feBlend mode="normal" in2="effect1_innerShadow_36_4552" result="effect2_innerShadow_36_4552"/>
<feColorMatrix in="SourceAlpha" type="matrix" values="0 0 0 0 0 0 0 0 0 0 0 0 0 0 0 0 0 0 127 0" result="hardAlpha"/>
<feOffset/>
<feGaussianBlur stdDeviation="0.5"/>
<feComposite in2="hardAlpha" operator="arithmetic" k2="-1" k3="1"/>
<feColorMatrix type="matrix" values="0 0 0 0 1 0 0 0 0 1 0 0 0 0 1 0 0 0 0.4 0"/>
<feBlend mode="normal" in2="effect2_innerShadow_36_4552" result="effect3_innerShadow_36_4552"/>
</filter>
<clipPath id="clip0_36_4552">
<rect width="1160" height="283" fill="white"/>
</clipPath>
<clipPath id="clip1_36_4552">
<path d="M0 32C0 14.3269 14.3269 0 32 0H1128C1145.67 0 1160 14.3269 1160 32V251C1160 268.673 1145.67 283 1128 283H32C14.3269 283 0 268.673 0 251V32Z" fill="white"/>
</clipPath>
</defs>
</svg>
