<svg width="397" height="387" viewBox="0 0 397 387" fill="none" xmlns="http://www.w3.org/2000/svg">
<path d="M289.737 280.338H47.5273V134.897C47.5273 128.942 52.3545 124.115 58.3093 124.115H278.955C284.91 124.115 289.737 128.942 289.737 134.897V280.338Z" fill="url(#paint0_linear_137_6510)"/>
<path d="M51.7891 140.665V271.16H285.476V140.665C285.476 136.594 282.177 133.294 278.106 133.294H59.1603C55.0894 133.293 51.7891 136.594 51.7891 140.665Z" fill="url(#paint1_linear_137_6510)"/>
<path d="M54.7031 268.766V140.988C54.7031 138.061 57.0759 135.688 60.003 135.688H277.26C280.188 135.688 282.56 138.061 282.56 140.988V268.766" fill="white"/>
<path d="M28.6875 285.591V293.791C28.6875 296.692 31.0396 299.045 33.9408 299.045H303.32C306.221 299.045 308.573 296.692 308.573 293.791V285.591C308.573 282.69 306.221 280.338 303.32 280.338H33.9417C31.0396 280.338 28.6875 282.69 28.6875 285.591Z" fill="url(#paint2_linear_137_6510)"/>
<path d="M303.32 292.765H33.9408C31.0396 292.765 28.6875 290.413 28.6875 287.511V293.79C28.6875 296.691 31.0396 299.045 33.9408 299.045H303.32C306.221 299.045 308.573 296.692 308.573 293.79V287.511C308.573 290.413 306.221 292.765 303.32 292.765Z" fill="url(#paint3_linear_137_6510)"/>
<path d="M188.367 275.721H148.896C147.904 275.721 147.102 274.917 147.102 273.926C147.102 272.935 147.904 272.132 148.896 272.132H188.367C189.358 272.132 190.161 272.935 190.161 273.926C190.161 274.918 189.358 275.721 188.367 275.721Z" fill="white"/>
<path d="M262.912 156.924H201.695V161.735H262.912V156.924Z" fill="url(#paint4_linear_137_6510)"/>
<path d="M242.923 227.163H201.695V231.012H242.923V227.163Z" fill="url(#paint5_linear_137_6510)"/>
<path d="M242.923 234.86H201.695V238.709H242.923V234.86Z" fill="url(#paint6_linear_137_6510)"/>
<path d="M242.923 242.558H201.695V246.407H242.923V242.558Z" fill="url(#paint7_linear_137_6510)"/>
<path d="M242.923 250.256H201.695V254.104H242.923V250.256Z" fill="url(#paint8_linear_137_6510)"/>
<path d="M262.912 169.432H201.695V221.39H262.912V169.432Z" fill="url(#paint9_linear_137_6510)"/>
<path d="M262.912 227.163H245.164V254.104H262.912V227.163Z" fill="url(#paint10_linear_137_6510)"/>
<path d="M85.5114 209.498H72.6133V254.105H85.5114V209.498Z" fill="url(#paint11_linear_137_6510)"/>
<path d="M103.465 223.072H90.5664V254.105H103.465V223.072Z" fill="url(#paint12_linear_137_6510)"/>
<path d="M121.418 199.335H108.52V254.105H121.418V199.335Z" fill="url(#paint13_linear_137_6510)"/>
<path d="M139.371 181.187H126.473V254.105H139.371V181.187Z" fill="url(#paint14_linear_137_6510)"/>
<path d="M170.534 187.368C162.141 187.368 155.312 180.539 155.312 172.146C155.312 163.753 162.141 156.925 170.534 156.925C178.927 156.925 185.756 163.753 185.756 172.146C185.756 180.539 178.927 187.368 170.534 187.368ZM170.534 162.952C165.465 162.952 161.34 167.077 161.34 172.146C161.34 177.216 165.465 181.34 170.534 181.34C175.603 181.34 179.728 177.215 179.728 172.146C179.728 167.077 175.603 162.952 170.534 162.952Z" fill="url(#paint15_linear_137_6510)"/>
<path d="M166.832 186.91C160.05 185.209 155.312 179.138 155.312 172.146C155.312 163.753 162.141 156.925 170.534 156.925C178.927 156.925 185.756 163.753 185.756 172.146H179.728C179.728 167.077 175.603 162.952 170.534 162.952C165.465 162.952 161.34 167.077 161.34 172.146C161.34 176.369 164.201 180.037 168.298 181.064L166.832 186.91Z" fill="url(#paint16_linear_137_6510)"/>
<path d="M170.534 220.736C162.141 220.736 155.312 213.907 155.312 205.514C155.312 197.121 162.141 190.294 170.534 190.294C178.927 190.294 185.756 197.122 185.756 205.514C185.756 213.908 178.927 220.736 170.534 220.736ZM170.534 196.321C165.465 196.321 161.34 200.446 161.34 205.515C161.34 210.585 165.465 214.709 170.534 214.709C175.603 214.709 179.728 210.585 179.728 205.515C179.728 200.446 175.603 196.321 170.534 196.321Z" fill="url(#paint17_linear_137_6510)"/>
<path d="M170.534 220.736C162.141 220.736 155.312 213.907 155.312 205.514C155.312 200.778 157.566 196.242 161.342 193.382L164.981 198.186C162.701 199.914 161.34 202.653 161.34 205.514C161.34 210.584 165.465 214.708 170.534 214.708C175.603 214.708 179.728 210.584 179.728 205.514H185.756C185.756 213.908 178.927 220.736 170.534 220.736Z" fill="url(#paint18_linear_137_6510)"/>
<path d="M170.534 254.105C162.141 254.105 155.312 247.277 155.312 238.884C155.312 230.491 162.141 223.663 170.534 223.663C178.927 223.663 185.756 230.491 185.756 238.884C185.756 247.277 178.927 254.105 170.534 254.105ZM170.534 229.689C165.465 229.689 161.34 233.814 161.34 238.884C161.34 243.953 165.465 248.078 170.534 248.078C175.603 248.078 179.728 243.953 179.728 238.884C179.728 233.814 175.603 229.689 170.534 229.689Z" fill="url(#paint19_linear_137_6510)"/>
<path d="M185.757 238.884H179.73C179.73 233.814 175.605 229.689 170.536 229.689C166.898 229.689 163.597 231.84 162.126 235.167L156.613 232.73C159.048 227.222 164.513 223.663 170.536 223.663C178.929 223.663 185.757 230.491 185.757 238.884Z" fill="url(#paint20_linear_137_6510)"/>
<g opacity="0.2">
<path d="M142.706 268.765H157.276L54.7031 166.192V180.763L142.706 268.765Z" fill="url(#paint21_linear_137_6510)"/>
<path d="M54.7031 147.139V154.985L168.484 268.766H176.33L54.7031 147.139Z" fill="url(#paint22_linear_137_6510)"/>
<path d="M246.941 268.766H282.562V267.401L150.849 135.688H113.863L246.941 268.766Z" fill="url(#paint23_linear_137_6510)"/>
<path d="M194.559 135.688H169.902L282.562 248.347V223.691L194.559 135.688Z" fill="url(#paint24_linear_137_6510)"/>
</g>
<path d="M95.759 80.1498C94.46 78.85 92.3456 78.8509 91.0484 80.1498C89.7495 81.4488 89.7495 83.5614 91.0484 84.8603C91.6979 85.5098 92.551 85.8346 93.4042 85.8346C93.9666 85.8346 94.5237 85.6794 95.027 85.3968L108.897 99.2673V181.368H110.692V98.5237L96.2954 84.1274C97.0068 82.8599 96.8373 81.2272 95.759 80.1498ZM92.3169 83.5919C91.7177 82.9926 91.7177 82.0175 92.3169 81.4183C92.6165 81.1187 93.0103 80.9688 93.4042 80.9688C93.7971 80.9688 94.1909 81.1187 94.4905 81.4183C95.0898 82.0175 95.0898 82.9926 94.4905 83.5919C93.8913 84.1911 92.9161 84.1902 92.3169 83.5919Z" fill="#6A737F"/>
<path d="M269.53 78.3557C268.232 77.0567 266.117 77.0576 264.819 78.3557C263.741 79.4331 263.572 81.0657 264.283 82.3342L249.887 96.7304V153.509H251.681V97.4741L265.551 83.6036C266.056 83.8861 266.613 84.0413 267.175 84.0413C268.027 84.0413 268.88 83.7166 269.53 83.0671C270.829 81.7673 270.829 79.6538 269.53 78.3557ZM268.261 81.7978C267.661 82.3979 266.686 82.3961 266.088 81.7978C265.489 81.1985 265.489 80.2234 266.088 79.6242C266.387 79.3245 266.78 79.1747 267.175 79.1747C267.569 79.1747 267.962 79.3245 268.261 79.6242C268.86 80.2234 268.86 81.1985 268.261 81.7978Z" fill="#6A737F"/>
<path d="M290.66 180.043C279.652 169.035 261.804 169.035 250.795 180.043C239.787 191.051 239.787 208.899 250.795 219.908C260.996 230.108 277.067 230.849 288.129 222.145L298.249 232.266C297.236 234.031 297.48 236.319 298.988 237.828L317.46 256.301C319.264 258.106 322.19 258.106 323.994 256.301L327.052 253.243C328.856 251.439 328.856 248.512 327.052 246.708L308.58 228.236C307.072 226.728 304.783 226.485 303.017 227.498L292.896 217.377C301.602 206.314 300.861 190.243 290.66 180.043ZM257.714 212.988C250.527 205.801 250.527 194.149 257.714 186.963C264.902 179.775 276.554 179.775 283.74 186.963C290.927 194.15 290.927 205.802 283.74 212.988C276.554 220.175 264.902 220.175 257.714 212.988Z" fill="url(#paint25_linear_137_6510)"/>
<path d="M366.416 58.5232C366.416 41.8081 352.348 28.378 335.406 29.4294C321.109 30.3157 309.382 41.7946 308.214 56.0706C307.57 63.9433 310.06 71.224 314.568 76.8092C316.856 79.6439 318.8 82.7648 319.865 86.2491C322.144 93.701 329.066 99.122 337.265 99.122C345.415 99.122 352.305 93.7638 354.624 86.3791C355.66 83.0788 357.297 79.9713 359.531 77.3303C363.825 72.2538 366.416 65.6926 366.416 58.5232Z" fill="url(#paint26_linear_137_6510)"/>
<path d="M344.332 114.557H330.191C325.113 114.557 320.996 110.441 320.996 105.362V89.0974H353.526V105.362C353.527 110.441 349.41 114.557 344.332 114.557Z" fill="url(#paint27_linear_137_6510)"/>
<path d="M354.725 98.0931H319.8C318.454 98.0931 317.363 97.0023 317.363 95.6567C317.363 94.3111 318.454 93.2202 319.8 93.2202H354.725C356.071 93.2202 357.162 94.3111 357.162 95.6567C357.163 97.0023 356.071 98.0931 354.725 98.0931Z" fill="url(#paint28_linear_137_6510)"/>
<path d="M354.725 107.333H319.8C318.454 107.333 317.363 106.242 317.363 104.896C317.363 103.551 318.454 102.46 319.8 102.46H354.725C356.071 102.46 357.162 103.551 357.162 104.896C357.163 106.242 356.071 107.333 354.725 107.333Z" fill="url(#paint29_linear_137_6510)"/>
<path d="M337.261 23.5491C335.859 23.5491 334.721 22.4126 334.721 21.0095V2.5397C334.721 1.13757 335.859 9.15527e-05 337.261 9.15527e-05C338.663 9.15527e-05 339.801 1.13757 339.801 2.5397V21.0095C339.801 22.4126 338.663 23.5491 337.261 23.5491ZM312.075 30.3902L299.014 17.3297C298.023 16.3385 296.415 16.3385 295.422 17.3297C294.43 18.3219 294.43 19.9295 295.422 20.9216L308.483 33.9821C309.475 34.9734 311.083 34.9734 312.075 33.9821C313.066 32.9899 313.066 31.3815 312.075 30.3902ZM299.103 56.6278H280.633C279.231 56.6278 278.094 57.7644 278.094 59.1674C278.094 60.5704 279.23 61.707 280.633 61.707H299.103C300.505 61.707 301.643 60.5704 301.643 59.1674C301.643 57.7653 300.505 56.6278 299.103 56.6278ZM393.889 56.6278H375.419C374.016 56.6278 372.879 57.7644 372.879 59.1674C372.879 60.5704 374.017 61.707 375.419 61.707H393.889C395.292 61.707 396.428 60.5704 396.428 59.1674C396.428 57.7653 395.291 56.6278 393.889 56.6278ZM375.507 17.3297L362.446 30.3902C361.454 31.3824 361.454 32.9899 362.446 33.9821C363.439 34.9734 365.046 34.9734 366.038 33.9821L379.099 20.9216C380.091 19.9304 380.091 18.3219 379.099 17.3297C378.107 16.3385 376.499 16.3385 375.507 17.3297Z" fill="url(#paint30_linear_137_6510)"/>
<path d="M55.9898 91.2326C70.0056 86.1794 80.0268 72.7655 80.0268 57.0075H43.6523L55.9898 91.2326Z" fill="url(#paint31_linear_137_6510)"/>
<path d="M43.6504 20.6329C37.9782 20.6329 32.6092 21.9328 27.8242 24.2481L43.6504 57.0074H80.0249C80.0249 36.9184 63.7394 20.6329 43.6504 20.6329Z" fill="url(#paint32_linear_137_6510)"/>
<path d="M43.6525 93.3829C47.9845 93.3829 52.1379 92.6222 55.9908 91.2326L43.6525 57.0075L10.5586 72.1017C16.2936 84.6544 28.9495 93.3829 43.6525 93.3829Z" fill="url(#paint33_linear_137_6510)"/>
<path d="M0 54.5953C0 59.9822 1.18056 65.0901 3.28151 69.6894L36.3754 54.5953L20.5492 21.836C8.38853 27.7217 0 40.1784 0 54.5953Z" fill="url(#paint34_linear_137_6510)"/>
<defs>
<linearGradient id="paint0_linear_137_6510" x1="168.632" y1="286.767" x2="168.632" y2="138.948" gradientUnits="userSpaceOnUse">
<stop stop-color="#99A1AD"/>
<stop offset="1" stop-color="#BECCD4"/>
</linearGradient>
<linearGradient id="paint1_linear_137_6510" x1="194.088" y1="229.84" x2="446.69" y2="482.442" gradientUnits="userSpaceOnUse">
<stop stop-color="#99A1AD"/>
<stop offset="1" stop-color="#BECCD4"/>
</linearGradient>
<linearGradient id="paint2_linear_137_6510" x1="168.631" y1="298.918" x2="168.631" y2="279.058" gradientUnits="userSpaceOnUse">
<stop stop-color="#99A1AD"/>
<stop offset="1" stop-color="#BECCD4"/>
</linearGradient>
<linearGradient id="paint3_linear_137_6510" x1="168.63" y1="292.768" x2="168.63" y2="304.85" gradientUnits="userSpaceOnUse">
<stop stop-color="#99A1AD"/>
<stop offset="1" stop-color="#BECCD4"/>
</linearGradient>
<linearGradient id="paint4_linear_137_6510" x1="232.304" y1="161.994" x2="232.304" y2="230.958" gradientUnits="userSpaceOnUse">
<stop stop-color="#4638A5"/>
<stop offset="1" stop-color="#7C6FD1"/>
</linearGradient>
<linearGradient id="paint5_linear_137_6510" x1="222.31" y1="161.994" x2="222.31" y2="230.957" gradientUnits="userSpaceOnUse">
<stop stop-color="#4638A5"/>
<stop offset="1" stop-color="#7C6FD1"/>
</linearGradient>
<linearGradient id="paint6_linear_137_6510" x1="222.31" y1="161.993" x2="222.31" y2="230.957" gradientUnits="userSpaceOnUse">
<stop stop-color="#4638A5"/>
<stop offset="1" stop-color="#7C6FD1"/>
</linearGradient>
<linearGradient id="paint7_linear_137_6510" x1="222.31" y1="161.995" x2="222.31" y2="230.958" gradientUnits="userSpaceOnUse">
<stop stop-color="#4638A5"/>
<stop offset="1" stop-color="#7C6FD1"/>
</linearGradient>
<linearGradient id="paint8_linear_137_6510" x1="222.31" y1="161.992" x2="222.31" y2="230.957" gradientUnits="userSpaceOnUse">
<stop stop-color="#4638A5"/>
<stop offset="1" stop-color="#7C6FD1"/>
</linearGradient>
<linearGradient id="paint9_linear_137_6510" x1="232.304" y1="161.994" x2="232.304" y2="230.958" gradientUnits="userSpaceOnUse">
<stop stop-color="#4638A5"/>
<stop offset="1" stop-color="#7C6FD1"/>
</linearGradient>
<linearGradient id="paint10_linear_137_6510" x1="254.038" y1="161.994" x2="254.038" y2="230.958" gradientUnits="userSpaceOnUse">
<stop stop-color="#4638A5"/>
<stop offset="1" stop-color="#7C6FD1"/>
</linearGradient>
<linearGradient id="paint11_linear_137_6510" x1="79.0625" y1="251.456" x2="79.0625" y2="212.483" gradientUnits="userSpaceOnUse">
<stop stop-color="#4638A5"/>
<stop offset="1" stop-color="#7C6FD1"/>
</linearGradient>
<linearGradient id="paint12_linear_137_6510" x1="97.0157" y1="251.54" x2="97.0157" y2="213.802" gradientUnits="userSpaceOnUse">
<stop stop-color="#4C7DAF"/>
<stop offset="1" stop-color="#78CAC5"/>
</linearGradient>
<linearGradient id="paint13_linear_137_6510" x1="120.459" y1="241.628" x2="103.146" y2="237.792" gradientUnits="userSpaceOnUse">
<stop stop-color="#A23B7C"/>
<stop offset="1" stop-color="#DB7198"/>
</linearGradient>
<linearGradient id="paint14_linear_137_6510" x1="132.921" y1="250.418" x2="132.921" y2="196.173" gradientUnits="userSpaceOnUse">
<stop stop-color="#A23B7C"/>
<stop offset="1" stop-color="#DB7198"/>
</linearGradient>
<linearGradient id="paint15_linear_137_6510" x1="155.313" y1="172.146" x2="185.755" y2="172.146" gradientUnits="userSpaceOnUse">
<stop stop-color="#99A1AD"/>
<stop offset="1" stop-color="#CCD1DB"/>
</linearGradient>
<linearGradient id="paint16_linear_137_6510" x1="155.313" y1="171.917" x2="185.755" y2="171.917" gradientUnits="userSpaceOnUse">
<stop stop-color="#4638A5"/>
<stop offset="1" stop-color="#7C6FD1"/>
</linearGradient>
<linearGradient id="paint17_linear_137_6510" x1="155.312" y1="205.515" x2="185.755" y2="205.515" gradientUnits="userSpaceOnUse">
<stop stop-color="#99A1AD"/>
<stop offset="1" stop-color="#CCD1DB"/>
</linearGradient>
<linearGradient id="paint18_linear_137_6510" x1="155.312" y1="207.059" x2="185.755" y2="207.059" gradientUnits="userSpaceOnUse">
<stop stop-color="#4D809A"/>
<stop offset="1" stop-color="#78CAC5"/>
</linearGradient>
<linearGradient id="paint19_linear_137_6510" x1="183.494" y1="247.17" x2="160.755" y2="225.775" gradientUnits="userSpaceOnUse">
<stop stop-color="#A23B7C"/>
<stop offset="1" stop-color="#DB7198"/>
</linearGradient>
<linearGradient id="paint20_linear_137_6510" x1="156.614" y1="231.273" x2="185.757" y2="231.273" gradientUnits="userSpaceOnUse">
<stop stop-color="#99A1AD"/>
<stop offset="1" stop-color="#CCD1DB"/>
</linearGradient>
<linearGradient id="paint21_linear_137_6510" x1="274.505" y1="393.279" x2="20.5218" y2="139.296" gradientUnits="userSpaceOnUse">
<stop stop-color="white"/>
<stop offset="1" stop-color="#78CAC5"/>
</linearGradient>
<linearGradient id="paint22_linear_137_6510" x1="285.713" y1="382.071" x2="31.729" y2="128.087" gradientUnits="userSpaceOnUse">
<stop stop-color="white"/>
<stop offset="1" stop-color="#78CAC5"/>
</linearGradient>
<linearGradient id="paint23_linear_137_6510" x1="332.228" y1="335.559" x2="78.2445" y2="81.5758" gradientUnits="userSpaceOnUse">
<stop stop-color="white"/>
<stop offset="1" stop-color="#78CAC5"/>
</linearGradient>
<linearGradient id="paint24_linear_137_6510" x1="357.165" y1="310.622" x2="103.181" y2="56.6383" gradientUnits="userSpaceOnUse">
<stop stop-color="white"/>
<stop offset="1" stop-color="#78CAC5"/>
</linearGradient>
<linearGradient id="paint25_linear_137_6510" x1="332.366" y1="261.613" x2="256.56" y2="185.807" gradientUnits="userSpaceOnUse">
<stop stop-color="#4D809A"/>
<stop offset="1" stop-color="#78CAC5"/>
</linearGradient>
<linearGradient id="paint26_linear_137_6510" x1="337.264" y1="142.272" x2="337.264" y2="49.1041" gradientUnits="userSpaceOnUse">
<stop stop-color="#E60064"/>
<stop offset="1" stop-color="#E9E337"/>
</linearGradient>
<linearGradient id="paint27_linear_137_6510" x1="337.262" y1="123.683" x2="337.262" y2="90.82" gradientUnits="userSpaceOnUse">
<stop stop-color="#99A1AD"/>
<stop offset="1" stop-color="#6A737F"/>
</linearGradient>
<linearGradient id="paint28_linear_137_6510" x1="337.263" y1="99.8402" x2="337.263" y2="93.5497" gradientUnits="userSpaceOnUse">
<stop stop-color="#99A1AD"/>
<stop offset="1" stop-color="#6A737F"/>
</linearGradient>
<linearGradient id="paint29_linear_137_6510" x1="337.263" y1="109.08" x2="337.263" y2="102.789" gradientUnits="userSpaceOnUse">
<stop stop-color="#99A1AD"/>
<stop offset="1" stop-color="#6A737F"/>
</linearGradient>
<linearGradient id="paint30_linear_137_6510" x1="387.636" y1="47.6496" x2="348.479" y2="-23.003" gradientUnits="userSpaceOnUse">
<stop stop-color="#E89546"/>
<stop offset="1" stop-color="#DBBD71"/>
</linearGradient>
<linearGradient id="paint31_linear_137_6510" x1="77.324" y1="83.4358" x2="51.7126" y2="57.8244" gradientUnits="userSpaceOnUse">
<stop stop-color="#A23B7C"/>
<stop offset="1" stop-color="#DB7198"/>
</linearGradient>
<linearGradient id="paint32_linear_137_6510" x1="70.4225" y1="16.9962" x2="44.1099" y2="54.6872" gradientUnits="userSpaceOnUse">
<stop stop-color="#4D809A"/>
<stop offset="1" stop-color="#78CAC5"/>
</linearGradient>
<linearGradient id="paint33_linear_137_6510" x1="52.615" y1="85.0963" x2="25.7453" y2="53.5195" gradientUnits="userSpaceOnUse">
<stop stop-color="#A23B7C"/>
<stop offset="1" stop-color="#DB7198"/>
</linearGradient>
<linearGradient id="paint34_linear_137_6510" x1="-10.3175" y1="38.0392" x2="34.7222" y2="53.6845" gradientUnits="userSpaceOnUse">
<stop stop-color="#4638A5"/>
<stop offset="1" stop-color="#7C6FD1"/>
</linearGradient>
</defs>
</svg>
