<svg width="409" height="412" viewBox="0 0 409 412" fill="none" xmlns="http://www.w3.org/2000/svg">
<path d="M301.397 280.338H59.1875V134.897C59.1875 128.942 64.0146 124.115 69.9694 124.115H290.615C296.57 124.115 301.397 128.942 301.397 134.897V280.338Z" fill="url(#paint0_linear_137_6417)"/>
<path d="M63.4492 140.665V271.16H297.137V140.665C297.137 136.594 293.837 133.294 289.766 133.294H70.8205C66.7496 133.293 63.4492 136.594 63.4492 140.665Z" fill="url(#paint1_linear_137_6417)"/>
<path d="M66.3633 268.766V140.988C66.3633 138.061 68.736 135.688 71.6632 135.688H288.921C291.848 135.688 294.221 138.061 294.221 140.988V268.766" fill="white"/>
<path d="M40.3477 285.591V293.791C40.3477 296.692 42.6998 299.045 45.6009 299.045H314.98C317.881 299.045 320.233 296.692 320.233 293.791V285.591C320.233 282.69 317.881 280.338 314.98 280.338H45.6018C42.6998 280.338 40.3477 282.69 40.3477 285.591Z" fill="url(#paint2_linear_137_6417)"/>
<path d="M314.98 292.765H45.6009C42.6998 292.765 40.3477 290.413 40.3477 287.511V293.79C40.3477 296.691 42.6998 299.044 45.6009 299.044H314.98C317.881 299.044 320.233 296.692 320.233 293.79V287.511C320.233 290.413 317.881 292.765 314.98 292.765Z" fill="url(#paint3_linear_137_6417)"/>
<path d="M200.027 275.721H160.556C159.565 275.721 158.762 274.917 158.762 273.926C158.762 272.935 159.565 272.132 160.556 272.132H200.027C201.018 272.132 201.821 272.935 201.821 273.926C201.821 274.918 201.018 275.721 200.027 275.721Z" fill="white"/>
<path d="M274.573 156.924H213.355V161.735H274.573V156.924Z" fill="url(#paint4_linear_137_6417)"/>
<path d="M254.583 227.163H213.355V231.012H254.583V227.163Z" fill="url(#paint5_linear_137_6417)"/>
<path d="M254.583 234.86H213.355V238.709H254.583V234.86Z" fill="url(#paint6_linear_137_6417)"/>
<path d="M254.583 242.558H213.355V246.407H254.583V242.558Z" fill="url(#paint7_linear_137_6417)"/>
<path d="M254.583 250.256H213.355V254.104H254.583V250.256Z" fill="url(#paint8_linear_137_6417)"/>
<path d="M274.573 169.432H213.355V221.39H274.573V169.432Z" fill="url(#paint9_linear_137_6417)"/>
<path d="M274.572 227.163H256.824V254.104H274.572V227.163Z" fill="url(#paint10_linear_137_6417)"/>
<path d="M97.1715 209.498H84.2734V254.105H97.1715V209.498Z" fill="url(#paint11_linear_137_6417)"/>
<path d="M115.125 223.072H102.227V254.105H115.125V223.072Z" fill="url(#paint12_linear_137_6417)"/>
<path d="M133.078 199.335H120.18V254.105H133.078V199.335Z" fill="url(#paint13_linear_137_6417)"/>
<path d="M151.031 181.186H138.133V254.105H151.031V181.186Z" fill="url(#paint14_linear_137_6417)"/>
<path d="M182.194 187.367C173.801 187.367 166.973 180.539 166.973 172.146C166.973 163.753 173.801 156.925 182.194 156.925C190.587 156.925 197.416 163.753 197.416 172.146C197.416 180.539 190.587 187.367 182.194 187.367ZM182.194 162.952C177.125 162.952 173 167.077 173 172.146C173 177.216 177.125 181.34 182.194 181.34C187.264 181.34 191.388 177.215 191.388 172.146C191.388 167.077 187.264 162.952 182.194 162.952Z" fill="url(#paint15_linear_137_6417)"/>
<path d="M178.492 186.91C171.71 185.209 166.973 179.138 166.973 172.146C166.973 163.753 173.801 156.925 182.194 156.925C190.587 156.925 197.416 163.753 197.416 172.146H191.388C191.388 167.077 187.264 162.952 182.194 162.952C177.125 162.952 173 167.077 173 172.146C173 176.369 175.861 180.037 179.958 181.064L178.492 186.91Z" fill="url(#paint16_linear_137_6417)"/>
<path d="M182.194 220.736C173.801 220.736 166.973 213.907 166.973 205.514C166.973 197.121 173.801 190.294 182.194 190.294C190.587 190.294 197.416 197.122 197.416 205.514C197.416 213.908 190.587 220.736 182.194 220.736ZM182.194 196.321C177.125 196.321 173 200.446 173 205.515C173 210.585 177.125 214.709 182.194 214.709C187.264 214.709 191.388 210.585 191.388 205.515C191.388 200.446 187.264 196.321 182.194 196.321Z" fill="url(#paint17_linear_137_6417)"/>
<path d="M182.194 220.736C173.801 220.736 166.973 213.907 166.973 205.514C166.973 200.778 169.226 196.242 173.002 193.382L176.641 198.186C174.361 199.914 173 202.653 173 205.514C173 210.584 177.125 214.708 182.194 214.708C187.264 214.708 191.388 210.584 191.388 205.514H197.416C197.416 213.908 190.587 220.736 182.194 220.736Z" fill="url(#paint18_linear_137_6417)"/>
<path d="M182.194 254.105C173.801 254.105 166.973 247.277 166.973 238.884C166.973 230.49 173.801 223.663 182.194 223.663C190.587 223.663 197.416 230.491 197.416 238.884C197.416 247.277 190.587 254.105 182.194 254.105ZM182.194 229.689C177.125 229.689 173 233.814 173 238.884C173 243.953 177.125 248.078 182.194 248.078C187.264 248.078 191.388 243.953 191.388 238.884C191.388 233.814 187.264 229.689 182.194 229.689Z" fill="url(#paint19_linear_137_6417)"/>
<path d="M197.418 238.884H191.39C191.39 233.814 187.265 229.689 182.196 229.689C178.558 229.689 175.257 231.84 173.786 235.167L168.273 232.73C170.708 227.222 176.173 223.663 182.196 223.663C190.589 223.663 197.418 230.49 197.418 238.884Z" fill="url(#paint20_linear_137_6417)"/>
<g opacity="0.2">
<path d="M154.366 268.765H168.936L66.3633 166.192V180.763L154.366 268.765Z" fill="url(#paint21_linear_137_6417)"/>
<path d="M66.3633 147.139V154.985L180.144 268.766H187.99L66.3633 147.139Z" fill="url(#paint22_linear_137_6417)"/>
<path d="M258.601 268.766H294.222V267.401L162.509 135.688H125.523L258.601 268.766Z" fill="url(#paint23_linear_137_6417)"/>
<path d="M206.219 135.688H181.562L294.222 248.348V223.691L206.219 135.688Z" fill="url(#paint24_linear_137_6417)"/>
</g>
<path d="M107.423 80.1498C106.124 78.85 104.01 78.8509 102.713 80.1498C101.414 81.4488 101.414 83.5614 102.713 84.8603C103.362 85.5098 104.215 85.8346 105.068 85.8346C105.631 85.8346 106.188 85.6794 106.691 85.3968L120.562 99.2673V181.368H122.356V98.5237L107.959 84.1274C108.671 82.8599 108.501 81.2272 107.423 80.1498ZM103.981 83.5919C103.382 82.9926 103.382 82.0175 103.981 81.4183C104.281 81.1187 104.674 80.9688 105.068 80.9688C105.461 80.9688 105.855 81.1187 106.155 81.4183C106.754 82.0175 106.754 82.9926 106.155 83.5919C105.555 84.1911 104.58 84.1902 103.981 83.5919Z" fill="#6A737F"/>
<path d="M110.738 306.211L96.8668 320.083C95.5983 319.372 93.9657 319.542 92.8883 320.619C91.5893 321.917 91.5893 324.032 92.8883 325.33C93.5378 325.979 94.3909 326.304 95.244 326.304C96.0971 326.304 96.9502 325.979 97.5997 325.33C98.6771 324.252 98.8466 322.62 98.1362 321.351L112.532 306.955V262.235H110.738V306.211ZM96.3312 324.061C95.732 324.66 94.7569 324.661 94.1576 324.061C93.5584 323.462 93.5584 322.487 94.1576 321.888C94.4573 321.588 94.8511 321.438 95.244 321.438C95.6378 321.438 96.0316 321.588 96.3312 321.888C96.9305 322.487 96.9305 323.462 96.3312 324.061Z" fill="#6A737F"/>
<path d="M281.19 78.3557C279.892 77.0567 277.778 77.0576 276.48 78.3557C275.401 79.4331 275.232 81.0657 275.943 82.3342L261.547 96.7304V153.509H263.341V97.4741L277.212 83.6036C277.716 83.8861 278.273 84.0413 278.835 84.0413C279.687 84.0413 280.541 83.7166 281.19 83.0671C282.489 81.7673 282.489 79.6538 281.19 78.3557ZM279.922 81.7978C279.321 82.3979 278.346 82.3961 277.748 81.7978C277.149 81.1985 277.149 80.2234 277.748 79.6242C278.048 79.3245 278.441 79.1747 278.835 79.1747C279.229 79.1747 279.622 79.3245 279.922 79.6242C280.52 80.2234 280.52 81.1985 279.922 81.7978Z" fill="#6A737F"/>
<path d="M41.5299 398.829C64.4663 398.829 83.0599 380.236 83.0599 357.299C83.0599 334.363 64.4663 315.769 41.5299 315.769C18.5936 315.769 0 334.363 0 357.299C0 380.236 18.5936 398.829 41.5299 398.829Z" fill="url(#paint25_linear_137_6417)"/>
<path d="M41.5285 387.351C58.1257 387.351 71.5804 373.896 71.5804 357.299C71.5804 340.702 58.1257 327.247 41.5285 327.247C24.9313 327.247 11.4766 340.702 11.4766 357.299C11.4766 373.896 24.9313 387.351 41.5285 387.351Z" fill="white"/>
<path d="M41.5279 375.874C51.7865 375.874 60.1027 367.558 60.1027 357.299C60.1027 347.04 51.7865 338.724 41.5279 338.724C31.2693 338.724 22.9531 347.04 22.9531 357.299C22.9531 367.558 31.2693 375.874 41.5279 375.874Z" fill="url(#paint26_linear_137_6417)"/>
<path d="M41.5303 364.396C45.4497 364.396 48.6271 361.219 48.6271 357.299C48.6271 353.38 45.4497 350.203 41.5303 350.203C37.6109 350.203 34.4336 353.38 34.4336 357.299C34.4336 361.219 37.6109 364.396 41.5303 364.396Z" fill="white"/>
<path d="M91.3153 400.437H84.6706V407.082H81.9794V399.648L42.8787 360.548V365.291H40.1875V355.954H49.5233V358.645H44.7814L83.8821 397.746H91.3153V400.437ZM85.9741 401.74V411.076H88.6653V404.432H95.3099V401.74H85.9741Z" fill="url(#paint27_linear_137_6417)"/>
<path d="M302.324 180.043C291.316 169.035 273.468 169.035 262.459 180.043C251.451 191.051 251.451 208.899 262.459 219.908C272.66 230.108 288.731 230.849 299.793 222.145L309.913 232.266C308.901 234.031 309.144 236.319 310.652 237.828L329.124 256.301C330.928 258.106 333.854 258.106 335.658 256.301L338.717 253.243C340.521 251.439 340.521 248.512 338.717 246.708L320.244 228.236C318.736 226.728 316.447 226.485 314.681 227.498L304.561 217.377C313.266 206.314 312.525 190.243 302.324 180.043ZM269.378 212.988C262.191 205.801 262.191 194.149 269.378 186.963C276.566 179.775 288.218 179.775 295.404 186.963C302.591 194.15 302.591 205.802 295.404 212.988C288.218 220.175 276.566 220.175 269.378 212.988Z" fill="url(#paint28_linear_137_6417)"/>
<path d="M378.076 58.5232C378.076 41.8081 364.008 28.378 347.066 29.4294C332.769 30.3157 321.042 41.7946 319.874 56.0706C319.23 63.9433 321.72 71.224 326.228 76.8092C328.516 79.6439 330.46 82.7648 331.525 86.2491C333.804 93.701 340.726 99.122 348.925 99.122C357.076 99.122 363.965 93.7638 366.284 86.3791C367.32 83.0788 368.957 79.9713 371.191 77.3303C375.485 72.2538 378.076 65.6926 378.076 58.5232Z" fill="url(#paint29_linear_137_6417)"/>
<path d="M355.992 114.557H341.851C336.773 114.557 332.656 110.441 332.656 105.362V89.0974H365.186V105.362C365.187 110.441 361.07 114.557 355.992 114.557Z" fill="url(#paint30_linear_137_6417)"/>
<path d="M366.386 98.0931H331.46C330.114 98.0931 329.023 97.0023 329.023 95.6567C329.023 94.3111 330.114 93.2202 331.46 93.2202H366.386C367.731 93.2202 368.822 94.3111 368.822 95.6567C368.823 97.0023 367.731 98.0931 366.386 98.0931Z" fill="url(#paint31_linear_137_6417)"/>
<path d="M366.386 107.333H331.46C330.114 107.333 329.023 106.242 329.023 104.896C329.023 103.551 330.114 102.46 331.46 102.46H366.386C367.731 102.46 368.822 103.551 368.822 104.896C368.823 106.242 367.731 107.333 366.386 107.333Z" fill="url(#paint32_linear_137_6417)"/>
<path d="M348.921 23.5491C347.519 23.5491 346.382 22.4126 346.382 21.0095V2.5397C346.382 1.13757 347.519 9.15527e-05 348.921 9.15527e-05C350.323 9.15527e-05 351.461 1.13757 351.461 2.5397V21.0095C351.461 22.4126 350.323 23.5491 348.921 23.5491ZM323.735 30.3902L310.675 17.3297C309.683 16.3385 308.075 16.3385 307.083 17.3297C306.09 18.3219 306.09 19.9295 307.083 20.9216L320.143 33.9821C321.135 34.9734 322.743 34.9734 323.735 33.9821C324.726 32.9899 324.726 31.3815 323.735 30.3902ZM310.763 56.6278H292.294C290.891 56.6278 289.754 57.7644 289.754 59.1674C289.754 60.5704 290.89 61.707 292.294 61.707H310.763C312.165 61.707 313.303 60.5704 313.303 59.1674C313.303 57.7653 312.165 56.6278 310.763 56.6278ZM405.549 56.6278H387.079C385.676 56.6278 384.539 57.7644 384.539 59.1674C384.539 60.5704 385.677 61.707 387.079 61.707H405.549C406.952 61.707 408.089 60.5704 408.089 59.1674C408.089 57.7653 406.951 56.6278 405.549 56.6278ZM387.167 17.3297L374.107 30.3902C373.114 31.3824 373.114 32.9899 374.107 33.9821C375.099 34.9734 376.706 34.9734 377.698 33.9821L390.759 20.9216C391.751 19.9304 391.751 18.3219 390.759 17.3297C389.767 16.3385 388.159 16.3385 387.167 17.3297Z" fill="url(#paint33_linear_137_6417)"/>
<path d="M67.6538 91.2326C81.6697 86.1794 91.6909 72.7655 91.6909 57.0075H55.3164L67.6538 91.2326Z" fill="url(#paint34_linear_137_6417)"/>
<path d="M55.3145 20.6329C49.6423 20.6329 44.2733 21.9328 39.4883 24.2481L55.3145 57.0074H91.6889C91.6889 36.9184 75.4035 20.6329 55.3145 20.6329Z" fill="url(#paint35_linear_137_6417)"/>
<path d="M55.3166 93.3829C59.6485 93.3829 63.802 92.6222 67.6549 91.2326L55.3166 57.0075L22.2227 72.1017C27.9576 84.6544 40.6136 93.3829 55.3166 93.3829Z" fill="url(#paint36_linear_137_6417)"/>
<path d="M11.6641 54.5953C11.6641 59.9822 12.8446 65.0901 14.9456 69.6894L48.0395 54.5953L32.2133 21.836C20.0526 27.7217 11.6641 40.1784 11.6641 54.5953Z" fill="url(#paint37_linear_137_6417)"/>
<defs>
<linearGradient id="paint0_linear_137_6417" x1="180.293" y1="286.767" x2="180.293" y2="138.948" gradientUnits="userSpaceOnUse">
<stop stop-color="#99A1AD"/>
<stop offset="1" stop-color="#BECCD4"/>
</linearGradient>
<linearGradient id="paint1_linear_137_6417" x1="205.748" y1="229.84" x2="458.35" y2="482.442" gradientUnits="userSpaceOnUse">
<stop stop-color="#99A1AD"/>
<stop offset="1" stop-color="#BECCD4"/>
</linearGradient>
<linearGradient id="paint2_linear_137_6417" x1="180.291" y1="298.918" x2="180.291" y2="279.058" gradientUnits="userSpaceOnUse">
<stop stop-color="#99A1AD"/>
<stop offset="1" stop-color="#BECCD4"/>
</linearGradient>
<linearGradient id="paint3_linear_137_6417" x1="180.29" y1="292.768" x2="180.29" y2="304.85" gradientUnits="userSpaceOnUse">
<stop stop-color="#99A1AD"/>
<stop offset="1" stop-color="#BECCD4"/>
</linearGradient>
<linearGradient id="paint4_linear_137_6417" x1="243.964" y1="161.994" x2="243.964" y2="230.958" gradientUnits="userSpaceOnUse">
<stop stop-color="#4638A5"/>
<stop offset="1" stop-color="#7C6FD1"/>
</linearGradient>
<linearGradient id="paint5_linear_137_6417" x1="233.97" y1="161.994" x2="233.97" y2="230.957" gradientUnits="userSpaceOnUse">
<stop stop-color="#4638A5"/>
<stop offset="1" stop-color="#7C6FD1"/>
</linearGradient>
<linearGradient id="paint6_linear_137_6417" x1="233.97" y1="161.993" x2="233.97" y2="230.957" gradientUnits="userSpaceOnUse">
<stop stop-color="#4638A5"/>
<stop offset="1" stop-color="#7C6FD1"/>
</linearGradient>
<linearGradient id="paint7_linear_137_6417" x1="233.97" y1="161.995" x2="233.97" y2="230.958" gradientUnits="userSpaceOnUse">
<stop stop-color="#4638A5"/>
<stop offset="1" stop-color="#7C6FD1"/>
</linearGradient>
<linearGradient id="paint8_linear_137_6417" x1="233.97" y1="161.992" x2="233.97" y2="230.957" gradientUnits="userSpaceOnUse">
<stop stop-color="#4638A5"/>
<stop offset="1" stop-color="#7C6FD1"/>
</linearGradient>
<linearGradient id="paint9_linear_137_6417" x1="243.964" y1="161.994" x2="243.964" y2="230.958" gradientUnits="userSpaceOnUse">
<stop stop-color="#4638A5"/>
<stop offset="1" stop-color="#7C6FD1"/>
</linearGradient>
<linearGradient id="paint10_linear_137_6417" x1="265.698" y1="161.994" x2="265.698" y2="230.958" gradientUnits="userSpaceOnUse">
<stop stop-color="#4638A5"/>
<stop offset="1" stop-color="#7C6FD1"/>
</linearGradient>
<linearGradient id="paint11_linear_137_6417" x1="90.7227" y1="251.456" x2="90.7227" y2="212.483" gradientUnits="userSpaceOnUse">
<stop stop-color="#4638A5"/>
<stop offset="1" stop-color="#7C6FD1"/>
</linearGradient>
<linearGradient id="paint12_linear_137_6417" x1="108.676" y1="251.54" x2="108.676" y2="213.802" gradientUnits="userSpaceOnUse">
<stop stop-color="#4C7DAF"/>
<stop offset="1" stop-color="#78CAC5"/>
</linearGradient>
<linearGradient id="paint13_linear_137_6417" x1="132.119" y1="241.628" x2="114.806" y2="237.792" gradientUnits="userSpaceOnUse">
<stop stop-color="#A23B7C"/>
<stop offset="1" stop-color="#DB7198"/>
</linearGradient>
<linearGradient id="paint14_linear_137_6417" x1="144.581" y1="250.418" x2="144.581" y2="196.173" gradientUnits="userSpaceOnUse">
<stop stop-color="#A23B7C"/>
<stop offset="1" stop-color="#DB7198"/>
</linearGradient>
<linearGradient id="paint15_linear_137_6417" x1="166.973" y1="172.146" x2="197.415" y2="172.146" gradientUnits="userSpaceOnUse">
<stop stop-color="#99A1AD"/>
<stop offset="1" stop-color="#CCD1DB"/>
</linearGradient>
<linearGradient id="paint16_linear_137_6417" x1="166.973" y1="171.917" x2="197.415" y2="171.917" gradientUnits="userSpaceOnUse">
<stop stop-color="#4638A5"/>
<stop offset="1" stop-color="#7C6FD1"/>
</linearGradient>
<linearGradient id="paint17_linear_137_6417" x1="166.973" y1="205.515" x2="197.416" y2="205.515" gradientUnits="userSpaceOnUse">
<stop stop-color="#99A1AD"/>
<stop offset="1" stop-color="#CCD1DB"/>
</linearGradient>
<linearGradient id="paint18_linear_137_6417" x1="166.973" y1="207.059" x2="197.416" y2="207.059" gradientUnits="userSpaceOnUse">
<stop stop-color="#4D809A"/>
<stop offset="1" stop-color="#78CAC5"/>
</linearGradient>
<linearGradient id="paint19_linear_137_6417" x1="195.154" y1="247.17" x2="172.415" y2="225.775" gradientUnits="userSpaceOnUse">
<stop stop-color="#A23B7C"/>
<stop offset="1" stop-color="#DB7198"/>
</linearGradient>
<linearGradient id="paint20_linear_137_6417" x1="168.274" y1="231.273" x2="197.417" y2="231.273" gradientUnits="userSpaceOnUse">
<stop stop-color="#99A1AD"/>
<stop offset="1" stop-color="#CCD1DB"/>
</linearGradient>
<linearGradient id="paint21_linear_137_6417" x1="286.165" y1="393.279" x2="32.182" y2="139.296" gradientUnits="userSpaceOnUse">
<stop stop-color="white"/>
<stop offset="1" stop-color="#78CAC5"/>
</linearGradient>
<linearGradient id="paint22_linear_137_6417" x1="297.373" y1="382.071" x2="43.3891" y2="128.087" gradientUnits="userSpaceOnUse">
<stop stop-color="white"/>
<stop offset="1" stop-color="#78CAC5"/>
</linearGradient>
<linearGradient id="paint23_linear_137_6417" x1="343.888" y1="335.559" x2="89.9047" y2="81.5758" gradientUnits="userSpaceOnUse">
<stop stop-color="white"/>
<stop offset="1" stop-color="#78CAC5"/>
</linearGradient>
<linearGradient id="paint24_linear_137_6417" x1="368.825" y1="310.622" x2="114.842" y2="56.6383" gradientUnits="userSpaceOnUse">
<stop stop-color="white"/>
<stop offset="1" stop-color="#78CAC5"/>
</linearGradient>
<linearGradient id="paint25_linear_137_6417" x1="41.5303" y1="398.829" x2="41.5303" y2="315.77" gradientUnits="userSpaceOnUse">
<stop stop-color="#E60064"/>
<stop offset="1" stop-color="#FFA1CA"/>
</linearGradient>
<linearGradient id="paint26_linear_137_6417" x1="57.3423" y1="367.411" x2="29.594" y2="341.302" gradientUnits="userSpaceOnUse">
<stop stop-color="#A23B7C"/>
<stop offset="1" stop-color="#DB7198"/>
</linearGradient>
<linearGradient id="paint27_linear_137_6417" x1="40.1878" y1="355.954" x2="72.768" y2="388.534" gradientUnits="userSpaceOnUse">
<stop stop-color="#4638A5"/>
<stop offset="1" stop-color="#7C6FD1"/>
</linearGradient>
<linearGradient id="paint28_linear_137_6417" x1="344.03" y1="261.613" x2="268.224" y2="185.807" gradientUnits="userSpaceOnUse">
<stop stop-color="#4D809A"/>
<stop offset="1" stop-color="#78CAC5"/>
</linearGradient>
<linearGradient id="paint29_linear_137_6417" x1="348.924" y1="142.272" x2="348.924" y2="49.1041" gradientUnits="userSpaceOnUse">
<stop stop-color="#E60064"/>
<stop offset="1" stop-color="#E9E337"/>
</linearGradient>
<linearGradient id="paint30_linear_137_6417" x1="348.922" y1="123.683" x2="348.922" y2="90.82" gradientUnits="userSpaceOnUse">
<stop stop-color="#99A1AD"/>
<stop offset="1" stop-color="#6A737F"/>
</linearGradient>
<linearGradient id="paint31_linear_137_6417" x1="348.923" y1="99.8402" x2="348.923" y2="93.5497" gradientUnits="userSpaceOnUse">
<stop stop-color="#99A1AD"/>
<stop offset="1" stop-color="#6A737F"/>
</linearGradient>
<linearGradient id="paint32_linear_137_6417" x1="348.923" y1="109.08" x2="348.923" y2="102.789" gradientUnits="userSpaceOnUse">
<stop stop-color="#99A1AD"/>
<stop offset="1" stop-color="#6A737F"/>
</linearGradient>
<linearGradient id="paint33_linear_137_6417" x1="399.296" y1="47.6496" x2="360.139" y2="-23.003" gradientUnits="userSpaceOnUse">
<stop stop-color="#E89546"/>
<stop offset="1" stop-color="#DBBD71"/>
</linearGradient>
<linearGradient id="paint34_linear_137_6417" x1="88.9881" y1="83.4358" x2="63.3767" y2="57.8244" gradientUnits="userSpaceOnUse">
<stop stop-color="#A23B7C"/>
<stop offset="1" stop-color="#DB7198"/>
</linearGradient>
<linearGradient id="paint35_linear_137_6417" x1="82.0866" y1="16.9962" x2="55.774" y2="54.6872" gradientUnits="userSpaceOnUse">
<stop stop-color="#4D809A"/>
<stop offset="1" stop-color="#78CAC5"/>
</linearGradient>
<linearGradient id="paint36_linear_137_6417" x1="64.2791" y1="85.0963" x2="37.4094" y2="53.5195" gradientUnits="userSpaceOnUse">
<stop stop-color="#A23B7C"/>
<stop offset="1" stop-color="#DB7198"/>
</linearGradient>
<linearGradient id="paint37_linear_137_6417" x1="1.34656" y1="38.0392" x2="46.3862" y2="53.6845" gradientUnits="userSpaceOnUse">
<stop stop-color="#4638A5"/>
<stop offset="1" stop-color="#7C6FD1"/>
</linearGradient>
</defs>
</svg>
