<svg width="409" height="422" viewBox="0 0 409 422" fill="none" xmlns="http://www.w3.org/2000/svg">
<path d="M301.397 280.337H59.1875V134.897C59.1875 128.942 64.0146 124.115 69.9694 124.115H290.615C296.57 124.115 301.397 128.942 301.397 134.897V280.337Z" fill="url(#paint0_linear_137_6324)"/>
<path d="M63.4492 140.664V271.159H297.137V140.664C297.137 136.593 293.837 133.294 289.766 133.294H70.8205C66.7496 133.293 63.4492 136.593 63.4492 140.664Z" fill="url(#paint1_linear_137_6324)"/>
<path d="M66.3633 268.765V140.987C66.3633 138.06 68.736 135.687 71.6632 135.687H288.921C291.848 135.687 294.221 138.06 294.221 140.987V268.765" fill="white"/>
<path d="M40.3477 285.591V293.791C40.3477 296.692 42.6998 299.044 45.6009 299.044H314.98C317.881 299.044 320.233 296.692 320.233 293.791V285.591C320.233 282.69 317.881 280.338 314.98 280.338H45.6018C42.6998 280.338 40.3477 282.69 40.3477 285.591Z" fill="url(#paint2_linear_137_6324)"/>
<path d="M314.98 292.765H45.6009C42.6998 292.765 40.3477 290.413 40.3477 287.51V293.79C40.3477 296.691 42.6998 299.044 45.6009 299.044H314.98C317.881 299.044 320.233 296.692 320.233 293.79V287.51C320.233 290.413 317.881 292.765 314.98 292.765Z" fill="url(#paint3_linear_137_6324)"/>
<path d="M200.027 275.72H160.556C159.565 275.72 158.762 274.916 158.762 273.926C158.762 272.935 159.565 272.132 160.556 272.132H200.027C201.018 272.132 201.821 272.935 201.821 273.926C201.821 274.917 201.018 275.72 200.027 275.72Z" fill="white"/>
<path d="M274.573 156.923H213.355V161.734H274.573V156.923Z" fill="url(#paint4_linear_137_6324)"/>
<path d="M254.583 227.163H213.355V231.011H254.583V227.163Z" fill="url(#paint5_linear_137_6324)"/>
<path d="M254.583 234.86H213.355V238.708H254.583V234.86Z" fill="url(#paint6_linear_137_6324)"/>
<path d="M254.583 242.558H213.355V246.406H254.583V242.558Z" fill="url(#paint7_linear_137_6324)"/>
<path d="M254.583 250.255H213.355V254.104H254.583V250.255Z" fill="url(#paint8_linear_137_6324)"/>
<path d="M274.573 169.432H213.355V221.39H274.573V169.432Z" fill="url(#paint9_linear_137_6324)"/>
<path d="M274.572 227.163H256.824V254.104H274.572V227.163Z" fill="url(#paint10_linear_137_6324)"/>
<path d="M97.1715 209.498H84.2734V254.104H97.1715V209.498Z" fill="url(#paint11_linear_137_6324)"/>
<path d="M115.125 223.072H102.227V254.104H115.125V223.072Z" fill="url(#paint12_linear_137_6324)"/>
<path d="M133.078 199.335H120.18V254.105H133.078V199.335Z" fill="url(#paint13_linear_137_6324)"/>
<path d="M151.031 181.186H138.133V254.105H151.031V181.186Z" fill="url(#paint14_linear_137_6324)"/>
<path d="M182.194 187.367C173.801 187.367 166.973 180.539 166.973 172.146C166.973 163.753 173.801 156.925 182.194 156.925C190.587 156.925 197.416 163.753 197.416 172.146C197.416 180.539 190.587 187.367 182.194 187.367ZM182.194 162.952C177.125 162.952 173 167.076 173 172.146C173 177.216 177.125 181.34 182.194 181.34C187.264 181.34 191.388 177.215 191.388 172.146C191.388 167.076 187.264 162.952 182.194 162.952Z" fill="url(#paint15_linear_137_6324)"/>
<path d="M178.492 186.91C171.71 185.209 166.973 179.137 166.973 172.146C166.973 163.753 173.801 156.925 182.194 156.925C190.587 156.925 197.416 163.753 197.416 172.146H191.388C191.388 167.076 187.264 162.952 182.194 162.952C177.125 162.952 173 167.076 173 172.146C173 176.369 175.861 180.036 179.958 181.063L178.492 186.91Z" fill="url(#paint16_linear_137_6324)"/>
<path d="M182.194 220.735C173.801 220.735 166.973 213.907 166.973 205.514C166.973 197.121 173.801 190.293 182.194 190.293C190.587 190.293 197.416 197.122 197.416 205.514C197.416 213.908 190.587 220.735 182.194 220.735ZM182.194 196.321C177.125 196.321 173 200.445 173 205.515C173 210.585 177.125 214.709 182.194 214.709C187.264 214.709 191.388 210.584 191.388 205.515C191.388 200.445 187.264 196.321 182.194 196.321Z" fill="url(#paint17_linear_137_6324)"/>
<path d="M182.194 220.735C173.801 220.735 166.973 213.907 166.973 205.514C166.973 200.777 169.226 196.242 173.002 193.382L176.641 198.186C174.361 199.913 173 202.652 173 205.514C173 210.584 177.125 214.708 182.194 214.708C187.264 214.708 191.388 210.583 191.388 205.514H197.416C197.416 213.908 190.587 220.735 182.194 220.735Z" fill="url(#paint18_linear_137_6324)"/>
<path d="M182.194 254.105C173.801 254.105 166.973 247.276 166.973 238.883C166.973 230.49 173.801 223.663 182.194 223.663C190.587 223.663 197.416 230.491 197.416 238.883C197.416 247.276 190.587 254.105 182.194 254.105ZM182.194 229.689C177.125 229.689 173 233.814 173 238.883C173 243.953 177.125 248.077 182.194 248.077C187.264 248.077 191.388 243.953 191.388 238.883C191.388 233.814 187.264 229.689 182.194 229.689Z" fill="url(#paint19_linear_137_6324)"/>
<path d="M197.418 238.883H191.39C191.39 233.814 187.265 229.689 182.196 229.689C178.558 229.689 175.257 231.839 173.786 235.167L168.273 232.73C170.708 227.222 176.173 223.663 182.196 223.663C190.589 223.663 197.418 230.49 197.418 238.883Z" fill="url(#paint20_linear_137_6324)"/>
<g opacity="0.2">
<path d="M154.366 268.765H168.936L66.3633 166.192V180.762L154.366 268.765Z" fill="url(#paint21_linear_137_6324)"/>
<path d="M66.3633 147.139V154.984L180.144 268.765H187.99L66.3633 147.139Z" fill="url(#paint22_linear_137_6324)"/>
<path d="M258.601 268.765H294.222V267.401L162.509 135.687H125.523L258.601 268.765Z" fill="url(#paint23_linear_137_6324)"/>
<path d="M206.219 135.687H181.562L294.222 248.347V223.69L206.219 135.687Z" fill="url(#paint24_linear_137_6324)"/>
</g>
<path d="M306.805 329.976H292.375V400.831H306.805V329.976Z" fill="url(#paint25_linear_137_6324)"/>
<path d="M328.93 353.903H314.5V400.831H328.93V353.903Z" fill="url(#paint26_linear_137_6324)"/>
<path d="M351.055 363.847H336.625V400.831H351.055V363.847Z" fill="url(#paint27_linear_137_6324)"/>
<path d="M373.184 342.218H358.754V400.83H373.184V342.218Z" fill="url(#paint28_linear_137_6324)"/>
<path d="M357.955 327.01V329.453H363.307L341.469 351.291L304.153 313.975L302.426 315.702L341.469 354.745L365.034 331.18V336.534H367.477V327.01H357.955Z" fill="url(#paint29_linear_137_6324)"/>
<path d="M386.567 400.831H278.992V402.252H386.567V400.831Z" fill="url(#paint30_linear_137_6324)"/>
<path d="M298.386 411.489C297.89 411.489 297.449 411.371 297.064 411.134C296.683 410.897 296.383 410.555 296.163 410.109C295.942 409.662 295.832 409.12 295.832 408.48C295.832 407.841 295.942 407.298 296.163 406.852C296.383 406.405 296.683 406.064 297.064 405.827C297.449 405.59 297.89 405.471 298.386 405.471C298.877 405.471 299.312 405.59 299.692 405.827C300.078 406.064 300.381 406.405 300.602 406.852C300.822 407.298 300.932 407.841 300.932 408.48C300.932 409.12 300.822 409.662 300.602 410.109C300.381 410.555 300.078 410.897 299.692 411.134C299.312 411.371 298.877 411.489 298.386 411.489ZM298.386 410.15C298.563 410.15 298.717 410.095 298.849 409.985C298.987 409.875 299.094 409.698 299.172 409.456C299.249 409.208 299.287 408.883 299.287 408.48C299.287 408.072 299.249 407.747 299.172 407.505C299.094 407.262 298.987 407.086 298.849 406.976C298.717 406.865 298.563 406.81 298.386 406.81C298.21 406.81 298.053 406.865 297.915 406.976C297.783 407.086 297.675 407.262 297.593 407.505C297.516 407.747 297.477 408.072 297.477 408.48C297.477 408.883 297.516 409.208 297.593 409.456C297.675 409.698 297.783 409.875 297.915 409.985C298.053 410.095 298.21 410.15 298.386 410.15ZM296.675 421.374V416.174L297.378 416.852H295.6V415.587H298.312V421.374H296.675Z" fill="#6A737F"/>
<path d="M319.793 411.489C319.297 411.489 318.856 411.371 318.47 411.134C318.09 410.897 317.789 410.555 317.569 410.109C317.348 409.662 317.238 409.12 317.238 408.48C317.238 407.841 317.348 407.298 317.569 406.852C317.789 406.405 318.09 406.064 318.47 405.827C318.856 405.59 319.297 405.471 319.793 405.471C320.283 405.471 320.718 405.59 321.099 405.827C321.484 406.064 321.788 406.405 322.008 406.852C322.228 407.298 322.339 407.841 322.339 408.48C322.339 409.12 322.228 409.662 322.008 410.109C321.788 410.555 321.484 410.897 321.099 411.134C320.718 411.371 320.283 411.489 319.793 411.489ZM319.793 410.15C319.969 410.15 320.123 410.095 320.255 409.985C320.393 409.875 320.501 409.698 320.578 409.456C320.655 409.208 320.694 408.883 320.694 408.48C320.694 408.072 320.655 407.747 320.578 407.505C320.501 407.262 320.393 407.086 320.255 406.976C320.123 406.865 319.969 406.81 319.793 406.81C319.616 406.81 319.459 406.865 319.321 406.976C319.189 407.086 319.082 407.262 318.999 407.505C318.922 407.747 318.883 408.072 318.883 408.48C318.883 408.883 318.922 409.208 318.999 409.456C319.082 409.698 319.189 409.875 319.321 409.985C319.459 410.095 319.616 410.15 319.793 410.15ZM317.205 421.374V420.348L319.371 418.323C319.525 418.18 319.638 418.053 319.71 417.943C319.787 417.833 319.837 417.733 319.859 417.645C319.886 417.552 319.9 417.466 319.9 417.389C319.9 417.202 319.837 417.056 319.71 416.951C319.589 416.846 319.404 416.794 319.156 416.794C318.947 416.794 318.751 416.841 318.569 416.934C318.387 417.028 318.238 417.169 318.123 417.356L316.907 416.678C317.122 416.314 317.434 416.022 317.842 415.802C318.249 415.581 318.737 415.471 319.305 415.471C319.751 415.471 320.142 415.543 320.479 415.686C320.815 415.829 321.077 416.033 321.264 416.298C321.457 416.562 321.553 416.874 321.553 417.232C321.553 417.419 321.529 417.607 321.479 417.794C321.429 417.976 321.333 418.172 321.19 418.381C321.052 418.585 320.845 418.814 320.57 419.067L318.85 420.654L318.577 420.076H321.71V421.374H317.205Z" fill="#6A737F"/>
<path d="M341.906 411.489C341.41 411.489 340.969 411.371 340.583 411.134C340.203 410.897 339.902 410.555 339.682 410.109C339.462 409.662 339.351 409.12 339.351 408.48C339.351 407.841 339.462 407.298 339.682 406.852C339.902 406.405 340.203 406.064 340.583 405.827C340.969 405.59 341.41 405.471 341.906 405.471C342.396 405.471 342.832 405.59 343.212 405.827C343.598 406.064 343.901 406.405 344.121 406.852C344.342 407.298 344.452 407.841 344.452 408.48C344.452 409.12 344.342 409.662 344.121 410.109C343.901 410.555 343.598 410.897 343.212 411.134C342.832 411.371 342.396 411.489 341.906 411.489ZM341.906 410.15C342.082 410.15 342.236 410.095 342.369 409.985C342.507 409.875 342.614 409.698 342.691 409.456C342.768 409.208 342.807 408.883 342.807 408.48C342.807 408.072 342.768 407.747 342.691 407.505C342.614 407.262 342.507 407.086 342.369 406.976C342.236 406.865 342.082 406.81 341.906 406.81C341.729 406.81 341.572 406.865 341.435 406.976C341.302 407.086 341.195 407.262 341.112 407.505C341.035 407.747 340.996 408.072 340.996 408.48C340.996 408.883 341.035 409.208 341.112 409.456C341.195 409.698 341.302 409.875 341.435 409.985C341.572 410.095 341.729 410.15 341.906 410.15ZM341.286 421.489C340.883 421.489 340.481 421.44 340.079 421.34C339.682 421.241 339.335 421.101 339.037 420.919L339.632 419.687C339.864 419.841 340.12 419.96 340.401 420.043C340.688 420.125 340.966 420.167 341.236 420.167C341.517 420.167 341.74 420.114 341.906 420.01C342.071 419.905 342.154 419.756 342.154 419.563C342.154 419.392 342.085 419.257 341.947 419.158C341.809 419.053 341.583 419.001 341.269 419.001H340.583V417.968L342.137 416.29L342.294 416.852H339.335V415.587H343.518V416.612L341.964 418.29L341.162 417.835H341.608C342.33 417.835 342.876 417.998 343.245 418.323C343.62 418.643 343.807 419.056 343.807 419.563C343.807 419.894 343.716 420.205 343.534 420.497C343.358 420.789 343.085 421.029 342.716 421.216C342.347 421.398 341.87 421.489 341.286 421.489Z" fill="#6A737F"/>
<path d="M363.668 411.489C363.172 411.489 362.731 411.371 362.345 411.134C361.965 410.897 361.664 410.555 361.444 410.109C361.223 409.662 361.113 409.12 361.113 408.48C361.113 407.841 361.223 407.298 361.444 406.852C361.664 406.405 361.965 406.064 362.345 405.827C362.731 405.59 363.172 405.471 363.668 405.471C364.158 405.471 364.593 405.59 364.974 405.827C365.359 406.064 365.663 406.405 365.883 406.852C366.103 407.298 366.214 407.841 366.214 408.48C366.214 409.12 366.103 409.662 365.883 410.109C365.663 410.555 365.359 410.897 364.974 411.134C364.593 411.371 364.158 411.489 363.668 411.489ZM363.668 410.15C363.844 410.15 363.998 410.095 364.13 409.985C364.268 409.875 364.376 409.698 364.453 409.456C364.53 409.208 364.569 408.883 364.569 408.48C364.569 408.072 364.53 407.747 364.453 407.505C364.376 407.262 364.268 407.086 364.13 406.976C363.998 406.865 363.844 406.81 363.668 406.81C363.491 406.81 363.334 406.865 363.196 406.976C363.064 407.086 362.957 407.262 362.874 407.505C362.797 407.747 362.758 408.072 362.758 408.48C362.758 408.883 362.797 409.208 362.874 409.456C362.957 409.698 363.064 409.875 363.196 409.985C363.334 410.095 363.491 410.15 363.668 410.15ZM361.055 420.266V419.199L363.651 415.587H365.346L362.824 419.199L362.047 418.968H366.569V420.266H361.055ZM364.114 421.374V420.266L364.164 418.968V417.984H365.709V421.374H364.114Z" fill="#6A737F"/>
<path d="M107.423 80.1495C106.124 78.8496 104.01 78.8505 102.713 80.1495C101.414 81.4484 101.414 83.561 102.713 84.86C103.362 85.5095 104.215 85.8342 105.068 85.8342C105.631 85.8342 106.188 85.679 106.691 85.3964L120.562 99.267V181.368H122.356V98.5233L107.959 84.1271C108.671 82.8595 108.501 81.2268 107.423 80.1495ZM103.981 83.5915C103.382 82.9923 103.382 82.0172 103.981 81.4179C104.281 81.1183 104.674 80.9685 105.068 80.9685C105.461 80.9685 105.855 81.1183 106.155 81.4179C106.754 82.0172 106.754 82.9923 106.155 83.5915C105.555 84.1908 104.58 84.1899 103.981 83.5915Z" fill="#6A737F"/>
<path d="M110.738 306.211L96.8668 320.082C95.5983 319.372 93.9657 319.541 92.8883 320.619C91.5893 321.917 91.5893 324.031 92.8883 325.329C93.5378 325.979 94.3909 326.304 95.244 326.304C96.0971 326.304 96.9502 325.979 97.5997 325.329C98.6771 324.252 98.8466 322.619 98.1362 321.351L112.532 306.955V262.235H110.738V306.211ZM96.3312 324.061C95.732 324.659 94.7569 324.661 94.1576 324.061C93.5584 323.462 93.5584 322.487 94.1576 321.887C94.4573 321.588 94.8511 321.438 95.244 321.438C95.6378 321.438 96.0316 321.588 96.3312 321.887C96.9305 322.487 96.9305 323.462 96.3312 324.061Z" fill="#6A737F"/>
<path d="M268.974 320.082L255.103 306.211V262.235H253.309V306.955L267.705 321.351C266.994 322.619 267.164 324.252 268.241 325.329C268.891 325.979 269.744 326.304 270.596 326.304C271.449 326.304 272.302 325.979 272.952 325.329C274.251 324.031 274.251 321.917 272.952 320.619C271.876 319.542 270.244 319.372 268.974 320.082ZM271.684 324.061C271.086 324.659 270.111 324.661 269.511 324.061C268.911 323.462 268.911 322.487 269.511 321.887C269.81 321.588 270.203 321.438 270.597 321.438C270.992 321.438 271.385 321.588 271.684 321.887C272.283 322.487 272.283 323.462 271.684 324.061Z" fill="#6A737F"/>
<path d="M281.19 78.3553C279.892 77.0564 277.778 77.0573 276.48 78.3553C275.401 79.4327 275.232 81.0654 275.943 82.3339L261.547 96.7301V153.508H263.341V97.4737L277.212 83.6032C277.716 83.8858 278.273 84.041 278.835 84.041C279.687 84.041 280.541 83.7162 281.19 83.0668C282.489 81.7669 282.489 79.6534 281.19 78.3553ZM279.922 81.7974C279.321 82.3975 278.346 82.3957 277.748 81.7974C277.149 81.1982 277.149 80.223 277.748 79.6238C278.048 79.3242 278.441 79.1744 278.835 79.1744C279.229 79.1744 279.622 79.3242 279.922 79.6238C280.52 80.223 280.52 81.1982 279.922 81.7974Z" fill="#6A737F"/>
<path d="M41.5299 398.829C64.4663 398.829 83.0599 380.235 83.0599 357.299C83.0599 334.363 64.4663 315.769 41.5299 315.769C18.5936 315.769 0 334.363 0 357.299C0 380.235 18.5936 398.829 41.5299 398.829Z" fill="url(#paint31_linear_137_6324)"/>
<path d="M41.5285 387.351C58.1257 387.351 71.5804 373.896 71.5804 357.299C71.5804 340.702 58.1257 327.247 41.5285 327.247C24.9313 327.247 11.4766 340.702 11.4766 357.299C11.4766 373.896 24.9313 387.351 41.5285 387.351Z" fill="white"/>
<path d="M41.5279 375.873C51.7865 375.873 60.1027 367.557 60.1027 357.299C60.1027 347.04 51.7865 338.724 41.5279 338.724C31.2693 338.724 22.9531 347.04 22.9531 357.299C22.9531 367.557 31.2693 375.873 41.5279 375.873Z" fill="url(#paint32_linear_137_6324)"/>
<path d="M41.5303 364.396C45.4497 364.396 48.6271 361.218 48.6271 357.299C48.6271 353.379 45.4497 350.202 41.5303 350.202C37.6109 350.202 34.4336 353.379 34.4336 357.299C34.4336 361.218 37.6109 364.396 41.5303 364.396Z" fill="white"/>
<path d="M91.3153 400.437H84.6706V407.081H81.9794V399.648L42.8787 360.547V365.29H40.1875V355.954H49.5233V358.645H44.7814L83.8821 397.745H91.3153V400.437ZM85.9741 401.74V411.076H88.6653V404.431H95.3099V401.74H85.9741Z" fill="url(#paint33_linear_137_6324)"/>
<path d="M302.324 180.042C291.316 169.034 273.468 169.034 262.459 180.042C251.451 191.05 251.451 208.898 262.459 219.907C272.66 230.108 288.731 230.849 299.793 222.144L309.913 232.265C308.901 234.031 309.144 236.319 310.652 237.828L329.124 256.3C330.928 258.105 333.854 258.105 335.658 256.3L338.717 253.242C340.521 251.438 340.521 248.512 338.717 246.708L320.244 228.236C318.736 226.728 316.447 226.485 314.681 227.497L304.561 217.377C313.266 206.314 312.525 190.243 302.324 180.042ZM269.378 212.988C262.191 205.801 262.191 194.149 269.378 186.962C276.566 179.775 288.218 179.775 295.404 186.962C302.591 194.15 302.591 205.802 295.404 212.988C288.218 220.175 276.566 220.175 269.378 212.988Z" fill="url(#paint34_linear_137_6324)"/>
<path d="M378.076 58.5228C378.076 41.8077 364.008 28.3776 347.066 29.429C332.769 30.3153 321.042 41.7942 319.874 56.0702C319.23 63.943 321.72 71.2236 326.228 76.8088C328.516 79.6435 330.46 82.7644 331.525 86.2487C333.804 93.7006 340.726 99.1216 348.925 99.1216C357.076 99.1216 363.965 93.7634 366.284 86.3787C367.32 83.0784 368.957 79.9709 371.191 77.33C375.485 72.2534 378.076 65.6922 378.076 58.5228Z" fill="url(#paint35_linear_137_6324)"/>
<path d="M355.992 114.557H341.851C336.773 114.557 332.656 110.44 332.656 105.362V89.097H365.186V105.362C365.187 110.44 361.07 114.557 355.992 114.557Z" fill="url(#paint36_linear_137_6324)"/>
<path d="M366.386 98.0928H331.46C330.114 98.0928 329.023 97.0019 329.023 95.6563C329.023 94.3107 330.114 93.2199 331.46 93.2199H366.386C367.731 93.2199 368.822 94.3107 368.822 95.6563C368.823 97.0019 367.731 98.0928 366.386 98.0928Z" fill="url(#paint37_linear_137_6324)"/>
<path d="M366.386 107.332H331.46C330.114 107.332 329.023 106.242 329.023 104.896C329.023 103.55 330.114 102.46 331.46 102.46H366.386C367.731 102.46 368.822 103.55 368.822 104.896C368.823 106.242 367.731 107.332 366.386 107.332Z" fill="url(#paint38_linear_137_6324)"/>
<path d="M348.921 23.5488C347.519 23.5488 346.382 22.4122 346.382 21.0092V2.53933C346.382 1.13721 347.519 -0.000274658 348.921 -0.000274658C350.323 -0.000274658 351.461 1.13721 351.461 2.53933V21.0092C351.461 22.4122 350.323 23.5488 348.921 23.5488ZM323.735 30.3899L310.675 17.3294C309.683 16.3381 308.075 16.3381 307.083 17.3294C306.09 18.3215 306.09 19.9291 307.083 20.9213L320.143 33.9817C321.135 34.973 322.743 34.973 323.735 33.9817C324.726 32.9896 324.726 31.3811 323.735 30.3899ZM310.763 56.6274H292.294C290.891 56.6274 289.754 57.764 289.754 59.167C289.754 60.57 290.89 61.7066 292.294 61.7066H310.763C312.165 61.7066 313.303 60.57 313.303 59.167C313.303 57.7649 312.165 56.6274 310.763 56.6274ZM405.549 56.6274H387.079C385.676 56.6274 384.539 57.764 384.539 59.167C384.539 60.57 385.677 61.7066 387.079 61.7066H405.549C406.952 61.7066 408.089 60.57 408.089 59.167C408.089 57.7649 406.951 56.6274 405.549 56.6274ZM387.167 17.3294L374.107 30.3899C373.114 31.382 373.114 32.9896 374.107 33.9817C375.099 34.973 376.706 34.973 377.698 33.9817L390.759 20.9213C391.751 19.93 391.751 18.3215 390.759 17.3294C389.767 16.3381 388.159 16.3381 387.167 17.3294Z" fill="url(#paint39_linear_137_6324)"/>
<path d="M67.6538 91.2323C81.6697 86.1791 91.6909 72.7652 91.6909 57.0072H55.3164L67.6538 91.2323Z" fill="url(#paint40_linear_137_6324)"/>
<path d="M55.3145 20.6326C49.6423 20.6326 44.2733 21.9324 39.4883 24.2478L55.3145 57.007H91.6889C91.6889 36.918 75.4035 20.6326 55.3145 20.6326Z" fill="url(#paint41_linear_137_6324)"/>
<path d="M55.3166 93.3826C59.6485 93.3826 63.802 92.6219 67.6549 91.2323L55.3166 57.0072L22.2227 72.1013C27.9576 84.654 40.6136 93.3826 55.3166 93.3826Z" fill="url(#paint42_linear_137_6324)"/>
<path d="M11.6641 54.5949C11.6641 59.9818 12.8446 65.0897 14.9456 69.689L48.0395 54.5949L32.2133 21.8356C20.0526 27.7213 11.6641 40.178 11.6641 54.5949Z" fill="url(#paint43_linear_137_6324)"/>
<defs>
<linearGradient id="paint0_linear_137_6324" x1="180.293" y1="286.767" x2="180.293" y2="138.948" gradientUnits="userSpaceOnUse">
<stop stop-color="#99A1AD"/>
<stop offset="1" stop-color="#BECCD4"/>
</linearGradient>
<linearGradient id="paint1_linear_137_6324" x1="205.748" y1="229.839" x2="458.35" y2="482.442" gradientUnits="userSpaceOnUse">
<stop stop-color="#99A1AD"/>
<stop offset="1" stop-color="#BECCD4"/>
</linearGradient>
<linearGradient id="paint2_linear_137_6324" x1="180.291" y1="298.917" x2="180.291" y2="279.058" gradientUnits="userSpaceOnUse">
<stop stop-color="#99A1AD"/>
<stop offset="1" stop-color="#BECCD4"/>
</linearGradient>
<linearGradient id="paint3_linear_137_6324" x1="180.29" y1="292.767" x2="180.29" y2="304.85" gradientUnits="userSpaceOnUse">
<stop stop-color="#99A1AD"/>
<stop offset="1" stop-color="#BECCD4"/>
</linearGradient>
<linearGradient id="paint4_linear_137_6324" x1="243.964" y1="161.994" x2="243.964" y2="230.957" gradientUnits="userSpaceOnUse">
<stop stop-color="#4638A5"/>
<stop offset="1" stop-color="#7C6FD1"/>
</linearGradient>
<linearGradient id="paint5_linear_137_6324" x1="233.97" y1="161.994" x2="233.97" y2="230.957" gradientUnits="userSpaceOnUse">
<stop stop-color="#4638A5"/>
<stop offset="1" stop-color="#7C6FD1"/>
</linearGradient>
<linearGradient id="paint6_linear_137_6324" x1="233.97" y1="161.992" x2="233.97" y2="230.957" gradientUnits="userSpaceOnUse">
<stop stop-color="#4638A5"/>
<stop offset="1" stop-color="#7C6FD1"/>
</linearGradient>
<linearGradient id="paint7_linear_137_6324" x1="233.97" y1="161.994" x2="233.97" y2="230.957" gradientUnits="userSpaceOnUse">
<stop stop-color="#4638A5"/>
<stop offset="1" stop-color="#7C6FD1"/>
</linearGradient>
<linearGradient id="paint8_linear_137_6324" x1="233.97" y1="161.992" x2="233.97" y2="230.957" gradientUnits="userSpaceOnUse">
<stop stop-color="#4638A5"/>
<stop offset="1" stop-color="#7C6FD1"/>
</linearGradient>
<linearGradient id="paint9_linear_137_6324" x1="243.964" y1="161.994" x2="243.964" y2="230.958" gradientUnits="userSpaceOnUse">
<stop stop-color="#4638A5"/>
<stop offset="1" stop-color="#7C6FD1"/>
</linearGradient>
<linearGradient id="paint10_linear_137_6324" x1="265.698" y1="161.994" x2="265.698" y2="230.957" gradientUnits="userSpaceOnUse">
<stop stop-color="#4638A5"/>
<stop offset="1" stop-color="#7C6FD1"/>
</linearGradient>
<linearGradient id="paint11_linear_137_6324" x1="90.7227" y1="251.456" x2="90.7227" y2="212.483" gradientUnits="userSpaceOnUse">
<stop stop-color="#4638A5"/>
<stop offset="1" stop-color="#7C6FD1"/>
</linearGradient>
<linearGradient id="paint12_linear_137_6324" x1="108.676" y1="251.539" x2="108.676" y2="213.801" gradientUnits="userSpaceOnUse">
<stop stop-color="#4C7DAF"/>
<stop offset="1" stop-color="#78CAC5"/>
</linearGradient>
<linearGradient id="paint13_linear_137_6324" x1="132.119" y1="241.628" x2="114.806" y2="237.791" gradientUnits="userSpaceOnUse">
<stop stop-color="#A23B7C"/>
<stop offset="1" stop-color="#DB7198"/>
</linearGradient>
<linearGradient id="paint14_linear_137_6324" x1="144.581" y1="250.418" x2="144.581" y2="196.172" gradientUnits="userSpaceOnUse">
<stop stop-color="#A23B7C"/>
<stop offset="1" stop-color="#DB7198"/>
</linearGradient>
<linearGradient id="paint15_linear_137_6324" x1="166.973" y1="172.146" x2="197.415" y2="172.146" gradientUnits="userSpaceOnUse">
<stop stop-color="#99A1AD"/>
<stop offset="1" stop-color="#CCD1DB"/>
</linearGradient>
<linearGradient id="paint16_linear_137_6324" x1="166.973" y1="171.917" x2="197.415" y2="171.917" gradientUnits="userSpaceOnUse">
<stop stop-color="#4638A5"/>
<stop offset="1" stop-color="#7C6FD1"/>
</linearGradient>
<linearGradient id="paint17_linear_137_6324" x1="166.973" y1="205.515" x2="197.416" y2="205.515" gradientUnits="userSpaceOnUse">
<stop stop-color="#99A1AD"/>
<stop offset="1" stop-color="#CCD1DB"/>
</linearGradient>
<linearGradient id="paint18_linear_137_6324" x1="166.973" y1="207.059" x2="197.416" y2="207.059" gradientUnits="userSpaceOnUse">
<stop stop-color="#4D809A"/>
<stop offset="1" stop-color="#78CAC5"/>
</linearGradient>
<linearGradient id="paint19_linear_137_6324" x1="195.154" y1="247.17" x2="172.415" y2="225.774" gradientUnits="userSpaceOnUse">
<stop stop-color="#A23B7C"/>
<stop offset="1" stop-color="#DB7198"/>
</linearGradient>
<linearGradient id="paint20_linear_137_6324" x1="168.274" y1="231.273" x2="197.417" y2="231.273" gradientUnits="userSpaceOnUse">
<stop stop-color="#99A1AD"/>
<stop offset="1" stop-color="#CCD1DB"/>
</linearGradient>
<linearGradient id="paint21_linear_137_6324" x1="286.165" y1="393.279" x2="32.182" y2="139.295" gradientUnits="userSpaceOnUse">
<stop stop-color="white"/>
<stop offset="1" stop-color="#78CAC5"/>
</linearGradient>
<linearGradient id="paint22_linear_137_6324" x1="297.373" y1="382.071" x2="43.3891" y2="128.087" gradientUnits="userSpaceOnUse">
<stop stop-color="white"/>
<stop offset="1" stop-color="#78CAC5"/>
</linearGradient>
<linearGradient id="paint23_linear_137_6324" x1="343.888" y1="335.559" x2="89.9047" y2="81.5754" gradientUnits="userSpaceOnUse">
<stop stop-color="white"/>
<stop offset="1" stop-color="#78CAC5"/>
</linearGradient>
<linearGradient id="paint24_linear_137_6324" x1="368.825" y1="310.621" x2="114.842" y2="56.6379" gradientUnits="userSpaceOnUse">
<stop stop-color="white"/>
<stop offset="1" stop-color="#78CAC5"/>
</linearGradient>
<linearGradient id="paint25_linear_137_6324" x1="299.59" y1="400.831" x2="299.59" y2="329.976" gradientUnits="userSpaceOnUse">
<stop stop-color="#4D809A"/>
<stop offset="1" stop-color="#78CAC5"/>
</linearGradient>
<linearGradient id="paint26_linear_137_6324" x1="321.715" y1="400.831" x2="321.715" y2="353.903" gradientUnits="userSpaceOnUse">
<stop stop-color="#4638A5"/>
<stop offset="1" stop-color="#7C6FD1"/>
</linearGradient>
<linearGradient id="paint27_linear_137_6324" x1="349.983" y1="392.406" x2="332.076" y2="385.831" gradientUnits="userSpaceOnUse">
<stop stop-color="#A23B7C"/>
<stop offset="1" stop-color="#DB7198"/>
</linearGradient>
<linearGradient id="paint28_linear_137_6324" x1="372.112" y1="387.478" x2="352.826" y2="383.01" gradientUnits="userSpaceOnUse">
<stop stop-color="#A23B7C"/>
<stop offset="1" stop-color="#DB7198"/>
</linearGradient>
<linearGradient id="paint29_linear_137_6324" x1="361.94" y1="334.36" x2="280.008" y2="334.36" gradientUnits="userSpaceOnUse">
<stop stop-color="#6A737F"/>
<stop offset="1" stop-color="#99A1AD"/>
</linearGradient>
<linearGradient id="paint30_linear_137_6324" x1="384.096" y1="401.541" x2="275.359" y2="401.541" gradientUnits="userSpaceOnUse">
<stop stop-color="#6A737F"/>
<stop offset="1" stop-color="#99A1AD"/>
</linearGradient>
<linearGradient id="paint31_linear_137_6324" x1="41.5303" y1="398.829" x2="41.5303" y2="315.769" gradientUnits="userSpaceOnUse">
<stop stop-color="#E60064"/>
<stop offset="1" stop-color="#FFA1CA"/>
</linearGradient>
<linearGradient id="paint32_linear_137_6324" x1="57.3423" y1="367.41" x2="29.594" y2="341.302" gradientUnits="userSpaceOnUse">
<stop stop-color="#A23B7C"/>
<stop offset="1" stop-color="#DB7198"/>
</linearGradient>
<linearGradient id="paint33_linear_137_6324" x1="40.1878" y1="355.953" x2="72.768" y2="388.534" gradientUnits="userSpaceOnUse">
<stop stop-color="#4638A5"/>
<stop offset="1" stop-color="#7C6FD1"/>
</linearGradient>
<linearGradient id="paint34_linear_137_6324" x1="344.03" y1="261.613" x2="268.224" y2="185.807" gradientUnits="userSpaceOnUse">
<stop stop-color="#4D809A"/>
<stop offset="1" stop-color="#78CAC5"/>
</linearGradient>
<linearGradient id="paint35_linear_137_6324" x1="348.924" y1="142.272" x2="348.924" y2="49.1037" gradientUnits="userSpaceOnUse">
<stop stop-color="#E60064"/>
<stop offset="1" stop-color="#E9E337"/>
</linearGradient>
<linearGradient id="paint36_linear_137_6324" x1="348.922" y1="123.683" x2="348.922" y2="90.8196" gradientUnits="userSpaceOnUse">
<stop stop-color="#99A1AD"/>
<stop offset="1" stop-color="#6A737F"/>
</linearGradient>
<linearGradient id="paint37_linear_137_6324" x1="348.923" y1="99.8398" x2="348.923" y2="93.5494" gradientUnits="userSpaceOnUse">
<stop stop-color="#99A1AD"/>
<stop offset="1" stop-color="#6A737F"/>
</linearGradient>
<linearGradient id="paint38_linear_137_6324" x1="348.923" y1="109.079" x2="348.923" y2="102.789" gradientUnits="userSpaceOnUse">
<stop stop-color="#99A1AD"/>
<stop offset="1" stop-color="#6A737F"/>
</linearGradient>
<linearGradient id="paint39_linear_137_6324" x1="399.296" y1="47.6492" x2="360.139" y2="-23.0033" gradientUnits="userSpaceOnUse">
<stop stop-color="#E89546"/>
<stop offset="1" stop-color="#DBBD71"/>
</linearGradient>
<linearGradient id="paint40_linear_137_6324" x1="88.9881" y1="83.4355" x2="63.3767" y2="57.8241" gradientUnits="userSpaceOnUse">
<stop stop-color="#A23B7C"/>
<stop offset="1" stop-color="#DB7198"/>
</linearGradient>
<linearGradient id="paint41_linear_137_6324" x1="82.0866" y1="16.9958" x2="55.774" y2="54.6869" gradientUnits="userSpaceOnUse">
<stop stop-color="#4D809A"/>
<stop offset="1" stop-color="#78CAC5"/>
</linearGradient>
<linearGradient id="paint42_linear_137_6324" x1="64.2791" y1="85.0959" x2="37.4094" y2="53.5192" gradientUnits="userSpaceOnUse">
<stop stop-color="#A23B7C"/>
<stop offset="1" stop-color="#DB7198"/>
</linearGradient>
<linearGradient id="paint43_linear_137_6324" x1="1.34656" y1="38.0389" x2="46.3862" y2="53.6842" gradientUnits="userSpaceOnUse">
<stop stop-color="#4638A5"/>
<stop offset="1" stop-color="#7C6FD1"/>
</linearGradient>
</defs>
</svg>
