<svg width="309" height="366" viewBox="0 0 309 366" fill="none" xmlns="http://www.w3.org/2000/svg">
<path d="M289.737 259.705H47.5273V114.264C47.5273 108.31 52.3545 103.482 58.3093 103.482H278.955C284.91 103.482 289.737 108.31 289.737 114.264V259.705Z" fill="url(#paint0_linear_137_6603)"/>
<path d="M51.7891 120.032V250.527H285.476V120.032C285.476 115.961 282.177 112.661 278.106 112.661H59.1603C55.0894 112.66 51.7891 115.961 51.7891 120.032Z" fill="url(#paint1_linear_137_6603)"/>
<path d="M54.7031 248.133V120.355C54.7031 117.428 57.0759 115.055 60.003 115.055H277.26C280.188 115.055 282.56 117.428 282.56 120.355V248.133" fill="white"/>
<path d="M28.6875 264.958V273.158C28.6875 276.06 31.0396 278.412 33.9408 278.412H303.32C306.221 278.412 308.573 276.06 308.573 273.158V264.958C308.573 262.057 306.221 259.705 303.32 259.705H33.9417C31.0396 259.705 28.6875 262.057 28.6875 264.958Z" fill="url(#paint2_linear_137_6603)"/>
<path d="M303.32 272.132H33.9408C31.0396 272.132 28.6875 269.78 28.6875 266.878V273.157C28.6875 276.059 31.0396 278.412 33.9408 278.412H303.32C306.221 278.412 308.573 276.059 308.573 273.157V266.878C308.573 269.78 306.221 272.132 303.32 272.132Z" fill="url(#paint3_linear_137_6603)"/>
<path d="M188.367 255.088H148.896C147.904 255.088 147.102 254.284 147.102 253.293C147.102 252.302 147.904 251.499 148.896 251.499H188.367C189.358 251.499 190.161 252.302 190.161 253.293C190.161 254.285 189.358 255.088 188.367 255.088Z" fill="white"/>
<path d="M262.912 136.291H201.695V141.102H262.912V136.291Z" fill="url(#paint4_linear_137_6603)"/>
<path d="M242.923 206.53H201.695V210.379H242.923V206.53Z" fill="url(#paint5_linear_137_6603)"/>
<path d="M242.923 214.227H201.695V218.076H242.923V214.227Z" fill="url(#paint6_linear_137_6603)"/>
<path d="M242.923 221.925H201.695V225.774H242.923V221.925Z" fill="url(#paint7_linear_137_6603)"/>
<path d="M242.923 229.623H201.695V233.471H242.923V229.623Z" fill="url(#paint8_linear_137_6603)"/>
<path d="M262.912 148.8H201.695V200.757H262.912V148.8Z" fill="url(#paint9_linear_137_6603)"/>
<path d="M262.912 206.53H245.164V233.471H262.912V206.53Z" fill="url(#paint10_linear_137_6603)"/>
<path d="M85.5114 188.865H72.6133V233.472H85.5114V188.865Z" fill="url(#paint11_linear_137_6603)"/>
<path d="M103.465 202.439H90.5664V233.472H103.465V202.439Z" fill="url(#paint12_linear_137_6603)"/>
<path d="M121.418 178.702H108.52V233.472H121.418V178.702Z" fill="url(#paint13_linear_137_6603)"/>
<path d="M139.371 160.554H126.473V233.472H139.371V160.554Z" fill="url(#paint14_linear_137_6603)"/>
<path d="M170.534 166.735C162.141 166.735 155.312 159.906 155.312 151.513C155.312 143.12 162.141 136.292 170.534 136.292C178.927 136.292 185.756 143.12 185.756 151.513C185.756 159.906 178.927 166.735 170.534 166.735ZM170.534 142.319C165.465 142.319 161.34 146.444 161.34 151.513C161.34 156.583 165.465 160.707 170.534 160.707C175.603 160.707 179.728 156.582 179.728 151.513C179.728 146.444 175.603 142.319 170.534 142.319Z" fill="url(#paint15_linear_137_6603)"/>
<path d="M166.832 166.277C160.05 164.576 155.312 158.505 155.312 151.513C155.312 143.12 162.141 136.292 170.534 136.292C178.927 136.292 185.756 143.12 185.756 151.513H179.728C179.728 146.444 175.603 142.319 170.534 142.319C165.465 142.319 161.34 146.444 161.34 151.513C161.34 155.737 164.201 159.404 168.298 160.431L166.832 166.277Z" fill="url(#paint16_linear_137_6603)"/>
<path d="M170.534 200.103C162.141 200.103 155.312 193.274 155.312 184.881C155.312 176.488 162.141 169.661 170.534 169.661C178.927 169.661 185.756 176.489 185.756 184.881C185.756 193.275 178.927 200.103 170.534 200.103ZM170.534 175.688C165.465 175.688 161.34 179.813 161.34 184.882C161.34 189.953 165.465 194.076 170.534 194.076C175.603 194.076 179.728 189.952 179.728 184.882C179.728 179.813 175.603 175.688 170.534 175.688Z" fill="url(#paint17_linear_137_6603)"/>
<path d="M170.534 200.103C162.141 200.103 155.312 193.274 155.312 184.881C155.312 180.145 157.566 175.609 161.342 172.749L164.981 177.553C162.701 179.281 161.34 182.02 161.34 184.881C161.34 189.952 165.465 194.075 170.534 194.075C175.603 194.075 179.728 189.951 179.728 184.881H185.756C185.756 193.275 178.927 200.103 170.534 200.103Z" fill="url(#paint18_linear_137_6603)"/>
<path d="M170.534 233.472C162.141 233.472 155.312 226.644 155.312 218.251C155.312 209.858 162.141 203.03 170.534 203.03C178.927 203.03 185.756 209.859 185.756 218.251C185.756 226.644 178.927 233.472 170.534 233.472ZM170.534 209.057C165.465 209.057 161.34 213.181 161.34 218.251C161.34 223.32 165.465 227.445 170.534 227.445C175.603 227.445 179.728 223.32 179.728 218.251C179.728 213.181 175.603 209.057 170.534 209.057Z" fill="url(#paint19_linear_137_6603)"/>
<path d="M185.757 218.251H179.73C179.73 213.181 175.605 209.057 170.536 209.057C166.898 209.057 163.597 211.207 162.126 214.534L156.613 212.098C159.048 206.59 164.513 203.03 170.536 203.03C178.929 203.03 185.757 209.858 185.757 218.251Z" fill="url(#paint20_linear_137_6603)"/>
<g opacity="0.2">
<path d="M142.706 248.133H157.276L54.7031 145.56V160.13L142.706 248.133Z" fill="url(#paint21_linear_137_6603)"/>
<path d="M54.7031 126.506V134.352L168.484 248.133H176.33L54.7031 126.506Z" fill="url(#paint22_linear_137_6603)"/>
<path d="M246.941 248.133H282.562V246.768L150.849 115.055H113.863L246.941 248.133Z" fill="url(#paint23_linear_137_6603)"/>
<path d="M194.559 115.055H169.902L282.562 227.715V203.058L194.559 115.055Z" fill="url(#paint24_linear_137_6603)"/>
</g>
<path d="M95.759 59.5169C94.46 58.2171 92.3456 58.218 91.0484 59.5169C89.7495 60.8159 89.7495 62.9285 91.0484 64.2274C91.6979 64.8769 92.551 65.2017 93.4042 65.2017C93.9666 65.2017 94.5237 65.0465 95.027 64.7639L108.897 78.6344V160.735H110.692V77.8907L96.2954 63.4945C97.0068 62.227 96.8373 60.5943 95.759 59.5169ZM92.3169 62.959C91.7177 62.3597 91.7177 61.3846 92.3169 60.7854C92.6165 60.4858 93.0103 60.3359 93.4042 60.3359C93.7971 60.3359 94.1909 60.4858 94.4905 60.7854C95.0898 61.3846 95.0898 62.3597 94.4905 62.959C93.8913 63.5582 92.9161 63.5573 92.3169 62.959Z" fill="#6A737F"/>
<path d="M55.9898 70.5997C70.0056 65.5465 80.0268 52.1326 80.0268 36.3746H43.6523L55.9898 70.5997Z" fill="url(#paint25_linear_137_6603)"/>
<path d="M43.6504 0C37.9782 0 32.6092 1.29986 27.8242 3.6152L43.6504 36.3745H80.0249C80.0249 16.2855 63.7394 0 43.6504 0Z" fill="url(#paint26_linear_137_6603)"/>
<path d="M43.6525 72.75C47.9845 72.75 52.1379 71.9893 55.9908 70.5997L43.6525 36.3746L10.5586 51.4688C16.2936 64.0215 28.9495 72.75 43.6525 72.75Z" fill="url(#paint27_linear_137_6603)"/>
<path d="M0 33.9624C0 39.3493 1.18056 44.4572 3.28151 49.0565L36.3754 33.9624L20.5492 1.20306C8.38853 7.08875 0 19.5455 0 33.9624Z" fill="url(#paint28_linear_137_6603)"/>
<defs>
<linearGradient id="paint0_linear_137_6603" x1="168.632" y1="266.134" x2="168.632" y2="118.315" gradientUnits="userSpaceOnUse">
<stop stop-color="#99A1AD"/>
<stop offset="1" stop-color="#BECCD4"/>
</linearGradient>
<linearGradient id="paint1_linear_137_6603" x1="194.088" y1="209.207" x2="446.69" y2="461.809" gradientUnits="userSpaceOnUse">
<stop stop-color="#99A1AD"/>
<stop offset="1" stop-color="#BECCD4"/>
</linearGradient>
<linearGradient id="paint2_linear_137_6603" x1="168.631" y1="278.285" x2="168.631" y2="258.425" gradientUnits="userSpaceOnUse">
<stop stop-color="#99A1AD"/>
<stop offset="1" stop-color="#BECCD4"/>
</linearGradient>
<linearGradient id="paint3_linear_137_6603" x1="168.63" y1="272.135" x2="168.63" y2="284.217" gradientUnits="userSpaceOnUse">
<stop stop-color="#99A1AD"/>
<stop offset="1" stop-color="#BECCD4"/>
</linearGradient>
<linearGradient id="paint4_linear_137_6603" x1="232.304" y1="141.361" x2="232.304" y2="210.325" gradientUnits="userSpaceOnUse">
<stop stop-color="#4638A5"/>
<stop offset="1" stop-color="#7C6FD1"/>
</linearGradient>
<linearGradient id="paint5_linear_137_6603" x1="222.31" y1="141.361" x2="222.31" y2="210.325" gradientUnits="userSpaceOnUse">
<stop stop-color="#4638A5"/>
<stop offset="1" stop-color="#7C6FD1"/>
</linearGradient>
<linearGradient id="paint6_linear_137_6603" x1="222.31" y1="141.36" x2="222.31" y2="210.325" gradientUnits="userSpaceOnUse">
<stop stop-color="#4638A5"/>
<stop offset="1" stop-color="#7C6FD1"/>
</linearGradient>
<linearGradient id="paint7_linear_137_6603" x1="222.31" y1="141.362" x2="222.31" y2="210.325" gradientUnits="userSpaceOnUse">
<stop stop-color="#4638A5"/>
<stop offset="1" stop-color="#7C6FD1"/>
</linearGradient>
<linearGradient id="paint8_linear_137_6603" x1="222.31" y1="141.359" x2="222.31" y2="210.324" gradientUnits="userSpaceOnUse">
<stop stop-color="#4638A5"/>
<stop offset="1" stop-color="#7C6FD1"/>
</linearGradient>
<linearGradient id="paint9_linear_137_6603" x1="232.304" y1="141.361" x2="232.304" y2="210.325" gradientUnits="userSpaceOnUse">
<stop stop-color="#4638A5"/>
<stop offset="1" stop-color="#7C6FD1"/>
</linearGradient>
<linearGradient id="paint10_linear_137_6603" x1="254.038" y1="141.361" x2="254.038" y2="210.325" gradientUnits="userSpaceOnUse">
<stop stop-color="#4638A5"/>
<stop offset="1" stop-color="#7C6FD1"/>
</linearGradient>
<linearGradient id="paint11_linear_137_6603" x1="79.0625" y1="230.823" x2="79.0625" y2="191.85" gradientUnits="userSpaceOnUse">
<stop stop-color="#4638A5"/>
<stop offset="1" stop-color="#7C6FD1"/>
</linearGradient>
<linearGradient id="paint12_linear_137_6603" x1="97.0157" y1="230.907" x2="97.0157" y2="193.169" gradientUnits="userSpaceOnUse">
<stop stop-color="#4C7DAF"/>
<stop offset="1" stop-color="#78CAC5"/>
</linearGradient>
<linearGradient id="paint13_linear_137_6603" x1="120.459" y1="220.995" x2="103.146" y2="217.159" gradientUnits="userSpaceOnUse">
<stop stop-color="#A23B7C"/>
<stop offset="1" stop-color="#DB7198"/>
</linearGradient>
<linearGradient id="paint14_linear_137_6603" x1="132.921" y1="229.785" x2="132.921" y2="175.54" gradientUnits="userSpaceOnUse">
<stop stop-color="#A23B7C"/>
<stop offset="1" stop-color="#DB7198"/>
</linearGradient>
<linearGradient id="paint15_linear_137_6603" x1="155.313" y1="151.513" x2="185.755" y2="151.513" gradientUnits="userSpaceOnUse">
<stop stop-color="#99A1AD"/>
<stop offset="1" stop-color="#CCD1DB"/>
</linearGradient>
<linearGradient id="paint16_linear_137_6603" x1="155.313" y1="151.285" x2="185.755" y2="151.285" gradientUnits="userSpaceOnUse">
<stop stop-color="#4638A5"/>
<stop offset="1" stop-color="#7C6FD1"/>
</linearGradient>
<linearGradient id="paint17_linear_137_6603" x1="155.312" y1="184.882" x2="185.755" y2="184.882" gradientUnits="userSpaceOnUse">
<stop stop-color="#99A1AD"/>
<stop offset="1" stop-color="#CCD1DB"/>
</linearGradient>
<linearGradient id="paint18_linear_137_6603" x1="155.312" y1="186.427" x2="185.755" y2="186.427" gradientUnits="userSpaceOnUse">
<stop stop-color="#4D809A"/>
<stop offset="1" stop-color="#78CAC5"/>
</linearGradient>
<linearGradient id="paint19_linear_137_6603" x1="183.494" y1="226.537" x2="160.755" y2="205.142" gradientUnits="userSpaceOnUse">
<stop stop-color="#A23B7C"/>
<stop offset="1" stop-color="#DB7198"/>
</linearGradient>
<linearGradient id="paint20_linear_137_6603" x1="156.614" y1="210.64" x2="185.757" y2="210.64" gradientUnits="userSpaceOnUse">
<stop stop-color="#99A1AD"/>
<stop offset="1" stop-color="#CCD1DB"/>
</linearGradient>
<linearGradient id="paint21_linear_137_6603" x1="274.505" y1="372.646" x2="20.5218" y2="118.663" gradientUnits="userSpaceOnUse">
<stop stop-color="white"/>
<stop offset="1" stop-color="#78CAC5"/>
</linearGradient>
<linearGradient id="paint22_linear_137_6603" x1="285.713" y1="361.438" x2="31.729" y2="107.455" gradientUnits="userSpaceOnUse">
<stop stop-color="white"/>
<stop offset="1" stop-color="#78CAC5"/>
</linearGradient>
<linearGradient id="paint23_linear_137_6603" x1="332.228" y1="314.926" x2="78.2445" y2="60.9429" gradientUnits="userSpaceOnUse">
<stop stop-color="white"/>
<stop offset="1" stop-color="#78CAC5"/>
</linearGradient>
<linearGradient id="paint24_linear_137_6603" x1="357.165" y1="289.989" x2="103.181" y2="36.0054" gradientUnits="userSpaceOnUse">
<stop stop-color="white"/>
<stop offset="1" stop-color="#78CAC5"/>
</linearGradient>
<linearGradient id="paint25_linear_137_6603" x1="77.324" y1="62.8029" x2="51.7126" y2="37.1915" gradientUnits="userSpaceOnUse">
<stop stop-color="#A23B7C"/>
<stop offset="1" stop-color="#DB7198"/>
</linearGradient>
<linearGradient id="paint26_linear_137_6603" x1="70.4225" y1="-3.63673" x2="44.1099" y2="34.0543" gradientUnits="userSpaceOnUse">
<stop stop-color="#4D809A"/>
<stop offset="1" stop-color="#78CAC5"/>
</linearGradient>
<linearGradient id="paint27_linear_137_6603" x1="52.615" y1="64.4634" x2="25.7453" y2="32.8866" gradientUnits="userSpaceOnUse">
<stop stop-color="#A23B7C"/>
<stop offset="1" stop-color="#DB7198"/>
</linearGradient>
<linearGradient id="paint28_linear_137_6603" x1="-10.3175" y1="17.4063" x2="34.7222" y2="33.0516" gradientUnits="userSpaceOnUse">
<stop stop-color="#4638A5"/>
<stop offset="1" stop-color="#7C6FD1"/>
</linearGradient>
</defs>
</svg>
