<svg width="89" height="88" viewBox="0 0 89 88" fill="none" xmlns="http://www.w3.org/2000/svg">
<g filter="url(#filter0_dd_31_4451)">
<path d="M12.3281 34C12.3281 16.3269 26.655 2 44.3281 2C62.0012 2 76.3281 16.3269 76.3281 34C76.3281 51.6731 62.0012 66 44.3281 66C26.655 66 12.3281 51.6731 12.3281 34Z" fill="white" shape-rendering="crispEdges"/>
<path d="M44.3281 2.5C61.7251 2.5 75.8281 16.603 75.8281 34C75.8281 51.397 61.7251 65.5 44.3281 65.5C26.9312 65.5 12.8281 51.397 12.8281 34C12.8281 16.603 26.9312 2.5 44.3281 2.5Z" stroke="#5C64B4" stroke-opacity="0.2" shape-rendering="crispEdges"/>
<path d="M44.5298 28.3636V40H43.1207V29.8409H43.0526L40.2116 31.7273V30.2955L43.1207 28.3636H44.5298Z" fill="#5B35AE"/>
</g>
<defs>
<filter id="filter0_dd_31_4451" x="0.328125" y="0" width="88" height="88" filterUnits="userSpaceOnUse" color-interpolation-filters="sRGB">
<feFlood flood-opacity="0" result="BackgroundImageFix"/>
<feColorMatrix in="SourceAlpha" type="matrix" values="0 0 0 0 0 0 0 0 0 0 0 0 0 0 0 0 0 0 127 0" result="hardAlpha"/>
<feMorphology radius="3" operator="erode" in="SourceAlpha" result="effect1_dropShadow_31_4451"/>
<feOffset dy="10"/>
<feGaussianBlur stdDeviation="7.5"/>
<feComposite in2="hardAlpha" operator="out"/>
<feColorMatrix type="matrix" values="0 0 0 0 0 0 0 0 0 0 0 0 0 0 0 0 0 0 0.1 0"/>
<feBlend mode="normal" in2="BackgroundImageFix" result="effect1_dropShadow_31_4451"/>
<feColorMatrix in="SourceAlpha" type="matrix" values="0 0 0 0 0 0 0 0 0 0 0 0 0 0 0 0 0 0 127 0" result="hardAlpha"/>
<feMorphology radius="4" operator="erode" in="SourceAlpha" result="effect2_dropShadow_31_4451"/>
<feOffset dy="4"/>
<feGaussianBlur stdDeviation="3"/>
<feComposite in2="hardAlpha" operator="out"/>
<feColorMatrix type="matrix" values="0 0 0 0 0 0 0 0 0 0 0 0 0 0 0 0 0 0 0.1 0"/>
<feBlend mode="normal" in2="effect1_dropShadow_31_4451" result="effect2_dropShadow_31_4451"/>
<feBlend mode="normal" in="SourceGraphic" in2="effect2_dropShadow_31_4451" result="shape"/>
</filter>
</defs>
</svg>
