<svg width="89" height="88" viewBox="0 0 89 88" fill="none" xmlns="http://www.w3.org/2000/svg">
<g filter="url(#filter0_dd_31_4433)">
<path d="M12.6562 34C12.6562 16.3269 26.9831 2 44.6562 2C62.3294 2 76.6562 16.3269 76.6562 34C76.6562 51.6731 62.3294 66 44.6562 66C26.9831 66 12.6562 51.6731 12.6562 34Z" fill="white" shape-rendering="crispEdges"/>
<path d="M44.6562 2.5C62.0532 2.5 76.1562 16.603 76.1562 34C76.1562 51.397 62.0532 65.5 44.6562 65.5C27.2593 65.5 13.1562 51.397 13.1562 34C13.1562 16.603 27.2593 2.5 44.6562 2.5Z" stroke="#5C64B4" stroke-opacity="0.2" shape-rendering="crispEdges"/>
<path d="M46.0739 40.1591C45.3239 40.1591 44.6553 40.0303 44.0682 39.7727C43.4848 39.5152 43.0208 39.1572 42.6761 38.6989C42.3352 38.2367 42.1496 37.7008 42.1193 37.0909H43.5511C43.5814 37.4659 43.7102 37.7898 43.9375 38.0625C44.1648 38.3314 44.4621 38.5398 44.8295 38.6875C45.197 38.8352 45.6042 38.9091 46.0511 38.9091C46.5511 38.9091 46.9943 38.822 47.3807 38.6477C47.767 38.4735 48.0701 38.2311 48.2898 37.9205C48.5095 37.6098 48.6193 37.25 48.6193 36.8409C48.6193 36.4129 48.5133 36.036 48.3011 35.7102C48.089 35.3807 47.7784 35.1231 47.3693 34.9375C46.9602 34.7519 46.4602 34.6591 45.8693 34.6591H44.9375V33.4091H45.8693C46.3314 33.4091 46.7367 33.3258 47.0852 33.1591C47.4375 32.9924 47.7121 32.7576 47.9091 32.4545C48.1098 32.1515 48.2102 31.7955 48.2102 31.3864C48.2102 30.9924 48.1231 30.6496 47.9489 30.358C47.7746 30.0663 47.5284 29.839 47.2102 29.6761C46.8958 29.5133 46.5246 29.4318 46.0966 29.4318C45.6951 29.4318 45.3163 29.5057 44.9602 29.6534C44.608 29.7973 44.3201 30.0076 44.0966 30.2841C43.8731 30.5568 43.7519 30.8864 43.733 31.2727H42.3693C42.392 30.6629 42.5758 30.1288 42.9205 29.6705C43.2652 29.2083 43.7159 28.8485 44.2727 28.5909C44.8333 28.3333 45.4489 28.2045 46.1193 28.2045C46.839 28.2045 47.4564 28.3504 47.9716 28.642C48.4867 28.9299 48.8826 29.3106 49.1591 29.7841C49.4356 30.2576 49.5739 30.7689 49.5739 31.3182C49.5739 31.9735 49.4015 32.5322 49.0568 32.9943C48.7159 33.4564 48.2519 33.7765 47.6648 33.9545V34.0455C48.3996 34.1667 48.9735 34.4792 49.3864 34.983C49.7992 35.483 50.0057 36.1023 50.0057 36.8409C50.0057 37.4735 49.8333 38.0417 49.4886 38.5455C49.1477 39.0455 48.6818 39.4394 48.0909 39.7273C47.5 40.0152 46.8277 40.1591 46.0739 40.1591Z" fill="#5B35AE"/>
</g>
<defs>
<filter id="filter0_dd_31_4433" x="0.65625" y="0" width="88" height="88" filterUnits="userSpaceOnUse" color-interpolation-filters="sRGB">
<feFlood flood-opacity="0" result="BackgroundImageFix"/>
<feColorMatrix in="SourceAlpha" type="matrix" values="0 0 0 0 0 0 0 0 0 0 0 0 0 0 0 0 0 0 127 0" result="hardAlpha"/>
<feMorphology radius="3" operator="erode" in="SourceAlpha" result="effect1_dropShadow_31_4433"/>
<feOffset dy="10"/>
<feGaussianBlur stdDeviation="7.5"/>
<feComposite in2="hardAlpha" operator="out"/>
<feColorMatrix type="matrix" values="0 0 0 0 0 0 0 0 0 0 0 0 0 0 0 0 0 0 0.1 0"/>
<feBlend mode="normal" in2="BackgroundImageFix" result="effect1_dropShadow_31_4433"/>
<feColorMatrix in="SourceAlpha" type="matrix" values="0 0 0 0 0 0 0 0 0 0 0 0 0 0 0 0 0 0 127 0" result="hardAlpha"/>
<feMorphology radius="4" operator="erode" in="SourceAlpha" result="effect2_dropShadow_31_4433"/>
<feOffset dy="4"/>
<feGaussianBlur stdDeviation="3"/>
<feComposite in2="hardAlpha" operator="out"/>
<feColorMatrix type="matrix" values="0 0 0 0 0 0 0 0 0 0 0 0 0 0 0 0 0 0 0.1 0"/>
<feBlend mode="normal" in2="effect1_dropShadow_31_4433" result="effect2_dropShadow_31_4433"/>
<feBlend mode="normal" in="SourceGraphic" in2="effect2_dropShadow_31_4433" result="shape"/>
</filter>
</defs>
</svg>
