<svg width="89" height="88" viewBox="0 0 89 88" fill="none" xmlns="http://www.w3.org/2000/svg">
<g filter="url(#filter0_dd_31_4442)">
<path d="M12.9844 34C12.9844 16.3269 27.3113 2 44.9844 2C62.6575 2 76.9844 16.3269 76.9844 34C76.9844 51.6731 62.6575 66 44.9844 66C27.3113 66 12.9844 51.6731 12.9844 34Z" fill="white" shape-rendering="crispEdges"/>
<path d="M44.9844 2.5C62.3813 2.5 76.4844 16.603 76.4844 34C76.4844 51.397 62.3813 65.5 44.9844 65.5C27.5874 65.5 13.4844 51.397 13.4844 34C13.4844 16.603 27.5874 2.5 44.9844 2.5Z" stroke="#5C64B4" stroke-opacity="0.2" shape-rendering="crispEdges"/>
<path d="M41.3452 40V38.9773L45.1861 34.7727C45.6368 34.2803 46.008 33.8523 46.2997 33.4886C46.5914 33.1212 46.8073 32.7765 46.9474 32.4545C47.0914 32.1288 47.1634 31.7879 47.1634 31.4318C47.1634 31.0227 47.0649 30.6686 46.8679 30.3693C46.6747 30.0701 46.4096 29.839 46.0724 29.6761C45.7353 29.5133 45.3565 29.4318 44.9361 29.4318C44.4891 29.4318 44.099 29.5246 43.7656 29.7102C43.4361 29.892 43.1804 30.1477 42.9986 30.4773C42.8205 30.8068 42.7315 31.1932 42.7315 31.6364H41.3906C41.3906 30.9545 41.5478 30.3561 41.8622 29.8409C42.1766 29.3258 42.6046 28.9242 43.1463 28.6364C43.6918 28.3485 44.3035 28.2045 44.9815 28.2045C45.6634 28.2045 46.2675 28.3485 46.794 28.6364C47.3205 28.9242 47.7334 29.3125 48.0327 29.8011C48.3319 30.2898 48.4815 30.8333 48.4815 31.4318C48.4815 31.8598 48.4039 32.2784 48.2486 32.6875C48.0971 33.0928 47.8319 33.5455 47.4531 34.0455C47.0781 34.5417 46.5573 35.1477 45.8906 35.8636L43.277 38.6591V38.75H48.6861V40H41.3452Z" fill="#5B35AE"/>
</g>
<defs>
<filter id="filter0_dd_31_4442" x="0.984375" y="0" width="88" height="88" filterUnits="userSpaceOnUse" color-interpolation-filters="sRGB">
<feFlood flood-opacity="0" result="BackgroundImageFix"/>
<feColorMatrix in="SourceAlpha" type="matrix" values="0 0 0 0 0 0 0 0 0 0 0 0 0 0 0 0 0 0 127 0" result="hardAlpha"/>
<feMorphology radius="3" operator="erode" in="SourceAlpha" result="effect1_dropShadow_31_4442"/>
<feOffset dy="10"/>
<feGaussianBlur stdDeviation="7.5"/>
<feComposite in2="hardAlpha" operator="out"/>
<feColorMatrix type="matrix" values="0 0 0 0 0 0 0 0 0 0 0 0 0 0 0 0 0 0 0.1 0"/>
<feBlend mode="normal" in2="BackgroundImageFix" result="effect1_dropShadow_31_4442"/>
<feColorMatrix in="SourceAlpha" type="matrix" values="0 0 0 0 0 0 0 0 0 0 0 0 0 0 0 0 0 0 127 0" result="hardAlpha"/>
<feMorphology radius="4" operator="erode" in="SourceAlpha" result="effect2_dropShadow_31_4442"/>
<feOffset dy="4"/>
<feGaussianBlur stdDeviation="3"/>
<feComposite in2="hardAlpha" operator="out"/>
<feColorMatrix type="matrix" values="0 0 0 0 0 0 0 0 0 0 0 0 0 0 0 0 0 0 0.1 0"/>
<feBlend mode="normal" in2="effect1_dropShadow_31_4442" result="effect2_dropShadow_31_4442"/>
<feBlend mode="normal" in="SourceGraphic" in2="effect2_dropShadow_31_4442" result="shape"/>
</filter>
</defs>
</svg>
