<svg width="48" height="49" viewBox="0 0 48 49" fill="none" xmlns="http://www.w3.org/2000/svg">
<rect y="0.5" width="48" height="48" rx="4" fill="#F6EBFF"/>
<path d="M30.0009 16.98C28.4096 15.3887 26.2513 14.4947 24.0009 14.4947C21.7505 14.4947 19.5922 15.3887 18.0009 16.98C16.4096 18.5713 15.5156 20.7295 15.5156 22.98C15.5156 25.2304 16.4096 27.3887 18.0009 28.98L23.2709 34.26C23.3639 34.3537 23.4745 34.4281 23.5963 34.4789C23.7182 34.5296 23.8489 34.5558 23.9809 34.5558C24.1129 34.5558 24.2436 34.5296 24.3655 34.4789C24.4873 34.4281 24.5979 34.3537 24.6909 34.26L30.0009 28.93C31.5856 27.3453 32.4758 25.196 32.4758 22.955C32.4758 20.7139 31.5856 18.5646 30.0009 16.98ZM28.5709 27.5L24.0009 32.09L19.4309 27.5C18.5281 26.5963 17.9134 25.4452 17.6646 24.1923C17.4158 22.9393 17.5441 21.6407 18.0332 20.4607C18.5223 19.2806 19.3503 18.272 20.4125 17.5624C21.4748 16.8529 22.7235 16.4742 24.0009 16.4742C25.2783 16.4742 26.5271 16.8529 27.5893 17.5624C28.6515 18.272 29.4795 19.2806 29.9686 20.4607C30.4577 21.6407 30.586 22.9393 30.3372 24.1923C30.0884 25.4452 29.4738 26.5963 28.5709 27.5ZM21.0009 19.91C20.1936 20.7197 19.7403 21.8165 19.7403 22.96C19.7403 24.1034 20.1936 25.2002 21.0009 26.01C21.6007 26.6108 22.3645 27.0211 23.1966 27.1894C24.0286 27.3577 24.8919 27.2766 25.678 26.9561C26.4641 26.6357 27.1381 26.0903 27.6154 25.3882C28.0927 24.6862 28.352 23.8588 28.3609 23.01C28.3654 22.4432 28.2562 21.8812 28.0398 21.3574C27.8234 20.8335 27.5041 20.3583 27.1009 19.96C26.7046 19.5546 26.232 19.2315 25.7103 19.0094C25.1887 18.7874 24.6282 18.6706 24.0613 18.666C23.4944 18.6614 22.9321 18.7689 22.4069 18.9824C21.8816 19.1959 21.4038 19.5111 21.0009 19.91ZM25.6909 24.59C25.3119 24.9747 24.8111 25.2159 24.274 25.2722C23.7369 25.3286 23.197 25.1966 22.7464 24.8989C22.2959 24.6012 21.9627 24.1562 21.8039 23.6401C21.6451 23.1239 21.6706 22.5686 21.8759 22.0691C22.0812 21.5696 22.4536 21.157 22.9295 20.9017C23.4054 20.6464 23.9552 20.5644 24.4848 20.6696C25.0145 20.7748 25.4912 21.0607 25.8334 21.4785C26.1756 21.8963 26.3621 22.4199 26.3609 22.96C26.3464 23.5772 26.0874 24.1635 25.6409 24.59H25.6909Z" fill="#5B35AE"/>
</svg>
