<svg width="48" height="48" viewBox="0 0 48 48" fill="none" xmlns="http://www.w3.org/2000/svg">
<rect width="48" height="48" rx="4" fill="#F6EBFF"/>
<path d="M32.4809 27.4868L30.8309 25.8368C30.3391 25.3489 29.6752 25.0738 28.9824 25.0708C28.2896 25.0679 27.6234 25.3373 27.1274 25.821C26.8628 26.0872 26.5136 26.2528 26.1401 26.2893C25.7665 26.3259 25.3919 26.2311 25.0807 26.0213C23.8523 25.2015 22.7971 24.1483 21.9749 22.9215C21.7688 22.6068 21.6774 22.2307 21.7162 21.8565C21.755 21.4823 21.9216 21.133 22.1879 20.8673C22.6672 20.3708 22.9332 19.7065 22.9288 19.0164C22.9245 18.3263 22.6502 17.6654 22.1647 17.175L20.5147 15.525C20.0207 15.0327 19.3517 14.7563 18.6543 14.7563C17.9569 14.7563 17.2879 15.0327 16.7939 15.525L16.3192 16.0005C13.8442 18.4755 14.0294 23.679 19.1789 28.8255C22.2839 31.9313 25.4092 33.2318 27.9434 33.2318C28.6894 33.2566 29.4329 33.1327 30.1305 32.8673C30.8282 32.602 31.466 32.2004 32.0069 31.686L32.4824 31.2105C32.9756 30.7163 33.2525 30.0465 33.2522 29.3483C33.2519 28.6501 32.9745 27.9806 32.4809 27.4868ZM31.4204 30.15L30.9449 30.6255C28.9949 32.5755 24.6907 32.2193 20.2379 27.7658C15.7852 23.3123 15.4282 19.005 17.3782 17.055L17.8499 16.5803C18.0623 16.3686 18.3499 16.2498 18.6498 16.2498C18.9496 16.2498 19.2373 16.3686 19.4497 16.5803L21.0997 18.2303C21.3082 18.4398 21.4266 18.7226 21.4295 19.0183C21.4325 19.314 21.3197 19.5991 21.1154 19.8128C20.6086 20.3228 20.2925 20.9915 20.22 21.7068C20.1475 22.4221 20.323 23.1407 20.7172 23.742C21.6513 25.1399 22.8526 26.3394 24.2519 27.2715C24.8514 27.6657 25.5681 27.8423 26.2821 27.7717C26.9962 27.7011 27.6644 27.3877 28.1752 26.8838C28.3885 26.677 28.6744 26.5622 28.9714 26.564C29.2685 26.5658 29.5529 26.6842 29.7637 26.8935L31.4137 28.5435C31.52 28.6483 31.6046 28.7731 31.6625 28.9107C31.7204 29.0483 31.7506 29.196 31.7512 29.3454C31.7518 29.4947 31.7229 29.6426 31.6662 29.7807C31.6094 29.9188 31.5259 30.0443 31.4204 30.15Z" fill="#473391"/>
</svg>
