<svg width="48" height="48" viewBox="0 0 48 48" fill="none" xmlns="http://www.w3.org/2000/svg">
<rect width="48" height="48" rx="4" fill="#F6EBFF"/>
<path d="M33.78 18.52C33.4638 17.4996 32.8291 16.6073 31.9689 15.9739C31.1087 15.3404 30.0683 14.9991 29 15H19C17.9317 14.9991 16.8913 15.3404 16.0311 15.9739C15.1709 16.6073 14.5362 17.4996 14.22 18.52C14.0757 19.0001 14.0016 19.4986 14 20V28C14.0005 29.3259 14.5275 30.5974 15.4651 31.535C16.4026 32.4725 17.6741 32.9995 19 33H29C30.3259 32.9995 31.5974 32.4725 32.5349 31.535C33.4725 30.5974 33.9995 29.3259 34 28V20C33.9984 19.4986 33.9243 19.0001 33.78 18.52ZM19 17H29C29.7117 17.0021 30.3996 17.2565 30.9416 17.7178C31.4835 18.1792 31.8443 18.8177 31.96 19.52L24 23.86L16.04 19.52C16.1557 18.8177 16.5165 18.1792 17.0584 17.7178C17.6004 17.2565 18.2883 17.0021 19 17ZM32 28C31.9976 28.7949 31.6808 29.5566 31.1187 30.1187C30.5566 30.6808 29.7949 30.9976 29 31H19C18.2051 30.9976 17.4434 30.6808 16.8813 30.1187C16.3192 29.5566 16.0024 28.7949 16 28V21.78L23.52 25.88C23.6677 25.959 23.8325 26.0003 24 26.0003C24.1675 26.0003 24.3323 25.959 24.48 25.88L32 21.78V28Z" fill="#473391"/>
</svg>
