<svg width="1440" height="1956" viewBox="0 0 1440 1956" fill="none" xmlns="http://www.w3.org/2000/svg">
<rect width="1425" height="927" transform="translate(17 113)" fill="#F3F2F8"/>
<mask id="mask0_29_2977" style="mask-type:alpha" maskUnits="userSpaceOnUse" x="-428" y="66" width="2608" height="1798">
<path d="M1022.88 667.104C1022.88 863.45 893.061 1022.62 732.921 1022.62C572.78 1022.62 -427.762 333.957 -427.762 137.611C-427.762 -58.7358 1009.82 211.572 1169.96 211.572C1330.1 211.572 1022.88 470.757 1022.88 667.104Z" fill="url(#paint0_linear_29_2977)"/>
<path d="M1135.5 1508.47C1135.5 1704.82 1005.68 1863.99 845.54 1863.99C685.399 1863.99 -206.723 1818.22 -206.723 1621.87C-206.723 1425.53 -140.778 960.428 19.3625 960.428C179.503 960.428 1135.5 1312.12 1135.5 1508.47Z" fill="url(#paint1_radial_29_2977)"/>
<path d="M1464.43 1204.64C1896.52 1594.89 1696.92 1398.78 2068.04 1388.9C2126.26 1400.11 2225.1 1400.64 2154.68 1313.06C2066.66 1203.57 2095.03 1126.24 1985.03 1006.95C1875.02 887.668 1808.03 766.476 1641.96 576.756C1475.88 387.036 1463.11 543.428 1275.88 528.602C1088.65 513.777 1174.05 537.32 915.721 812.596C657.396 1087.87 1032.34 814.391 1464.43 1204.64Z" fill="#D9D9D9"/>
<path d="M1056.5 1281.48C478.261 1349.56 757.295 1328.55 520.284 1614.31C473.498 1650.73 407.998 1724.75 520.284 1729.45C660.642 1735.34 700.144 1807.62 862.353 1803.41C1024.56 1799.21 1159.88 1828.63 1412.02 1828.63C1664.16 1828.63 1554.9 1716 1689.37 1584.89C1823.85 1453.78 1749.88 1502.53 1712.9 1126.84C1675.92 751.151 1634.74 1213.41 1056.5 1281.48Z" fill="#D9D9D9"/>
</mask>
<g mask="url(#mask0_29_2977)">
<line x1="-31.0625" y1="1074.73" x2="1984.37" y2="1074.73" stroke="black" stroke-opacity="0.09" stroke-width="1.68093"/>
<line x1="-31.0625" y1="1505.05" x2="1984.37" y2="1505.05" stroke="black" stroke-opacity="0.09" stroke-width="1.68093"/>
<line x1="-31.0625" y1="644.413" x2="1984.37" y2="644.413" stroke="black" stroke-opacity="0.09" stroke-width="1.68093"/>
<line x1="-31.0625" y1="214.093" x2="1984.37" y2="214.093" stroke="black" stroke-opacity="0.09" stroke-width="1.68093"/>
<line x1="-31.0625" y1="1720.21" x2="1984.37" y2="1720.21" stroke="black" stroke-opacity="0.09" stroke-width="1.68093"/>
<line x1="-31.0625" y1="859.57" x2="1984.37" y2="859.57" stroke="black" stroke-opacity="0.09" stroke-width="1.68093"/>
<line x1="-31.0625" y1="1289.89" x2="1984.37" y2="1289.89" stroke="black" stroke-opacity="0.09" stroke-width="1.68093"/>
<line x1="-31.0625" y1="429.253" x2="1984.37" y2="429.253" stroke="black" stroke-opacity="0.09" stroke-width="1.68093"/>
<line x1="-31.0625" y1="1827.79" x2="1984.37" y2="1827.79" stroke="black" stroke-opacity="0.09" stroke-width="1.68093"/>
<line x1="-31.0625" y1="967.15" x2="1984.37" y2="967.15" stroke="black" stroke-opacity="0.09" stroke-width="1.68093"/>
<line x1="-31.0625" y1="1397.47" x2="1984.37" y2="1397.47" stroke="black" stroke-opacity="0.09" stroke-width="1.68093"/>
<line x1="-31.0625" y1="1073.83" x2="1984.37" y2="1073.83" stroke="black" stroke-opacity="0.09" stroke-width="1.68093"/>
<line x1="-31.0625" y1="106.515" x2="1984.37" y2="106.515" stroke="black" stroke-opacity="0.09" stroke-width="1.68093"/>
<line x1="-31.0625" y1="1612.63" x2="1984.37" y2="1612.63" stroke="black" stroke-opacity="0.09" stroke-width="1.68093"/>
<line x1="-31.0625" y1="751.99" x2="1984.37" y2="751.99" stroke="black" stroke-opacity="0.09" stroke-width="1.68093"/>
<line x1="-31.0625" y1="1182.31" x2="1984.37" y2="1182.31" stroke="black" stroke-opacity="0.09" stroke-width="1.68093"/>
<line x1="-31.0625" y1="321.673" x2="1984.37" y2="321.673" stroke="black" stroke-opacity="0.09" stroke-width="1.68093"/>
<line x1="644.365" y1="113.234" x2="644.365" y2="1280.64" stroke="black" stroke-opacity="0.09" stroke-width="1.2607"/>
<line x1="321.626" y1="113.234" x2="321.626" y2="1280.64" stroke="black" stroke-opacity="0.09" stroke-width="1.2607"/>
<line x1="967.099" y1="113.234" x2="967.099" y2="1280.64" stroke="black" stroke-opacity="0.09" stroke-width="1.2607"/>
<line x1="1289.84" y1="113.234" x2="1289.84" y2="1280.64" stroke="black" stroke-opacity="0.09" stroke-width="1.2607"/>
<line x1="160.255" y1="113.234" x2="160.255" y2="1280.64" stroke="black" stroke-opacity="0.09" stroke-width="1.2607"/>
<line x1="805.732" y1="113.234" x2="805.732" y2="1280.64" stroke="black" stroke-opacity="0.09" stroke-width="1.2607"/>
<line x1="482.994" y1="113.234" x2="482.994" y2="1280.64" stroke="black" stroke-opacity="0.09" stroke-width="1.2607"/>
<line x1="1128.47" y1="113.234" x2="1128.47" y2="1280.64" stroke="black" stroke-opacity="0.09" stroke-width="1.2607"/>
<line x1="79.5718" y1="113.234" x2="79.5717" y2="1280.64" stroke="black" stroke-opacity="0.09" stroke-width="1.2607"/>
<line x1="725.048" y1="113.234" x2="725.048" y2="1280.64" stroke="black" stroke-opacity="0.09" stroke-width="1.2607"/>
<line x1="402.306" y1="113.234" x2="402.306" y2="1280.64" stroke="black" stroke-opacity="0.09" stroke-width="1.2607"/>
<line x1="1047.79" y1="113.234" x2="1047.79" y2="1280.64" stroke="black" stroke-opacity="0.09" stroke-width="1.2607"/>
<line x1="1370.52" y1="113.234" x2="1370.52" y2="1280.64" stroke="black" stroke-opacity="0.09" stroke-width="1.2607"/>
<line x1="240.943" y1="113.234" x2="240.943" y2="1280.64" stroke="black" stroke-opacity="0.09" stroke-width="1.2607"/>
<line x1="886.419" y1="113.234" x2="886.419" y2="1280.64" stroke="black" stroke-opacity="0.09" stroke-width="1.2607"/>
<line x1="563.677" y1="113.234" x2="563.677" y2="1280.64" stroke="black" stroke-opacity="0.09" stroke-width="1.2607"/>
<line x1="1209.15" y1="113.234" x2="1209.15" y2="1280.64" stroke="black" stroke-opacity="0.09" stroke-width="1.2607"/>
<g opacity="0.7">
<rect x="1107.71" y="1290.13" width="106.968" height="106.968" fill="#2563EB" fill-opacity="0.15"/>
<rect x="569.812" y="1290.13" width="106.968" height="106.968" fill="#2563EB" fill-opacity="0.15"/>
<rect x="676.781" y="431.324" width="106.968" height="105.44" fill="#2563EB" fill-opacity="0.15"/>
<rect x="1430.14" y="645.26" width="106.968" height="105.44" fill="#2563EB" fill-opacity="0.11"/>
<rect x="568.285" y="538.292" width="106.968" height="105.44" fill="#2563EB" fill-opacity="0.15"/>
<rect x="1430.14" y="538.292" width="106.968" height="105.44" fill="#2563EB" fill-opacity="0.11"/>
<rect x="568.285" y="431.324" width="106.968" height="105.44" fill="#2563EB" fill-opacity="0.15"/>
<rect x="462.844" y="1290.13" width="106.968" height="106.968" fill="#2563EB" fill-opacity="0.15"/>
<rect x="462.844" y="1397.09" width="106.968" height="108.496" fill="#2563EB" fill-opacity="0.15"/>
<rect x="1329.18" y="860.827" width="106.968" height="106.968" fill="#5C64B4" fill-opacity="0.15"/>
<rect x="1216.21" y="745.578" width="106.968" height="106.968" fill="#5C64B4" fill-opacity="0.15"/>
<rect x="1215.04" y="859.299" width="106.968" height="108.496" fill="#5C64B4" fill-opacity="0.15"/>
<rect x="247.379" y="428.267" width="108.496" height="110.025" fill="#2563EB" fill-opacity="0.15"/>
<rect x="138.883" y="321.299" width="108.496" height="106.968" fill="#5C64B4" fill-opacity="0.15"/>
<rect x="23.9141" y="322.827" width="108.496" height="106.968" fill="#5C64B4" fill-opacity="0.15"/>
<rect x="138.883" y="437.267" width="108.496" height="110.025" fill="#5C64B4" fill-opacity="0.15"/>
<rect x="247.379" y="643.732" width="106.968" height="108.496" fill="#2563EB" fill-opacity="0.15"/>
</g>
</g>
<defs>
<linearGradient id="paint0_linear_29_2977" x1="264.782" y1="235.945" x2="870.757" y2="558.684" gradientUnits="userSpaceOnUse">
<stop stop-color="white"/>
<stop offset="1" stop-color="white" stop-opacity="0"/>
</linearGradient>
<radialGradient id="paint1_radial_29_2977" cx="0" cy="0" r="1" gradientUnits="userSpaceOnUse" gradientTransform="translate(218.553 1516.82) rotate(-29.3932) scale(1036.02 1780.63)">
<stop stop-color="white"/>
<stop offset="1" stop-color="white" stop-opacity="0"/>
</radialGradient>
</defs>
</svg>
