<svg width="1440" height="1956" viewBox="0 0 1440 1956" fill="none" xmlns="http://www.w3.org/2000/svg">
<mask id="mask0_29_2977" style="mask-type:alpha" maskUnits="userSpaceOnUse" x="-445" y="66" width="2608" height="1798">
<path d="M1005.88 667.104C1005.88 863.45 876.061 1022.62 715.921 1022.62C555.78 1022.62 -444.762 333.957 -444.762 137.611C-444.762 -58.7358 992.822 211.572 1152.96 211.572C1313.1 211.572 1005.88 470.757 1005.88 667.104Z" fill="url(#paint0_linear_29_2977)"/>
<path d="M1118.5 1508.47C1118.5 1704.82 988.681 1863.99 828.54 1863.99C668.399 1863.99 -223.723 1818.22 -223.723 1621.87C-223.723 1425.53 -157.778 960.428 2.36247 960.428C162.503 960.428 1118.5 1312.12 1118.5 1508.47Z" fill="url(#paint1_radial_29_2977)"/>
<path d="M1447.43 1204.64C1879.52 1594.89 1679.92 1398.78 2051.04 1388.9C2109.26 1400.11 2208.1 1400.64 2137.68 1313.06C2049.66 1203.57 2078.03 1126.24 1968.03 1006.95C1858.02 887.668 1791.03 766.476 1624.96 576.756C1458.88 387.036 1446.11 543.428 1258.88 528.602C1071.65 513.777 1157.05 537.32 898.721 812.596C640.396 1087.87 1015.34 814.391 1447.43 1204.64Z" fill="#D9D9D9"/>
<path d="M1039.5 1281.48C461.261 1349.56 740.295 1328.55 503.284 1614.31C456.498 1650.73 390.998 1724.75 503.284 1729.45C643.642 1735.34 683.144 1807.62 845.353 1803.41C1007.56 1799.21 1142.88 1828.63 1395.02 1828.63C1647.16 1828.63 1537.9 1716 1672.37 1584.89C1806.85 1453.78 1732.88 1502.53 1695.9 1126.84C1658.92 751.151 1617.74 1213.41 1039.5 1281.48Z" fill="#D9D9D9"/>
</mask>
<g mask="url(#mask0_29_2977)">
<line x1="-48.0625" y1="1074.73" x2="1967.37" y2="1074.73" stroke="black" stroke-opacity="0.09" stroke-width="1.68093"/>
<line x1="-48.0625" y1="1505.05" x2="1967.37" y2="1505.05" stroke="black" stroke-opacity="0.09" stroke-width="1.68093"/>
<line x1="-48.0625" y1="644.413" x2="1967.37" y2="644.413" stroke="black" stroke-opacity="0.09" stroke-width="1.68093"/>
<line x1="-48.0625" y1="214.093" x2="1967.37" y2="214.093" stroke="black" stroke-opacity="0.09" stroke-width="1.68093"/>
<line x1="-48.0625" y1="1720.21" x2="1967.37" y2="1720.21" stroke="black" stroke-opacity="0.09" stroke-width="1.68093"/>
<line x1="-48.0625" y1="859.57" x2="1967.37" y2="859.57" stroke="black" stroke-opacity="0.09" stroke-width="1.68093"/>
<line x1="-48.0625" y1="1289.89" x2="1967.37" y2="1289.89" stroke="black" stroke-opacity="0.09" stroke-width="1.68093"/>
<line x1="-48.0625" y1="429.253" x2="1967.37" y2="429.253" stroke="black" stroke-opacity="0.09" stroke-width="1.68093"/>
<line x1="-48.0625" y1="1827.79" x2="1967.37" y2="1827.79" stroke="black" stroke-opacity="0.09" stroke-width="1.68093"/>
<line x1="-48.0625" y1="967.15" x2="1967.37" y2="967.15" stroke="black" stroke-opacity="0.09" stroke-width="1.68093"/>
<line x1="-48.0625" y1="1397.47" x2="1967.37" y2="1397.47" stroke="black" stroke-opacity="0.09" stroke-width="1.68093"/>
<line x1="-48.0625" y1="1073.83" x2="1967.37" y2="1073.83" stroke="black" stroke-opacity="0.09" stroke-width="1.68093"/>
<line x1="-48.0625" y1="106.515" x2="1967.37" y2="106.515" stroke="black" stroke-opacity="0.09" stroke-width="1.68093"/>
<line x1="-48.0625" y1="1612.63" x2="1967.37" y2="1612.63" stroke="black" stroke-opacity="0.09" stroke-width="1.68093"/>
<line x1="-48.0625" y1="751.99" x2="1967.37" y2="751.99" stroke="black" stroke-opacity="0.09" stroke-width="1.68093"/>
<line x1="-48.0625" y1="1182.31" x2="1967.37" y2="1182.31" stroke="black" stroke-opacity="0.09" stroke-width="1.68093"/>
<line x1="-48.0625" y1="321.673" x2="1967.37" y2="321.673" stroke="black" stroke-opacity="0.09" stroke-width="1.68093"/>
<line x1="627.365" y1="113.234" x2="627.365" y2="1280.64" stroke="black" stroke-opacity="0.09" stroke-width="1.2607"/>
<line x1="304.626" y1="113.234" x2="304.626" y2="1280.64" stroke="black" stroke-opacity="0.09" stroke-width="1.2607"/>
<line x1="950.099" y1="113.234" x2="950.099" y2="1280.64" stroke="black" stroke-opacity="0.09" stroke-width="1.2607"/>
<line x1="1272.84" y1="113.234" x2="1272.84" y2="1280.64" stroke="black" stroke-opacity="0.09" stroke-width="1.2607"/>
<line x1="143.255" y1="113.234" x2="143.255" y2="1280.64" stroke="black" stroke-opacity="0.09" stroke-width="1.2607"/>
<line x1="788.732" y1="113.234" x2="788.732" y2="1280.64" stroke="black" stroke-opacity="0.09" stroke-width="1.2607"/>
<line x1="465.994" y1="113.234" x2="465.994" y2="1280.64" stroke="black" stroke-opacity="0.09" stroke-width="1.2607"/>
<line x1="1111.47" y1="113.234" x2="1111.47" y2="1280.64" stroke="black" stroke-opacity="0.09" stroke-width="1.2607"/>
<line x1="1434.21" y1="113.234" x2="1434.21" y2="1280.64" stroke="black" stroke-opacity="0.09" stroke-width="1.2607"/>
<line x1="62.5718" y1="113.234" x2="62.5717" y2="1280.64" stroke="black" stroke-opacity="0.09" stroke-width="1.2607"/>
<line x1="708.048" y1="113.234" x2="708.048" y2="1280.64" stroke="black" stroke-opacity="0.09" stroke-width="1.2607"/>
<line x1="385.306" y1="113.234" x2="385.306" y2="1280.64" stroke="black" stroke-opacity="0.09" stroke-width="1.2607"/>
<line x1="1030.79" y1="113.234" x2="1030.79" y2="1280.64" stroke="black" stroke-opacity="0.09" stroke-width="1.2607"/>
<line x1="1353.52" y1="113.234" x2="1353.52" y2="1280.64" stroke="black" stroke-opacity="0.09" stroke-width="1.2607"/>
<line x1="223.943" y1="113.234" x2="223.943" y2="1280.64" stroke="black" stroke-opacity="0.09" stroke-width="1.2607"/>
<line x1="869.419" y1="113.234" x2="869.419" y2="1280.64" stroke="black" stroke-opacity="0.09" stroke-width="1.2607"/>
<line x1="546.677" y1="113.234" x2="546.677" y2="1280.64" stroke="black" stroke-opacity="0.09" stroke-width="1.2607"/>
<line x1="1192.15" y1="113.234" x2="1192.15" y2="1280.64" stroke="black" stroke-opacity="0.09" stroke-width="1.2607"/>
<g opacity="0.7">
<rect x="1090.71" y="1290.13" width="106.968" height="106.968" fill="#2563EB" fill-opacity="0.15"/>
<rect x="552.812" y="1290.13" width="106.968" height="106.968" fill="#2563EB" fill-opacity="0.15"/>
<rect x="659.781" y="431.324" width="106.968" height="105.44" fill="#2563EB" fill-opacity="0.15"/>
<rect x="1413.14" y="645.26" width="106.968" height="105.44" fill="#2563EB" fill-opacity="0.11"/>
<rect x="551.285" y="538.292" width="106.968" height="105.44" fill="#2563EB" fill-opacity="0.15"/>
<rect x="1413.14" y="538.292" width="106.968" height="105.44" fill="#2563EB" fill-opacity="0.11"/>
<rect x="551.285" y="431.324" width="106.968" height="105.44" fill="#2563EB" fill-opacity="0.15"/>
<rect x="445.844" y="1290.13" width="106.968" height="106.968" fill="#2563EB" fill-opacity="0.15"/>
<rect x="445.844" y="1397.09" width="106.968" height="108.496" fill="#2563EB" fill-opacity="0.15"/>
<rect x="1312.18" y="860.827" width="106.968" height="106.968" fill="#5C64B4" fill-opacity="0.15"/>
<rect x="1199.21" y="745.578" width="106.968" height="106.968" fill="#5C64B4" fill-opacity="0.15"/>
<rect x="1198.04" y="859.299" width="106.968" height="108.496" fill="#5C64B4" fill-opacity="0.15"/>
<rect x="230.379" y="428.267" width="108.496" height="110.025" fill="#2563EB" fill-opacity="0.15"/>
<rect x="121.883" y="321.299" width="108.496" height="106.968" fill="#5C64B4" fill-opacity="0.15"/>
<rect x="6.91406" y="322.827" width="108.496" height="106.968" fill="#5C64B4" fill-opacity="0.15"/>
<rect x="121.883" y="437.267" width="108.496" height="110.025" fill="#5C64B4" fill-opacity="0.15"/>
<rect x="230.379" y="643.732" width="106.968" height="108.496" fill="#2563EB" fill-opacity="0.15"/>
</g>
</g>
<defs>
<linearGradient id="paint0_linear_29_2977" x1="247.782" y1="235.945" x2="853.757" y2="558.684" gradientUnits="userSpaceOnUse">
<stop stop-color="white"/>
<stop offset="1" stop-color="white" stop-opacity="0"/>
</linearGradient>
<radialGradient id="paint1_radial_29_2977" cx="0" cy="0" r="1" gradientUnits="userSpaceOnUse" gradientTransform="translate(201.553 1516.82) rotate(-29.3932) scale(1036.02 1780.63)">
<stop stop-color="white"/>
<stop offset="1" stop-color="white" stop-opacity="0"/>
</radialGradient>
</defs>
</svg>
